<?xml version="1.0" encoding="utf-8"?>
<!-- Generator: Adobe Illustrator 23.0.6, SVG Export Plug-In . SVG Version: 6.00 Build 0)  -->
<svg version="1.1" id="Layer_1" xmlns="http://www.w3.org/2000/svg" xmlns:xlink="http://www.w3.org/1999/xlink" x="0px" y="0px"
	 viewBox="0 0 120 120" style="enable-background:new 0 0 120 120;" xml:space="preserve">
<style type="text/css">
	.st0{fill:#3E64FF;}
</style>
<path class="st0" d="M110.6,22.5H105v-1.9c0-1.5-0.6-2.9-1.6-4c-1.1-1.1-2.5-1.6-4-1.6V5.6c0-0.5-0.2-1-0.5-1.3
	c-0.4-0.4-0.8-0.5-1.3-0.5H86.3c-0.5,0-1,0.2-1.3,0.5c-0.4,0.4-0.5,0.8-0.5,1.3V15c-1.5,0-2.9,0.6-4,1.6c-1.1,1.1-1.6,2.5-1.6,4v1.9
	H41.3v-1.9c0-1.5-0.6-2.9-1.6-4c-1.1-1.1-2.5-1.6-4-1.6V5.6c0-0.5-0.2-1-0.5-1.3c-0.4-0.4-0.8-0.5-1.3-0.5H22.5
	c-0.5,0-1,0.2-1.3,0.5c-0.4,0.4-0.5,0.8-0.5,1.3V15c-1.5,0-2.9,0.6-4,1.6c-1.1,1.1-1.6,2.5-1.6,4v1.9H9.4c-1.5,0-2.9,0.6-4,1.6
	c-1.1,1.1-1.6,2.5-1.6,4v15c0,1.2,0.4,2.3,1,3.2c0.7,0.9,1.6,1.7,2.7,2v62.2c0,1.5,0.6,2.9,1.6,4c1.1,1.1,2.5,1.6,4,1.6h93.8
	c1.5,0,2.9-0.6,4-1.6c1.1-1.1,1.6-2.5,1.6-4V48.4c1.1-0.4,2-1.1,2.7-2c0.7-0.9,1-2.1,1-3.2v-15c0-1.5-0.6-2.9-1.6-4
	C113.5,23.1,112.1,22.5,110.6,22.5z M88.1,7.5h7.5V15h-7.5V7.5z M82.5,20.6c0-0.5,0.2-1,0.5-1.3c0.4-0.4,0.8-0.5,1.3-0.5h15
	c0.5,0,1,0.2,1.3,0.5c0.4,0.4,0.5,0.8,0.5,1.3v1.9H82.5V20.6z M24.4,7.5h7.5V15h-7.5V7.5z M18.8,20.6c0-0.5,0.2-1,0.5-1.3
	c0.4-0.4,0.8-0.5,1.3-0.5h15c0.5,0,1,0.2,1.3,0.5c0.4,0.4,0.5,0.8,0.5,1.3v1.9H18.8V20.6z M108.8,110.6c0,0.5-0.2,1-0.5,1.3
	c-0.4,0.4-0.8,0.5-1.3,0.5H13.1c-0.5,0-1-0.2-1.3-0.5c-0.4-0.4-0.5-0.8-0.5-1.3V48.8h97.5V110.6z M112.5,43.1c0,0.5-0.2,1-0.5,1.3
	c-0.4,0.4-0.8,0.5-1.3,0.5H9.4c-0.5,0-1-0.2-1.3-0.5c-0.4-0.4-0.5-0.8-0.5-1.3v-15c0-0.5,0.2-1,0.5-1.3c0.4-0.4,0.8-0.5,1.3-0.5
	h101.3c0.5,0,1,0.2,1.3,0.5c0.4,0.4,0.5,0.8,0.5,1.3V43.1z"/>
<path class="st0" d="M20.6,86.3h7.5v7.5c0,0.5,0.2,1,0.5,1.3c0.4,0.4,0.8,0.5,1.3,0.5h7.5c0.5,0,1-0.2,1.3-0.5
	c0.4-0.4,0.5-0.8,0.5-1.3v-7.5h7.5c0.5,0,1-0.2,1.3-0.5c0.4-0.4,0.5-0.8,0.5-1.3v-7.5c0-0.5-0.2-1-0.5-1.3c-0.4-0.4-0.8-0.5-1.3-0.5
	h-7.5v-7.5c0-0.5-0.2-1-0.5-1.3c-0.4-0.4-0.8-0.5-1.3-0.5H30c-0.5,0-1,0.2-1.3,0.5c-0.4,0.4-0.5,0.8-0.5,1.3V75h-7.5
	c-0.5,0-1,0.2-1.3,0.5c-0.4,0.4-0.5,0.8-0.5,1.3v7.5c0,0.5,0.2,1,0.5,1.3C19.7,86.1,20.1,86.3,20.6,86.3z M22.5,78.8H30
	c0.5,0,1-0.2,1.3-0.5c0.4-0.4,0.5-0.8,0.5-1.3v-7.5h3.8v7.5c0,0.5,0.2,1,0.5,1.3c0.4,0.4,0.8,0.5,1.3,0.5H45v3.8h-7.5
	c-0.5,0-1,0.2-1.3,0.5c-0.4,0.4-0.5,0.8-0.5,1.3v7.5h-3.8v-7.5c0-0.5-0.2-1-0.5-1.3c-0.4-0.4-0.8-0.5-1.3-0.5h-7.5V78.8z"/>
<path class="st0" d="M73.1,86.3h26.3c0.5,0,1-0.2,1.3-0.5c0.4-0.4,0.5-0.8,0.5-1.3v-7.5c0-0.5-0.2-1-0.5-1.3
	c-0.4-0.4-0.8-0.5-1.3-0.5H73.1c-0.5,0-1,0.2-1.3,0.5c-0.4,0.4-0.5,0.8-0.5,1.3v7.5c0,0.5,0.2,1,0.5,1.3
	C72.2,86.1,72.6,86.3,73.1,86.3z M75,78.8h22.5v3.8H75V78.8z"/>
</svg>
