<?xml version="1.0" encoding="utf-8"?>
<!-- Generator: Adobe Illustrator 23.0.6, SVG Export Plug-In . SVG Version: 6.00 Build 0)  -->
<svg version="1.1" id="Layer_1" xmlns="http://www.w3.org/2000/svg" xmlns:xlink="http://www.w3.org/1999/xlink" x="0px" y="0px"
	 viewBox="0 0 120 120" style="enable-background:new 0 0 120 120;" xml:space="preserve">
<style type="text/css">
	.st0{fill:#3E64FF;}
</style>
<path class="st0" d="M83.3,99c-0.1,0.1-0.4,0.4-0.7,0.7c-0.3,0.3-0.3,0.7,0,1c0.1,0.1,0.4,0.1,0.6,0.1c0.1,0,0.3,0,0.4,0
	c0.1-0.3,0.4-0.6,0.7-0.9c0.3-0.3,0.3-0.7,0-1C84,98.7,83.6,98.7,83.3,99z"/>
<path class="st0" d="M89.3,92.5c-0.3-0.3-0.7-0.1-1,0.1c-0.9,1.3-1.7,2.5-2.6,3.6c-0.1,0.3-0.1,0.7,0.1,1c0.1,0.1,0.3,0.1,0.4,0.1
	c0.1,0,0.4-0.1,0.6-0.3c0.9-1.2,1.7-2.3,2.6-3.6C89.8,93.3,89.6,92.7,89.3,92.5z"/>
<path class="st0" d="M88.5,84c0.1,0,0.1,0,0.3,0c0.3,0,0.6-0.1,0.6-0.3c1.2-2.9,1.9-5.9,2.3-9c0.1-0.4-0.1-0.9-0.6-0.9
	c-0.4-0.1-0.9,0.1-0.9,0.6c-0.4,3-1.2,5.9-2.2,8.7C87.9,83.4,88,83.9,88.5,84z"/>
<path class="st0" d="M51.9,41.1c-15.2,0-27.5,12.4-27.5,27.8s12.3,27.8,27.5,27.8s27.5-12.4,27.5-27.8S67.1,41.1,51.9,41.1z
	 M51.9,93.5c-13.6,0-24.6-11.1-24.6-24.9c0-13.7,11-24.9,24.6-24.9c13.6,0,24.6,11.1,24.6,24.9C76.5,82.4,65.5,93.5,51.9,93.5z"/>
<path class="st0" d="M51.9,62.5c-3.5,0-6.4,2.9-6.4,6.4c0,3.5,2.9,6.4,6.4,6.4c3.5,0,6.4-2.9,6.4-6.4C58.3,65.3,55.4,62.5,51.9,62.5
	z M51.9,72.4c-2,0-3.6-1.7-3.6-3.8c0-2,1.6-3.8,3.6-3.8c2,0,3.6,1.7,3.6,3.8C55.5,70.7,53.9,72.4,51.9,72.4z"/>
<path class="st0" d="M63,74.2c-1-0.7-2.3-0.4-3,0.6c-0.7,1-0.6,2.3,0.4,3c0.4,0.3,0.9,0.4,1.3,0.4c0.7,0,1.3-0.3,1.7-0.9l0.1-0.1
	C64.2,76.2,64,74.9,63,74.2z"/>
<path class="st0" d="M48.3,59.1c0.1,0,0.4-0.1,0.7,0c1.2-0.4,1.7-1.6,1.4-2.7c-0.4-1.2-1.6-1.7-2.7-1.4h-0.1
	c-1.2,0.4-1.7,1.6-1.3,2.7C46.6,58.6,47.4,59.1,48.3,59.1z"/>
<path class="st0" d="M48.7,78.4h-0.1c-1.2-0.3-2.3,0.3-2.7,1.4c-0.3,1.2,0.3,2.3,1.4,2.7h0.1c0.3,0.1,0.4,0.1,0.7,0.1
	c1,0,1.7-0.6,1.9-1.6C50.5,80,49.9,78.8,48.7,78.4z"/>
<path class="st0" d="M63.6,60.1c-0.7-1-2-1.2-3-0.4c-0.9,0.7-1.2,2-0.4,3c0.3,0.7,1,1,1.7,1c0.4,0,0.9-0.1,1.3-0.4
	c1-0.7,1.3-2,0.6-3L63.6,60.1z"/>
<path class="st0" d="M39.8,66.4c-1.2,0-2.2,1-2.2,2.2v0.3c0,1.2,1,2.2,2.2,2.2c1.2,0,2.2-1,2.2-2.3v-0.1
	C41.9,67.4,40.9,66.4,39.8,66.4z"/>
<path class="st0" d="M51.9,48.3c-11.1,0-20.1,9.1-20.1,20.5c0,11.3,9,20.5,20.1,20.5C63,89.3,72,80.2,72,68.8
	C72.1,57.4,63,48.3,51.9,48.3z M51.9,87.9c-10.3,0-18.7-8.5-18.7-19.1s8.4-19.1,18.7-19.1c10.3,0,18.7,8.5,18.7,19.1
	S62.2,87.9,51.9,87.9z"/>
<path class="st0" d="M49,106c-0.7-0.3-1.6-0.1-2,0.6v0.1c-0.3,0.7-0.1,1.6,0.6,2c0.3,0.1,0.4,0.1,0.7,0.1c0.6,0,1-0.3,1.3-0.7V108
	C49.9,107.3,49.7,106.4,49,106z"/>
<path class="st0" d="M46.8,109.9c-0.7-0.3-1.6-0.1-2,0.6v0.1c-0.3,0.7-0.1,1.6,0.6,2c0.3,0.1,0.4,0.1,0.7,0.1c0.4,0,1-0.3,1.3-0.7
	v-0.1C47.7,111.2,47.6,110.3,46.8,109.9z"/>
<path class="st0" d="M51.3,102.2c-0.7-0.3-1.6-0.1-2,0.6v0.1c-0.4,0.7-0.1,1.4,0.6,1.9c0.3,0.1,0.4,0.1,0.7,0.1c0.4,0,1-0.3,1.3-0.7
	C52.2,103.5,52,102.7,51.3,102.2z"/>
<path class="st0" d="M17.3,93.4h-0.1c-0.7,0.1-1.2,1-1,1.7c0.3,0.6,0.9,1,1.4,1c0.1,0,0.3,0,0.3,0h0.1c0.7-0.1,1.2-1,1-1.7
	C18.9,93.7,18.1,93.3,17.3,93.4z"/>
<path class="st0" d="M21.8,92.2h-0.1c-0.9,0.1-1.2,1-1,1.7c0.1,0.6,0.9,1,1.4,1c0.1,0,0.3,0,0.4,0c0.7-0.1,1.2-1,1-1.7
	C23.4,92.5,22.6,92,21.8,92.2z"/>
<path class="st0" d="M26,91.1h-0.1c-0.7,0.1-1.2,1-1,1.7c0.3,0.6,0.9,1,1.4,1c0.1,0,0.3,0,0.3,0h0.1c0.7-0.1,1.2-1,1-1.7
	S26.7,90.9,26,91.1z"/>
<path class="st0" d="M17.2,68.8c0.4,0,1-0.3,1.3-0.7c0.3-0.7,0.1-1.6-0.6-2h-0.1c-0.7-0.4-1.4-0.1-1.9,0.6c-0.4,0.7-0.1,1.6,0.6,2
	C16.8,68.8,16.9,68.8,17.2,68.8z"/>
<path class="st0" d="M10.1,61.6H10c-0.7-0.3-1.6-0.1-2,0.6c-0.3,0.7-0.1,1.6,0.6,2h0.1c0.3,0.1,0.4,0.1,0.7,0.1c0.4,0,1-0.1,1.3-0.7
	C11,62.9,10.8,62,10.1,61.6z"/>
<path class="st0" d="M14,63.9h-0.1c-0.7-0.4-1.4-0.1-1.9,0.6c-0.4,0.7-0.1,1.6,0.6,2c0.3,0.1,0.4,0.1,0.7,0.1c0.4,0,1-0.3,1.3-0.7
	C14.9,65.2,14.7,64.3,14,63.9z"/>
<path class="st0" d="M76.5,97.6c0.7-0.1,1.2-1,1-1.7v-0.1c-0.1-0.7-1-1.2-1.7-1c-0.7,0.1-1.2,1-1,1.7v0.1c0.3,0.6,0.9,1,1.4,1
	C76.2,97.6,76.3,97.6,76.5,97.6z"/>
<path class="st0" d="M78.7,100c-0.1-0.7-1-1.2-1.7-1c-0.7,0.1-1.2,1-1,1.7v0.1c0.3,0.6,0.9,1,1.4,1c0.1,0,0.1,0,0.3,0
	c0.7-0.1,1.2-1,1-1.7V100z"/>
<path class="st0" d="M75.2,93.3c0.7-0.1,1.2-1,1-1.7v-0.1c-0.1-0.7-1-1.2-1.7-1c-0.7,0.1-1.2,1-1,1.7v0.1c0.3,0.6,0.9,1,1.4,1
	C75,93.3,75.2,93.3,75.2,93.3z"/>
<path class="st0" d="M26.6,37.4c-0.7,0.1-1.2,1-1,1.7v0.1c0.3,0.6,0.9,1,1.4,1c0.1,0,0.3,0,0.3,0c0.7-0.1,1.2-1,1-1.7v-0.1
	C28.2,37.7,27.3,37.3,26.6,37.4z"/>
<path class="st0" d="M24.4,35c0.3,0.6,0.9,1,1.4,1c0.1,0,0.3,0,0.3,0c0.7-0.1,1.2-1,1-1.7v-0.1c-0.1-0.7-1-1.2-1.7-1
	c-0.7,0.1-1.2,1-1,1.7V35z"/>
<path class="st0" d="M27.8,41.8c-0.7,0.1-1.2,1-1,1.7v0.1c0.3,0.6,0.9,1,1.4,1c0.1,0,0.3,0,0.3,0c0.7-0.1,1.2-1,1-1.7v-0.1
	C29.3,42.1,28.5,41.6,27.8,41.8z"/>
<path class="st0" d="M100.6,61.7c-0.1-0.3-0.4-0.6-0.9-0.4c-0.3,0.1-0.6,0.4-0.4,0.9c0.1,0.4,0.1,0.7,0.3,1c0.1,0.4,0.4,0.6,0.7,0.6
	c0.1,0,0.1,0,0-0.1c0.4-0.1,0.7-0.4,0.6-0.9C100.8,62.5,100.8,62,100.6,61.7z"/>
<path class="st0" d="M99.5,60.4c0.3-0.1,0.6-0.4,0.4-0.9c-0.3-0.9-0.6-1.6-0.9-2.5c-0.1-0.4-0.4-0.6-0.9-0.4
	c-0.4,0.1-0.6,0.4-0.4,0.9c0.3,0.7,0.6,1.4,0.9,2.3c0.1,0.3,0.4,0.4,0.7,0.4C99.5,60.3,99.5,60.3,99.5,60.4z"/>
<path class="st0" d="M58.7,18.5c-0.9-0.3-1.9-0.6-2.9-0.9c-0.4,0-0.9,0.1-0.9,0.6c0,0.4,0.1,0.7,0.6,0.9c1,0.3,2,0.6,2.9,0.9h0.1
	c0.3,0,0.6-0.1,0.6-0.6C59.3,19.1,59.1,18.7,58.7,18.5z"/>
<path class="st0" d="M117.3,68.7h-3.5l-0.3-4.2c-0.2-3.8-1.4-7.4-3.4-10.6l-0.6-4c-0.6-4-2.3-7.8-4.9-11l-5.9-7.1
	c0,0-0.1-0.1-0.1-0.1l0.7-1.2c0.9-1.7,0.6-3.9-0.7-5.2l-5.1-5.1c-1.4-1.3-3.5-1.6-5.2-0.7l-1.1,0.6l-7-5.8c-3.2-2.6-6.9-4.3-11-5.1
	l-4.8-0.7c0,0-0.1,0-0.1,0c-3-1.7-6.4-2.7-9.8-3l-3.9-0.3V1.4C50.5,0.6,49.9,0,49,0c-0.9,0-1.4,0.6-1.4,1.4V5l-9.1-0.7
	c-0.1,0-0.3,0-0.3,0c-1,0-1.9,0.6-2.5,1.4c-0.4,0.9-0.4,2,0,2.9l5.4,9.8C17.9,23.6,1.3,44.5,1.3,68.7C1.3,97,24,120,51.9,120
	c24.6,0,45.2-17.5,49.6-41.6l8.7,4.8c0.4,0.3,1,0.4,1.4,0.4c0.9,0,1.6-0.4,2.3-1c0.6-0.6,0.7-1.3,0.7-2.2l-0.6-8.8h3.4
	c0.7,0,1.3-0.6,1.3-1.4S118.1,68.7,117.3,68.7z M110.6,64.9l0.3,3.8h-3.3l2.7-5.9C110.4,63.5,110.5,64.2,110.6,64.9z M102.4,40.8
	c2.2,2.6,3.6,5.6,4.2,8.8l-1.7-1.7c-0.6-0.7-1.6-1-2.5-0.9L97,47.9l-0.3-0.4c-1.1-2-2.3-4-3.5-5.9l3.9-7.1L102.4,40.8z M89.5,22
	c0.6-0.3,1.3-0.1,1.7,0.3l5.1,5.1c0.4,0.4,0.6,1.2,0.3,1.7l-5.3,9.8c-3.3-4.3-7.1-8.1-11.5-11.4L89.5,22z M78.1,16.5l6.2,5.2
	l-7.2,3.9c-1.8-1.2-3.6-2.3-5.5-3.3l-0.4-0.1l0.7-5.5c0.1-0.9-0.3-1.9-0.9-2.5l-1.9-1.9C72.3,12.9,75.5,14.3,78.1,16.5z M54.2,8.4
	c0.6,0.1,1.2,0.1,1.8,0.2L50.5,11V8.1L54.2,8.4z M47.6,12.2c-0.8,0.1-1.6-0.3-2.1-1l-2-3.5l4,0.3v3.9C47.6,12,47.6,12.1,47.6,12.2z
	 M51.9,117.1c-26.2,0-47.6-21.7-47.7-48.4c0-23.2,16.2-43,38.5-47.5l1.5,2.6c0.4,0.7,0.9,1.3,1.4,1.9l5.5,5.5c2,2.2,4.5,3.8,7.2,4.9
	l4.3,1.9c8.2,3.5,14.7,10,18.2,18.2l1.9,4.3c1.2,2.7,2.9,5.2,4.9,7.2l5.5,5.5c0.5,0.5,1.1,1,1.8,1.4c0,0.1,0,0.1,0,0.2
	c-0.6,4.6-1.9,9.3-4,13.4c-0.1,0.4,0,0.9,0.3,1c0,0.1,0.1,0.1,0.3,0.1s0.4-0.1,0.7-0.4c2.1-4.3,3.6-8.8,4.2-13.6l2.7,1.5
	C94.9,100.2,75.3,117.1,51.9,117.1z M96.6,72.4c-0.4-0.3-0.9-0.6-1.3-1l-5.5-5.5c-1.9-1.9-3.3-4-4.3-6.4l-1.9-4.3
	c-3.9-9-10.8-16-19.8-19.8l-4.3-1.9c-2.5-1-4.5-2.5-6.4-4.3l-5.5-5.5c-0.4-0.4-0.7-0.9-1-1.3L38.2,7.2l3.6,0.3l2.5,4.4
	c0.7,1.2,1.9,1.9,3.2,1.9c0.6,0,1,0,1.6-0.3l9.4-4.2c3.2,1,6.1,2.7,8.6,5.1l2,2l-0.8,6c-1.4-0.7-2.9-1.3-4.4-1.9
	c-0.3-0.1-0.7,0-0.9,0.4c-0.1,0.3,0,0.7,0.4,0.9c1.7,0.6,3.3,1.3,4.9,2c0.1,0.2,0.3,0.4,0.6,0.6l1.3,0.7c10.3,5.5,18.5,13.7,24,24
	l0.2,0.5c0,0.1,0,0.2,0.1,0.3c0.9,1.6,1.6,3.2,2.3,4.9c0.1,0.3,0.4,0.4,0.7,0.4c0.1,0,0.1,0,0.1,0c0.4-0.3,0.6-0.6,0.4-1
	c-0.4-1-0.8-2-1.3-3l5.9-0.9l2,2c2.4,2.3,4.1,5.1,5,8.3l-4,8.8c-0.1,0.1-0.2,0.3-0.2,0.5l-0.1,0.1c-0.9,1.7-0.1,3.8,1.4,4.6l4.6,2.6
	l0.3,3.8L96.6,72.4z M111.4,75.4l-3.8-2.1c-0.7-0.4-1-1.1-1.1-1.8c0.1,0,0.2,0,0.3,0h4.2L111.4,75.4z"/>
</svg>
