<?xml version="1.0" encoding="utf-8"?>
<!-- Generator: Adobe Illustrator 23.0.6, SVG Export Plug-In . SVG Version: 6.00 Build 0)  -->
<svg version="1.1" id="Layer_1" xmlns="http://www.w3.org/2000/svg" xmlns:xlink="http://www.w3.org/1999/xlink" x="0px" y="0px"
	 viewBox="0 0 30 30" style="enable-background:new 0 0 30 30;" xml:space="preserve">
<style type="text/css">
	.st0{fill:#CCCCCC;}
</style>
<g>
	<g>
		<path class="st0" d="M29.2,23.1l-6.1-4c-0.8-0.5-1.8-0.3-2.4,0.4L19,21.8c-0.2,0.3-0.6,0.4-1,0.2l-0.3-0.2
			c-1.1-0.6-2.5-1.4-5.3-4.2s-3.6-4.2-4.2-5.3L8,12c-0.2-0.3-0.1-0.7,0.2-1l2.3-1.8c0.7-0.6,0.9-1.6,0.4-2.4l-4-6.1
			C6.3,0,5.3-0.2,4.5,0.3L1.9,1.8C1.1,2.2,0.6,3,0.3,3.9C-0.6,7.2,0.1,13,8.6,21.5c6.7,6.7,11.8,8.5,15.2,8.5c0.8,0,1.6-0.1,2.3-0.3
			c0.9-0.2,1.7-0.8,2.1-1.6l1.5-2.5C30.2,24.7,30,23.7,29.2,23.1z M28.9,25l-1.5,2.5c-0.3,0.6-0.9,1-1.5,1.2
			c-3.1,0.8-8.4,0.1-16.6-8c-8.1-8.1-8.8-13.5-8-16.6C1.5,3.5,1.9,3,2.5,2.6L5,1.1C5.3,0.9,5.8,1,6,1.3l2.2,3.3L10,7.4
			c0.2,0.3,0.1,0.8-0.2,1l-2.3,1.8c-0.7,0.5-0.9,1.5-0.5,2.2l0.2,0.3c0.6,1.2,1.4,2.6,4.3,5.5s4.4,3.7,5.5,4.3l0.3,0.2
			c0.8,0.4,1.7,0.2,2.2-0.5l1.8-2.3c0.2-0.3,0.7-0.4,1-0.2l6.1,4C29,24.2,29.1,24.7,28.9,25z"/>
		<path class="st0" d="M17,5c4.7,0,8.5,3.8,8.5,8.5c0,0.3,0.2,0.5,0.5,0.5s0.5-0.2,0.5-0.5C26.5,8.3,22.2,4,17,4
			c-0.3,0-0.5,0.2-0.5,0.5S16.7,5,17,5z"/>
		<path class="st0" d="M17,8c3,0,5.5,2.5,5.5,5.5c0,0.3,0.2,0.5,0.5,0.5s0.5-0.2,0.5-0.5C23.5,9.9,20.6,7,17,7
			c-0.3,0-0.5,0.2-0.5,0.5S16.7,8,17,8z"/>
		<path class="st0" d="M17,11c1.4,0,2.5,1.1,2.5,2.5c0,0.3,0.2,0.5,0.5,0.5s0.5-0.2,0.5-0.5c0-1.9-1.6-3.5-3.5-3.5
			c-0.3,0-0.5,0.2-0.5,0.5S16.7,11,17,11z"/>
	</g>
</g>
</svg>
