<?xml version="1.0" encoding="utf-8"?>
<!-- Generator: Adobe Illustrator 23.0.6, SVG Export Plug-In . SVG Version: 6.00 Build 0)  -->
<svg version="1.1" id="Layer_1" xmlns="http://www.w3.org/2000/svg" xmlns:xlink="http://www.w3.org/1999/xlink" x="0px" y="0px"
	 viewBox="0 0 120 120" style="enable-background:new 0 0 120 120;" xml:space="preserve">
<style type="text/css">
	.st0{fill:#3E64FF;}
</style>
<path class="st0" d="M60,0C26.8,0,0,26.8,0,60s27,60,60,60c33.2,0,60-26.8,60-60S93,0,60,0z M116.4,67.3l-10.3-3.2
	c-0.3-0.2-0.8,0-0.9,0.5c-0.2,0.3,0,0.8,0.5,0.9l10.6,3.3c-1.4,9.5-5.2,18.2-10.7,25.5L92.3,80.1c3.1-5,5-10.8,5.5-17l3.6,1.1h0.2
	c0.3,0,0.6-0.2,0.8-0.5c0.2-0.3,0-0.8-0.5-0.9l-3.6-1.1c-0.1-0.1-0.2-0.1-0.3-0.1c0-0.4,0-0.8,0-1.2c0-5.9-1.4-11.6-3.9-16.6l19-4.2
	c2.5,6.4,3.9,13.3,3.9,20.6C116.8,62.6,116.7,64.9,116.4,67.3z M60,95.1c-19.1,0-34.7-15.6-34.7-34.7S40.7,25.6,60,25.6
	c19.1,0,34.7,15.6,34.7,34.7S79.1,95.1,60,95.1z M66.6,3.7l-3.8,12.1c-0.2,0.3,0,0.8,0.5,0.9h0.2c0.3,0,0.6-0.2,0.8-0.5l3.8-12.4
	C77.7,5.3,86.6,9,94,14.6l-4.7,4.3c-0.3,0.3-0.3,0.8,0,1.1c0.2,0.2,0.5,0.3,0.6,0.3s0.3-0.2,0.5-0.3l4.8-4.5
	c7.4,5.9,13.3,13.6,17.1,22.4l-19.1,4.2c-3-5.4-7.2-10-12.3-13.4l3.2-2.9c0.3-0.3,0.3-0.8,0-1.1c-0.3-0.3-0.8-0.3-1.1,0l-3.4,3.2
	c-5.1-3.1-11.1-5.1-17.4-5.5l0.4-1.5c0.2-0.3,0-0.8-0.5-0.9c-0.3-0.2-0.8,0-0.9,0.5l-0.6,1.9c-0.2,0-0.5,0-0.7,0
	c-6.2,0-12.1,1.5-17.2,4.2l-4.3-19C45.1,4.8,52.4,3.3,60,3.3C62.2,3.3,64.4,3.4,66.6,3.7z M37,8.2l4.3,19.2
	c-5.4,3.1-10,7.5-13.3,12.7l-2.3-2.5c-0.3-0.3-0.8-0.3-1.1,0c-0.3,0.3-0.3,0.8,0,1.1l2.5,2.8c-3,5.2-4.8,11.2-5,17.5L3.6,53.3
	C6,33.1,19.1,16.1,37,8.2z M8.3,83.7l6.1-1.3c0.5-0.2,0.8-0.5,0.6-0.9s-0.5-0.8-0.9-0.6l-6.4,1.4C4.7,75.4,3.2,68,3.2,60.2
	c0-1.8,0.1-3.6,0.3-5.4l18.7,5.8c0,6.3,1.6,12.2,4.4,17.5l-7.7,1.7c-0.5,0.2-0.8,0.5-0.6,0.9c0.2,0.3,0.5,0.6,0.8,0.6h0.2l8.2-1.8
	c3,5.2,7.3,9.6,12.3,12.8l-14.1,13C18.1,99.7,12.2,92.3,8.3,83.7z M60,117c-2,0-4-0.1-5.9-0.3l3.2-10.4c0.2-0.3,0-0.8-0.5-0.9
	c-0.3-0.2-0.8,0-0.9,0.5l-3.3,10.7c-9.5-1.2-18.3-4.8-25.7-10.2L41,93.1c5.6,3.2,12,5.1,19,5.1c6.1,0,11.9-1.5,17-4.1l1.1,5.2
	c0.2,0.3,0.5,0.6,0.8,0.6h0.2c0.5-0.2,0.8-0.5,0.6-0.9l-1.2-5.7c5.2-2.9,9.6-7,12.9-11.9l13.1,14.1C94.1,108.6,78,117,60,117z"/>
<path class="st0" d="M60,28.7c-17.4,0-31.4,14.1-31.4,31.4S42.6,91.6,60,91.6s31.4-14.1,31.4-31.4S77.4,28.7,60,28.7z M60,90
	c-16.4,0-29.8-13.4-29.8-29.8S43.4,30.3,60,30.3c16.4,0,29.8,13.4,29.8,29.8S76.4,90,60,90z"/>
<path class="st0" d="M58.6,100.1c-0.3-0.2-0.8,0-0.9,0.5l-0.5,1.6c-0.2,0.3,0,0.8,0.5,0.9h0.2c0.3,0,0.6-0.2,0.8-0.5l0.5-1.6
	C59.2,100.7,59.1,100.3,58.6,100.1z"/>
<path class="st0" d="M85.3,24.6c0.3,0,0.5,0,0.5-0.3l1.6-1.4c0.3-0.3,0.3-0.8,0-1.1c-0.3-0.3-0.8-0.3-1.1,0l-1.6,1.4
	c-0.3,0.3-0.3,0.8,0,1.1C84.8,24.5,85.1,24.6,85.3,24.6z"/>
<path class="st0" d="M16.7,30c0.2,0.2,0.5,0.3,0.6,0.3s0.3,0,0.5-0.2c0.3-0.3,0.3-0.8,0-1.1l-0.9-1.1c-0.3-0.3-0.8-0.3-1.1,0
	c-0.3,0.3-0.3,0.8,0,1.1L16.7,30z"/>
<path class="st0" d="M21.5,35.2c0.2,0.2,0.5,0.3,0.6,0.3c0.2,0,0.3,0,0.5-0.3c0.3-0.3,0.3-0.8,0-1.1L21,32.4c-0.3-0.3-0.8-0.3-1.1,0
	c-0.3,0.3-0.3,0.8,0,1.1L21.5,35.2z"/>
<path class="st0" d="M81,104.2c-0.2-0.5-0.5-0.8-0.9-0.6c-0.5,0.2-0.8,0.5-0.6,0.9l0.6,3.2c0.2,0.3,0.5,0.6,0.8,0.6H81
	c0.5-0.2,0.8-0.5,0.6-0.9L81,104.2z"/>
<path class="st0" d="M67.7,67.9c0.6-0.6,0.6-1.6,0-2.2l-1.1-1.1c0.6-0.9,0.9-1.8,1.1-2.8h1.7c0.9,0,1.6-0.6,1.6-1.6
	c0-0.9-0.6-1.6-1.6-1.6h-1.8c-0.2-1-0.6-1.9-1.2-2.7l1.3-1.3c0.6-0.6,0.6-1.6,0-2.2c-0.6-0.6-1.6-0.6-2.2,0l-1.3,1.3
	c-0.8-0.5-1.7-0.9-2.7-1.1v-1.9c0-0.9-0.6-1.6-1.6-1.6s-1.6,0.6-1.6,1.6v1.9c-1,0.2-1.9,0.6-2.7,1.1l-1.3-1.3
	c-0.6-0.6-1.6-0.6-2.2,0c-0.6,0.6-0.6,1.6,0,2.2l1.3,1.3c-0.6,0.8-1,1.7-1.2,2.7h-1.8c-0.9,0-1.6,0.6-1.6,1.6c0,0.9,0.6,1.6,1.6,1.6
	h1.7c0.2,1,0.6,2,1.1,2.8l-1.1,1.1c-0.6,0.6-0.6,1.6,0,2.2c0.3,0.3,0.6,0.5,1.1,0.5c0.3,0,0.8-0.2,1.1-0.5l1.1-1.1
	c0.9,0.6,1.8,1,2.9,1.2v1.6c0,0.9,0.6,1.6,1.6,1.6c0.9,0,1.6-0.6,1.6-1.6v-1.6c1.1-0.2,2-0.6,2.9-1.2l1.1,1.1
	c0.3,0.3,0.6,0.5,1.1,0.5C67.1,68.4,67.6,68.2,67.7,67.9z M55.3,60.3c0-2.5,2.1-4.7,4.7-4.7s4.7,2.2,4.7,4.7c0,2.5-2.2,4.7-4.7,4.7
	S55.3,62.8,55.3,60.3z"/>
<path class="st0" d="M71.4,39.2h-0.5C70.7,39,70.6,39,70.6,39c-0.5,0-0.8,0.2-1.1,0.5l-1.6,1.6c-0.6,0.6-0.6,1.6,0,2.2l9,9
	c0.3,0.3,0.8,0.5,1.1,0.5c0.5,0,0.8-0.2,1.1-0.5l1.6-1.6c0.3-0.3,0.5-0.8,0.5-1.3v-0.5C80.5,43.7,76.6,39.8,71.4,39.2z M79.4,49.4
	L77.8,51l-9-9l1.7-1.4h0.5c4.4,0.5,7.9,3.9,8.4,8.4V49.4z"/>
<path class="st0" d="M43.1,67.9c-0.2-0.2-0.6-0.3-0.9-0.3c-0.5,0-0.8,0.2-1.1,0.5l-1.6,1.6c-0.3,0.3-0.5,0.8-0.5,1.3v0.5
	c0.6,5.2,4.6,9.2,9.8,9.8h0.5h0.2c0.5,0,0.8-0.2,1.1-0.5l1.6-1.6c0.6-0.6,0.6-1.6,0-2.2L43.1,67.9z M49.6,79.7h-0.5
	c-4.4-0.5-7.9-3.9-8.4-8.4v-0.5l1.4-1.7l9,9L49.6,79.7z"/>
<path class="st0" d="M41.1,52.1c0.3,0.3,0.8,0.5,1.1,0.5c0.5,0,0.8-0.2,1.1-0.5l9-9c0.6-0.6,0.6-1.6,0-2.2l-1.6-1.6
	c-0.5-0.2-0.8-0.3-1.3-0.3h-0.2h-0.5c-5.2,0.6-9.2,4.6-9.8,9.8v0.5c0,0.5,0.2,0.9,0.5,1.3L41.1,52.1z M40.4,49.1
	c0.5-4.4,3.9-7.9,8.4-8.4l0.6-0.2l1.6,1.6l-9,9l-1.6-1.6V49.1z"/>
<path class="st0" d="M78.8,68.2c-0.2-0.5-0.5-0.6-0.9-0.6s-0.8,0.2-1.1,0.5l-9,9c-0.6,0.6-0.6,1.6,0,2.2l1.6,1.6
	c0.3,0.3,0.6,0.5,1.1,0.5h0.2h0.5c5.2-0.6,9.2-4.6,9.8-9.8v-0.5c0-0.5-0.2-0.9-0.5-1.3L78.8,68.2z M79.4,71.2
	c-0.5,4.4-3.9,7.9-8.4,8.4h-0.5L69,78l8.8-8.8l1.6,1.6V71.2z"/>
<path class="st0" d="M52.1,15c1.1,0,2.1-0.9,2.1-2.1s-0.9-2.1-2.1-2.1c-1.1,0-2.1,0.9-2.1,2.1S51,15,52.1,15z"/>
<path class="st0" d="M67.9,105.6c-1.1,0-2.1,0.9-2.1,2.1c0,1.1,0.9,2.1,2.1,2.1c1.1,0,2.1-0.9,2.1-2.1
	C69.9,106.6,69,105.6,67.9,105.6z"/>
<path class="st0" d="M75.8,17.1c0.3,0.2,0.8,0.3,1.1,0.3c0.6,0,1.4-0.3,1.7-1.1c0.5-0.9,0.2-2.2-0.8-2.8c-0.9-0.5-2.2-0.2-2.8,0.8
	c-0.2,0.5-0.3,1.1-0.2,1.6C75,16.3,75.3,16.7,75.8,17.1z"/>
<path class="st0" d="M44.1,103.4c-0.9-0.5-2.2-0.2-2.8,0.8c-0.5,0.9-0.2,2.2,0.8,2.8c0.3,0.2,0.8,0.3,1.1,0.3c0.8,0,1.4-0.5,1.7-1.1
	c0.2-0.5,0.3-1.1,0.2-1.6S44.5,103.7,44.1,103.4z"/>
<path class="st0" d="M97.1,31.9c0.3,0,0.6-0.2,1.1-0.3c0.5-0.3,0.8-0.8,0.9-1.3c0.2-0.5,0.2-1.1-0.2-1.6c-0.5-0.9-1.9-1.4-2.8-0.8
	c-0.5,0.3-0.8,0.8-0.9,1.3c-0.2,0.5-0.2,1.1,0.2,1.6C95.7,31.4,96.3,31.9,97.1,31.9z"/>
<path class="st0" d="M24.8,89.7c-0.5-0.9-1.9-1.4-2.8-0.8c-0.9,0.6-1.4,1.9-0.8,2.8c0.3,0.6,0.9,1.1,1.7,1.1c0.5,0,0.8,0,1.1-0.3
	c0.5-0.3,0.8-0.8,0.9-1.3C25.1,90.8,25.1,90.2,24.8,89.7z"/>
<path class="st0" d="M107.4,50.4c-1.1,0-2.1,0.9-2.1,2.1c0,1.1,0.9,2.1,2.1,2.1c1.1,0,2.1-0.9,2.1-2.1
	C109.4,51.3,108.5,50.4,107.4,50.4z"/>
<path class="st0" d="M12.6,66.2c-1.1,0-2.1,0.9-2.1,2.1s0.9,2.1,2.1,2.1c1.1,0,2.1-0.9,2.1-2.1S13.7,66.2,12.6,66.2z"/>
<path class="st0" d="M103.1,76.1c-0.2,0.5-0.3,1.1-0.2,1.6c0.2,0.5,0.5,0.9,0.9,1.3c0.3,0.2,0.8,0.3,1.1,0.3c0.8,0,1.4-0.5,1.7-1.1
	c0.2-0.5,0.3-1.1,0.2-1.6c-0.2-0.5-0.5-0.9-0.9-1.3C105,74.8,103.6,75.2,103.1,76.1z"/>
<path class="st0" d="M12.9,43.9c0.2,0.5,0.5,0.9,0.9,1.3c0.3,0.2,0.8,0.3,1.1,0.3c0.8,0,1.4-0.3,1.7-1.1c0.2-0.5,0.3-1.1,0.2-1.6
	c-0.2-0.5-0.5-0.9-0.9-1.3c-0.9-0.5-2.2-0.2-2.8,0.8C12.9,42.8,12.8,43.4,12.9,43.9z"/>
<path class="st0" d="M89.5,95.5c-0.9,0.6-1.4,1.9-0.8,2.8c0.3,0.6,0.9,1.1,1.7,1.1c0.5,0,0.8-0.2,1.1-0.3c0.5-0.3,0.8-0.8,0.9-1.3
	c0.2-0.5,0.2-1.1-0.2-1.6C91.9,95.4,90.5,94.9,89.5,95.5z"/>
<path class="st0" d="M29.5,25.3c0.3,0,0.6,0,1.1-0.3c0.9-0.6,1.4-1.9,0.8-2.8c-0.5-0.9-1.9-1.4-2.8-0.8c-0.5,0.3-0.8,0.8-0.9,1.3
	c-0.2,0.5-0.2,1.1,0.2,1.6C28.1,24.8,28.7,25.3,29.5,25.3z"/>
</svg>
