<?xml version="1.0" encoding="utf-8"?>
<!-- Generator: Adobe Illustrator 23.0.6, SVG Export Plug-In . SVG Version: 6.00 Build 0)  -->
<svg version="1.1" id="Layer_1" xmlns="http://www.w3.org/2000/svg" xmlns:xlink="http://www.w3.org/1999/xlink" x="0px" y="0px"
	 viewBox="0 0 30 30" style="enable-background:new 0 0 30 30;" xml:space="preserve">
<style type="text/css">
	.st0{fill:#333333;}
</style>
<g>
	<g>
		<path class="st0" d="M30,11.5c0,0,0-0.1,0-0.1c0,0,0-0.1,0-0.1c0,0,0-0.1,0-0.1c0,0,0-0.1-0.1-0.1c0,0,0,0,0,0L25,7.4V3.5
			C25,2.7,24.3,2,23.5,2h-5.4l-2.2-1.7c-0.5-0.4-1.3-0.4-1.8,0L11.9,2H6.5C5.7,2,5,2.7,5,3.5v3.9l-4.8,3.7c0,0,0,0,0,0
			c0,0,0,0-0.1,0.1c0,0,0,0,0,0.1c0,0,0,0.1,0,0.1c0,0,0,0.1,0,0.1c0,0,0,0,0,0v17c0,0.3,0.1,0.6,0.3,0.9c0,0,0,0,0,0c0,0,0,0,0,0
			C0.6,29.8,1,30,1.5,30h27c0.5,0,0.9-0.2,1.2-0.6c0,0,0,0,0,0c0,0,0,0,0,0c0.2-0.3,0.3-0.6,0.3-0.9L30,11.5
			C30,11.5,30,11.5,30,11.5z M14.7,1.1c0.2-0.1,0.4-0.1,0.6,0L16.4,2h-2.9L14.7,1.1z M1.6,29l13.1-10.2c0.2-0.1,0.4-0.1,0.6,0
			L28.4,29H1.6z M29,28.2L15.9,18.1c-0.5-0.4-1.3-0.4-1.8,0L1,28.2v-16l8.2,6.4c0.2,0.2,0.5,0.1,0.7-0.1c0.2-0.2,0.1-0.5-0.1-0.7
			l-8.3-6.5L5,8.6v3.9C5,12.8,5.2,13,5.5,13C5.8,13,6,12.8,6,12.5v-9C6,3.2,6.2,3,6.5,3h17C23.8,3,24,3.2,24,3.5v9
			c0,0.3,0.2,0.5,0.5,0.5c0.3,0,0.5-0.2,0.5-0.5V8.6l3.5,2.7l-8.3,6.5C20,18,20,18.1,20,18.3c0,0.2,0.1,0.3,0.3,0.4
			c0.2,0.1,0.4,0,0.5-0.1l8.2-6.4L29,28.2L29,28.2z"/>
		<path class="st0" d="M21,12v-2c0-3.3-2.7-6-6-6c-3.3,0-6,2.7-6,6c0,3.3,2.7,6,6,6c0.3,0,0.5-0.2,0.5-0.5c0-0.3-0.2-0.5-0.5-0.5
			c-2.8,0-5-2.2-5-5c0-2.8,2.2-5,5-5c2.8,0,5,2.2,5,5v2c0,0.6-0.4,1-1,1c-0.6,0-1-0.4-1-1v-2c0-0.3-0.2-0.5-0.5-0.5
			C17.2,9.5,17,9.7,17,10c0,1.1-0.9,2-2,2s-2-0.9-2-2c0-1.1,0.9-2,2-2c0.3,0,0.5-0.2,0.5-0.5C15.5,7.2,15.3,7,15,7
			c-1.3,0-2.5,0.9-2.9,2.2c-0.4,1.3,0.2,2.7,1.3,3.4s2.6,0.6,3.6-0.3c0.1,1.1,1,1.8,2.1,1.8C20.2,13.9,21,13.1,21,12z"/>
	</g>
</g>
</svg>
