<?xml version="1.0" encoding="utf-8"?>
<!-- Generator: Adobe Illustrator 23.0.6, SVG Export Plug-In . SVG Version: 6.00 Build 0)  -->
<svg version="1.1" id="Layer_1" xmlns="http://www.w3.org/2000/svg" xmlns:xlink="http://www.w3.org/1999/xlink" x="0px" y="0px"
	 viewBox="0 0 30 30" style="enable-background:new 0 0 30 30;" xml:space="preserve">
<style type="text/css">
	.st0{clip-path:url(#SVGID_2_);}
	.st1{fill:#3E64FF;}
</style>
<g>
	<defs>
		<rect id="SVGID_1_" width="30" height="30"/>
	</defs>
	<clipPath id="SVGID_2_">
		<use xlink:href="#SVGID_1_"  style="overflow:visible;"/>
	</clipPath>
	<g class="st0">
		<path class="st1" d="M7.1,30.1c-0.4,0-0.8-0.1-1.2-0.4c-0.6-0.4-1-1.1-1.1-1.9l-0.1-2.4C1.7,22.7,0,18.9,0,14.6
			c0-4,1.5-7.7,4.4-10.4C7.1,1.5,10.9,0.1,15,0.1s7.9,1.5,10.6,4.1c2.8,2.7,4.4,6.4,4.4,10.4c0,4-1.5,7.7-4.4,10.4
			c-2.8,2.7-6.6,4.1-10.6,4.1c-1.5,0-2.9-0.2-4.3-0.6L8,29.9C7.7,30,7.4,30.1,7.1,30.1z M15,2.4C7.8,2.4,2.3,7.7,2.3,14.6
			c0,3.6,1.4,6.8,4,9c0.5,0.4,0.7,1,0.8,1.6l0,0l0.1,2.4l2.7-1.2c0.5-0.2,1-0.3,1.5-0.1c1.2,0.3,2.4,0.5,3.7,0.5
			c7.2,0,12.7-5.3,12.7-12.2C27.7,7.7,22.2,2.4,15,2.4z M7.6,19.4l4.4-3.4c0.3-0.2,0.7-0.2,1,0l3.2,2.5c1,0.7,2.4,0.5,3-0.6l4.1-6.5
			c0.4-0.6-0.4-1.3-1-0.9L18,14c-0.3,0.2-0.7,0.2-1,0l-3.2-2.5c-1-0.7-2.4-0.5-3,0.6l-4.1,6.5C6.3,19.2,7,19.9,7.6,19.4z"/>
	</g>
</g>
</svg>
