<?xml version="1.0" encoding="utf-8"?>
<!-- Generator: Adobe Illustrator 23.0.6, SVG Export Plug-In . SVG Version: 6.00 Build 0)  -->
<svg version="1.1" id="Layer_1" xmlns="http://www.w3.org/2000/svg" xmlns:xlink="http://www.w3.org/1999/xlink" x="0px" y="0px"
	 viewBox="0 0 111.5 105" style="enable-background:new 0 0 111.5 105;" xml:space="preserve">
<style type="text/css">
	.st0{display:none;}
	.st1{display:inline;}
	.st2{clip-path:url(#SVGID_2_);}
	.st3{clip-path:url(#SVGID_4_);}
</style>
<g class="st0">
	<defs>
		
			<rect id="SVGID_1_" x="-13" y="-15.9" transform="matrix(0.7071 -0.7071 0.7071 0.7071 -21.5541 56.1483)" width="140" height="140"/>
	</defs>
	<clipPath id="SVGID_2_" class="st1">
		<use xlink:href="#SVGID_1_"  style="display:none;overflow:visible;"/>
	</clipPath>
	<g class="st2">
		<path class="st1" d="M77.7,23.9c-0.2-0.2-0.7-0.3-1,0L64.8,34.2c-0.2,0.2-0.3,0.7,0,1c0.3,0.3,0.7,0.3,1,0L77.7,25
			C78,24.8,78.1,24.2,77.7,23.9z"/>
		<path class="st1" d="M86.6,16.1c-0.3-0.3-0.7-0.3-1,0l-3.7,3.2c-0.2,0.2-0.3,0.7,0,1c0.3,0.3,0.7,0.3,1,0l3.7-3.2
			C86.9,16.9,87,16.4,86.6,16.1z"/>
		<path class="st1" d="M89.5,13.7c-0.3-0.3-0.7-0.3-1,0l-0.7,0.7c-0.2,0.2-0.3,0.7,0,1c0.2,0.2,0.6,0.2,1,0l0.7-0.7
			C89.7,14.5,89.8,14,89.5,13.7z"/>
		<path class="st1" d="M38.6,74c0.5,0.3,1,0.6,1.5,1c0.4,0.2,0.8,0.2,1-0.2c0.2-0.4,0.2-0.8-0.2-1c-0.5-0.3-0.8-0.6-1.4-0.9
			c-0.4-0.2-0.8-0.2-1,0.2C38.4,73.3,38.4,73.8,38.6,74z"/>
		<path class="st1" d="M22.4,92.7c-0.6-0.4-1.2-0.7-1.7-1c-0.4-0.2-0.8-0.2-1,0.2c-0.1,0.3-0.1,0.7,0.1,0.9c0.7,0.5,1.3,0.8,1.8,1.2
			c0.4,0.2,0.8,0.2,1-0.2C22.8,93.3,22.8,92.9,22.4,92.7z"/>
		<path class="st1" d="M67.3,76.3L67,76c0.4-0.2,0.8-0.5,1.2-0.9c0.4-0.4,0.7-0.9,1-1.4c1.1,0.5,2.4,0.3,3.3-0.6l5.2-5.2
			c2.3-2.3,2.3-6.1,0-8.4l-0.1-0.1l1-1c1.8-1.8,1.8-4.5,0-6.3L78.6,52L101,26.2c2.4-2.8,2.9-6.7,1.1-9.9l6.4-6.4
			c0.4-0.4,0.5-1.2,0.3-1.6l-0.5-1.2c-1-2.1-2.7-3.8-4.8-4.6l-0.7-0.3c-0.5-0.3-1.2-0.1-1.6,0.3L95,8.8C91.8,7,87.7,7.4,84.9,9.9
			L59,32.4l-0.2-0.2c-1.8-1.8-4.5-1.8-6.3,0l-1.1,1.1c-2.3-2.2-6-2.2-8.3,0.1L38,38.6c-0.8,0.8-1.1,2-0.7,3.1
			c-0.5,0.2-1.1,0.6-1.5,1c-0.4,0.4-0.7,0.8-0.9,1.2l-0.1-0.1c-1.2-1.2-3-1.2-4.2,0L26.5,48c-2.3,2.3-2.3,6.1,0,8.4l3.1,3.1
			L9.2,79.9c-1.4,1.4-1.8,3.5-0.8,5.2l0.2,0.4l-2,2c-4.1,4.1-4.2,10.9,0,15.1c0.5,0.5,1.5,0.6,2.1,0c0.6-0.6,0.6-1.5,0-2.1
			c-2.9-2.9-3-7.9,0-10.9l1.4-1.4c0.8,1.3,1.6,2.6,2.6,3.7l-2.8,4.5c-0.4,0.6-0.3,1.4,0.2,1.9l2.9,2.9c0.5,0.5,1.3,0.6,1.8,0.3
			l4.5-3c1.7,1.4,3.6,2.6,5.6,3.8l0.9,0.5c1.8,0.9,3.9,0.5,5.2-0.8l20.5-20.5l3.1,3.1c2.3,2.3,6.1,2.3,8.4,0l4.2-4.2
			C68.4,79.3,68.4,77.4,67.3,76.3z M75.7,65.8L70.4,71l-2.2-2.2l-3-3l7.3-7.3l2,2l1.2,1.2C76.8,62.8,76.8,64.6,75.7,65.8z
			 M71.5,57.4l-7.3,7.3L46.3,47l7.3-7.3L71.5,57.4z M106,8v0.2l-5.5,5.5c-0.9-1.2-1.9-2.3-3.1-3.2L103,5C104.3,5.7,105.4,6.8,106,8z
			 M87,12.2c2.2-1.8,5.2-1.9,7.4-0.3l0.1,0.1c1.7,1.3,3.2,2.8,4.5,4.5l0.3,0.5c1.7,2.3,1.6,5.3-0.3,7.4L76.7,50.1L61.1,34.5L87,12.2
			z M54.6,34.3c0.6-0.6,1.5-0.6,2.1,0l1.2,1.2l17.8,17.8l0.9,0.9c0.6,0.6,0.6,1.5,0,2.1l-1,1l-22-22L54.6,34.3z M45.3,35.4
			c1.2-1.2,3-1.2,4.2,0l0.9,0.9l2.2,2.2l-7.3,7.3L42,42.7l-2-2L45.3,35.4z M37.9,44.8c0.6-0.6,1.5-0.6,2.1,0l26.2,26.2
			c0.6,0.6,0.6,1.5,0,2.1c-0.6,0.6-1.5,0.6-2.1,0L37.9,46.8C37.2,46.2,37.2,45.4,37.9,44.8z M35.8,48.9l26.2,26.2l3.2,3.2L62,81.5
			L29.6,49l3.1-3.1L35.8,48.9z M41.7,87.1c-0.3,0-0.6,0-1-0.1l-1.2-0.3c-7.2-2-13.5-6.4-17.7-12.5l-0.3-0.5
			c-0.3-0.5-0.5-1.1-0.5-1.6l1.8-1.8c0.1,0.4,0.3,0.8,0.5,1.1l0.3,0.5c1.2,1.6,2.4,3,3.8,4.4c4.1,4.1,9.1,7,14.8,8.7l1.2,0.3
			L41.7,87.1z M19.8,73.5c0.1,0.4,0.3,0.8,0.5,1.1l0.3,0.5c1.2,1.6,2.4,3,3.8,4.4c4.1,4.1,9.1,7,14.8,8.7l1.2,0.3l-1.8,1.8
			c-0.3,0-0.6,0-1-0.1l-1.2-0.3c-7.2-2-13.5-6.4-17.7-12.5l-0.3-0.5c-0.3-0.5-0.5-1.1-0.5-1.6L19.8,73.5z M44.9,84
			c-0.3,0-0.6,0-1-0.1l-1.2-0.3c-7.2-2-13.5-6.4-17.7-12.5l-0.3-0.5c-0.3-0.5-0.5-1.1-0.5-1.6l1.8-1.8c0.1,0.4,0.3,0.8,0.5,1.1
			l0.3,0.5c1.2,1.6,2.4,3,3.8,4.4c4.1,4.1,9.1,7,14.8,8.7l1.2,0.3L44.9,84z M16.7,76.6c0.1,0.4,0.3,0.8,0.5,1.1l0.3,0.5
			c1.2,1.6,2.4,3,3.8,4.4c4.1,4.1,9.1,7,14.8,8.7l1.2,0.3l-1.8,1.8c-0.3,0-0.6,0-1-0.1L33.4,93c-7.2-2-13.5-6.4-17.7-12.5L15.4,80
			c-0.3-0.5-0.5-1.1-0.5-1.6L16.7,76.6z M48,80.9c-0.3,0-0.6,0-1-0.1l-1.2-0.3c-7.2-2-13.5-6.4-17.7-12.5l-0.3-0.5
			c-0.3-0.5-0.5-1.1-0.5-1.6l1.8-1.8c0.1,0.4,0.3,0.8,0.5,1.1l0.3,0.5c1.2,1.6,2.4,3,3.8,4.4c0.4,0.4,0.9,0.7,1.4,1.4
			c0.3,0.3,0.7,0.3,1,0c0.3-0.3,0.3-0.7,0-1c-1.9-1.7-3.6-3.6-4.9-5.5l-0.3-0.5c-0.3-0.5-0.5-1.1-0.5-1.6l1.1-1.1l17.8,17.8L48,80.9
			z M14.1,98.5l-1.3-1.3l1.8-2.8c0.3,0.3,0.7,0.7,1,1c0.4,0.4,0.8,0.8,1.3,1.2L14.1,98.5z M29.1,99.8c-0.5,0.5-1.3,0.6-1.8,0.3
			l-0.9-0.5c-6.5-3.6-11.7-8.8-15.1-15.3L11,83.8c-0.2-0.6-0.1-1.4,0.3-1.8l2.3-2.3c0.1,0.4,0.3,0.8,0.5,1.1l0.3,0.5
			c1.2,1.6,2.4,3,3.8,4.4c4.1,4.1,9.1,7,14.8,8.7l1.2,0.3l-1.9,1.9c-0.3,0-0.6,0-1-0.1l-1.2-0.3C28,95.6,26,94.9,24.3,94
			c-0.3-0.1-0.7-0.1-0.9,0.3c-0.1,0.3,0,0.6,0.2,0.8c0,0,0.2,0,0.1,0.3c2,0.9,4,1.7,6.1,2.3l1.2,0.3L29.1,99.8z M56.8,82.5
			L28.5,54.3c-1.2-1.2-1.2-3,0-4.2L61,82.5C59.8,83.7,58,83.7,56.8,82.5z"/>
	</g>
</g>
<g>
	<defs>
		
			<rect id="SVGID_3_" x="-7" y="3" transform="matrix(0.7071 -0.7071 0.7071 0.7071 -27.6792 52.6815)" width="113.5" height="113.5"/>
	</defs>
	<clipPath id="SVGID_4_">
		<use xlink:href="#SVGID_3_"  style="overflow:visible;"/>
	</clipPath>
	<g class="st3">
		<path d="M103.4,41.9l-0.9-0.9l1.7-1.7c0.5-0.5,0.5-1.2,0-1.7c-0.5-0.5-1.2-0.5-1.7,0l-1.7,1.7l-14-14l3.5-3.5
			c0.5-0.5,0.5-1.2,0-1.7c-0.5-0.5-1.2-0.5-1.7,0l-3.5,3.5L70.3,8.7L72,7c0.5-0.5,0.5-1.2,0-1.7c-0.5-0.5-1.2-0.5-1.7,0L68.5,7
			l-0.9-0.9c-1-1-2.5-1-3.5,0l-1.7,1.7c-1,1-1,2.5,0,3.5l7.9,7.9l-2.6,2.6c-0.5,0.5-0.5,1.2,0,1.7l6.1,6.1l-2.9,2.9L59.4,26
			c-1.8-1-4-0.3-5.1,1.4c-0.8,1.5-0.6,3.2,0.6,4.4c0.2,0.2,0.4,0.4,0.8,0.6l0.5,0.3l5.4,6.9c0.2,0.2,0.4,0.3,0.9,0.2
			c0.3-0.2,0.4-0.6,0.2-0.9l-3.5-4.5l6.2,3.6l-3.3,3.3l-11.4-6.6c-1.8-1-4-0.3-5.1,1.4c-0.8,1.5-0.6,3.2,0.6,4.4
			c0.2,0.2,0.4,0.4,0.8,0.6l0.5,0.3l5.4,6.9c0.2,0.2,0.4,0.3,0.9,0.2c0.3-0.2,0.4-0.6,0.2-0.9l-3.5-4.5l6.2,3.6L53.4,50L42,43.4
			c-1.8-1-4-0.3-5.1,1.4c-0.8,1.5-0.6,3.2,0.6,4.4c0.2,0.2,0.4,0.4,0.8,0.6l5.2,3l-2.9,2.9l-7-4c-1.8-1-4-0.3-5.1,1.4
			c-0.4,0.8-0.6,1.7-0.4,2.6L27.5,55c-1-1-2.5-1-3.5,0l-1.7,1.7c-1,1-1,2.5,0,3.5l5.2,5.2l-12,12c-1,1-1.4,2.8-0.7,4.2l0.2,0.5
			c0.2,0.4,0.4,0.7,0.6,1.1l0,0l-2.7,7.3c-1.2,0.1-2.3,0.7-3.2,1.5c-2.2,2.2-2.2,5.7,0,7.9c2.1,2.1,5.6,2.1,7.7-0.2
			c0.7-0.7,1.2-1.6,1.4-2.5l7.7-3l-0.3-0.3c0.4,0.2,0.7,0.4,1.1,0.6l0.7,0.3c1.4,0.7,3.1,0.4,4.2-0.7l12-12l5.1,5.1c1,1,2.5,1,3.5,0
			l1.7-1.7c1-1,1-2.5,0-3.5l-7-7l4.3-4.3l7.1,4.1c1.8,1,4,0.3,5.1-1.4c0.8-1.5,0.6-3.2-0.6-4.4c-0.3-0.3-0.4-0.4-0.8-0.6l-5.3-3.1
			l2.9-2.9l7.1,4.1c1.8,1,4,0.3,5.1-1.4c0.8-1.5,0.6-3.2-0.6-4.4c-0.3-0.3-0.5-0.5-0.8-0.6l-1.6-1l-4.5-5.7
			c-0.2-0.3-0.6-0.4-0.9-0.2c-0.3,0.2-0.4,0.6-0.2,0.9l2.6,3.3l-5.2-3l3.3-3.3l0,0l11.5,6.7c1.8,1,4,0.3,5.1-1.4
			c0.8-1.5,0.6-3.2-0.6-4.4c-0.3-0.3-0.5-0.5-0.8-0.6l-1.6-1l-4.5-5.7c-0.2-0.3-0.6-0.4-0.9-0.2c-0.3,0.2-0.4,0.6-0.2,0.9l2.6,3.3
			l-5.2-3l3.3-3.3l11.5,6.6c1.8,1,4,0.3,5.1-1.4c0.8-1.5,0.6-3.2-0.6-4.4c-0.3-0.3-0.5-0.5-0.8-0.6l-0.9-0.5
			c0.1-0.1,0.2-0.1,0.3-0.2l2.6-2.6l7.9,7.9c1,1,2.5,1,3.5,0l1.7-1.7C104.4,44.4,104.4,42.8,103.4,41.9z M11.2,98.3
			c-1.3-1.3-1.3-3.4,0-4.7c1.3-1.3,3.4-1.3,4.7,0c1.3,1.3,1.3,3.4,0,4.7C14.6,99.6,12.5,99.6,11.2,98.3z M23.8,92.5l-5.1,1.9
			c-0.2-0.9-0.7-1.7-1.4-2.4c-0.6-0.6-1.3-1-2-1.3l1.8-4.8l0.1,0.1c0.9,1.2,1.8,2.3,2.9,3.4c1,1,2.1,1.9,3.3,2.8L23.8,92.5z
			 M75.5,31.4l2.6,2.6l-1.7,1.7L73,33.8L75.5,31.4z M31.7,59.1l3.5,2l-0.8,0.8L31.7,59.1z M29,92.5l-0.7-0.3
			c-4.8-2.4-8.7-6.3-11-11.2L17,80.6c-0.3-0.4-0.2-1,0.2-1.4l3.9-3.9c0,0.1,0.1,0.2,0.1,0.3l0.3,0.4c1.2,2.6,2.9,5,5,7.1
			c1.9,1.9,4.3,3.6,6.8,4.9l0.7,0.3c0.1,0.1,0.3,0.1,0.4,0.1l-4,4C30,92.7,29.4,92.8,29,92.5z M35.4,87.3c-0.3,0-0.6,0-0.9-0.2
			l-0.7-0.3C29,84.4,25,80.3,22.6,75.4l-0.3-0.4c-0.1-0.2-0.2-0.5-0.2-0.7l7.1-7.1l13.2,13.2L35.4,87.3z M51.1,85.5l-27-27l1.7-1.7
			l27,27L51.1,85.5z M45.8,73.3l-9.6-9.6l1.2-1.2l12.2,7L45.8,73.3z M61.4,70.5c0.1,0.1,0.2,0.2,0.3,0.3c0.3,0.3,0.4,1,0.2,1.4
			c-0.3,0.5-1.1,0.8-1.7,0.4L31.3,55.9c-0.6-0.3-0.8-1.1-0.4-1.7c0.3-0.5,1.1-0.8,1.7-0.4L61.4,70.5z M55.1,64l-12.2-7l2.9-2.9
			l12.2,7L55.1,64z M70.1,63.9c-0.3,0.5-1.1,0.8-1.7,0.4L39.5,47.6c-0.6-0.3-0.8-1.1-0.4-1.7c0.3-0.5,1.1-0.8,1.7-0.4l28.9,16.7
			c0.1,0.1,0.2,0.2,0.3,0.3C70.3,62.8,70.3,63.4,70.1,63.9z M58.9,53.2l-3.3-1.9l3.3-3.3l3.3,1.9L58.9,53.2z M78.8,55.1
			c-0.3,0.5-1.1,0.8-1.7,0.4L48.3,38.9c-0.5-0.3-0.8-1.1-0.4-1.7c0.3-0.5,1.1-0.8,1.7-0.4l28.9,16.7c0.1,0.1,0.2,0.2,0.3,0.3
			C79,54.1,79.1,54.7,78.8,55.1z M67.6,44.5l-3.3-1.9l3.3-3.3l3.3,1.9L67.6,44.5z M87.1,44.7c0.1,0.1,0.2,0.2,0.3,0.3
			c0.3,0.3,0.4,1,0.2,1.4c-0.3,0.5-1.1,0.8-1.7,0.4L57,30.2c-0.6-0.3-0.8-1.1-0.4-1.7s1.1-0.8,1.7-0.4L87.1,44.7z M78.6,37l1.3-1.3
			l4.7,4.7L78.6,37z M86.8,39.3L70.3,22.7l1.7-1.7l16.6,16.6L86.8,39.3z M99.9,45.4l-8.7-8.7L72.9,18.3l-8.7-8.7l1.7-1.7l35.8,35.8
			L99.9,45.4z"/>
	</g>
</g>
</svg>
