<?xml version="1.0" encoding="utf-8"?>
<!-- Generator: Adobe Illustrator 23.0.6, SVG Export Plug-In . SVG Version: 6.00 Build 0)  -->
<svg version="1.1" id="Layer_1" xmlns="http://www.w3.org/2000/svg" xmlns:xlink="http://www.w3.org/1999/xlink" x="0px" y="0px"
	 viewBox="0 0 111.5 105" style="enable-background:new 0 0 111.5 105;" xml:space="preserve">
<style type="text/css">
	.st0{display:none;}
	.st1{display:inline;}
	.st2{clip-path:url(#SVGID_2_);}
</style>
<g class="st0">
	<defs>
		
			<rect id="SVGID_1_" x="-13" y="-15.9" transform="matrix(0.7071 -0.7071 0.7071 0.7071 -21.5541 56.1483)" width="140" height="140"/>
	</defs>
	<clipPath id="SVGID_2_" class="st1">
		<use xlink:href="#SVGID_1_"  style="display:none;overflow:visible;"/>
	</clipPath>
	<g class="st2">
		<path class="st1" d="M77.7,23.9c-0.2-0.2-0.7-0.3-1,0L64.8,34.2c-0.2,0.2-0.3,0.7,0,1c0.3,0.3,0.7,0.3,1,0L77.7,25
			C78,24.8,78.1,24.2,77.7,23.9z"/>
		<path class="st1" d="M86.6,16.1c-0.3-0.3-0.7-0.3-1,0l-3.7,3.2c-0.2,0.2-0.3,0.7,0,1c0.3,0.3,0.7,0.3,1,0l3.7-3.2
			C86.9,16.9,87,16.4,86.6,16.1z"/>
		<path class="st1" d="M89.5,13.7c-0.3-0.3-0.7-0.3-1,0l-0.7,0.7c-0.2,0.2-0.3,0.7,0,1c0.2,0.2,0.6,0.2,1,0l0.7-0.7
			C89.7,14.5,89.8,14,89.5,13.7z"/>
		<path class="st1" d="M38.6,74c0.5,0.3,1,0.6,1.5,1c0.4,0.2,0.8,0.2,1-0.2c0.2-0.4,0.2-0.8-0.2-1c-0.5-0.3-0.8-0.6-1.4-0.9
			c-0.4-0.2-0.8-0.2-1,0.2C38.4,73.3,38.4,73.8,38.6,74z"/>
		<path class="st1" d="M22.4,92.7c-0.6-0.4-1.2-0.7-1.7-1c-0.4-0.2-0.8-0.2-1,0.2c-0.1,0.3-0.1,0.7,0.1,0.9c0.7,0.5,1.3,0.8,1.8,1.2
			c0.4,0.2,0.8,0.2,1-0.2C22.8,93.3,22.8,92.9,22.4,92.7z"/>
		<path class="st1" d="M67.3,76.3L67,76c0.4-0.2,0.8-0.5,1.2-0.9c0.4-0.4,0.7-0.9,1-1.4c1.1,0.5,2.4,0.3,3.3-0.6l5.2-5.2
			c2.3-2.3,2.3-6.1,0-8.4l-0.1-0.1l1-1c1.8-1.8,1.8-4.5,0-6.3L78.6,52L101,26.2c2.4-2.8,2.9-6.7,1.1-9.9l6.4-6.4
			c0.4-0.4,0.5-1.2,0.3-1.6l-0.5-1.2c-1-2.1-2.7-3.8-4.8-4.6l-0.7-0.3c-0.5-0.3-1.2-0.1-1.6,0.3L95,8.8C91.8,7,87.7,7.4,84.9,9.9
			L59,32.4l-0.2-0.2c-1.8-1.8-4.5-1.8-6.3,0l-1.1,1.1c-2.3-2.2-6-2.2-8.3,0.1L38,38.6c-0.8,0.8-1.1,2-0.7,3.1
			c-0.5,0.2-1.1,0.6-1.5,1c-0.4,0.4-0.7,0.8-0.9,1.2l-0.1-0.1c-1.2-1.2-3-1.2-4.2,0L26.5,48c-2.3,2.3-2.3,6.1,0,8.4l3.1,3.1
			L9.2,79.9c-1.4,1.4-1.8,3.5-0.8,5.2l0.2,0.4l-2,2c-4.1,4.1-4.2,10.9,0,15.1c0.5,0.5,1.5,0.6,2.1,0c0.6-0.6,0.6-1.5,0-2.1
			c-2.9-2.9-3-7.9,0-10.9l1.4-1.4c0.8,1.3,1.6,2.6,2.6,3.7l-2.8,4.5c-0.4,0.6-0.3,1.4,0.2,1.9l2.9,2.9c0.5,0.5,1.3,0.6,1.8,0.3
			l4.5-3c1.7,1.4,3.6,2.6,5.6,3.8l0.9,0.5c1.8,0.9,3.9,0.5,5.2-0.8l20.5-20.5l3.1,3.1c2.3,2.3,6.1,2.3,8.4,0l4.2-4.2
			C68.4,79.3,68.4,77.4,67.3,76.3z M75.7,65.8L70.4,71l-2.2-2.2l-3-3l7.3-7.3l2,2l1.2,1.2C76.8,62.8,76.8,64.6,75.7,65.8z
			 M71.5,57.4l-7.3,7.3L46.3,47l7.3-7.3L71.5,57.4z M106,8v0.2l-5.5,5.5c-0.9-1.2-1.9-2.3-3.1-3.2L103,5C104.3,5.7,105.4,6.8,106,8z
			 M87,12.2c2.2-1.8,5.2-1.9,7.4-0.3l0.1,0.1c1.7,1.3,3.2,2.8,4.5,4.5l0.3,0.5c1.7,2.3,1.6,5.3-0.3,7.4L76.7,50.1L61.1,34.5L87,12.2
			z M54.6,34.3c0.6-0.6,1.5-0.6,2.1,0l1.2,1.2l17.8,17.8l0.9,0.9c0.6,0.6,0.6,1.5,0,2.1l-1,1l-22-22L54.6,34.3z M45.3,35.4
			c1.2-1.2,3-1.2,4.2,0l0.9,0.9l2.2,2.2l-7.3,7.3L42,42.7l-2-2L45.3,35.4z M37.9,44.8c0.6-0.6,1.5-0.6,2.1,0l26.2,26.2
			c0.6,0.6,0.6,1.5,0,2.1c-0.6,0.6-1.5,0.6-2.1,0L37.9,46.8C37.2,46.2,37.2,45.4,37.9,44.8z M35.8,48.9l26.2,26.2l3.2,3.2L62,81.5
			L29.6,49l3.1-3.1L35.8,48.9z M41.7,87.1c-0.3,0-0.6,0-1-0.1l-1.2-0.3c-7.2-2-13.5-6.4-17.7-12.5l-0.3-0.5
			c-0.3-0.5-0.5-1.1-0.5-1.6l1.8-1.8c0.1,0.4,0.3,0.8,0.5,1.1l0.3,0.5c1.2,1.6,2.4,3,3.8,4.4c4.1,4.1,9.1,7,14.8,8.7l1.2,0.3
			L41.7,87.1z M19.8,73.5c0.1,0.4,0.3,0.8,0.5,1.1l0.3,0.5c1.2,1.6,2.4,3,3.8,4.4c4.1,4.1,9.1,7,14.8,8.7l1.2,0.3l-1.8,1.8
			c-0.3,0-0.6,0-1-0.1l-1.2-0.3c-7.2-2-13.5-6.4-17.7-12.5l-0.3-0.5c-0.3-0.5-0.5-1.1-0.5-1.6L19.8,73.5z M44.9,84
			c-0.3,0-0.6,0-1-0.1l-1.2-0.3c-7.2-2-13.5-6.4-17.7-12.5l-0.3-0.5c-0.3-0.5-0.5-1.1-0.5-1.6l1.8-1.8c0.1,0.4,0.3,0.8,0.5,1.1
			l0.3,0.5c1.2,1.6,2.4,3,3.8,4.4c4.1,4.1,9.1,7,14.8,8.7l1.2,0.3L44.9,84z M16.7,76.6c0.1,0.4,0.3,0.8,0.5,1.1l0.3,0.5
			c1.2,1.6,2.4,3,3.8,4.4c4.1,4.1,9.1,7,14.8,8.7l1.2,0.3l-1.8,1.8c-0.3,0-0.6,0-1-0.1L33.4,93c-7.2-2-13.5-6.4-17.7-12.5L15.4,80
			c-0.3-0.5-0.5-1.1-0.5-1.6L16.7,76.6z M48,80.9c-0.3,0-0.6,0-1-0.1l-1.2-0.3c-7.2-2-13.5-6.4-17.7-12.5l-0.3-0.5
			c-0.3-0.5-0.5-1.1-0.5-1.6l1.8-1.8c0.1,0.4,0.3,0.8,0.5,1.1l0.3,0.5c1.2,1.6,2.4,3,3.8,4.4c0.4,0.4,0.9,0.7,1.4,1.4
			c0.3,0.3,0.7,0.3,1,0c0.3-0.3,0.3-0.7,0-1c-1.9-1.7-3.6-3.6-4.9-5.5l-0.3-0.5c-0.3-0.5-0.5-1.1-0.5-1.6l1.1-1.1l17.8,17.8L48,80.9
			z M14.1,98.5l-1.3-1.3l1.8-2.8c0.3,0.3,0.7,0.7,1,1c0.4,0.4,0.8,0.8,1.3,1.2L14.1,98.5z M29.1,99.8c-0.5,0.5-1.3,0.6-1.8,0.3
			l-0.9-0.5c-6.5-3.6-11.7-8.8-15.1-15.3L11,83.8c-0.2-0.6-0.1-1.4,0.3-1.8l2.3-2.3c0.1,0.4,0.3,0.8,0.5,1.1l0.3,0.5
			c1.2,1.6,2.4,3,3.8,4.4c4.1,4.1,9.1,7,14.8,8.7l1.2,0.3l-1.9,1.9c-0.3,0-0.6,0-1-0.1l-1.2-0.3C28,95.6,26,94.9,24.3,94
			c-0.3-0.1-0.7-0.1-0.9,0.3c-0.1,0.3,0,0.6,0.2,0.8c0,0,0.2,0,0.1,0.3c2,0.9,4,1.7,6.1,2.3l1.2,0.3L29.1,99.8z M56.8,82.5
			L28.5,54.3c-1.2-1.2-1.2-3,0-4.2L61,82.5C59.8,83.7,58,83.7,56.8,82.5z"/>
	</g>
</g>
<path d="M104.6,44l-0.5-2c-0.4-1.5-1.5-2.7-3-3.2l-1.6-0.5v-1.1c0-10.4-8-18.6-18.2-19.2c-0.1,0-0.1,0-0.2,0h-0.7
	c-0.4,0-0.6,0.1-0.9,0.4c-1.3,0.6-2.3,1.9-2.4,3.4H64.5c-0.1-2.1-1.8-3.7-4-3.7h-8.5V5.6c0-1.5-1-2.6-2.5-2.6H47
	c-1.4,0-2.4,0.9-2.6,2.1l-2.6,15.1c0,0.1,0,0.2,0,0.3c-5.7,3.3-9.6,9.5-9.6,16.6v9.5h-3.7V35.4c0-0.7-0.5-1.2-1.2-1.2h-2.5
	c-2.1,0-3.7,1.6-3.7,3.7v1.2c0,0.1,0,0.1-0.1,0.1H16c-0.1,0-0.1,0-0.1-0.1v-1.2c0-2.1-1.6-3.7-3.7-3.7H9.7c-0.7,0-1.2,0.5-1.2,1.2
	v34.9c0,0.7,0.5,1.2,1.2,1.2h3.6c2.1,0,3.7-1.6,3.7-3.7v-1.1c0-0.1,0-0.1,0.1-0.1h3.6c0.1,0,0.1,0,0.1,0.1v1.1
	c0,2.1,1.6,3.7,3.7,3.7h2.5c0.7,0,1.2-0.5,1.2-1.2V59.1h3.7v9.5c0,6.7,3.5,13.1,9.4,16.5c0.1,0,0.1,0.1,0.2,0.1l2.5,16.6
	c0.2,1.4,1.2,2.2,2.6,2.2h2.6c1.5,0,2.6-1.1,2.5-2.6V87.6c0.2,0.1,0.5,0.2,0.7,0.2h7.9c2.2,0,3.9-1.6,4-3.7H77
	c0.1,1.5,1.1,2.8,2.4,3.4c0.2,0.3,0.5,0.4,0.9,0.4H81c0.1,0,0.2,0,0.4,0c3.1-0.2,6-1.1,8.5-2.6l1.3,6.5c0.2,1.4,1.4,2.2,2.6,2.2h3
	c1.5,0,2.6-1.1,2.6-2.6V68.6V68v-0.3l1.4-0.3c1.6-0.5,2.9-1.7,3.2-3.2l0.4-1.4C106.2,56.6,106.2,50.1,104.6,44z M73.9,47.4
	c0.4,0,0.6-0.2,0.6-0.6V24.2H77v57.4H64.6V24.2h8.7v22.6C73.3,47.2,73.5,47.4,73.9,47.4z M46.8,5.6c0-0.1,0-0.1,0.1-0.1h2.6
	c0.1,0,0.1,0,0.1,0.1V18c-1.8,0.2-3.6,0.6-5.2,1.2L46.8,5.6z M25.9,69.1h-1.2c-0.7,0-1.2-0.5-1.2-1.2v-1.1c0-1.5-1.1-2.6-2.6-2.6
	h-3.6v-9.2c0-0.4-0.2-0.6-0.6-0.6c-0.4,0-0.6,0.2-0.6,0.6v9.5c-0.8,0.4-1.4,1.3-1.4,2.3v1.1c0,0.7-0.5,1.2-1.2,1.2h-2.4V36.7h1.2
	c0.7,0,1.2,0.5,1.2,1.2V39c0,1.5,1.1,2.6,2.6,2.6h4.7c0,0,0.1,0,0.1,0v5.7c0,0.4,0.2,0.6,0.6,0.6c0.4,0,0.6-0.2,0.6-0.6v-6.1
	c0.8-0.4,1.2-1.3,1.2-2.3v-1.1c0-0.7,0.5-1.2,1.2-1.2h1.2v11.2v10V69.1z M28.4,56.6v-7.5h3.7v7.5H28.4z M62.1,83.8
	c0,0.9-0.6,1.5-1.5,1.5h-7.9c-0.3,0-0.5,0.1-0.7,0.2v-3.3c0-0.7-0.5-1.2-1.2-1.2c-0.7,0-1.2,0.5-1.2,1.2v19.2c0,0.1,0,0.1-0.1,0.1
	h-2.6c0,0-0.1,0-0.1-0.1l-4-26.3c0-0.6-0.6-1.1-1.4-1c-0.6,0-1.1,0.7-1,1.4l1,6.4c-4.1-3.1-6.6-8-6.6-13.2V57.9v-10V37.2
	c0-9.2,7.5-16.7,16.7-16.7h9.2c0.9,0,1.5,0.6,1.5,1.5v1v59.9V83.8z M80.9,85.3c-0.7-0.1-1.4-0.7-1.4-1.5v-1V23v-1
	c0-0.7,0.6-1.4,1.4-1.5c9,0.4,16.1,7.6,16.1,16.7V68v0.6c0,5.4-2.5,10.2-6.5,13.2c0,0,0,0,0,0c-0.4,0.1-0.7,0.3-0.9,0.6
	C87.1,84.2,84.1,85.2,80.9,85.3z M97,91.3c0,0.1,0,0.1-0.1,0.1h-3c0,0-0.1,0-0.1-0.1l-1.6-7.6c1.9-1.5,3.6-3.4,4.8-5.6V91.3z
	 M102,62.1l-0.4,1.4c-0.2,0.7-0.7,1.2-1.5,1.5l-0.6,0.2V40.9l0.7,0.2c0.6,0.2,1.1,0.7,1.4,1.5l0.5,2C103.7,50.6,103.6,56.1,102,62.1
	z"/>
<path d="M73.9,61.5c-0.4,0-0.6,0.2-0.6,0.6v0.7c0,0.4,0.2,0.6,0.6,0.6c0.4,0,0.6-0.2,0.6-0.6v-0.7C74.5,61.7,74.3,61.5,73.9,61.5z"
	/>
<path d="M73.3,58.5c0,0.4,0.2,0.6,0.6,0.6c0.4,0,0.6-0.4,0.6-0.6v-9c0-0.4-0.2-0.6-0.6-0.6c-0.4,0-0.6,0.2-0.6,0.6V58.5z"/>
<path d="M67.7,69.7c-0.4,0-0.6,0.2-0.6,0.6v8.1c0,0.4,0.2,0.6,0.6,0.6c0.4,0,0.6-0.4,0.6-0.6v-8.1C68.3,70,68,69.7,67.7,69.7z"/>
<path d="M67.7,65.1c-0.4,0-0.6,0.2-0.6,0.6v0.9c0,0.4,0.2,0.6,0.6,0.6c0.4,0,0.6-0.4,0.6-0.6v-0.9C68.3,65.4,68,65.1,67.7,65.1z"/>
<path d="M21.5,50.4c-0.4,0-0.6,0.2-0.6,0.6v6c0,0.4,0.2,0.6,0.6,0.6c0.4,0,0.6-0.2,0.6-0.6v-6C22.1,50.6,21.9,50.4,21.5,50.4z"/>
<path d="M16.5,48.4c-0.4,0-0.6,0.2-0.6,0.6v2.2c0,0.4,0.2,0.6,0.6,0.6c0.4,0,0.6-0.4,0.6-0.6V49C17.2,48.7,16.9,48.4,16.5,48.4z"/>
<path d="M40.4,29.3c0.1,0,0.2,0,0.4-0.1c3.2-3.1,7.5-4.9,12-4.9h2.7c0.4,0,0.6-0.2,0.6-0.6c0-0.4-0.2-0.6-0.6-0.6h-2.7
	c-4.7,0-9.4,1.7-12.8,5.1c-0.2,0.2-0.2,0.6,0,0.9C40,29.2,40.2,29.3,40.4,29.3z"/>
<path d="M55.6,30.2h-2.7c-4.7,0-9.2,1.5-12.7,4.2c-0.2,0.2-0.4,0.6-0.1,0.9c0.1,0.1,0.4,0.2,0.5,0.2c0.1,0,0.2,0,0.4-0.1
	c3.2-2.6,7.5-4,12-4h2.7c0.4,0,0.6-0.2,0.6-0.6C56.2,30.4,55.9,30.2,55.6,30.2z"/>
<path d="M55.6,36.7h-2.7c-4.9,0-9.5,1-12.8,2.7c-0.2,0.2-0.4,0.6-0.2,0.9c0,0.2,0.2,0.4,0.5,0.4c0.1,0,0.1,0,0.4,0
	c3.2-1.7,7.6-2.7,12.2-2.7h2.7c0.4,0,0.6-0.2,0.6-0.6C56.2,36.9,55.9,36.7,55.6,36.7z"/>
<path d="M55.6,44.2h-2.7c-4.7,0-9.2,0.4-12.6,1.1c-0.4,0.1-0.6,0.4-0.5,0.7c0.1,0.2,0.4,0.5,0.6,0.5h0.1c3.4-0.7,7.7-1.1,12.3-1.1
	h2.7c0.4,0,0.6-0.2,0.6-0.6C56.2,44.4,55.9,44.2,55.6,44.2z"/>
<path d="M55.6,72.7h-2.7c-4.6,0-8.9-1.5-12.1-4.1c-0.2-0.1-0.6-0.1-0.9,0.1c-0.1,0.2-0.1,0.6,0.1,0.9c3.5,2.9,8,4.4,12.8,4.4h2.7
	c0.4,0,0.6-0.2,0.6-0.6C56.2,73,55.9,72.7,55.6,72.7z"/>
<path d="M52.8,67.9h2.7c0.4,0,0.5-0.2,0.5-0.6c0-0.4-0.2-0.6-0.6-0.6h-2.7c-4.6,0-9-1-12.2-2.7c-0.4-0.1-0.7,0-0.9,0.2
	c-0.1,0.4,0,0.7,0.4,0.9C43.5,66.9,48,67.9,52.8,67.9z"/>
<path d="M55.6,59.1h-2.7c-4.6,0-9-0.4-12.3-1.1c-0.4,0-0.6,0.1-0.7,0.5c0,0.4,0.1,0.6,0.5,0.7c3.4,0.7,7.9,1.1,12.6,1.1h2.7
	c0.4,0,0.6-0.2,0.6-0.6C56.2,59.4,55.9,59.1,55.6,59.1z"/>
<path d="M55.6,51.6H40.4c-0.4,0-0.6,0.2-0.6,0.6c0,0.4,0.2,0.6,0.6,0.6h15.2c0.4,0,0.6-0.2,0.6-0.6C56.2,51.9,55.9,51.6,55.6,51.6z"
	/>
<path d="M83.1,24.6c3.6,0.5,6.7,2.1,9.4,4.6c0.1,0.1,0.3,0.1,0.4,0.1s0.4,0,0.5-0.1c0.2-0.2,0.2-0.6,0-0.9c-2.7-2.7-6.2-4.4-10-5
	c-0.4-0.1-0.7,0.1-0.7,0.5C82.5,24.2,82.8,24.6,83.1,24.6z"/>
<path d="M93.2,74.6c-0.2-0.2-0.6-0.2-0.9,0c-2.5,2.5-5.7,4.1-9.2,4.6c-0.4,0.1-0.5,0.4-0.5,0.7c0,0.2,0.4,0.5,0.6,0.5
	c3.9-0.6,7.2-2.4,10-5C93.5,75.2,93.5,74.8,93.2,74.6z"/>
<path d="M83,31.4c3.5,0.5,6.7,1.7,9.4,3.9c0.1,0.1,0.3,0.1,0.4,0.1c0.2,0,0.4-0.1,0.6-0.2c0.2-0.2,0.1-0.6-0.1-0.9
	c-2.7-2.2-6.2-3.6-10-4.1c-0.4-0.1-0.7,0.1-0.7,0.5C82.4,31.1,82.6,31.4,83,31.4z"/>
<path d="M93.2,39.7c-2.9-1.5-6.4-2.4-10.1-2.7c-0.2,0-0.6,0.2-0.6,0.6c0,0.2,0.2,0.6,0.6,0.6c3.6,0.4,7,1.2,9.6,2.6
	c0,0.1,0.1,0.1,0.2,0.1c0.2,0,0.5-0.1,0.5-0.4C93.6,40.2,93.5,39.8,93.2,39.7z"/>
<path d="M93,45c-2.7-0.6-6.1-1-9.7-1.1c-0.4,0-0.6,0.2-0.6,0.6c0,0.4,0.2,0.6,0.6,0.6c3.6,0.1,6.9,0.5,9.5,1.1h0.1
	c0.2,0,0.5-0.2,0.6-0.5C93.5,45.4,93.4,45.2,93,45z"/>
<path d="M83.1,74.1c3.9-0.5,7.4-2,10-4.1c0.3-0.2,0.4-0.6,0.1-0.9c-0.2-0.2-0.6-0.4-0.9-0.1c-2.6,2-5.9,3.4-9.4,3.9
	c-0.2,0.1-0.5,0.4-0.5,0.7C82.5,73.8,82.9,74.1,83.1,74.1z"/>
<path d="M92.7,63.4c-2.6,1.4-5.9,2.4-9.5,2.6c-0.4,0-0.6,0.2-0.6,0.6c0,0.4,0.2,0.6,0.6,0.6c3.9-0.4,7.2-1.2,10.1-2.7
	c0.2-0.2,0.4-0.6,0.2-0.9C93.4,63.4,93,63.2,92.7,63.4z"/>
<path d="M83.1,60.4c3.7-0.1,7.1-0.5,9.9-1.1c0.4-0.1,0.6-0.4,0.5-0.7c-0.1-0.4-0.4-0.6-0.7-0.5c-2.6,0.6-6,1-9.6,1.1
	c-0.4,0-0.6,0.2-0.6,0.6C82.5,60.1,82.8,60.4,83.1,60.4z"/>
<path d="M83.3,51.6c-0.2,0-0.6,0.2-0.6,0.6c0,0.4,0.2,0.6,0.6,0.6h9.6c0.4,0,0.6-0.2,0.6-0.6c0-0.4-0.3-0.6-0.6-0.6H83.3z"/>
</svg>
