<?xml version="1.0" encoding="utf-8"?>
<!-- Generator: Adobe Illustrator 23.0.6, SVG Export Plug-In . SVG Version: 6.00 Build 0)  -->
<svg version="1.1" id="Layer_1" xmlns="http://www.w3.org/2000/svg" xmlns:xlink="http://www.w3.org/1999/xlink" x="0px" y="0px"
	 viewBox="0 0 111.5 105" style="enable-background:new 0 0 111.5 105;" xml:space="preserve">
<style type="text/css">
	.st0{display:none;}
	.st1{display:inline;}
	.st2{clip-path:url(#SVGID_2_);}
	.st3{clip-path:url(#SVGID_4_);}
</style>
<g class="st0">
	<defs>
		
			<rect id="SVGID_1_" x="-13" y="-15.9" transform="matrix(0.7071 -0.7071 0.7071 0.7071 -21.5541 56.1483)" width="140" height="140"/>
	</defs>
	<clipPath id="SVGID_2_" class="st1">
		<use xlink:href="#SVGID_1_"  style="display:none;overflow:visible;"/>
	</clipPath>
	<g class="st2">
		<path class="st1" d="M77.7,23.9c-0.2-0.2-0.7-0.3-1,0L64.8,34.2c-0.2,0.2-0.3,0.7,0,1c0.3,0.3,0.7,0.3,1,0L77.7,25
			C78,24.8,78.1,24.2,77.7,23.9z"/>
		<path class="st1" d="M86.6,16.1c-0.3-0.3-0.7-0.3-1,0l-3.7,3.2c-0.2,0.2-0.3,0.7,0,1c0.3,0.3,0.7,0.3,1,0l3.7-3.2
			C86.9,16.9,87,16.4,86.6,16.1z"/>
		<path class="st1" d="M89.5,13.7c-0.3-0.3-0.7-0.3-1,0l-0.7,0.7c-0.2,0.2-0.3,0.7,0,1c0.2,0.2,0.6,0.2,1,0l0.7-0.7
			C89.7,14.5,89.8,14,89.5,13.7z"/>
		<path class="st1" d="M38.6,74c0.5,0.3,1,0.6,1.5,1c0.4,0.2,0.8,0.2,1-0.2c0.2-0.4,0.2-0.8-0.2-1c-0.5-0.3-0.8-0.6-1.4-0.9
			c-0.4-0.2-0.8-0.2-1,0.2C38.4,73.3,38.4,73.8,38.6,74z"/>
		<path class="st1" d="M22.4,92.7c-0.6-0.4-1.2-0.7-1.7-1c-0.4-0.2-0.8-0.2-1,0.2c-0.1,0.3-0.1,0.7,0.1,0.9c0.7,0.5,1.3,0.8,1.8,1.2
			c0.4,0.2,0.8,0.2,1-0.2C22.8,93.3,22.8,92.9,22.4,92.7z"/>
		<path class="st1" d="M67.3,76.3L67,76c0.4-0.2,0.8-0.5,1.2-0.9c0.4-0.4,0.7-0.9,1-1.4c1.1,0.5,2.4,0.3,3.3-0.6l5.2-5.2
			c2.3-2.3,2.3-6.1,0-8.4l-0.1-0.1l1-1c1.8-1.8,1.8-4.5,0-6.3L78.6,52L101,26.2c2.4-2.8,2.9-6.7,1.1-9.9l6.4-6.4
			c0.4-0.4,0.5-1.2,0.3-1.6l-0.5-1.2c-1-2.1-2.7-3.8-4.8-4.6l-0.7-0.3c-0.5-0.3-1.2-0.1-1.6,0.3L95,8.8C91.8,7,87.7,7.4,84.9,9.9
			L59,32.4l-0.2-0.2c-1.8-1.8-4.5-1.8-6.3,0l-1.1,1.1c-2.3-2.2-6-2.2-8.3,0.1L38,38.6c-0.8,0.8-1.1,2-0.7,3.1
			c-0.5,0.2-1.1,0.6-1.5,1c-0.4,0.4-0.7,0.8-0.9,1.2l-0.1-0.1c-1.2-1.2-3-1.2-4.2,0L26.5,48c-2.3,2.3-2.3,6.1,0,8.4l3.1,3.1
			L9.2,79.9c-1.4,1.4-1.8,3.5-0.8,5.2l0.2,0.4l-2,2c-4.1,4.1-4.2,10.9,0,15.1c0.5,0.5,1.5,0.6,2.1,0c0.6-0.6,0.6-1.5,0-2.1
			c-2.9-2.9-3-7.9,0-10.9l1.4-1.4c0.8,1.3,1.6,2.6,2.6,3.7l-2.8,4.5c-0.4,0.6-0.3,1.4,0.2,1.9l2.9,2.9c0.5,0.5,1.3,0.6,1.8,0.3
			l4.5-3c1.7,1.4,3.6,2.6,5.6,3.8l0.9,0.5c1.8,0.9,3.9,0.5,5.2-0.8l20.5-20.5l3.1,3.1c2.3,2.3,6.1,2.3,8.4,0l4.2-4.2
			C68.4,79.3,68.4,77.4,67.3,76.3z M75.7,65.8L70.4,71l-2.2-2.2l-3-3l7.3-7.3l2,2l1.2,1.2C76.8,62.8,76.8,64.6,75.7,65.8z
			 M71.5,57.4l-7.3,7.3L46.3,47l7.3-7.3L71.5,57.4z M106,8v0.2l-5.5,5.5c-0.9-1.2-1.9-2.3-3.1-3.2L103,5C104.3,5.7,105.4,6.8,106,8z
			 M87,12.2c2.2-1.8,5.2-1.9,7.4-0.3l0.1,0.1c1.7,1.3,3.2,2.8,4.5,4.5l0.3,0.5c1.7,2.3,1.6,5.3-0.3,7.4L76.7,50.1L61.1,34.5L87,12.2
			z M54.6,34.3c0.6-0.6,1.5-0.6,2.1,0l1.2,1.2l17.8,17.8l0.9,0.9c0.6,0.6,0.6,1.5,0,2.1l-1,1l-22-22L54.6,34.3z M45.3,35.4
			c1.2-1.2,3-1.2,4.2,0l0.9,0.9l2.2,2.2l-7.3,7.3L42,42.7l-2-2L45.3,35.4z M37.9,44.8c0.6-0.6,1.5-0.6,2.1,0l26.2,26.2
			c0.6,0.6,0.6,1.5,0,2.1c-0.6,0.6-1.5,0.6-2.1,0L37.9,46.8C37.2,46.2,37.2,45.4,37.9,44.8z M35.8,48.9l26.2,26.2l3.2,3.2L62,81.5
			L29.6,49l3.1-3.1L35.8,48.9z M41.7,87.1c-0.3,0-0.6,0-1-0.1l-1.2-0.3c-7.2-2-13.5-6.4-17.7-12.5l-0.3-0.5
			c-0.3-0.5-0.5-1.1-0.5-1.6l1.8-1.8c0.1,0.4,0.3,0.8,0.5,1.1l0.3,0.5c1.2,1.6,2.4,3,3.8,4.4c4.1,4.1,9.1,7,14.8,8.7l1.2,0.3
			L41.7,87.1z M19.8,73.5c0.1,0.4,0.3,0.8,0.5,1.1l0.3,0.5c1.2,1.6,2.4,3,3.8,4.4c4.1,4.1,9.1,7,14.8,8.7l1.2,0.3l-1.8,1.8
			c-0.3,0-0.6,0-1-0.1l-1.2-0.3c-7.2-2-13.5-6.4-17.7-12.5l-0.3-0.5c-0.3-0.5-0.5-1.1-0.5-1.6L19.8,73.5z M44.9,84
			c-0.3,0-0.6,0-1-0.1l-1.2-0.3c-7.2-2-13.5-6.4-17.7-12.5l-0.3-0.5c-0.3-0.5-0.5-1.1-0.5-1.6l1.8-1.8c0.1,0.4,0.3,0.8,0.5,1.1
			l0.3,0.5c1.2,1.6,2.4,3,3.8,4.4c4.1,4.1,9.1,7,14.8,8.7l1.2,0.3L44.9,84z M16.7,76.6c0.1,0.4,0.3,0.8,0.5,1.1l0.3,0.5
			c1.2,1.6,2.4,3,3.8,4.4c4.1,4.1,9.1,7,14.8,8.7l1.2,0.3l-1.8,1.8c-0.3,0-0.6,0-1-0.1L33.4,93c-7.2-2-13.5-6.4-17.7-12.5L15.4,80
			c-0.3-0.5-0.5-1.1-0.5-1.6L16.7,76.6z M48,80.9c-0.3,0-0.6,0-1-0.1l-1.2-0.3c-7.2-2-13.5-6.4-17.7-12.5l-0.3-0.5
			c-0.3-0.5-0.5-1.1-0.5-1.6l1.8-1.8c0.1,0.4,0.3,0.8,0.5,1.1l0.3,0.5c1.2,1.6,2.4,3,3.8,4.4c0.4,0.4,0.9,0.7,1.4,1.4
			c0.3,0.3,0.7,0.3,1,0c0.3-0.3,0.3-0.7,0-1c-1.9-1.7-3.6-3.6-4.9-5.5l-0.3-0.5c-0.3-0.5-0.5-1.1-0.5-1.6l1.1-1.1l17.8,17.8L48,80.9
			z M14.1,98.5l-1.3-1.3l1.8-2.8c0.3,0.3,0.7,0.7,1,1c0.4,0.4,0.8,0.8,1.3,1.2L14.1,98.5z M29.1,99.8c-0.5,0.5-1.3,0.6-1.8,0.3
			l-0.9-0.5c-6.5-3.6-11.7-8.8-15.1-15.3L11,83.8c-0.2-0.6-0.1-1.4,0.3-1.8l2.3-2.3c0.1,0.4,0.3,0.8,0.5,1.1l0.3,0.5
			c1.2,1.6,2.4,3,3.8,4.4c4.1,4.1,9.1,7,14.8,8.7l1.2,0.3l-1.9,1.9c-0.3,0-0.6,0-1-0.1l-1.2-0.3C28,95.6,26,94.9,24.3,94
			c-0.3-0.1-0.7-0.1-0.9,0.3c-0.1,0.3,0,0.6,0.2,0.8c0,0,0.2,0,0.1,0.3c2,0.9,4,1.7,6.1,2.3l1.2,0.3L29.1,99.8z M56.8,82.5
			L28.5,54.3c-1.2-1.2-1.2-3,0-4.2L61,82.5C59.8,83.7,58,83.7,56.8,82.5z"/>
	</g>
</g>
<g>
	<defs>
		
			<rect id="SVGID_3_" x="2" y="16" transform="matrix(0.7071 -0.7071 0.7071 0.7071 -30.0193 52.6741)" width="93.2" height="93.2"/>
	</defs>
	<clipPath id="SVGID_4_">
		<use xlink:href="#SVGID_3_"  style="overflow:visible;"/>
	</clipPath>
	<g class="st3">
		<path d="M53,28c1.2-1.2,1.3-3.1,0-4.4c-1.3-1.3-3.2-1.1-4.4,0.1c-1.2,1.2-1.2,3.2,0,4.4C49.8,29.2,51.8,29.2,53,28z M49.2,24.3
			c0.9-0.9,2.3-0.8,3.2,0c0.8,0.8,0.7,2.3-0.1,3.1c-0.8,0.8-2.1,0.9-3,0C48.4,26.5,48.3,25.2,49.2,24.3z"/>
		<path d="M87.5,58.1c-1.2-1.2-3.2-1.1-4.4,0.1c-1.2,1.2-1.2,3.2,0,4.4c1.3,1.3,3.2,1.4,4.4,0.1C88.8,61.3,88.7,59.3,87.5,58.1z
			 M83.8,61.9c-0.8-0.8-1-2.2-0.1-3.1c0.9-0.9,2.3-0.8,3.1,0c0.9,0.9,1,2.2,0.1,3.1C86,62.8,84.6,62.7,83.8,61.9z"/>
		<path d="M98.8,73.9c7.4-7.4,7.4-19.6,0-27c-0.2-0.2-0.4-0.4-0.6-0.6c0-0.1-0.1-0.1-0.1-0.2l-33-33C65,13.1,64.9,13,64.9,13
			c-0.2-0.2-0.4-0.4-0.6-0.6c-7.4-7.4-19.5-7.5-26.9-0.1c-7,7-7.4,18.2-1.2,25.7c0,0.1,0.1,0.2,0.2,0.4l10.3,11.5
			c-2-0.1-4,0.6-5.6,2.2c-2.9,2.9-2.9,7.7,0,10.5c0.7,0.7,1.5,1.2,2.4,1.6l-21.7,9.3c-2,0.7-3.8,1.8-5.4,3.3
			C11,82.2,11,91,16.4,96.3c5.3,5.3,14.1,5.4,19.5,0c1.5-1.5,2.5-3.1,3.2-5l6.6-11c0.2,0.3,0.4,0.6,0.7,0.9c1.7,1.7,4.4,1.7,6,0
			c1.3-1.3,1.6-3.1,0.9-4.6l28.9,2.5c0.1,0,0.2,0,0.3,0C88.3,80,94.4,78.3,98.8,73.9z M38.6,13.6c6.8-6.8,17.7-6.8,24.5,0
			c0.1,0.1,0.1,0.1,0.2,0.2c0,0.3,0.1,0.5,0.3,0.8l1.5,1.5c4.5,6.7,3.7,16-2.1,21.9c-6.2,6.2-16,6.7-22.7,1.4L38,37
			c-0.2-0.3-0.5-0.4-0.7-0.4C31.9,29.7,32.3,19.9,38.6,13.6z M42.5,61.1c-2.1-2.1-2.1-5.6,0-7.7c1.8-1.8,4.6-2.1,6.7-0.8l0.8,0.9
			c0.1,0.1,0.3,0.2,0.5,0.3c1.7,2.1,1.6,5.2-0.4,7.2c-0.3,0.3-0.6,0.5-1,0.8c-0.2,0-0.4,0-0.6,0.1l-1.7,0.7
			C45.4,62.8,43.7,62.3,42.5,61.1z M17.6,95c-4.7-4.7-4.7-12.2,0-16.8c0.7-0.7,1.5-1.3,2.3-1.8c0.2,0,0.4,0,0.7-0.1l3-1.3
			c3.8-0.8,7.8,0.3,10.8,3.2c3.2,3.2,4.2,7.7,3,11.8L36.8,91c-0.2,0.3-0.2,0.6-0.1,0.8c-0.6,1.2-1.3,2.2-2.3,3.2
			C29.8,99.7,22.3,99.7,17.6,95z M50.9,76.7c1,1,0.9,2.4,0,3.3c-0.9,0.9-2.4,0.9-3.3,0c-0.5-0.5-0.7-1.1-0.7-1.8l0.6-1
			c0.1-0.2,0.2-0.4,0.1-0.6c0.3-0.3,0.6-0.4,0.9-0.5c0.1,0.1,0.3,0.1,0.4,0.1l1.6,0.1C50.7,76.5,50.8,76.6,50.9,76.7z M50.5,74.2
			c-1.4-0.4-3,0-4.1,1.1c-0.4,0.4-0.8,1-1,1.5l-5.5,9.1c-0.2-3.3-1.5-6.6-4-9.1c-2.1-2.1-4.7-3.4-7.5-3.9l19.7-8.4
			c1.3-0.3,2.5-1,3.6-2c2.9-2.9,2.9-7.6,0-10.5c-0.2-0.2-0.4-0.4-0.6-0.6l-7-7.9c6.8,2.7,14.9,1.3,20.3-4.2C69.5,34.2,71,26.6,69,20
			l22.1,22.1c-6.6-2.1-14-0.6-19.2,4.6c-7.4,7.4-7.4,19.6,0,27c1,1,2.1,1.9,3.3,2.6L50.5,74.2z M83,77.3c-0.2-0.1-0.4-0.2-0.6-0.2
			l-1-0.1c-3-0.7-5.8-2.2-8.1-4.6c-6.7-6.7-6.8-17.4,0-24.2c6.1-6.1,15.5-6.7,22.2-1.8l1.2,1.2c0.2,0.2,0.4,0.3,0.6,0.3
			c0.1,0.1,0.2,0.2,0.3,0.3c6.8,6.8,6.7,17.6,0,24.3C93.5,76.5,88.1,78,83,77.3z"/>
		<path d="M96.7,71.3l0.1-2.9l2.8-1.1c0.2-0.1,0.4-0.4,0.3-0.6l-1-2.8L101,62c0.2-0.1,0.3-0.5,0.1-0.7l-1.8-2.3l1.4-2.5
			c0.1-0.2,0.1-0.5-0.2-0.7L98,54.5l0.4-2.9c0-0.3-0.2-0.5-0.4-0.6l-2.9-0.6l-0.5-2.8c0-0.3-0.3-0.5-0.6-0.5l-2.8,0.5l-1.4-2.5
			c-0.1-0.3-0.4-0.4-0.7-0.2l-2.5,1.4l-2.3-1.8c-0.1-0.2-0.4-0.2-0.7,0.1l-1.9,2.2l-2.8-1c-0.2-0.1-0.5,0.1-0.6,0.3l-1,2.7L74.5,49
			c-0.3,0-0.5,0.2-0.5,0.5l-0.1,2.9l-2.7,1c-0.2,0.1-0.4,0.4-0.3,0.6l1,2.8l-2.2,1.9c-0.2,0.1-0.3,0.5-0.1,0.7l1.8,2.3L70,64.1
			c-0.1,0.2-0.1,0.5,0.2,0.7l2.4,1.5l-0.4,2.9c0,0.2,0,0.3,0.1,0.5c0.1,0.1,0.2,0.1,0.3,0l2.8,0.6l0.5,2.9c0,0.3,0.3,0.5,0.6,0.5
			l2.8-0.5l1.4,2.5c0.1,0.3,0.4,0.4,0.7,0.2l2.5-1.4l2.3,1.8c0.1,0.1,0.4,0.1,0.7-0.1l1.9-2.2l2.8,1c0.2,0.1,0.5-0.1,0.6-0.3l1-2.7
			l2.9-0.1C96.5,71.8,96.7,71.6,96.7,71.3z M92.9,70.9c-0.1,0-0.4,0.1-0.4,0.3l-0.8,2.5l-2.5-0.9c-0.2-0.1-0.4,0-0.6,0.2L86.7,75
			l-2.2-1.7c-0.2-0.1-0.4-0.1-0.6,0l-2.4,1.3L80,72.2c-0.2-0.2-0.3-0.3-0.5-0.2l-2.7,0.5l-0.5-2.7c0-0.2-0.1-0.2-0.1-0.3
			c-0.1-0.1-0.1-0.1-0.4-0.1l-2.7-0.5l0.5-2.7c0.1-0.2,0-0.5-0.2-0.5L71,64.3l1.3-2.4c0.1-0.2,0.1-0.5,0-0.6l-1.7-2.2l2.1-1.8
			c0.1-0.1,0.2-0.4,0.1-0.6L72,54.1l2.6-1c0.1,0,0.3-0.3,0.3-0.5V50l2.8-0.1c0.1,0,0.4-0.1,0.4-0.3l1-2.6l2.4,1
			c0.2,0.1,0.4,0,0.6-0.1l1.8-2.1l2.2,1.7c0.2,0.1,0.4,0.1,0.6,0l2.4-1.4l1.6,2.5c0.1,0.2,0.3,0.3,0.5,0.2l2.7-0.5l0.4,2.7
			c0,0.2,0.1,0.3,0.4,0.4l2.7,0.5L97,54.7c-0.1,0.2,0,0.5,0.2,0.5l2.3,1.4l-1.2,2.3c-0.1,0.2-0.1,0.5,0,0.6l1.7,2.2L98,63.4
			c-0.1,0.1-0.2,0.4-0.1,0.6l0.9,2.6l-2.6,1c-0.2,0.1-0.3,0.3-0.5,0.6v2.7H92.9z"/>
		<path d="M41,35.7l0.5,2.7c0,0.3,0.3,0.5,0.6,0.5l2.9-0.5l1.4,2.5c0.1,0.3,0.4,0.4,0.7,0.2l2.5-1.4l2.3,1.8
			c0.1,0.2,0.5,0.2,0.7-0.1l1.9-2.2l2.8,1c0.2,0.1,0.5-0.1,0.6-0.3l1.1-2.7l2.9-0.1c0.3,0,0.5-0.2,0.5-0.5l0.1-2.9l2.7-1.1
			c0.2-0.1,0.4-0.4,0.3-0.6l-1-2.8l2.2-1.9c0.2-0.1,0.3-0.5,0.1-0.7l-1.8-2.3l1.4-2.5c0.1-0.2,0.1-0.5-0.2-0.7l-2.5-1.4l0.4-2.9
			c0-0.3-0.2-0.5-0.4-0.6l-2.8-0.5l-0.5-2.8c0-0.3-0.3-0.5-0.6-0.5l-2.9,0.5l-1.4-2.5c-0.1-0.3-0.4-0.4-0.7-0.2l-2.5,1.4L49.8,10
			c-0.1-0.2-0.5-0.2-0.7,0.1l-1.9,2.2l-2.8-1c-0.2-0.1-0.5,0.1-0.6,0.3l-1.1,2.7l-2.9,0.1c-0.3,0-0.5,0.2-0.5,0.5l-0.1,2.9l-2.7,1.1
			c-0.2,0.1-0.4,0.4-0.3,0.6l1,2.8l-2.2,1.9c-0.2,0.1-0.3,0.5-0.1,0.7l1.8,2.3l-1.4,2.5c-0.1,0.2-0.1,0.5,0.2,0.7l2.4,1.5l-0.5,2.9
			c0,0.1,0,0.3,0.2,0.5c0.1,0.1,0.2,0.1,0.4,0.1L41,35.7z M39.1,31.6c0.1-0.2,0-0.5-0.2-0.5l-2.3-1.4l1.3-2.3c0.2-0.1,0.2-0.5,0-0.6
			l-1.7-2.2l2.1-1.8c0.1-0.2,0.2-0.4,0.1-0.6l-0.9-2.6l2.6-1c0.2,0,0.3-0.3,0.3-0.5v-2.7l2.6,0.1c0.2,0,0.4-0.1,0.5-0.3l1-2.6
			l2.6,0.9c0.2,0.1,0.5,0,0.6-0.2l1.8-2.1l2.2,1.7c0.2,0.1,0.4,0.1,0.6,0l2.4-1.4l1.4,2.3c0.1,0.2,0.3,0.3,0.5,0.2l2.9-0.3l0.5,2.7
			c0,0.1,0.1,0.3,0.4,0.4l2.7,0.5l-0.4,2.7c-0.1,0.2,0,0.5,0.2,0.5L65,22l-1.3,2.3c-0.1,0.2-0.1,0.5,0,0.6l1.8,2.1l-2.1,1.8
			c-0.1,0.2-0.2,0.4-0.1,0.6l0.9,2.6l-2.6,1c-0.1,0-0.3,0.3-0.3,0.5v2.7h-2.7c-0.2,0-0.4,0.1-0.5,0.3l-1,2.6l-2.6-0.9
			c-0.2-0.1-0.5,0-0.6,0.1l-1.8,2.1L50,38.7c-0.2-0.1-0.4-0.1-0.6,0L47,40l-1.4-2.3c-0.1-0.2-0.3-0.3-0.5-0.2l-2.7,0.5l-0.5-2.7
			c0-0.2-0.1-0.2-0.2-0.3c-0.1-0.1-0.1-0.1-0.4-0.2l-2.7-0.5L39.1,31.6z"/>
		<path d="M47.9,55.8c-0.8-0.8-2.2-0.8-3,0c-0.8,0.8-0.8,2.2,0,3c0.7,0.7,2.2,0.8,3,0C48.7,58,48.7,56.6,47.9,55.8z M45.2,58.4
			c-0.6-0.6-0.6-1.5,0-2.1c0.6-0.6,1.5-0.6,2.1,0c0.5,0.5,0.6,1.5,0,2.1C46.7,59,45.8,59,45.2,58.4z"/>
		<path d="M28,84.7c-1.1-1.1-2.7-1.1-3.8,0c-1,1-1,2.7,0,3.8c1,1,2.7,1,3.8,0C29,87.4,29,85.7,28,84.7z M24.9,87.7
			c-0.6-0.6-0.6-1.7,0-2.3c0.6-0.6,1.7-0.6,2.3,0c0.6,0.6,0.6,1.6,0,2.3C26.6,88.3,25.5,88.3,24.9,87.7z"/>
		<path d="M33.4,91.1l2.3-0.8c0.2,0,0.3-0.1,0.3-0.3c0.1-0.1,0.1-0.4,0-0.4l-1.4-2.1l1.7-1.7c0.2-0.1,0.2-0.3,0.2-0.4
			c0-0.1-0.2-0.3-0.2-0.4l-2.1-1.4l0.8-2.3c0.2-0.1,0.1-0.4,0-0.4c-0.1-0.1-0.2-0.2-0.4-0.2l-2.4-0.3L32,77.8c0-0.1-0.2-0.3-0.2-0.4
			c-0.2,0-0.3,0-0.5,0L29,78.3l-1.4-2.1c-0.1-0.1-0.2-0.2-0.3-0.3c-0.2,0-0.4,0.1-0.5,0.1l-1.7,1.7L23,76.4c-0.2,0-0.3,0-0.5,0
			c-0.2,0-0.3,0.1-0.3,0.3L21.5,79L19,78.8c-0.2,0-0.3,0-0.5,0.1c-0.2,0.1-0.2,0.3-0.2,0.5l0.2,2.5l-2.3,0.8c-0.2,0-0.3,0.1-0.3,0.3
			c-0.2,0.1-0.1,0.4,0,0.4l1.4,2.1l-1.7,1.7c-0.2,0.1-0.2,0.3-0.2,0.4c0,0.1,0.2,0.3,0.2,0.4l2.1,1.4L17,91.8
			c-0.2,0.1-0.1,0.4,0,0.4l0.1,0.1c0.1,0.1,0.2,0.1,0.5,0.1l2.4,0.3l0.2,2.5c0,0.1,0.2,0.3,0.2,0.4c0.2,0,0.3,0,0.5,0l2.3-0.8
			l1.4,2.1c0.1,0.1,0.2,0.2,0.4,0.2c0.2,0,0.4-0.1,0.5-0.1l1.7-1.7l2.1,1.4c0.2,0,0.3,0,0.5,0c0.2,0,0.3-0.1,0.3-0.3l0.8-2.3
			l2.3,0.2c0.2,0,0.3,0,0.5-0.1c0.2-0.1,0.2-0.3,0.2-0.5L33.4,91.1z M30.4,92.9c-0.2,0.1-0.5,0.1-0.5,0.4l-0.7,2.1l-2-1.2
			c-0.2-0.1-0.5-0.1-0.7,0.1l-1.6,1.6l-1.2-1.9c-0.2-0.2-0.4-0.2-0.6-0.2L21,94.5l-0.3-2.3c-0.1-0.2-0.2-0.4-0.5-0.4L18,91.5
			l0.7-2.1c0.1-0.2,0.1-0.4-0.1-0.5l-2-1.2l1.6-1.6c0.2-0.2,0.2-0.4,0.1-0.7l-1.2-2l2.1-0.7c0.2-0.1,0.5-0.3,0.4-0.5L19.4,80
			l2.3,0.1c0.2-0.1,0.5-0.1,0.5-0.4l0.8-2.1l1.9,1.3c0.2,0.1,0.5,0.1,0.7-0.1l1.6-1.6l1.2,2c0.2,0.1,0.4,0.2,0.6,0.1l2.1-0.8
			l0.2,2.2c0.1,0.2,0.2,0.4,0.5,0.4l2.3,0.3l-0.7,2.1c-0.1,0.2,0,0.4,0.2,0.6l1.9,1.2l-1.6,1.6c-0.2,0.2-0.1,0.4-0.1,0.7l1.2,2
			l-2.1,0.7c-0.2,0.1-0.5,0.3-0.4,0.5l0.2,2.2L30.4,92.9z"/>
		<path d="M50,34.2c0.5,0.5,1.2,0.5,1.7,0c0.5-0.5,0.5-1.2,0-1.7c-0.5-0.5-1.2-0.5-1.7,0C49.5,33,49.5,33.7,50,34.2z"/>
		<path d="M42.5,26.7c0.5,0.5,1.2,0.5,1.7,0c0.5-0.5,0.5-1.2,0-1.7c-0.5-0.5-1.2-0.5-1.7,0C42,25.5,42,26.2,42.5,26.7z"/>
		<path d="M57.5,26.7c0.5,0.5,1.2,0.5,1.7,0c0.5-0.5,0.5-1.2,0-1.7c-0.5-0.5-1.2-0.5-1.7,0C57,25.5,57,26.2,57.5,26.7z"/>
		<path d="M50,19.2c0.5,0.5,1.2,0.5,1.7,0c0.5-0.5,0.5-1.2,0-1.7c-0.5-0.5-1.2-0.5-1.7,0C49.5,18,49.5,18.7,50,19.2z"/>
		<path d="M84.5,68.7c0.5,0.5,1.2,0.5,1.7,0c0.5-0.5,0.5-1.2,0-1.7c-0.5-0.5-1.2-0.5-1.7,0C84,67.5,84,68.2,84.5,68.7z"/>
		<path d="M77,61.2c0.5,0.5,1.2,0.5,1.6,0c0.5-0.5,0.5-1.2,0-1.7c-0.5-0.5-1.2-0.5-1.6,0C76.5,60,76.5,60.7,77,61.2z"/>
		<path d="M92,61.2c0.5,0.5,1.2,0.5,1.7,0c0.5-0.5,0.5-1.2,0-1.7c-0.5-0.5-1.2-0.5-1.7,0C91.5,60,91.5,60.7,92,61.2z"/>
		<path d="M84.5,53.7c0.5,0.5,1.2,0.5,1.7,0c0.5-0.5,0.5-1.2,0-1.7c-0.5-0.5-1.2-0.5-1.7,0C84,52.5,84,53.2,84.5,53.7z"/>
	</g>
</g>
</svg>
