<?xml version="1.0" encoding="utf-8"?>
<!-- Generator: Adobe Illustrator 23.0.6, SVG Export Plug-In . SVG Version: 6.00 Build 0)  -->
<svg version="1.1" id="Layer_1" xmlns="http://www.w3.org/2000/svg" xmlns:xlink="http://www.w3.org/1999/xlink" x="0px" y="0px"
	 viewBox="0 0 120 120" style="enable-background:new 0 0 120 120;" xml:space="preserve">
<style type="text/css">
	.st0{clip-path:url(#SVGID_2_);}
	.st1{fill:#3E64FF;}
</style>
<g>
	<defs>
		<rect id="SVGID_1_" width="120" height="120"/>
	</defs>
	<clipPath id="SVGID_2_">
		<use xlink:href="#SVGID_1_"  style="overflow:visible;"/>
	</clipPath>
	<g class="st0">
		<path class="st1" d="M96.3,88.5c0.8,0,1.6-0.5,1.9-1.2l21.7-51.6c0.4-1-0.1-2.2-1.1-2.7c-0.1,0-0.2-0.1-0.2-0.1l-4.7-1.3
			c-35.7-9.8-73.3-9.8-109,0l-3.3,0.9c-1.1,0.3-1.7,1.4-1.4,2.5c0,0.1,0,0.1,0.1,0.2l9.5,24.4v0l10.8,27.6c0.3,0.8,1.2,1.4,2.1,1.3
			c0.1,0,0.1,0,0.2,0c6.9-1.3,13.8-2.2,20.8-2.8l3.8,8.8c0.4,1,1.6,1.5,2.7,1.1c1-0.4,1.5-1.6,1.1-2.7l-3.2-7.5
			c13-0.7,26-0.2,38.9,1.6l3.2,7.6c0.4,1,1.6,1.5,2.7,1.1c1-0.4,1.5-1.6,1.1-2.7l-2.3-5.2c1.5,0.2,3,0.5,4.6,0.8
			C96.1,88.5,96.2,88.5,96.3,88.5z M112.7,35.5l2.5,0.7l-8.6,20.5c-5.3-1.2-10.6-2.3-15.9-3.1l6.5-21.7
			C102.4,32.9,107.6,34.1,112.7,35.5z M93.2,31.2L86.6,53c-2.5-0.3-5.1-0.6-7.7-0.9L85.6,30C88.1,30.4,90.7,30.7,93.2,31.2z
			 M81.5,29.5l-6.7,22.2c-2.6-0.2-5.2-0.3-7.8-0.4l6.8-22.5C76.4,29,79,29.2,81.5,29.5z M69.6,28.6l-6.8,22.6c-4-0.1-8.1,0-12,0.1
			l6.9-23C61.8,28.3,65.8,28.4,69.6,28.6L69.6,28.6z M53.5,28.4l-7,23.2c-2.7,0.2-5.4,0.4-8.1,0.7l7-23.5
			C48.1,28.6,50.8,28.4,53.5,28.4L53.5,28.4z M41.1,29.1L34,52.7c-1.3,0.2-2.5,0.3-3.9,0.5c0,0-0.1,0-0.1,0l7.1-23.7
			C38.4,29.4,39.7,29.3,41.1,29.1L41.1,29.1z M4.7,35.8l1.1-0.3c8.8-2.4,17.7-4.2,26.8-5.5L25.5,54c-4.3,0.7-8.5,1.6-12.7,2.5
			L4.7,35.8z M89.5,83.3l-4.6-10.7l10.4,2.8c1.1,0.3,2.2-0.4,2.5-1.5c0.3-1.1-0.4-2.2-1.4-2.5l-30.4-8.1c-1.1-0.3-2.2,0.4-2.5,1.5
			c-0.3,1.1,0.4,2.2,1.4,2.5l15.1,4l4.9,11.3c-8.5-1.1-17-1.6-25.5-1.6c-4.4,0-8.8,0.1-13.2,0.4l-3.8-8.8l10.4,2.8
			c1.1,0.3,2.2-0.3,2.5-1.4c0.3-1.1-0.3-2.2-1.4-2.5c0,0,0,0-0.1,0l-30.4-8.1c-1.1-0.3-2.2,0.4-2.5,1.5c-0.3,1.1,0.4,2.2,1.4,2.5
			l15.1,4l4.5,10.5c-6.1,0.5-12.2,1.3-18.2,2.4l-9.3-23.9c4.3-1,8.6-1.8,13-2.5c0,0,0.1,0,0.1,0c1.4-0.2,2.8-0.4,4-0.6
			c24.5-3.4,49.5-2.3,73.6,3.3l-9.9,23.7C93.2,83.9,91.4,83.6,89.5,83.3z"/>
	</g>
</g>
</svg>
