<?xml version="1.0" encoding="utf-8"?>
<!-- Generator: Adobe Illustrator 25.2.0, SVG Export Plug-In . SVG Version: 6.00 Build 0)  -->
<svg version="1.1" xmlns="http://www.w3.org/2000/svg" xmlns:xlink="http://www.w3.org/1999/xlink" x="0px" y="0px"
	 viewBox="0 0 3281.4 1617.14" style="enable-background:new 0 0 3281.4 1617.14;" xml:space="preserve">
<style type="text/css">
	.Graphic_x0020_Style_x0020_2{fill:none;}
	.st0{display:none;}
	.st1{display:inline;fill:#F5F5F5;}
	.st2{fill:none;stroke:#000000;stroke-width:3.646;stroke-linecap:round;stroke-linejoin:round;}
	.st3{fill:none;stroke:#000000;stroke-width:3.646;stroke-linecap:round;stroke-linejoin:round;stroke-dasharray:12.0086,12.0086;}
	.st4{fill:#FFFFFF;stroke:#000000;stroke-width:3.646;stroke-linecap:round;stroke-linejoin:round;stroke-miterlimit:10;}
	.st5{fill:none;stroke:#000000;stroke-width:3.646;stroke-linecap:round;stroke-linejoin:round;stroke-miterlimit:10;}
	.st6{fill:#00AEEF;stroke:#000000;stroke-width:3.646;stroke-linecap:round;stroke-linejoin:round;stroke-miterlimit:10;}
	.st7{clip-path:url(#SVGID_2_);}
	.st8{fill:#FFFFFF;stroke:#181D23;stroke-width:3.646;stroke-linecap:round;stroke-linejoin:round;stroke-miterlimit:10;}
	.st9{opacity:0.2;}
	.st10{fill:#FFFFFF;}
	.st11{fill:none;stroke:#181D23;stroke-width:3.646;stroke-linecap:round;stroke-linejoin:round;stroke-miterlimit:10;}
	.st12{opacity:0.1;}
	.st13{opacity:0.3;fill:none;stroke:#000000;stroke-width:3.646;stroke-linecap:round;stroke-linejoin:round;stroke-miterlimit:10;}
	.st14{fill-opacity:0.2;}
	
		.st15{fill-rule:evenodd;clip-rule:evenodd;fill:#FFFFFF;stroke:#000000;stroke-width:3.646;stroke-linecap:round;stroke-linejoin:round;stroke-miterlimit:10;}
	
		.st16{fill-rule:evenodd;clip-rule:evenodd;fill:#00AEEF;stroke:#000000;stroke-width:3.646;stroke-linecap:round;stroke-linejoin:round;stroke-miterlimit:10;}
	
		.st17{fill-rule:evenodd;clip-rule:evenodd;fill:none;stroke:#000000;stroke-width:3.646;stroke-linecap:round;stroke-linejoin:round;stroke-miterlimit:10;}
	
		.st18{fill:none;stroke:#000000;stroke-width:3.646;stroke-linecap:round;stroke-linejoin:round;stroke-miterlimit:10;stroke-dasharray:7.292,12.761;}
	.st19{fill-rule:evenodd;clip-rule:evenodd;fill-opacity:0.2;}
	.st20{display:inline;}
</style>
<g id="BG" class="st0">
	<rect class="st1" width="3281.4" height="1617.14"/>
</g>
<g id="GRAPHICS">
	<g>
		<g>
			<path class="st2" d="M2905.1,321.59c-0.34,1.93-0.69,3.9-1.05,5.9"/>
			<path class="st3" d="M2901.92,339.31c-34.56,190.51-138.18,678.84-546.42,772.35c0,0-276.41,42.58-571.52-67.43
				c-586.54-218.67-1084.12,77.87-1285.42,364.02"/>
			<path class="st2" d="M495.11,1413.18c-1.14,1.65-2.27,3.3-3.39,4.95"/>
		</g>
	</g>
	<path class="st4" d="M3073,1516.79c0.01-1.11-0.06-2.18-0.17-3.24c7.36-0.94,13.38-5.81,13.42-13.42
		c0.01-3.61-0.99-12.91-11.23-13.64c4.63-11.04-4.65-19.58-13.68-19.6c-9.62-0.05-16.53,9.07-16.58,20.32
		c-0.04,11.27-0.11,19.58-0.15,29.48c-0.04,11.26,6.3,17.21,14.15,17.25C3066.57,1533.95,3072.97,1528.05,3073,1516.79z"/>
	<path class="st4" d="M2811.7,1534.31c-0.01-2.3,0.12-4.5,0.36-6.71c-15.24-1.95-27.71-12.03-27.78-27.78
		c-0.03-7.46,2.06-26.73,23.26-28.25c-9.59-22.86,9.62-40.54,28.34-40.59c19.92-0.1,34.24,18.78,34.34,42.07
		c0.09,23.34,0.23,40.54,0.3,61.05c0.07,23.31-13.05,35.64-29.3,35.72C2825.02,1569.84,2811.78,1557.62,2811.7,1534.31z"/>
	<g>
		<path class="st4" d="M276.41,678.28c-2.55,0.02-4.98,0.2-7.42,0.5c-2.38-16.83-13.71-30.48-31.14-30.32
			c-8.26,0.08-29.54,2.66-30.91,26.13c-25.42-10.28-44.7,11.23-44.48,31.94c0.18,22.02,21.27,37.59,47.03,37.37
			c25.82-0.24,44.84-0.34,67.53-0.55c25.78-0.25,39.23-14.95,39.07-32.92C315.91,692.5,302.2,678.03,276.41,678.28z"/>
		<path class="st4" d="M427.08,787.71c-1.41,0-2.77,0.07-4.12,0.22c-1.22-9.34-9.16-16.57-18.82-16.58
			c-4.6-0.01-8.83,1.64-12.12,4.34c-1.69-6.83-7.85-11.89-15.21-11.91c-8.7-0.01-15.76,7.04-15.77,15.72c0,0.4,0.01,0.79,0.04,1.2
			c-13.13,1.05-23.39,10.49-23.41,21.99c-0.02,12.22,11.57,20.98,25.86,21c14.32,0.02,50.9,0.07,63.5,0.09
			c14.3,0.02,21.86-8.04,21.87-18C448.92,795.8,441.38,787.72,427.08,787.71z"/>
		<path class="st4" d="M737.63,525.41c-3.05,0-5.99,0.15-8.9,0.48c-2.64-20.19-19.8-35.81-40.69-35.84
			c-9.95-0.02-19.08,3.54-26.2,9.39c-3.65-14.76-16.98-25.71-32.89-25.74c-18.81-0.03-34.06,15.22-34.09,33.97
			c0,0.88,0.03,1.71,0.09,2.6c-28.39,2.27-50.57,22.67-50.61,47.53c-0.04,26.41,25,45.35,55.9,45.39
			c30.97,0.04,110.03,0.16,137.26,0.2c30.91,0.04,47.25-17.37,47.28-38.92C784.83,542.91,768.55,525.46,737.63,525.41z"/>
		<g>
			<line class="st5" x1="2552.48" y1="895.62" x2="2552.48" y2="703.04"/>
			<rect x="2529.17" y="774.83" class="st6" width="46.61" height="107.71"/>
		</g>
		<g>
			<line class="st5" x1="2494.58" y1="981.45" x2="2494.58" y2="761.79"/>
			<rect x="2471.28" y="884.43" class="st4" width="46.61" height="48.93"/>
		</g>
		<g>
			<line class="st5" x1="2436.69" y1="939.73" x2="2436.69" y2="813.83"/>
			<rect x="2413.39" y="839.8" class="st6" width="46.61" height="70.42"/>
		</g>
		<g>
			<line class="st5" x1="2378.8" y1="1047.94" x2="2378.8" y2="861.24"/>
			<rect x="2355.5" y="895.09" class="st4" width="46.61" height="81.94"/>
		</g>
		<g>
			<line class="st5" x1="2320.91" y1="1020.11" x2="2320.91" y2="858.15"/>
			<rect x="2297.6" y="896.87" class="st6" width="46.61" height="78.1"/>
		</g>
		<g>
			<line class="st5" x1="2263.01" y1="1059.84" x2="2263.01" y2="937.26"/>
			<rect x="2239.71" y="957.02" class="st6" width="46.61" height="19.97"/>
		</g>
		<g>
			<line class="st5" x1="2205.12" y1="1071.03" x2="2205.12" y2="831.81"/>
			<rect x="2181.82" y="872.14" class="st6" width="46.61" height="77.71"/>
		</g>
		<g>
			<line class="st5" x1="1741.27" y1="857.66" x2="1741.27" y2="727.01"/>
			<rect x="1717.96" y="766.73" class="st6" width="46.61" height="48.93"/>
		</g>
		<g>
			<line class="st5" x1="1113.13" y1="962.09" x2="1113.13" y2="836.19"/>
			<rect x="1089.82" y="862.16" class="st4" width="46.61" height="70.42"/>
		</g>
		<g>
			<line class="st5" x1="1055.23" y1="930.3" x2="1055.23" y2="671.06"/>
			<rect x="1031.93" y="787.74" class="st6" width="46.61" height="74.04"/>
		</g>
		<g>
			<line class="st5" x1="997.34" y1="932.48" x2="997.34" y2="810.52"/>
			<rect x="974.04" y="849.23" class="st6" width="46.61" height="38.1"/>
		</g>
		<g>
			<line class="st5" x1="939.45" y1="972.2" x2="939.45" y2="819.62"/>
			<rect x="916.14" y="859.35" class="st6" width="46.61" height="67.71"/>
		</g>
		<g>
			<line class="st5" x1="1345.67" y1="831.81" x2="1345.67" y2="725.91"/>
			<rect x="1322.37" y="801.88" class="st4" width="46.61" height="9.93"/>
		</g>
		<g>
			<line class="st5" x1="1287.78" y1="847.02" x2="1287.78" y2="700.32"/>
			<rect x="1264.48" y="764.17" class="st4" width="46.61" height="37.7"/>
		</g>
		<g>
			<line class="st5" x1="1229.89" y1="869.2" x2="1229.89" y2="747.24"/>
			<rect x="1206.58" y="785.95" class="st6" width="46.61" height="38.1"/>
		</g>
		<g>
			<line class="st5" x1="1171.99" y1="938.93" x2="1171.99" y2="786.35"/>
			<rect x="1148.69" y="826.08" class="st6" width="46.61" height="67.71"/>
		</g>
		<g>
			<line class="st5" x1="881.55" y1="1013.39" x2="881.55" y2="881.96"/>
			<rect x="858.25" y="890.54" class="st6" width="46.61" height="86.48"/>
		</g>
		<g>
			<line class="st5" x1="823.95" y1="1006.54" x2="823.95" y2="880.63"/>
			<rect x="800.64" y="906.6" class="st4" width="46.61" height="70.42"/>
		</g>
		<g>
			<line class="st5" x1="766.05" y1="991.75" x2="766.05" y2="845.05"/>
			<rect x="742.75" y="908.9" class="st4" width="46.61" height="37.7"/>
		</g>
		<g>
			<line class="st5" x1="708.16" y1="993.92" x2="708.16" y2="871.96"/>
			<rect x="684.86" y="910.68" class="st6" width="46.61" height="38.1"/>
		</g>
		<g>
			<line class="st5" x1="650.27" y1="1033.65" x2="650.27" y2="881.07"/>
			<rect x="626.97" y="920.8" class="st6" width="46.61" height="67.71"/>
		</g>
		<g>
			<line class="st5" x1="592.38" y1="1106.81" x2="592.38" y2="975.37"/>
			<rect x="569.07" y="983.96" class="st6" width="46.61" height="77.71"/>
		</g>
		<g>
			<line class="st5" x1="533.88" y1="1263.65" x2="533.88" y2="1052.21"/>
			<rect x="510.58" y="1060.79" class="st6" width="46.61" height="157.71"/>
		</g>
		<g>
			<line class="st5" x1="2147.23" y1="991.37" x2="2147.23" y2="868.8"/>
			<rect x="2123.93" y="946.23" class="st4" width="46.61" height="28.74"/>
		</g>
		<g>
			<line class="st5" x1="2089.34" y1="1038.97" x2="2089.34" y2="862.64"/>
			<rect x="2066.03" y="890.82" class="st4" width="46.61" height="55.14"/>
		</g>
		<g>
			<line class="st5" x1="2031.44" y1="927.68" x2="2031.44" y2="735.1"/>
			<rect x="2008.14" y="828.68" class="st6" width="46.61" height="53.85"/>
		</g>
		<g>
			<line class="st5" x1="1973.55" y1="892.41" x2="1973.55" y2="699.83"/>
			<rect x="1950.25" y="777.42" class="st4" width="46.61" height="69.84"/>
		</g>
		<g>
			<line class="st5" x1="1915.66" y1="963.8" x2="1915.66" y2="771.22"/>
			<rect x="1892.36" y="810.94" class="st6" width="46.61" height="107.71"/>
		</g>
		<g>
			<line class="st5" x1="1857.77" y1="864.92" x2="1857.77" y2="709.01"/>
			<rect x="1834.46" y="748.74" class="st4" width="46.61" height="67.71"/>
		</g>
		<g>
			<line class="st5" x1="1799.87" y1="849.22" x2="1799.87" y2="736.65"/>
			<rect x="1776.57" y="776.38" class="st4" width="46.61" height="27.7"/>
		</g>
		<g>
			<line class="st5" x1="2610.37" y1="796.62" x2="2610.37" y2="668.39"/>
			<rect x="2587.07" y="677.64" class="st6" width="46.61" height="84.34"/>
		</g>
		<g>
			<line class="st5" x1="2668.26" y1="761.47" x2="2668.26" y2="555.12"/>
			<rect x="2644.96" y="573.93" class="st6" width="46.61" height="123.29"/>
		</g>
		<g>
			<line class="st5" x1="2726.94" y1="589.54" x2="2726.94" y2="475.19"/>
			<rect x="2703.64" y="246.75" class="st6" width="46.61" height="328.54"/>
		</g>
		<g>
			<line class="st5" x1="475.92" y1="1300.81" x2="475.92" y2="1169.37"/>
			<rect x="452.62" y="1177.95" class="st6" width="46.61" height="77.71"/>
		</g>
		<g>
			<line class="st5" x1="360.81" y1="1483.48" x2="360.81" y2="1281.86"/>
			<rect x="337.51" y="1290.44" class="st6" width="46.61" height="127.71"/>
		</g>
		<g>
			<line class="st5" x1="417.42" y1="1341.4" x2="417.42" y2="1169.95"/>
			<rect x="394.12" y="1255.67" class="st4" width="46.61" height="40.57"/>
		</g>
	</g>
	<g>
		<defs>
			<rect id="SVGID_1_" x="10" y="0.04" width="3261.4" height="1617.05"/>
		</defs>
		<clipPath id="SVGID_2_">
			<use xlink:href="#SVGID_1_"  style="overflow:visible;"/>
		</clipPath>
		<g class="st7">
			<g>
				<g>
					<path class="st8" d="M1348.2,983.87c2,0.44,4.04,0.74,6.09,0.9c34.17,2.52,68.77-5.81,102.93-6.32
						c19.95-0.3,43.07,6.92,36.38-19.04c-2.42-9.38-7.42-18.06-10.01-27.39c-1.63-5.91,1.33-4.59-5.25-6.09
						c-5.81-1.32-14.25,0.29-20.16,0.4c-10.82,0.18-21.65,0.31-32.46,0.51c-33.15,0.61-62.48,2.34-93.43,13.84
						c-12.43,4.62-12.6,15.71-7.29,26.38C1329.36,975.84,1338.19,981.65,1348.2,983.87z"/>
					<path class="st8" d="M1378.89,993.66c-9.66,1.28-19.25,2.48-32.51,6.76c-17.75,5.73-16.83,28.54-1.03,34.13
						c8.33,2.94,16.36,6.81,24.83,9.23c17.65,5.03,53.44,16.9,61.58-20.5C1440.62,982.55,1396.92,991.3,1378.89,993.66z"/>
					<path class="st8" d="M1389.03,1081.06c-9.66,1.28-20.22,2.25-29.73,7.01c-16.68,8.36-19.61,28.28-3.81,33.87
						c8.32,2.95,16.36,6.82,24.83,9.23c17.66,5.04,53.44,16.9,61.58-20.5C1450.76,1069.94,1407.06,1078.69,1389.03,1081.06z"/>
					<path class="st8" d="M1391.5,1154.62c-8.04,1.06-16.82,1.86-24.73,5.83c-13.87,6.95-16.31,23.53-3.16,28.17
						c6.92,2.45,13.59,5.67,20.65,7.68c14.69,4.19,44.46,14.06,51.22-17.05C1442.84,1145.37,1406.49,1152.65,1391.5,1154.62z"/>
					<g>
						<g>
							<path class="st8" d="M1896.89,1781.55c-35.61-144.13-90.96-411.15-103.39-450.29c-10.79-33.96-11.72-79.96-12-115.64
								c-0.39-48.65-9.85-141.52-5.54-168.28c2.45-15.1,8.84-21.08,6.52-34.27c-3.3-18.71-9.3-16.96-17.32-33.38
								c-12.48-25.57-19.03-24.73-21.67-53.28c-1.34-14.44,6.01-30.56-6.23-41.43c-18.68-16.59-42.27,1.14-42.27,23.62
								c0,29.93-0.06,44.74-0.06,76.29c0,7.18,0.01,12.87,0.01,18.04c4.89,2.46,10.64,3.74,15.56,4.83
								c3.38,0.75,2.55,1.34-0.79,1.35c-5.04,0.01-10.01-1.43-14.75-0.37c0.02,11.64,0.04,30.78,0.04,57.8
								c0,26.04-58.4,33.36-75.86,36.31c-45.31,7.65-90.94,11.76-135.7,23.1c-8.7,2.21-49.74,5.74-52.61,17
								c-3.15,12.32,23.02,37.55,29.85,46.43c21.67,28.22,45.6,54.82,71.48,79.25c20.03,18.91,41.67,39.85,44.35,70.13
								c4.88,55.27,52.1,314.01,55.27,442.79"/>
							<path class="st8" d="M1741.92,890.96c4.97,0.81,4.01,3.81,3.66,13.13c-0.32,8.43-2.56,16.24-1.18,29.17
								c-4.18-3.48-19.85-42.73-15.47-42.66C1734.66,890.69,1738.9,890.47,1741.92,890.96z"/>
						</g>
						<g>
							<path d="M1694.96,1193.15c0,20.65-16.74,37.39-37.39,37.39h-226.09c-20.66,0-37.39-16.74-37.39-37.39V663.3
								c0-20.65,16.74-37.39,37.39-37.39h226.09c20.65,0,37.39,16.74,37.39,37.39V1193.15z"/>
							<g>
								<g>
									<path class="st4" d="M1673.23,1136.33c0,0.84-0.67,1.62-1.51,1.62h-254.27c-0.84,0-1.51-0.78-1.51-1.62l-0.12-424.79
										c0-0.83,0.67-1.51,1.51-1.51h254.27c0.84,0,1.63,0.68,1.63,1.51V1136.33z"/>
								</g>
							</g>
							<g>
								<path class="st6" d="M1659.58,1085.13c0,8.97-7.27,16.24-16.24,16.24h-75.8c-8.97,0-16.24-7.27-16.24-16.24v-11.4
									c0-8.97,7.27-16.24,16.24-16.24h75.8c8.97,0,16.24,7.27,16.24,16.24V1085.13z"/>
							</g>
							<path class="st4" d="M1538.24,1085.13c0,8.97-7.27,16.24-16.24,16.24h-75.8c-8.97,0-16.24-7.27-16.24-16.24v-11.4
								c0-8.97,7.27-16.24,16.24-16.24h75.8c8.97,0,16.24,7.27,16.24,16.24V1085.13z"/>
							<path class="st9" d="M1540.05,1255.42c4.77,4.32,16.81,15.33,19.82,20.57c1.41-11.15,9.76-32.84,11.29-45.45
								c0.13-1.09-14.98,1.09-14.84,0c5.91-48.74,11.98-101.03,13.15-109.28c2.41-17.21,8.76-53.95-21.02-61.94
								c-28.52-7.66-31.29,23.41-34.33,47.05c-2.19,17.04-11.07,84.78-18.72,126.2C1510.78,1238.16,1527.93,1244.44,1540.05,1255.42
								z"/>
							<path class="st8" d="M1570.6,657.96c0,2.16-1.75,3.91-3.92,3.91h-44.32c-2.17,0-3.93-1.75-3.93-3.91l0,0
								c0-2.17,1.75-3.93,3.92-3.93h44.32c2.16,0,3.93,1.7,3.93,3.87V657.96z"/>
						</g>
					</g>
					<g>
						<path class="st8" d="M1352.2,1187.7c0.23,4.02,0.92,8.2,2.2,11.8c2.32,6.56,6,7.54,11.96,10.74
							c9.94,5.34,19.99,12.17,31.38,13.84c11.73,1.73,14.82-11.55,13.71-21.32c-0.49-4.17-1.17-9.56-2.97-13.43
							c-5.11-10.94-19.88-15.27-28.01-23.55c-5.73-5.85-8.94-9.29-17.06-3.94c-7.2,4.75-11.06,12.92-11.3,21.43
							C1352.09,1184.7,1352.12,1186.19,1352.2,1187.7z"/>
						<path class="st8" d="M1386.98,1195.45c-2.51-0.45-4.87-0.58-7.11,1.6c-3.05,2.95-2.65,8.19-0.8,11.53
							c1.42,2.57,4.03,6.51,6.38,8.35c1.73,1.34,8.85,2.61,9.52,4.37c-3.05-8.02-7.67-16.51-3.16-25.14
							C1390.14,1196.13,1388.53,1195.73,1386.98,1195.45z"/>
					</g>
					<g>
						<path class="st8" d="M1340.83,1101.73c-3.1,10.38,4.78,21.95,11.83,31.03c8.42,10.84,16.37,23.14,29.35,29.06
							c12.57,5.74,20.99-3.75,23.26-15.78c3.93-20.87-17.7-37.29-21.75-56.26c-1.46-6.82,0.29-7.99-7.42-7.1
							C1362.79,1084.23,1345.18,1087.14,1340.83,1101.73z"/>
						<path class="st8" d="M1379.17,1127.21c-2.17-1.64-4.57-2.61-7.66-1.46c-4.24,1.56-6.11,6.83-5.76,10.89
							c0.29,3.35,2.1,8.45,4.09,11.26c2.73,3.87,10.86,8.08,14.96,10.98c-0.17-4.71-2.68-8.82-2.86-13.46
							c-0.06-1.27,2.02-13.88,2.38-13.57C1382.58,1130.36,1380.96,1128.56,1379.17,1127.21z"/>
					</g>
					<g>
						<path class="st10" d="M1380.39,1009.36l-26.47,6.13l-2.47-16.6c-12.01,2.59-19.96,7.67-23.57,19.32
							c-3.67,11.83,5.81,25.06,14.29,35.44c10.14,12.4,19.72,26.46,35.3,33.26c15.1,6.59,25.16-4.2,27.83-17.92
							C1409.93,1045.2,1385.31,1031.01,1380.39,1009.36z"/>
						<path class="st11" d="M1351.45,998.89c-12.01,2.59-19.96,7.67-23.57,19.32c-3.67,11.83,5.81,25.06,14.29,35.44
							c10.14,12.4,19.72,26.46,35.3,33.26c15.1,6.59,25.16-4.2,27.83-17.92c4.63-23.79-19.98-37.98-24.91-59.63"/>
						<path class="st8" d="M1372.53,1044.62c-0.93-2.88-3.06-4.57-7.56-2.9c-5.53,2.04-7.97,8.9-7.51,14.19
							c0.59,6.76,9.91,27.86,18.65,24.71c-2.95-6.89-3.99-15.32-3.43-23.09C1372.91,1054.36,1373.76,1048.44,1372.53,1044.62z"/>
					</g>
					<path class="st10" d="M1697.51,1085.42c15.69,37.91,24.25,69.56,23.44,110.6c-0.24,11.62,6.96,31.28,2.79,41.82
						c-5.25,13.27-25.85,13.32-34.31,2.95c-14.95-18.33-4.75-47.4,0.09-66.78c3.12-12.5-1.31-23.69-0.36-36.06
						c0.75-9.93,1.74-20.24,3.36-30.05C1694.14,1098.05,1697.21,1095.34,1697.51,1085.42z"/>
					<path class="st8" d="M1694.72,1086.25c-0.04,13.05-2.92,25.09-4.25,37.97c-1.07,10.34-3.03,20.34-5.61,30.5
						c-5.45,21.41-11.97,42.84-11.97,65.15c0.01,9.15-0.76,18.68,0.03,27.79c1.31,15.21,6.55,24.01,15.69,36.03"/>
					<path class="st11" d="M1732.6,1102.02c-10.02-3.11-15.99-2.29-25.57-6.55c-4.33-1.93-11.32-4.91-12.44-10.05"/>
				</g>
				<g>
					<g>
						<g>
							<g>
								<g>
									<rect x="1415.79" y="710.48" class="st6" width="257.44" height="77.72"/>
								</g>
							</g>
						</g>
					</g>
				</g>
				<g class="st12">
					<g>
						<g>
							<g>
								<g>
									<g>
										<rect x="1415.79" y="789.85" width="257.44" height="9.29"/>
									</g>
								</g>
							</g>
						</g>
					</g>
				</g>
			</g>
			<path class="st9" d="M1440.38,1205.9c4.54,5.48,6.55,11.38,10,17.44c3.65,6.4,15.09,5.68,21.58,7.98
				c2.16-41.72,2.31-69.61-24.64-73.26c-17.22-2.32-26.1,4.94-31.45,30.47C1425.1,1193.02,1434.14,1198.37,1440.38,1205.9z"/>
			<path class="st9" d="M1383.11,993.08c0,0-2.33,5.55-1.58,20.25c0.36,7.09,11.94,20.74,11.94,20.74l0.61-41.47L1383.11,993.08z"/>
			<path class="st9" d="M1383.11,1087.56c0,0,1.03,4.14,3.13,9.47c2.6,6.61,7.23,9.96,7.23,9.96l0.61-19.91L1383.11,1087.56z"/>
			<path class="st9" d="M1638.97,1298.82c-17.44-9.48-50.19,5.79-69.81,24.31c5.38,19.56,11,39.13,13.3,59.35
				c1.13,9.98,1.81,19.99,2.36,30.01h1.55c7.87-17.59,16.44-34.88,30.11-49.13c7.57-7.92,11.86-16.77,20.9-22.82
				c1.31-0.88,2.56-1.78,3.74-2.7c1.94-0.48,3.98-0.86,5.5-1.81c2.73-1.7,3.94-5.42,4.69-8.52c0.03-0.11,0.06-0.45,0.1-0.91
				C1656.66,1317.19,1654.21,1307.12,1638.97,1298.82z"/>
			<path class="st9" d="M1397.83,1180.84c1.07,0.15,2.17,0.45,3.28,0.96c0.98,0.44,1.98,0.89,2.99,1.34
				c-1.82-7.81-4.97-14.57-10.62-18.81v13.38C1395.31,1178.34,1396.74,1179.46,1397.83,1180.84z"/>
			<g>
				<path class="st8" d="M1645.24,1361.96c-41.61,37.88-49.85,97.21-101.22,126.55c-25.88,14.81-45.64,97.28-45.64,97.28
					l-111.81,419.38l-213.36-59.15l136.97-477.69c0,0-11.66-70.17-5.3-117.04c7.55-55.56,20.65-78.13,23.68-101.4
					c3.89-29.82,13.82-74.36,43.98-71.08c22.19,2.41,24.63,25.81,23.03,37.4c-2.96,21.59-3,19.74-3.85,28.83
					c0.85-9.08,5.84-18.22,9.52-46.78c3.77-29.35,13.15-39.22,32.67-39.14c24.94,0.08,24.98,23.56,22.71,45.62
					c-1.74,17.1-5.13,25.4-5.53,42.62c4.54-20.99,8.7-30.76,13.69-48.33c9.79-34.42,19.88-44.02,39.03-41.41
					c26.54,3.65,22.52,31.56,14.68,73.3c-4.16,21.99-14,35.9-9.85,33.58c7.84-4.45,42.48-133.87,48.95-158.33
					c6.23-23.54,13.2-54.46,40.69-46.83c28.69,7.95,17.39,44.52,12.65,61.65c-4.06,14.58-42.26,167.27-50.52,193.16
					c-2.71,8.48-11.72,63.74-8.93,67.58c5.15,7.01,37.46-45.76,43.91-52.45c20.66-21.38,62.79-42.21,81.06-31.54
					c21.55,12.62,12.75,29.33-7.24,41.52C1659.37,1345.27,1653.88,1354.07,1645.24,1361.96z"/>
				<path class="st8" d="M1603.54,1093.24c-2.43,2.72-5.33,4.77-8.17,5.6c-3.67,1.07-7.81,1.69-11.52,0.17
					c-11-4.56-11.3-31.38,0.62-33.83c6.95-1.41,25.81,2.75,25.39,13.75C1609.67,1083.92,1607.06,1089.27,1603.54,1093.24z"/>
				<path class="st8" d="M1669.63,1326.24c4.53-4.41,10.49-8.62,16.21-10.33c1.23-0.34-0.66,9.63-0.93,10.36
					c-1.17,3.09-2.88,6.79-5.84,8.49c-2.51,1.44-6.05,1.57-8.76,2.73c-4.57,1.95-8.71,4.83-13.09,7.12
					c4.98-2.61,6.27-11.62,9.85-15.68C1667.83,1328.04,1668.71,1327.13,1669.63,1326.24z"/>
			</g>
			<g>
				<line class="st13" x1="1428.95" y1="982.35" x2="1653.47" y2="982.35"/>
				<line class="st13" x1="1428.95" y1="917.71" x2="1653.47" y2="917.71"/>
				<line class="st13" x1="1428.95" y1="853.07" x2="1653.47" y2="853.07"/>
				<g>
					<g>
						<line class="st5" x1="1506.4" y1="988.88" x2="1506.4" y2="907.81"/>
						<rect x="1498.2" y="924.54" class="st6" width="16.41" height="45.34"/>
					</g>
					<g>
						<line class="st5" x1="1437.73" y1="1020.92" x2="1437.73" y2="939.85"/>
						<rect x="1429.53" y="956.57" class="st6" width="16.41" height="45.34"/>
					</g>
					<g>
						<line class="st5" x1="1483.51" y1="1000.32" x2="1483.51" y2="932.54"/>
						<rect x="1475.31" y="949.26" class="st4" width="16.4" height="20.6"/>
					</g>
					<g>
						<line class="st5" x1="1460.62" y1="979.32" x2="1460.62" y2="926.32"/>
						<rect x="1452.42" y="937.25" class="st4" width="16.41" height="29.64"/>
					</g>
					<g>
						<line class="st5" x1="1529.3" y1="947.2" x2="1529.3" y2="893.23"/>
						<rect x="1521.09" y="897.12" class="st6" width="16.41" height="35.5"/>
					</g>
					<g>
						<line class="st5" x1="1552.19" y1="932.41" x2="1552.19" y2="845.54"/>
						<rect x="1543.99" y="853.46" class="st6" width="16.41" height="51.9"/>
					</g>
					<g>
						<line class="st5" x1="1597.97" y1="937.25" x2="1597.97" y2="838.44"/>
						<rect x="1589.77" y="869.87" class="st4" width="16.41" height="12.16"/>
					</g>
					<g>
						<line class="st5" x1="1620.87" y1="879.94" x2="1620.87" y2="848.47"/>
						<rect x="1612.66" y="850.74" class="st6" width="16.41" height="20.7"/>
					</g>
					<g>
						<line class="st5" x1="1643.76" y1="871.32" x2="1643.76" y2="820.67"/>
						<rect x="1635.56" y="825.29" class="st6" width="16.41" height="30.26"/>
					</g>
					<g>
						<line class="st5" x1="1575.08" y1="883.43" x2="1575.08" y2="804.76"/>
						<rect x="1566.88" y="833.34" class="st6" width="16.41" height="35.5"/>
					</g>
				</g>
			</g>
			<g id="Cg1CFP_26_">
				<g>
					<path d="M1439.53,769.22c-0.01-0.12-0.01-0.23,0-0.35c0.35-1.51,0.73-3.02,1.06-4.53c0.19-0.85,0.55-1.29,1.51-1.25
						c1.32,0.07,2.62,0,3.93,0c-0.07-9.26-0.14-18.26-0.2-27.36c-2.27,0.01-4.4,0.04-6.54,0.05c-0.02-1.86-0.03-3.72-0.04-5.57
						c3.45-0.02,6.9-0.04,10.44-0.08c-0.02-2.92-0.04-5.64-0.05-8.36c1.51-0.01,3.02-0.02,4.52-0.04c0.01,2.75,0.05,5.51,0.06,8.27
						c1.84-0.01,3.3-0.01,4.87-0.03c-0.03-2.85-0.04-5.56-0.07-8.27c1.51,0,3.03-0.03,4.53-0.03c0.03,2.76,0.04,5.52,0.07,8.31
						c0.83,0.06,1.34,0.09,1.85,0.14c3.15,0.29,6.09,1.17,8.21,3.63c3.36,3.89,4.45,8.75-0.37,12.8c-0.25,0.21-0.6,0.29-0.99,0.47
						c5.54,3.68,5.54,3.68,7.15,8.33c0.01,1.04,0.01,2.09,0.03,3.13c-1.58,5.84-5.63,8.93-11.33,10.12
						c-1.34,0.28-2.72,0.37-4.27,0.57c0.03,2.82,0.04,5.53,0.07,8.24c-1.51,0.01-3.02,0.02-4.53,0.03
						c-0.02-2.75-0.03-5.51-0.06-8.32c-1.65,0.01-3.07,0.01-4.88,0.03c0.03,2.82,0.05,5.58,0.06,8.33
						c-1.51,0.01-3.02,0.02-4.53,0.03c-0.02-2.76-0.04-5.52-0.06-8.36C1446.36,769.18,1442.94,769.19,1439.53,769.22z
						 M1454.74,762.88c3.31-0.02,6.45,0.12,9.55-0.12c3.49-0.25,5.56-2.56,5.57-5.71c0-3.12-2.11-5.49-5.58-5.7
						c-3.16-0.22-6.35-0.01-9.63,0.01C1454.68,755.21,1454.7,759.01,1454.74,762.88z M1454.59,746.17c2.66-0.03,5.16,0.15,7.59-0.11
						c2.97-0.32,4.84-2.58,4.81-5.24c-0.03-2.63-2.06-4.87-4.97-5.11c-2.46-0.19-4.94,0-7.51,0.02
						C1454.54,739.21,1454.56,742.61,1454.59,746.17z"/>
				</g>
			</g>
			<line class="st5" x1="1505.4" y1="749.77" x2="1633.24" y2="749.77"/>
		</g>
	</g>
	<g>
		<g>
			<g>
				<path class="st4" d="M3018.25,1109.77c-9.91-10-21.61-18.34-33.78-24.26c-38.7-18.81-126.41-27.93-165.14,33.32
					c-10.44,16.49-10.19,43.88-7.19,62.68c-26.68,10.53-45.37,34.63-40.99,64.43c2.06,13.88,8.91,25.87,18.54,34.59
					c-19.8,8.12-32.31,28.97-29.03,51.11c3.52,23.89,24.1,41.04,47.48,40.99c-0.89,0.7-1.78,1.41-2.63,2.19
					c-17.09,15.73-18.19,42.34-2.46,59.43c10.75,11.67,26.56,15.88,40.96,12.37c-17.67,23.38-16.68,56.72,3.87,79.05
					c23.11,25.12,62.21,26.74,87.33,3.62c13.17-12.12,19.87-28.62,19.94-45.21c17.51,2.29,35.89-2.89,49.91-15.79
					c21.02-19.34,25.57-49.87,12.96-74.05c16.53-2.5,31.32-13.59,37.71-30.35c7.98-20.94,0.29-43.99-17.3-56.2
					c11.27-6.45,20.56-16.66,25.56-29.77c10.49-27.5-1.43-57.93-26.65-71.58c1.88-3.67,3.56-7.43,5.09-11.45
					C3054.17,1164.07,3040.87,1132.61,3018.25,1109.77z"/>
				<path class="st14" d="M3024.63,1196.69c4.2-19.13-6.63-38-24.57-44.51c0.87-2.6,1.61-5.24,2.23-8.04
					c4.71-21.46-7.13-40.86-24.26-53.68c-7.51-5.61-16.02-9.95-24.62-12.66c-27.32-8.59-85.96-5.99-105.46,38.12
					c-5.25,11.89-2.4,29.9,1.42,41.98c-16.54,9.55-26.47,27.25-20.67,46.44c2.72,8.94,8.4,16.15,15.59,20.96
					c-12.23,7.29-18.43,22.24-14.09,36.5c4.66,15.37,19.89,24.65,35.28,22.32c-0.52,0.55-1.04,1.11-1.52,1.7
					c-9.71,12.04-7.83,29.66,4.21,39.37c8.22,6.63,19.04,7.85,28.18,4.12"/>
				<path class="st15" d="M2860.01,973.79c-0.94,9.08-1.53,18.44-1.67,28c-1.37,86.19,73.35,157.24,73.35,157.24
					s76.91-68.67,78.27-154.84c0.15-9.57-0.14-18.94-0.8-28.04L2860.01,973.79z"/>
				<path class="st15" d="M2894.54,974.33c-0.51,4.88-0.82,9.9-0.91,15.06c-0.73,46.28,39.39,84.42,39.39,84.42
					s41.32-36.88,42.04-83.14c0.09-5.15-0.07-10.18-0.43-15.07L2894.54,974.33z"/>
				<path class="st16" d="M2894.54,974.33c-0.51,4.88-0.82,9.9-0.91,15.06c-0.73,46.28,39.39,84.42,39.39,84.42
					s41.32-36.88,42.04-83.14c0.09-5.15-0.07-10.18-0.43-15.07L2894.54,974.33z"/>
				<path class="st4" d="M3025.08,903.75l35.03,59.5c-0.62,38.2-59.88,68.23-132.43,67.09c-72.54-1.15-130.85-33.04-130.24-71.24
					l36.97-58.36"/>
				<path class="st14" d="M3029.38,903.75l5.84,22.12c-0.24,14.25-47.98,36.45-106.48,35.52c-58.51-0.92-105.6-24.63-105.37-38.86
					l14.2-21.71"/>
				<path class="st16" d="M3060.96,869.25c2.73-70.25,5.76-365.04,5.9-373.84c1.16-73.65-52.14-321.87-125.79-323.05
					c-73.65-1.15-134.26,240.63-135.43,314.26c-0.14,9.59-6.74,305.92-5.97,378.48"/>
				<path class="st16" d="M3061.64,862.29c-0.61,38.2-59.86,68.2-132.36,67.06c-72.52-1.14-130.8-33.01-130.2-71.21"/>
				<path class="st17" d="M3064.83,659.75c-0.6,38.2-59.85,68.21-132.35,67.06c-72.52-1.14-130.8-33.02-130.19-71.19"/>
				<path class="st18" d="M3062.92,677.69c-0.6,38.2-59.85,68.21-132.35,67.06c-72.52-1.14-130.81-33.02-130.2-71.2"/>
				<path class="st18" d="M3052.88,379.18c-0.52,33.31-52.19,59.48-115.42,58.48c-63.24-0.99-114.06-28.79-113.53-62.09"/>
				<path class="st16" d="M3048.13,367.01c-0.5,32.06-50.28,57.29-111.18,56.32c-60.9-0.95-109.87-27.74-109.37-59.82"/>
				<polygon class="st16" points="2798.82,865.09 2706.82,863.64 2802.01,662.78 				"/>
				<polygon class="st16" points="3061.68,869.24 3152.24,870.67 3064.84,669.27 				"/>
				<path class="st19" d="M3094.29,737.14l-29.46-67.87l-3.16,199.97l29.65,0.46C3091.38,825.45,3091.28,781.2,3094.29,737.14z"/>
				<line class="st4" x1="2939.86" y1="179.68" x2="2940.59" y2="126.75"/>
				<path class="st19" d="M3066.86,495.41c1.14-71.73-49.4-309-120.08-322.42c0,0,41.17,126.09,60.84,251.29
					c13.04,82.95,15.37,418.98,15.02,444.67c-0.56,42.7-56.11,60.23-21.61,50.34c59.89-17.14,59.93-50.04,59.93-50.04
					C3063.7,799,3066.72,504.21,3066.86,495.41z"/>
				<path class="st4" d="M2905.36,1444.59c8.76-8.06,13.22-19.06,13.27-30.09c11.66,1.53,23.89-1.93,33.22-10.52
					c13.99-12.87,17.02-33.2,8.63-49.28"/>
				<path class="st4" d="M3046.68,1217.28c6.98-18.32-0.95-38.56-17.74-47.65c1.25-2.44,2.37-4.95,3.39-7.62
					c7.82-20.53-1.03-41.47-16.09-56.67c-6.6-6.65-14.38-12.21-22.49-16.15c-25.76-12.52-84.14-18.59-109.92,22.18
					c-6.95,10.98-6.79,29.22-4.79,41.73c-17.76,7.01-30.2,23.05-27.28,42.89c1.38,9.24,5.93,17.21,12.34,23.03
					c-13.18,5.41-21.51,19.28-19.33,34.02c2.34,15.9,16.04,27.31,31.62,27.28c-0.6,0.47-1.2,0.94-1.76,1.46
					c-11.37,10.47-12.11,28.18-1.64,39.56c7.15,7.77,17.69,10.57,27.26,8.23"/>
				<path class="st4" d="M2963.34,1221.94c0.56-11.89-4-22.84-11.72-30.73c9.36-7.12,15.63-18.17,16.22-30.83
					c0.9-19-11.24-35.58-28.53-41.1"/>
			</g>
			<g id="Cg1CFP_25_">
				<path d="M2997.41,656c-0.44,0.11-0.86,0.17-1.31,0.21c-5.49-0.45-10.99-1.15-16.54-1.82c-3.1-0.37-4.68-1.58-4.33-5.13
					c0.5-4.89,0.51-9.69,0.74-14.5c-34.35,3.29-68.1,1.56-101.55-5c-0.38,8.34-0.69,16.16-1.07,23.98
					c-6.85-1.34-13.62-2.91-20.38-4.67c0.57-12.65,1.16-25.31,1.7-38.29c-10.63-2.76-20.43-5.79-30.14-9.26
					c0.27-5.52,0.51-11.04,0.73-16.57c9.83,3.52,19.76,6.51,29.81,9.12c0.32-6.76,0.58-12.1,0.82-17.87
					c-10.38-2.64-20.14-5.67-29.82-9.09c0.26-5.51,0.47-11.08,0.75-16.58c9.86,3.45,19.81,6.51,29.98,9.08
					c0.38-2.96,0.58-4.81,0.85-6.63c1.68-11.25,5.41-21.13,14.84-26.89c14.91-9.11,33.11-10.46,47.22,8.39
					c0.72,0.95,0.97,2.29,1.55,3.76c14.75-19.56,14.76-19.44,32.38-25.39c3.87-0.09,7.79-0.23,11.63-0.48
					c21.39,4.68,32,17.55,35.28,38.04c0.78,4.78,0.85,9.84,1.29,15.48c10.37-1.78,20.29-3.88,30.13-6.46
					c-0.23,5.57-0.49,11.17-0.75,16.76c-9.98,2.59-20.06,4.72-30.42,6.46c-0.29,6.1-0.54,11.36-0.83,18.03
					c10.4-1.73,20.47-3.89,30.46-6.45c-0.25,5.6-0.51,11.18-0.77,16.75c-10.02,2.58-20.11,4.72-30.59,6.42
					C2998.55,630.78,2997.94,643.41,2997.41,656z M2976.88,602.66c0.55-12.22,1.67-23.85,1.4-35.24
					c-0.27-12.8-8.43-19.6-20.13-19.27c-11.62,0.37-20.82,7.81-22.27,20.57c-1.42,11.6-1.27,23.38-1.8,35.45
					C2948.37,604.54,2962.54,604.06,2976.88,602.66z M2914.71,603.2c0.4-9.78,1.54-18.9,1.04-27.95
					c-0.63-11.02-8.64-18.63-18.5-19.91c-9.73-1.26-18.37,4.52-19.8,15c-1.18,8.88-0.95,18.1-1.37,27.55
					C2888.89,600.36,2901.49,602.13,2914.71,603.2z"/>
			</g>
			<path class="st4" d="M2952.11,341.77c6.12,9.53,3.35,22.21-6.18,28.32c-9.53,6.12-22.21,3.35-28.32-6.18
				c-6.12-9.53-3.35-22.21,6.18-28.32C2933.32,329.47,2946,332.24,2952.11,341.77z"/>
		</g>
	</g>
	<line class="st6" x1="183.61" y1="1416.81" x2="183.61" y2="1071.13"/>
	<path class="st6" d="M365.57,1153.66c-77.85,79.1-104.11-27.52-181.96,51.58c0-33.8,0-67.6,0-101.4
		c77.85-79.1,104.11,97.24,181.96,18.14V1153.66z"/>
	<path class="st19" d="M320.99,1182.74c1.83-13.26,3.44-26.54,4.8-39.84c-18.16-0.01-33.57-13.58-48.86-27.81
		c-0.01,0.36-0.02,0.72-0.03,1.07c-0.73,20.97-2.14,41.91-4.16,62.8C288.05,1182.99,303.26,1187.4,320.99,1182.74z"/>
	<line class="st6" x1="160.44" y1="1418.12" x2="1031.93" y2="1418.12"/>
</g>
<g id="TEXT" class="st0">
	<g class="st20">
		<path d="M759.5,1452.96c-3.26-0.94-5.64-2.09-7.13-3.46c-1.49-1.37-2.23-3.06-2.23-5.07c0-2.27,0.91-4.15,2.73-5.64
			c1.82-1.49,4.18-2.23,7.09-2.23c1.98,0,3.75,0.38,5.3,1.15c1.55,0.77,2.76,1.82,3.61,3.17c0.85,1.35,1.28,2.82,1.28,4.42h-3.83
			c0-1.75-0.55-3.13-1.67-4.13c-1.11-1-2.68-1.5-4.7-1.5c-1.88,0-3.34,0.41-4.39,1.24c-1.05,0.83-1.58,1.98-1.58,3.45
			c0,1.18,0.5,2.17,1.5,2.99c1,0.81,2.7,1.56,5.09,2.23c2.4,0.68,4.28,1.42,5.63,2.23c1.36,0.81,2.36,1.76,3.01,2.84
			c0.65,1.08,0.98,2.36,0.98,3.83c0,2.34-0.91,4.21-2.74,5.62c-1.82,1.41-4.26,2.11-7.32,2.11c-1.98,0-3.83-0.38-5.55-1.14
			c-1.72-0.76-3.04-1.8-3.97-3.12c-0.93-1.32-1.4-2.82-1.4-4.5h3.83c0,1.74,0.64,3.12,1.93,4.13c1.29,1.01,3.01,1.52,5.16,1.52
			c2.01,0,3.55-0.41,4.62-1.23c1.07-0.82,1.61-1.94,1.61-3.35s-0.5-2.51-1.49-3.28C763.91,1454.48,762.11,1453.71,759.5,1452.96z"/>
		<path d="M779.49,1439.18v5.19h4.01v2.83h-4.01v13.32c0,0.86,0.18,1.51,0.54,1.94c0.36,0.43,0.96,0.65,1.82,0.65
			c0.42,0,1-0.08,1.75-0.24v2.96c-0.97,0.26-1.9,0.39-2.82,0.39c-1.64,0-2.88-0.5-3.71-1.49c-0.83-0.99-1.25-2.4-1.25-4.22v-13.3
			h-3.91v-2.83h3.91v-5.19H779.49z"/>
		<path d="M801.02,1465.83c-0.21-0.42-0.38-1.18-0.52-2.26c-1.71,1.77-3.74,2.66-6.11,2.66c-2.11,0-3.85-0.6-5.2-1.79
			c-1.36-1.2-2.03-2.71-2.03-4.55c0-2.23,0.85-3.97,2.55-5.2c1.7-1.24,4.09-1.85,7.17-1.85h3.57v-1.68c0-1.28-0.38-2.3-1.15-3.06
			c-0.77-0.76-1.9-1.14-3.39-1.14c-1.31,0-2.41,0.33-3.29,0.99c-0.89,0.66-1.33,1.46-1.33,2.4h-3.69c0-1.07,0.38-2.1,1.14-3.1
			c0.76-1,1.79-1.79,3.09-2.37c1.3-0.58,2.73-0.87,4.29-0.87c2.47,0,4.41,0.62,5.81,1.85c1.4,1.24,2.13,2.94,2.18,5.1v9.87
			c0,1.97,0.25,3.54,0.75,4.7v0.32H801.02z M794.93,1463.03c1.15,0,2.24-0.3,3.27-0.89c1.03-0.59,1.78-1.37,2.24-2.32v-4.4h-2.88
			c-4.49,0-6.74,1.32-6.74,3.95c0,1.15,0.38,2.05,1.15,2.7S793.73,1463.03,794.93,1463.03z"/>
		<path d="M820.23,1447.67c-0.55-0.09-1.16-0.14-1.8-0.14c-2.41,0-4.04,1.02-4.9,3.07v15.23h-3.67v-21.45h3.57l0.06,2.48
			c1.2-1.92,2.91-2.87,5.11-2.87c0.71,0,1.26,0.09,1.63,0.28V1447.67z"/>
		<path d="M829.57,1439.18v5.19h4v2.83h-4v13.32c0,0.86,0.18,1.51,0.54,1.94c0.36,0.43,0.96,0.65,1.82,0.65c0.42,0,1-0.08,1.74-0.24
			v2.96c-0.96,0.26-1.9,0.39-2.81,0.39c-1.64,0-2.88-0.5-3.71-1.49c-0.83-0.99-1.25-2.4-1.25-4.22v-13.3h-3.91v-2.83h3.91v-5.19
			H829.57z"/>
		<path d="M852.57,1465.83h-3.81v-28.87h3.81V1465.83z"/>
		<path d="M862.42,1444.38l0.12,2.7c1.64-2.06,3.78-3.09,6.42-3.09c4.53,0,6.82,2.56,6.86,7.67v14.17h-3.67v-14.2
			c-0.01-1.55-0.37-2.69-1.06-3.43c-0.69-0.74-1.78-1.11-3.24-1.11c-1.19,0-2.23,0.32-3.13,0.95c-0.9,0.63-1.6,1.47-2.1,2.5v15.29
			h-3.67v-21.45H862.42z"/>
		<path d="M888.43,1460.85l5.31-16.47h3.75l-7.69,21.45H887l-7.77-21.45h3.75L888.43,1460.85z"/>
		<path d="M909.66,1466.22c-2.91,0-5.27-0.95-7.1-2.86c-1.82-1.91-2.74-4.46-2.74-7.66v-0.67c0-2.13,0.41-4.03,1.22-5.7
			c0.81-1.67,1.95-2.98,3.41-3.93c1.46-0.94,3.04-1.42,4.75-1.42c2.79,0,4.96,0.92,6.5,2.75c1.55,1.84,2.32,4.47,2.32,7.89v1.53
			H903.5c0.05,2.12,0.67,3.82,1.85,5.13c1.18,1.3,2.69,1.95,4.51,1.95c1.3,0,2.39-0.26,3.29-0.79c0.9-0.53,1.69-1.23,2.36-2.1
			l2.24,1.74C915.96,1464.84,913.26,1466.22,909.66,1466.22z M909.21,1446.99c-1.48,0-2.72,0.54-3.73,1.62
			c-1,1.08-1.63,2.59-1.86,4.53h10.75v-0.28c-0.11-1.86-0.61-3.31-1.51-4.33C911.96,1447.5,910.74,1446.99,909.21,1446.99z"/>
		<path d="M934.76,1460.14c0-0.99-0.37-1.76-1.12-2.31c-0.75-0.55-2.05-1.02-3.91-1.42c-1.86-0.4-3.33-0.87-4.42-1.43
			c-1.09-0.55-1.9-1.22-2.42-1.98c-0.52-0.77-0.78-1.68-0.78-2.74c0-1.76,0.74-3.24,2.23-4.46c1.49-1.22,3.39-1.82,5.7-1.82
			c2.43,0,4.4,0.63,5.92,1.88c1.51,1.26,2.27,2.86,2.27,4.82h-3.69c0-1-0.43-1.87-1.28-2.6c-0.85-0.73-1.93-1.09-3.22-1.09
			c-1.34,0-2.38,0.29-3.13,0.87c-0.75,0.58-1.13,1.34-1.13,2.28c0,0.89,0.35,1.55,1.05,2c0.7,0.45,1.96,0.88,3.8,1.29
			c1.83,0.41,3.31,0.9,4.45,1.47c1.14,0.57,1.98,1.25,2.53,2.05c0.55,0.8,0.82,1.77,0.82,2.92c0,1.92-0.77,3.45-2.3,4.61
			c-1.53,1.16-3.52,1.73-5.97,1.73c-1.72,0-3.24-0.3-4.56-0.91c-1.32-0.61-2.36-1.46-3.1-2.55c-0.75-1.09-1.12-2.27-1.12-3.54h3.67
			c0.07,1.23,0.56,2.21,1.48,2.92c0.92,0.72,2.13,1.08,3.64,1.08c1.39,0,2.5-0.28,3.34-0.84
			C934.34,1461.83,934.76,1461.08,934.76,1460.14z"/>
		<path d="M948.19,1439.18v5.19h4.01v2.83h-4.01v13.32c0,0.86,0.18,1.51,0.54,1.94c0.36,0.43,0.96,0.65,1.82,0.65
			c0.42,0,1-0.08,1.75-0.24v2.96c-0.97,0.26-1.9,0.39-2.82,0.39c-1.64,0-2.88-0.5-3.71-1.49c-0.83-0.99-1.25-2.4-1.25-4.22v-13.3
			h-3.91v-2.83h3.91v-5.19H948.19z"/>
		<path d="M956.49,1438.68c0-0.59,0.18-1.1,0.55-1.51c0.36-0.41,0.9-0.61,1.62-0.61c0.71,0,1.25,0.21,1.63,0.61
			c0.37,0.41,0.55,0.91,0.55,1.51s-0.18,1.09-0.55,1.49c-0.37,0.4-0.91,0.59-1.63,0.59c-0.71,0-1.25-0.2-1.62-0.59
			C956.67,1439.78,956.49,1439.28,956.49,1438.68z M960.46,1465.83h-3.67v-21.45h3.67V1465.83z"/>
		<path d="M971.3,1439.18v5.19h4v2.83h-4v13.32c0,0.86,0.18,1.51,0.54,1.94c0.36,0.43,0.96,0.65,1.82,0.65c0.42,0,1-0.08,1.74-0.24
			v2.96c-0.96,0.26-1.9,0.39-2.81,0.39c-1.64,0-2.88-0.5-3.71-1.49c-0.83-0.99-1.25-2.4-1.25-4.22v-13.3h-3.91v-2.83h3.91v-5.19
			H971.3z"/>
		<path d="M979.61,1438.68c0-0.59,0.18-1.1,0.54-1.51c0.36-0.41,0.9-0.61,1.62-0.61c0.71,0,1.25,0.21,1.63,0.61
			c0.37,0.41,0.55,0.91,0.55,1.51s-0.19,1.09-0.55,1.49c-0.37,0.4-0.91,0.59-1.63,0.59c-0.71,0-1.25-0.2-1.62-0.59
			C979.79,1439.78,979.61,1439.28,979.61,1438.68z M983.57,1465.83h-3.67v-21.45h3.67V1465.83z"/>
		<path d="M988.47,1454.9c0-2.1,0.41-3.99,1.24-5.67c0.83-1.68,1.98-2.97,3.45-3.88c1.47-0.91,3.16-1.37,5.05-1.37
			c2.92,0,5.28,1.01,7.09,3.03c1.8,2.02,2.71,4.71,2.71,8.07v0.26c0,2.09-0.4,3.96-1.2,5.62c-0.8,1.66-1.94,2.95-3.43,3.88
			c-1.49,0.93-3.2,1.39-5.13,1.39c-2.91,0-5.26-1.01-7.07-3.03s-2.71-4.7-2.71-8.03V1454.9z M992.16,1455.34
			c0,2.38,0.55,4.29,1.66,5.73c1.1,1.44,2.58,2.16,4.43,2.16c1.86,0,3.34-0.73,4.44-2.19c1.1-1.46,1.65-3.51,1.65-6.14
			c0-2.35-0.56-4.26-1.68-5.72c-1.12-1.46-2.6-2.19-4.45-2.19c-1.81,0-3.27,0.72-4.38,2.16
			C992.71,1450.59,992.16,1452.66,992.16,1455.34z"/>
		<path d="M1016.07,1444.38l0.12,2.7c1.64-2.06,3.78-3.09,6.42-3.09c4.53,0,6.82,2.56,6.86,7.67v14.17h-3.67v-14.2
			c-0.01-1.55-0.37-2.69-1.06-3.43c-0.69-0.74-1.77-1.11-3.24-1.11c-1.19,0-2.23,0.32-3.13,0.95c-0.9,0.63-1.6,1.47-2.1,2.5v15.29
			h-3.67v-21.45H1016.07z"/>
	</g>
	<g class="st20">
		<path d="M2137.46,312v-28.87h9.44c3.13,0,5.49,0.65,7.07,1.94c1.58,1.3,2.37,3.21,2.37,5.75c0,1.35-0.38,2.54-1.15,3.58
			c-0.77,1.04-1.81,1.84-3.13,2.41c1.56,0.44,2.79,1.27,3.7,2.49c0.91,1.22,1.36,2.68,1.36,4.37c0,2.59-0.84,4.63-2.52,6.11
			c-1.68,1.48-4.05,2.22-7.12,2.22H2137.46z M2141.26,295.45h5.75c1.66,0,3-0.42,3.99-1.25c1-0.84,1.5-1.97,1.5-3.4
			c0-1.59-0.46-2.75-1.39-3.47c-0.93-0.72-2.33-1.08-4.22-1.08h-5.63V295.45z M2141.26,298.5v10.39h6.29c1.77,0,3.17-0.46,4.19-1.38
			c1.02-0.92,1.54-2.18,1.54-3.8c0-3.48-1.89-5.21-5.67-5.21H2141.26z"/>
		<path d="M2162.18,284.86c0-0.59,0.18-1.1,0.54-1.51c0.36-0.41,0.9-0.61,1.62-0.61s1.25,0.2,1.63,0.61
			c0.37,0.41,0.55,0.91,0.55,1.51c0,0.59-0.19,1.09-0.55,1.49c-0.37,0.4-0.91,0.59-1.63,0.59s-1.25-0.2-1.62-0.59
			C2162.36,285.95,2162.18,285.45,2162.18,284.86z M2166.14,312h-3.67v-21.45h3.67V312z"/>
		<path d="M2176.99,285.36v5.19h4v2.83h-4v13.32c0,0.86,0.18,1.51,0.54,1.94c0.36,0.43,0.96,0.65,1.82,0.65c0.42,0,1-0.08,1.74-0.24
			V312c-0.96,0.26-1.9,0.39-2.82,0.39c-1.64,0-2.87-0.5-3.71-1.49c-0.83-0.99-1.25-2.4-1.25-4.22v-13.3h-3.91v-2.83h3.91v-5.19
			H2176.99z"/>
		<path d="M2193.88,309.4c1.31,0,2.45-0.4,3.43-1.19c0.98-0.79,1.52-1.78,1.63-2.97h3.47c-0.07,1.23-0.49,2.4-1.27,3.51
			c-0.78,1.11-1.82,2-3.12,2.66c-1.3,0.66-2.68,0.99-4.13,0.99c-2.92,0-5.24-0.97-6.97-2.92c-1.72-1.95-2.59-4.62-2.59-8v-0.62
			c0-2.09,0.38-3.95,1.15-5.57c0.77-1.63,1.87-2.89,3.3-3.79c1.43-0.9,3.13-1.35,5.09-1.35c2.41,0,4.4,0.72,6,2.16
			c1.59,1.44,2.44,3.31,2.55,5.61h-3.47c-0.11-1.39-0.63-2.53-1.58-3.42c-0.95-0.89-2.11-1.34-3.5-1.34c-1.86,0-3.31,0.67-4.33,2.01
			c-1.02,1.34-1.54,3.28-1.54,5.82v0.69c0,2.47,0.51,4.38,1.53,5.71C2190.54,308.74,2191.99,309.4,2193.88,309.4z"/>
		<path d="M2205.56,301.08c0-2.1,0.41-3.99,1.24-5.67c0.83-1.68,1.98-2.97,3.45-3.89c1.47-0.91,3.15-1.37,5.04-1.37
			c2.92,0,5.28,1.01,7.09,3.03c1.8,2.02,2.71,4.71,2.71,8.07v0.26c0,2.09-0.4,3.96-1.2,5.62c-0.8,1.66-1.94,2.95-3.43,3.88
			c-1.49,0.92-3.2,1.39-5.13,1.39c-2.91,0-5.26-1.01-7.07-3.03c-1.8-2.02-2.71-4.7-2.71-8.03V301.08z M2209.24,301.51
			c0,2.38,0.55,4.29,1.66,5.73c1.1,1.44,2.58,2.16,4.43,2.16c1.86,0,3.34-0.73,4.44-2.19c1.1-1.46,1.65-3.51,1.65-6.14
			c0-2.35-0.56-4.26-1.67-5.72c-1.12-1.46-2.6-2.19-4.45-2.19c-1.81,0-3.27,0.72-4.38,2.16
			C2209.8,296.77,2209.24,298.83,2209.24,301.51z"/>
		<path d="M2229.7,284.86c0-0.59,0.18-1.1,0.55-1.51c0.36-0.41,0.9-0.61,1.62-0.61c0.71,0,1.26,0.2,1.63,0.61
			c0.37,0.41,0.56,0.91,0.56,1.51c0,0.59-0.18,1.09-0.56,1.49c-0.37,0.4-0.91,0.59-1.63,0.59c-0.71,0-1.25-0.2-1.62-0.59
			C2229.89,285.95,2229.7,285.45,2229.7,284.86z M2233.67,312H2230v-21.45h3.67V312z"/>
		<path d="M2243.01,290.55l0.12,2.7c1.64-2.06,3.78-3.09,6.42-3.09c4.53,0,6.82,2.56,6.86,7.67V312h-3.67v-14.2
			c-0.01-1.55-0.37-2.69-1.06-3.43c-0.69-0.74-1.78-1.11-3.24-1.11c-1.19,0-2.23,0.32-3.13,0.95c-0.9,0.63-1.6,1.47-2.1,2.5V312
			h-3.67v-21.45H2243.01z"/>
		<path d="M2284.48,306.31c0-0.99-0.37-1.76-1.12-2.31c-0.75-0.55-2.05-1.02-3.91-1.42c-1.86-0.4-3.33-0.87-4.42-1.43
			c-1.09-0.56-1.9-1.22-2.42-1.98c-0.52-0.77-0.78-1.68-0.78-2.74c0-1.76,0.74-3.24,2.23-4.46c1.49-1.22,3.39-1.82,5.7-1.82
			c2.43,0,4.4,0.63,5.92,1.88c1.51,1.26,2.27,2.86,2.27,4.82h-3.69c0-1-0.43-1.87-1.28-2.6c-0.85-0.73-1.93-1.09-3.22-1.09
			c-1.33,0-2.38,0.29-3.13,0.87c-0.75,0.58-1.13,1.34-1.13,2.28c0,0.88,0.35,1.55,1.05,2c0.7,0.45,1.96,0.88,3.8,1.29
			c1.83,0.41,3.31,0.9,4.45,1.47c1.14,0.57,1.98,1.25,2.53,2.05c0.55,0.8,0.82,1.77,0.82,2.92c0,1.92-0.77,3.45-2.3,4.61
			c-1.53,1.16-3.52,1.73-5.97,1.73c-1.72,0-3.24-0.3-4.56-0.91c-1.32-0.61-2.36-1.46-3.1-2.55c-0.75-1.09-1.12-2.27-1.12-3.54h3.67
			c0.07,1.23,0.56,2.2,1.48,2.92s2.13,1.08,3.64,1.08c1.39,0,2.5-0.28,3.34-0.84C2284.06,308,2284.48,307.25,2284.48,306.31z"/>
		<path d="M2298.92,302.07l-2.3,2.4V312h-3.67v-30.45h3.67v18.42l1.96-2.36l6.68-7.06h4.46l-8.35,8.96l9.32,12.49h-4.3
			L2298.92,302.07z"/>
		<path d="M2320.53,306.63l5-16.08h3.93l-8.62,24.76c-1.33,3.57-3.46,5.35-6.36,5.35l-0.69-0.06l-1.37-0.26v-2.97l0.99,0.08
			c1.24,0,2.21-0.25,2.9-0.75c0.69-0.5,1.27-1.42,1.71-2.76l0.81-2.18l-7.65-21.21h4L2320.53,306.63z"/>
		<path d="M2343.09,293.84c-0.55-0.09-1.16-0.14-1.8-0.14c-2.41,0-4.04,1.02-4.9,3.07V312h-3.67v-21.45h3.57l0.06,2.48
			c1.2-1.92,2.91-2.88,5.11-2.88c0.71,0,1.26,0.09,1.63,0.28V293.84z"/>
		<path d="M2345.09,301.08c0-2.1,0.41-3.99,1.24-5.67c0.83-1.68,1.98-2.97,3.45-3.89c1.47-0.91,3.15-1.37,5.04-1.37
			c2.92,0,5.28,1.01,7.09,3.03c1.8,2.02,2.71,4.71,2.71,8.07v0.26c0,2.09-0.4,3.96-1.2,5.62c-0.8,1.66-1.94,2.95-3.43,3.88
			c-1.49,0.92-3.2,1.39-5.13,1.39c-2.91,0-5.26-1.01-7.07-3.03c-1.8-2.02-2.71-4.7-2.71-8.03V301.08z M2348.78,301.51
			c0,2.38,0.55,4.29,1.66,5.73c1.1,1.44,2.58,2.16,4.43,2.16c1.86,0,3.34-0.73,4.44-2.19c1.1-1.46,1.65-3.51,1.65-6.14
			c0-2.35-0.56-4.26-1.67-5.72c-1.12-1.46-2.6-2.19-4.45-2.19c-1.81,0-3.27,0.72-4.38,2.16
			C2349.33,296.77,2348.78,298.83,2348.78,301.51z"/>
		<path d="M2377.82,309.4c1.31,0,2.45-0.4,3.43-1.19c0.98-0.79,1.52-1.78,1.63-2.97h3.47c-0.07,1.23-0.49,2.4-1.27,3.51
			c-0.78,1.11-1.82,2-3.12,2.66c-1.3,0.66-2.68,0.99-4.13,0.99c-2.92,0-5.24-0.97-6.97-2.92c-1.72-1.95-2.59-4.62-2.59-8v-0.62
			c0-2.09,0.38-3.95,1.15-5.57c0.77-1.63,1.87-2.89,3.3-3.79c1.43-0.9,3.13-1.35,5.09-1.35c2.41,0,4.4,0.72,6,2.16
			c1.59,1.44,2.44,3.31,2.55,5.61h-3.47c-0.11-1.39-0.63-2.53-1.58-3.42c-0.95-0.89-2.11-1.34-3.5-1.34c-1.86,0-3.31,0.67-4.33,2.01
			c-1.02,1.34-1.54,3.28-1.54,5.82v0.69c0,2.47,0.51,4.38,1.53,5.71C2374.48,308.74,2375.93,309.4,2377.82,309.4z"/>
		<path d="M2396.46,302.07l-2.3,2.4V312h-3.67v-30.45h3.67v18.42l1.96-2.36l6.68-7.06h4.46l-8.35,8.96l9.32,12.49h-4.3
			L2396.46,302.07z"/>
		<path d="M2419.55,312.4c-2.91,0-5.27-0.96-7.1-2.87c-1.82-1.91-2.74-4.46-2.74-7.66v-0.67c0-2.13,0.41-4.03,1.22-5.7
			c0.81-1.67,1.95-2.98,3.41-3.93c1.46-0.94,3.04-1.42,4.75-1.42c2.79,0,4.96,0.92,6.5,2.76c1.55,1.84,2.32,4.47,2.32,7.89v1.53
			h-14.53c0.05,2.11,0.67,3.82,1.85,5.13c1.18,1.3,2.69,1.95,4.51,1.95c1.29,0,2.39-0.26,3.29-0.79c0.9-0.53,1.69-1.23,2.36-2.1
			l2.24,1.75C2425.85,311.02,2423.15,312.4,2419.55,312.4z M2419.1,293.17c-1.48,0-2.72,0.54-3.73,1.62c-1,1.08-1.63,2.59-1.86,4.53
			h10.75v-0.28c-0.11-1.86-0.61-3.31-1.51-4.33C2421.85,293.68,2420.63,293.17,2419.1,293.17z"/>
		<path d="M2437.14,285.36v5.19h4.01v2.83h-4.01v13.32c0,0.86,0.18,1.51,0.54,1.94c0.36,0.43,0.96,0.65,1.82,0.65
			c0.42,0,1-0.08,1.75-0.24V312c-0.97,0.26-1.9,0.39-2.82,0.39c-1.64,0-2.88-0.5-3.71-1.49c-0.83-0.99-1.25-2.4-1.25-4.22v-13.3
			h-3.91v-2.83h3.91v-5.19H2437.14z"/>
		<path d="M2454.33,312.4c-2.91,0-5.27-0.96-7.1-2.87c-1.82-1.91-2.74-4.46-2.74-7.66v-0.67c0-2.13,0.41-4.03,1.22-5.7
			c0.81-1.67,1.95-2.98,3.41-3.93c1.46-0.94,3.04-1.42,4.75-1.42c2.79,0,4.96,0.92,6.5,2.76c1.55,1.84,2.32,4.47,2.32,7.89v1.53
			h-14.53c0.05,2.11,0.67,3.82,1.85,5.13c1.18,1.3,2.69,1.95,4.51,1.95c1.3,0,2.39-0.26,3.29-0.79c0.9-0.53,1.69-1.23,2.36-2.1
			l2.24,1.75C2460.62,311.02,2457.92,312.4,2454.33,312.4z M2453.87,293.17c-1.48,0-2.72,0.54-3.73,1.62
			c-1,1.08-1.63,2.59-1.86,4.53h10.75v-0.28c-0.11-1.86-0.61-3.31-1.51-4.33C2456.62,293.68,2455.41,293.17,2453.87,293.17z"/>
		<path d="M2466.05,301.1c0-3.29,0.78-5.94,2.34-7.94c1.56-2,3.6-3,6.13-3c2.51,0,4.5,0.86,5.97,2.58v-11.18h3.67V312h-3.37
			l-0.18-2.3c-1.47,1.8-3.51,2.7-6.13,2.7c-2.48,0-4.51-1.02-6.08-3.05c-1.57-2.04-2.35-4.69-2.35-7.97V301.1z M2469.71,301.51
			c0,2.43,0.5,4.34,1.51,5.71c1,1.38,2.39,2.06,4.16,2.06c2.33,0,4.03-1.04,5.1-3.13v-9.85c-1.1-2.02-2.78-3.03-5.06-3.03
			c-1.8,0-3.2,0.69-4.2,2.08C2470.22,296.74,2469.71,298.79,2469.71,301.51z"/>
		<path d="M2141.86,334.08v5.19h4v2.83h-4v13.32c0,0.86,0.18,1.51,0.54,1.94c0.36,0.43,0.96,0.65,1.82,0.65c0.42,0,1-0.08,1.75-0.24
			v2.96c-0.97,0.26-1.9,0.39-2.82,0.39c-1.64,0-2.87-0.5-3.71-1.49c-0.83-0.99-1.25-2.4-1.25-4.22v-13.3h-3.91v-2.83h3.91v-5.19
			H2141.86z"/>
		<path d="M2148.78,349.8c0-2.1,0.41-3.99,1.24-5.67c0.83-1.68,1.98-2.97,3.45-3.88c1.47-0.91,3.15-1.37,5.04-1.37
			c2.92,0,5.28,1.01,7.09,3.03c1.8,2.02,2.71,4.71,2.71,8.07v0.26c0,2.09-0.4,3.96-1.2,5.62c-0.8,1.66-1.94,2.95-3.43,3.88
			c-1.49,0.93-3.2,1.39-5.13,1.39c-2.91,0-5.26-1.01-7.07-3.03c-1.8-2.02-2.71-4.7-2.71-8.03V349.8z M2152.46,350.24
			c0,2.38,0.55,4.29,1.66,5.73s2.58,2.16,4.43,2.16c1.86,0,3.34-0.73,4.44-2.19c1.1-1.46,1.65-3.51,1.65-6.14
			c0-2.35-0.56-4.26-1.67-5.72c-1.12-1.46-2.6-2.19-4.45-2.19c-1.81,0-3.27,0.72-4.38,2.16
			C2153.02,345.49,2152.46,347.55,2152.46,350.24z"/>
		<path d="M2186.42,339.27l0.12,2.7c1.64-2.06,3.78-3.09,6.42-3.09c4.53,0,6.82,2.56,6.86,7.67v14.17h-3.67v-14.2
			c-0.01-1.55-0.37-2.69-1.06-3.43s-1.77-1.11-3.24-1.11c-1.19,0-2.23,0.32-3.13,0.95c-0.9,0.63-1.6,1.47-2.1,2.5v15.29h-3.67
			v-21.45H2186.42z"/>
		<path d="M2214.26,361.12c-2.91,0-5.27-0.95-7.1-2.86c-1.82-1.91-2.74-4.46-2.74-7.66v-0.67c0-2.13,0.41-4.03,1.22-5.7
			s1.95-2.98,3.41-3.93c1.46-0.94,3.04-1.42,4.75-1.42c2.79,0,4.96,0.92,6.5,2.75c1.55,1.84,2.32,4.47,2.32,7.89v1.53h-14.53
			c0.05,2.12,0.67,3.82,1.85,5.13c1.18,1.3,2.69,1.95,4.51,1.95c1.3,0,2.39-0.26,3.29-0.79c0.9-0.53,1.69-1.23,2.36-2.1l2.24,1.74
			C2220.55,359.74,2217.86,361.12,2214.26,361.12z M2213.8,341.89c-1.48,0-2.72,0.54-3.73,1.62c-1,1.08-1.63,2.59-1.86,4.53h10.75
			v-0.28c-0.11-1.86-0.61-3.31-1.51-4.33C2216.55,342.4,2215.34,341.89,2213.8,341.89z"/>
		<path d="M2245.86,355.67l4.12-16.4h3.67l-6.25,21.45h-2.97l-5.21-16.26l-5.08,16.26h-2.97l-6.23-21.45h3.65l4.22,16.06l5-16.06
			h2.96L2245.86,355.67z"/>
		<path d="M2283.95,353.17h-12.09l-2.72,7.55h-3.92l11.02-28.87h3.33l11.04,28.87h-3.91L2283.95,353.17z M2273,350.06h9.81
			l-4.92-13.5L2273,350.06z"/>
		<path d="M2297.9,360.72h-3.67v-30.45h3.67V360.72z"/>
		<path d="M2307.76,360.72h-3.67v-30.45h3.67V360.72z"/>
		<path d="M2343.4,334.97h-9.28v25.75h-3.79v-25.75h-9.26v-3.11h22.32V334.97z"/>
		<path d="M2347.13,333.58c0-0.59,0.18-1.1,0.55-1.51c0.36-0.41,0.9-0.61,1.62-0.61c0.71,0,1.26,0.21,1.63,0.61
			c0.37,0.41,0.56,0.91,0.56,1.51s-0.18,1.09-0.56,1.49c-0.37,0.4-0.91,0.59-1.63,0.59c-0.71,0-1.25-0.2-1.62-0.59
			C2347.31,334.67,2347.13,334.18,2347.13,333.58z M2351.1,360.72h-3.67v-21.45h3.67V360.72z"/>
		<path d="M2360.42,339.27l0.1,2.38c1.57-1.85,3.7-2.78,6.37-2.78c3,0,5.04,1.15,6.13,3.45c0.71-1.03,1.64-1.86,2.79-2.5
			c1.14-0.63,2.5-0.95,4.05-0.95c4.71,0,7.1,2.49,7.18,7.47v14.37h-3.67v-14.16c0-1.53-0.35-2.68-1.05-3.44
			c-0.7-0.76-1.88-1.14-3.53-1.14c-1.36,0-2.49,0.41-3.39,1.22c-0.9,0.81-1.42,1.91-1.57,3.28v14.24h-3.69v-14.06
			c0-3.12-1.53-4.68-4.58-4.68c-2.41,0-4.05,1.02-4.94,3.07v15.66h-3.67v-21.45H2360.42z"/>
		<path d="M2401.46,361.12c-2.91,0-5.27-0.95-7.1-2.86c-1.82-1.91-2.74-4.46-2.74-7.66v-0.67c0-2.13,0.41-4.03,1.22-5.7
			c0.81-1.67,1.95-2.98,3.41-3.93c1.46-0.94,3.04-1.42,4.75-1.42c2.79,0,4.96,0.92,6.5,2.75c1.55,1.84,2.32,4.47,2.32,7.89v1.53
			h-14.53c0.05,2.12,0.67,3.82,1.85,5.13c1.18,1.3,2.69,1.95,4.51,1.95c1.3,0,2.39-0.26,3.29-0.79c0.9-0.53,1.69-1.23,2.36-2.1
			l2.24,1.74C2407.75,359.74,2405.05,361.12,2401.46,361.12z M2401,341.89c-1.48,0-2.72,0.54-3.73,1.62c-1,1.08-1.63,2.59-1.86,4.53
			h10.75v-0.28c-0.11-1.86-0.61-3.31-1.51-4.33C2403.75,342.4,2402.53,341.89,2401,341.89z"/>
		<path d="M2446.88,360.72h-3.83v-13.34h-14.55v13.34h-3.81v-28.87h3.81v12.41h14.55v-12.41h3.83V360.72z"/>
		<path d="M2453.08,333.58c0-0.59,0.18-1.1,0.55-1.51c0.36-0.41,0.9-0.61,1.62-0.61c0.71,0,1.25,0.21,1.63,0.61
			c0.37,0.41,0.55,0.91,0.55,1.51s-0.18,1.09-0.55,1.49c-0.37,0.4-0.91,0.59-1.63,0.59c-0.71,0-1.25-0.2-1.62-0.59
			C2453.26,334.67,2453.08,334.18,2453.08,333.58z M2457.05,360.72h-3.67v-21.45h3.67V360.72z"/>
		<path d="M2462.04,349.82c0-3.34,0.77-6,2.32-7.98c1.55-1.98,3.6-2.96,6.15-2.96c2.62,0,4.66,0.92,6.13,2.78l0.18-2.38h3.35v20.94
			c0,2.78-0.82,4.96-2.47,6.56c-1.65,1.6-3.86,2.4-6.63,2.4c-1.55,0-3.06-0.33-4.54-0.99c-1.48-0.66-2.61-1.57-3.39-2.72l1.9-2.2
			c1.57,1.94,3.5,2.91,5.77,2.91c1.79,0,3.18-0.5,4.17-1.51c1-1,1.5-2.42,1.5-4.24v-1.84c-1.47,1.69-3.47,2.54-6.01,2.54
			c-2.51,0-4.54-1.01-6.1-3.03C2462.82,356.07,2462.04,353.31,2462.04,349.82z M2465.73,350.24c0,2.42,0.5,4.32,1.49,5.7
			c0.99,1.38,2.38,2.07,4.16,2.07c2.31,0,4.01-1.05,5.09-3.15v-9.79c-1.12-2.05-2.81-3.07-5.05-3.07c-1.79,0-3.18,0.69-4.18,2.08
			C2466.23,345.46,2465.73,347.51,2465.73,350.24z"/>
		<path d="M2489.36,341.87c1.63-2,3.74-2.99,6.34-2.99c4.53,0,6.82,2.56,6.86,7.67v14.17h-3.67v-14.2
			c-0.01-1.55-0.37-2.69-1.06-3.43c-0.69-0.74-1.78-1.11-3.24-1.11c-1.19,0-2.23,0.32-3.13,0.95c-0.9,0.63-1.6,1.47-2.1,2.5v15.29
			h-3.67v-30.45h3.67V341.87z"/>
		<path d="M2520.55,355.03c0-0.99-0.37-1.76-1.12-2.31c-0.75-0.55-2.05-1.02-3.91-1.42c-1.86-0.4-3.33-0.87-4.42-1.43
			c-1.09-0.55-1.9-1.22-2.42-1.98c-0.52-0.77-0.78-1.68-0.78-2.74c0-1.76,0.74-3.24,2.23-4.46c1.49-1.22,3.39-1.82,5.7-1.82
			c2.43,0,4.4,0.63,5.92,1.88c1.51,1.26,2.27,2.86,2.27,4.82h-3.69c0-1-0.43-1.87-1.28-2.6c-0.85-0.73-1.93-1.09-3.22-1.09
			c-1.33,0-2.38,0.29-3.13,0.87c-0.75,0.58-1.13,1.34-1.13,2.28c0,0.89,0.35,1.55,1.05,2c0.7,0.45,1.97,0.88,3.8,1.29
			c1.83,0.41,3.31,0.9,4.45,1.47c1.14,0.57,1.98,1.25,2.53,2.05s0.82,1.77,0.82,2.92c0,1.92-0.77,3.45-2.3,4.61
			c-1.53,1.16-3.52,1.73-5.97,1.73c-1.72,0-3.24-0.3-4.56-0.91c-1.32-0.61-2.36-1.46-3.1-2.55c-0.75-1.09-1.12-2.27-1.12-3.54h3.67
			c0.07,1.23,0.56,2.2,1.48,2.92c0.92,0.72,2.13,1.08,3.64,1.08c1.39,0,2.5-0.28,3.34-0.84
			C2520.13,356.72,2520.55,355.97,2520.55,355.03z"/>
	</g>
	<g class="st20">
		<path d="M767.24,1400.39h-9.9v-31.52l-9.73,2.84v-7.5l18.72-6.47h0.91V1400.39z"/>
		<path d="M809.72,1382.95c0,5.76-1.29,10.21-3.88,13.33c-2.59,3.13-6.24,4.69-10.94,4.69c-4.75,0-8.42-1.57-11.02-4.72
			c-2.6-3.14-3.9-7.58-3.9-13.3v-7.79c0-5.76,1.29-10.21,3.88-13.33c2.59-3.13,6.25-4.69,10.97-4.69c4.73,0,8.39,1.57,10.99,4.72
			c2.6,3.14,3.9,7.59,3.9,13.33V1382.95z M799.85,1373.9c0-3.07-0.4-5.36-1.2-6.87c-0.8-1.51-2.07-2.27-3.81-2.27
			c-1.7,0-2.93,0.7-3.71,2.11c-0.77,1.41-1.19,3.54-1.25,6.39v10.9c0,3.18,0.4,5.51,1.2,6.99c0.8,1.47,2.07,2.21,3.81,2.21
			c1.68,0,2.92-0.72,3.72-2.15c0.8-1.44,1.21-3.69,1.23-6.75V1373.9z"/>
		<path d="M821.12,1390.81c1.56,0,2.86,0.46,3.9,1.39c1.04,0.93,1.55,2.11,1.55,3.56s-0.52,2.63-1.55,3.56
			c-1.04,0.93-2.33,1.39-3.9,1.39c-1.58,0-2.89-0.47-3.91-1.41c-1.03-0.94-1.54-2.12-1.54-3.54s0.51-2.61,1.54-3.54
			C818.24,1391.27,819.54,1390.81,821.12,1390.81z"/>
		<path d="M862.61,1382.95c0,5.76-1.29,10.21-3.88,13.33c-2.59,3.13-6.24,4.69-10.94,4.69c-4.75,0-8.42-1.57-11.02-4.72
			c-2.6-3.14-3.9-7.58-3.9-13.3v-7.79c0-5.76,1.29-10.21,3.88-13.33c2.59-3.13,6.25-4.69,10.97-4.69c4.73,0,8.39,1.57,10.99,4.72
			c2.6,3.14,3.9,7.59,3.9,13.33V1382.95z M852.73,1373.9c0-3.07-0.4-5.36-1.2-6.87c-0.8-1.51-2.07-2.27-3.81-2.27
			c-1.7,0-2.93,0.7-3.71,2.11c-0.77,1.41-1.19,3.54-1.25,6.39v10.9c0,3.18,0.4,5.51,1.2,6.99c0.8,1.47,2.07,2.21,3.81,2.21
			c1.68,0,2.92-0.72,3.72-2.15c0.8-1.44,1.21-3.69,1.23-6.75V1373.9z"/>
		<path d="M897.35,1382.95c0,5.76-1.29,10.21-3.88,13.33c-2.59,3.13-6.24,4.69-10.94,4.69c-4.75,0-8.42-1.57-11.02-4.72
			c-2.6-3.14-3.9-7.58-3.9-13.3v-7.79c0-5.76,1.29-10.21,3.88-13.33c2.59-3.13,6.25-4.69,10.97-4.69c4.73,0,8.39,1.57,10.99,4.72
			c2.6,3.14,3.9,7.59,3.9,13.33V1382.95z M887.48,1373.9c0-3.07-0.4-5.36-1.2-6.87c-0.8-1.51-2.07-2.27-3.81-2.27
			c-1.7,0-2.93,0.7-3.71,2.11c-0.77,1.41-1.19,3.54-1.25,6.39v10.9c0,3.18,0.4,5.51,1.2,6.99c0.8,1.47,2.07,2.21,3.81,2.21
			c1.68,0,2.92-0.72,3.72-2.15c0.8-1.44,1.21-3.69,1.23-6.75V1373.9z"/>
		<path d="M932.1,1382.95c0,5.76-1.29,10.21-3.88,13.33c-2.59,3.13-6.24,4.69-10.94,4.69c-4.75,0-8.42-1.57-11.02-4.72
			c-2.6-3.14-3.9-7.58-3.9-13.3v-7.79c0-5.76,1.29-10.21,3.88-13.33c2.59-3.13,6.25-4.69,10.97-4.69c4.73,0,8.39,1.57,10.99,4.72
			c2.6,3.14,3.9,7.59,3.9,13.33V1382.95z M922.22,1373.9c0-3.07-0.4-5.36-1.2-6.87s-2.07-2.27-3.81-2.27c-1.7,0-2.93,0.7-3.71,2.11
			c-0.77,1.41-1.19,3.54-1.25,6.39v10.9c0,3.18,0.4,5.51,1.2,6.99c0.8,1.47,2.07,2.21,3.81,2.21c1.68,0,2.92-0.72,3.72-2.15
			s1.21-3.69,1.23-6.75V1373.9z"/>
		<path d="M971.82,1389.08c0-1.54-0.38-2.75-1.14-3.63s-2.1-1.71-4.01-2.49c-1.91-0.78-3.68-1.57-5.3-2.37s-3.02-1.73-4.19-2.78
			c-1.17-1.05-2.07-2.28-2.7-3.66s-0.94-3.07-0.94-5.04c0-3.3,1.11-6.02,3.34-8.16c2.23-2.14,5.2-3.38,8.91-3.74v-6.18h4.66v6.3
			c3.57,0.53,6.38,2,8.42,4.41c2.04,2.41,3.06,5.47,3.06,9.18h-9.9c0-2.03-0.39-3.59-1.17-4.69c-0.78-1.09-1.89-1.64-3.34-1.64
			c-1.29,0-2.29,0.41-3,1.22c-0.71,0.81-1.07,1.93-1.07,3.35c0,1.45,0.41,2.59,1.23,3.44s2.14,1.66,3.96,2.43
			c1.82,0.77,3.53,1.57,5.14,2.4c1.61,0.83,3,1.77,4.17,2.83c1.17,1.05,2.09,2.29,2.75,3.69c0.66,1.41,1,3.09,1,5.07
			c0,3.34-1.06,6.06-3.18,8.17c-2.12,2.11-5,3.34-8.66,3.69v5.89h-4.66v-5.92c-4.26-0.45-7.53-1.91-9.8-4.38
			c-2.28-2.47-3.41-5.73-3.41-9.77h9.87c0,2.23,0.49,3.92,1.48,5.08c0.99,1.16,2.39,1.74,4.2,1.74c1.33,0,2.37-0.4,3.13-1.19
			S971.82,1390.46,971.82,1389.08z"/>
	</g>
	<g class="st20">
		<path d="M2137.3,229.52l2.61-21.82h24.93v7.68h-16.9l-0.97,8.47c0.7-0.41,1.63-0.77,2.77-1.09c1.14-0.31,2.26-0.47,3.35-0.47
			c4.24,0,7.5,1.25,9.77,3.76c2.28,2.51,3.41,6.03,3.41,10.56c0,2.73-0.61,5.21-1.83,7.43s-2.93,3.92-5.14,5.11
			c-2.21,1.19-4.82,1.79-7.82,1.79c-2.68,0-5.19-0.55-7.53-1.65c-2.34-1.1-4.18-2.61-5.51-4.54c-1.33-1.92-1.98-4.09-1.96-6.51h9.9
			c0.1,1.56,0.6,2.8,1.49,3.71c0.9,0.92,2.08,1.37,3.54,1.37c3.32,0,4.98-2.46,4.98-7.37c0-4.54-2.03-6.81-6.09-6.81
			c-2.3,0-4.02,0.74-5.16,2.22L2137.3,229.52z"/>
		<path d="M2201.08,232.92c0,5.76-1.29,10.21-3.88,13.33s-6.24,4.69-10.94,4.69c-4.75,0-8.42-1.57-11.02-4.72
			c-2.6-3.14-3.9-7.58-3.9-13.3v-7.79c0-5.76,1.29-10.21,3.88-13.33s6.24-4.69,10.97-4.69c4.73,0,8.39,1.57,10.99,4.72
			c2.6,3.14,3.9,7.59,3.9,13.33V232.92z M2191.2,223.87c0-3.07-0.4-5.36-1.2-6.87c-0.8-1.51-2.07-2.27-3.81-2.27
			c-1.7,0-2.93,0.7-3.71,2.11c-0.77,1.41-1.19,3.54-1.25,6.39v10.9c0,3.18,0.4,5.51,1.2,6.99c0.8,1.47,2.07,2.21,3.81,2.21
			c1.68,0,2.92-0.72,3.72-2.15c0.8-1.44,1.21-3.69,1.23-6.75V223.87z"/>
		<path d="M2212.47,240.77c1.56,0,2.86,0.46,3.9,1.39c1.04,0.93,1.55,2.11,1.55,3.56s-0.52,2.63-1.55,3.56
			c-1.04,0.93-2.33,1.39-3.9,1.39c-1.58,0-2.89-0.47-3.91-1.41s-1.54-2.12-1.54-3.54s0.51-2.61,1.54-3.54
			S2210.89,240.77,2212.47,240.77z"/>
		<path d="M2253.96,232.92c0,5.76-1.29,10.21-3.88,13.33s-6.24,4.69-10.94,4.69c-4.75,0-8.42-1.57-11.02-4.72
			c-2.6-3.14-3.9-7.58-3.9-13.3v-7.79c0-5.76,1.29-10.21,3.88-13.33s6.24-4.69,10.97-4.69c4.73,0,8.39,1.57,10.99,4.72
			c2.6,3.14,3.9,7.59,3.9,13.33V232.92z M2244.08,223.87c0-3.07-0.4-5.36-1.2-6.87c-0.8-1.51-2.07-2.27-3.81-2.27
			c-1.7,0-2.93,0.7-3.71,2.11c-0.77,1.41-1.19,3.54-1.25,6.39v10.9c0,3.18,0.4,5.51,1.2,6.99c0.8,1.47,2.07,2.21,3.81,2.21
			c1.68,0,2.92-0.72,3.72-2.15c0.8-1.44,1.21-3.69,1.23-6.75V223.87z"/>
		<path d="M2288.7,232.92c0,5.76-1.29,10.21-3.88,13.33s-6.24,4.69-10.94,4.69c-4.75,0-8.42-1.57-11.02-4.72
			c-2.6-3.14-3.9-7.58-3.9-13.3v-7.79c0-5.76,1.29-10.21,3.88-13.33s6.24-4.69,10.97-4.69c4.73,0,8.39,1.57,10.99,4.72
			c2.6,3.14,3.9,7.59,3.9,13.33V232.92z M2278.83,223.87c0-3.07-0.4-5.36-1.2-6.87c-0.8-1.51-2.07-2.27-3.81-2.27
			c-1.7,0-2.93,0.7-3.71,2.11c-0.77,1.41-1.19,3.54-1.25,6.39v10.9c0,3.18,0.4,5.51,1.2,6.99c0.8,1.47,2.07,2.21,3.81,2.21
			c1.68,0,2.92-0.72,3.72-2.15c0.8-1.44,1.21-3.69,1.23-6.75V223.87z"/>
		<path d="M2323.45,232.92c0,5.76-1.29,10.21-3.88,13.33s-6.24,4.69-10.94,4.69c-4.75,0-8.42-1.57-11.02-4.72
			c-2.6-3.14-3.9-7.58-3.9-13.3v-7.79c0-5.76,1.29-10.21,3.88-13.33s6.24-4.69,10.97-4.69c4.73,0,8.39,1.57,10.99,4.72
			c2.6,3.14,3.9,7.59,3.9,13.33V232.92z M2313.58,223.87c0-3.07-0.4-5.36-1.2-6.87c-0.8-1.51-2.07-2.27-3.81-2.27
			c-1.7,0-2.93,0.7-3.71,2.11c-0.77,1.41-1.19,3.54-1.25,6.39v10.9c0,3.18,0.4,5.51,1.2,6.99c0.8,1.47,2.07,2.21,3.81,2.21
			c1.68,0,2.92-0.72,3.72-2.15c0.8-1.44,1.21-3.69,1.23-6.75V223.87z"/>
		<path d="M2363.18,239.05c0-1.54-0.38-2.75-1.14-3.63s-2.1-1.71-4.01-2.49c-1.92-0.78-3.68-1.57-5.3-2.37
			c-1.62-0.8-3.02-1.73-4.19-2.78s-2.07-2.28-2.7-3.66c-0.63-1.39-0.94-3.07-0.94-5.04c0-3.3,1.11-6.02,3.34-8.16
			c2.23-2.14,5.2-3.38,8.91-3.74v-6.18h4.66v6.3c3.57,0.53,6.38,2,8.42,4.41c2.04,2.41,3.06,5.47,3.06,9.18h-9.9
			c0-2.03-0.39-3.59-1.17-4.69c-0.78-1.09-1.89-1.64-3.34-1.64c-1.29,0-2.29,0.41-3,1.22c-0.71,0.81-1.07,1.93-1.07,3.35
			c0,1.45,0.41,2.59,1.23,3.44c0.82,0.85,2.14,1.66,3.96,2.43c1.82,0.77,3.53,1.57,5.14,2.4c1.61,0.83,3,1.77,4.17,2.83
			c1.17,1.05,2.09,2.29,2.75,3.69c0.66,1.41,1,3.1,1,5.07c0,3.34-1.06,6.06-3.18,8.17c-2.12,2.11-5.01,3.34-8.66,3.69v5.89h-4.66
			v-5.92c-4.26-0.45-7.52-1.91-9.8-4.38c-2.28-2.47-3.41-5.73-3.41-9.77h9.87c0,2.23,0.49,3.92,1.48,5.08
			c0.99,1.16,2.39,1.74,4.2,1.74c1.33,0,2.37-0.4,3.13-1.19S2363.18,240.43,2363.18,239.05z"/>
	</g>
</g>
</svg>
