<svg id="GRAPHICS" xmlns="http://www.w3.org/2000/svg" xmlns:xlink="http://www.w3.org/1999/xlink" viewBox="0 0 2995.45 1882.07"><defs><style>.cls-1,.cls-10,.cls-12,.cls-16,.cls-17,.cls-3,.cls-4{fill:none;}.cls-15,.cls-2{fill:#00aeef;}.cls-12,.cls-14,.cls-15,.cls-16,.cls-17,.cls-2,.cls-3,.cls-4,.cls-5{stroke:#000;}.cls-10,.cls-12,.cls-14,.cls-15,.cls-16,.cls-17,.cls-2,.cls-3,.cls-4,.cls-5,.cls-7{stroke-linecap:round;stroke-linejoin:round;stroke-width:3.65px;}.cls-4{stroke-dasharray:12.01 12.01;}.cls-14,.cls-5,.cls-7,.cls-9{fill:#fff;}.cls-6{clip-path:url(#clip-path);}.cls-10,.cls-7{stroke:#181d23;}.cls-8{opacity:0.2;}.cls-11{opacity:0.1;}.cls-12{opacity:0.3;}.cls-13,.cls-18{fill-opacity:0.2;}.cls-14,.cls-15,.cls-16,.cls-18{fill-rule:evenodd;}.cls-17{stroke-dasharray:7.29 12.76;}</style><clipPath id="clip-path" transform="translate(-158.62 -124.92)"><rect class="cls-1" x="10" y="0.04" width="3261.4" height="1617.05"/></clipPath></defs><line class="cls-2" x1="1975.49" y1="141.82" x2="2641.34" y2="141.82"/><path class="cls-3" d="M2905.1,321.59q-.53,2.9-1,5.9" transform="translate(-158.62 -124.92)"/><path class="cls-4" d="M2901.92,339.31c-34.56,190.51-138.18,678.84-546.42,772.35,0,0-276.41,42.59-571.53-67.43-586.54-218.67-1084.11,77.87-1285.42,364" transform="translate(-158.62 -124.92)"/><path class="cls-3" d="M495.11,1413.18c-1.14,1.65-2.27,3.29-3.39,4.94" transform="translate(-158.62 -124.92)"/><path class="cls-5" d="M3073,1516.79a26.79,26.79,0,0,0-.17-3.25c7.36-.93,13.39-5.8,13.42-13.41,0-3.61-1-12.91-11.24-13.65,4.64-11-4.64-19.57-13.68-19.6-9.62-.05-16.53,9.07-16.58,20.32s-.11,19.58-.15,29.48c0,11.26,6.3,17.22,14.15,17.25S3073,1528.05,3073,1516.79Z" transform="translate(-158.62 -124.92)"/><path class="cls-5" d="M2811.7,1534.31a59.24,59.24,0,0,1,.36-6.72c-15.24-1.94-27.71-12-27.78-27.78,0-7.47,2.06-26.73,23.26-28.26-9.59-22.85,9.63-40.53,28.34-40.58,19.91-.11,34.23,18.78,34.34,42.07s.23,40.54.3,61c.08,23.31-13.05,35.64-29.3,35.72S2811.78,1557.62,2811.7,1534.31Z" transform="translate(-158.62 -124.92)"/><path class="cls-5" d="M276.41,678.28a64.34,64.34,0,0,0-7.42.5c-2.37-16.83-13.7-30.48-31.13-30.32-8.26.07-29.54,2.66-30.91,26.13-25.42-10.28-44.7,11.23-44.48,31.94.17,22,21.27,37.58,47,37.36s44.84-.34,67.53-.55c25.79-.26,39.23-15,39.07-32.92S302.2,678,276.41,678.28Z" transform="translate(-158.62 -124.92)"/><path class="cls-5" d="M427.08,787.71a36.83,36.83,0,0,0-4.11.21A19,19,0,0,0,392,775.69a15.73,15.73,0,0,0-31,3.81c0,.41,0,.79,0,1.2-13.13,1-23.39,10.49-23.41,22,0,12.22,11.57,21,25.86,21l63.5.09c14.3,0,21.86-8,21.87-18S441.38,787.72,427.08,787.71Z" transform="translate(-158.62 -124.92)"/><path class="cls-5" d="M737.63,525.41a78.31,78.31,0,0,0-8.89.48,41.08,41.08,0,0,0-66.89-26.45,34,34,0,0,0-67,8.24c0,.87,0,1.71.08,2.6-28.38,2.26-50.56,22.66-50.6,47.52,0,26.42,25,45.35,55.9,45.4l137.26.19c30.91.05,47.25-17.37,47.28-38.92S768.55,525.46,737.63,525.41Z" transform="translate(-158.62 -124.92)"/><line class="cls-3" x1="2393.86" y1="770.7" x2="2393.86" y2="578.12"/><rect class="cls-2" x="2370.56" y="649.91" width="46.61" height="107.71"/><line class="cls-3" x1="2335.97" y1="856.53" x2="2335.97" y2="636.86"/><rect class="cls-5" x="2312.67" y="759.51" width="46.61" height="48.93"/><line class="cls-3" x1="2278.08" y1="814.81" x2="2278.08" y2="688.9"/><rect class="cls-2" x="2254.77" y="714.87" width="46.61" height="70.42"/><line class="cls-3" x1="2220.18" y1="923.02" x2="2220.18" y2="736.31"/><rect class="cls-5" x="2196.88" y="770.16" width="46.61" height="81.94"/><line class="cls-3" x1="2162.29" y1="895.19" x2="2162.29" y2="733.23"/><rect class="cls-2" x="2138.99" y="771.94" width="46.61" height="78.1"/><line class="cls-3" x1="2104.4" y1="934.92" x2="2104.4" y2="812.34"/><rect class="cls-2" x="2081.1" y="832.1" width="46.61" height="19.97"/><line class="cls-3" x1="2046.51" y1="946.11" x2="2046.51" y2="706.89"/><rect class="cls-2" x="2023.2" y="747.21" width="46.61" height="77.71"/><line class="cls-3" x1="1582.65" y1="732.74" x2="1582.65" y2="602.08"/><rect class="cls-2" x="1559.35" y="641.81" width="46.61" height="48.93"/><line class="cls-3" x1="954.51" y1="837.17" x2="954.51" y2="711.26"/><rect class="cls-5" x="931.21" y="737.24" width="46.61" height="70.42"/><line class="cls-3" x1="896.62" y1="805.37" x2="896.62" y2="546.14"/><rect class="cls-2" x="873.31" y="662.81" width="46.61" height="74.04"/><line class="cls-3" x1="838.72" y1="807.55" x2="838.72" y2="685.59"/><rect class="cls-2" x="815.42" y="724.31" width="46.61" height="38.1"/><line class="cls-3" x1="780.83" y1="847.28" x2="780.83" y2="694.7"/><rect class="cls-2" x="757.53" y="734.43" width="46.61" height="67.71"/><line class="cls-3" x1="1187.06" y1="706.89" x2="1187.06" y2="600.98"/><rect class="cls-5" x="1163.75" y="676.96" width="46.61" height="9.93"/><line class="cls-3" x1="1129.16" y1="722.1" x2="1129.16" y2="575.4"/><rect class="cls-5" x="1105.86" y="639.25" width="46.61" height="37.7"/><line class="cls-3" x1="1071.27" y1="744.28" x2="1071.27" y2="622.32"/><rect class="cls-2" x="1047.97" y="661.03" width="46.61" height="38.1"/><line class="cls-3" x1="1013.38" y1="814" x2="1013.38" y2="661.43"/><rect class="cls-2" x="990.07" y="701.15" width="46.61" height="67.71"/><line class="cls-3" x1="722.94" y1="888.47" x2="722.94" y2="757.03"/><rect class="cls-2" x="699.64" y="765.62" width="46.61" height="86.48"/><line class="cls-3" x1="665.33" y1="881.62" x2="665.33" y2="755.71"/><rect class="cls-5" x="642.03" y="781.68" width="46.61" height="70.42"/><line class="cls-3" x1="607.44" y1="866.82" x2="607.44" y2="720.12"/><rect class="cls-5" x="584.14" y="783.97" width="46.61" height="37.7"/><line class="cls-3" x1="549.55" y1="869" x2="549.55" y2="747.04"/><rect class="cls-2" x="526.24" y="785.75" width="46.61" height="38.1"/><line class="cls-3" x1="491.65" y1="908.73" x2="491.65" y2="756.15"/><rect class="cls-2" x="468.35" y="795.87" width="46.61" height="67.71"/><line class="cls-3" x1="433.76" y1="981.88" x2="433.76" y2="850.45"/><rect class="cls-2" x="410.46" y="859.03" width="46.61" height="77.71"/><line class="cls-3" x1="375.26" y1="1138.73" x2="375.26" y2="927.28"/><rect class="cls-2" x="351.96" y="935.87" width="46.61" height="157.71"/><line class="cls-3" x1="1988.61" y1="866.45" x2="1988.61" y2="743.88"/><rect class="cls-5" x="1965.31" y="821.31" width="46.61" height="28.74"/><line class="cls-3" x1="1930.72" y1="914.05" x2="1930.72" y2="737.72"/><rect class="cls-5" x="1907.42" y="765.9" width="46.61" height="55.14"/><line class="cls-3" x1="1872.83" y1="802.76" x2="1872.83" y2="610.18"/><rect class="cls-2" x="1849.53" y="703.76" width="46.61" height="53.85"/><line class="cls-3" x1="1814.94" y1="767.48" x2="1814.94" y2="574.9"/><rect class="cls-5" x="1791.63" y="652.5" width="46.61" height="69.84"/><line class="cls-3" x1="1757.04" y1="838.87" x2="1757.04" y2="646.29"/><rect class="cls-2" x="1733.74" y="686.02" width="46.61" height="107.71"/><line class="cls-3" x1="1699.15" y1="740" x2="1699.15" y2="584.09"/><rect class="cls-5" x="1675.85" y="623.81" width="46.61" height="67.71"/><line class="cls-3" x1="1641.26" y1="724.3" x2="1641.26" y2="611.73"/><rect class="cls-5" x="1617.95" y="651.45" width="46.61" height="27.7"/><line class="cls-3" x1="2451.75" y1="671.7" x2="2451.75" y2="543.47"/><rect class="cls-2" x="2428.45" y="552.71" width="46.61" height="84.34"/><line class="cls-3" x1="2509.65" y1="636.55" x2="2509.65" y2="430.2"/><rect class="cls-2" x="2486.34" y="449" width="46.61" height="123.29"/><line class="cls-3" x1="2568.33" y1="464.62" x2="2568.33" y2="350.27"/><rect class="cls-2" x="2545.02" y="121.82" width="46.61" height="328.54"/><line class="cls-3" x1="317.3" y1="1175.88" x2="317.3" y2="1044.45"/><rect class="cls-2" x="294" y="1053.03" width="46.61" height="77.71"/><line class="cls-3" x1="202.2" y1="1358.55" x2="202.2" y2="1156.94"/><rect class="cls-2" x="178.9" y="1165.52" width="46.61" height="127.71"/><line class="cls-3" x1="258.81" y1="1216.47" x2="258.81" y2="1045.03"/><rect class="cls-5" x="235.5" y="1130.75" width="46.61" height="40.57"/><g class="cls-6"><path class="cls-7" d="M1348.2,983.87a42.77,42.77,0,0,0,6.09.89c34.17,2.52,68.77-5.81,102.93-6.32,20-.3,43.08,6.92,36.38-19-2.42-9.38-7.43-18.06-10-27.39-1.62-5.91,1.34-4.59-5.25-6.09-5.8-1.33-14.24.29-20.16.4-10.81.18-21.64.31-32.46.51-33.15.61-62.48,2.34-93.43,13.83-12.43,4.62-12.6,15.71-7.29,26.39C1329.36,975.84,1338.19,981.65,1348.2,983.87Z" transform="translate(-158.62 -124.92)"/><path class="cls-7" d="M1378.89,993.67c-9.66,1.27-19.25,2.47-32.51,6.75-17.75,5.73-16.83,28.54-1,34.13,8.33,2.94,16.36,6.81,24.83,9.23,17.65,5,53.44,16.9,61.58-20.5C1440.62,982.55,1396.92,991.3,1378.89,993.67Z" transform="translate(-158.62 -124.92)"/><path class="cls-7" d="M1389,1081.06c-9.66,1.28-20.22,2.25-29.73,7-16.68,8.36-19.61,28.29-3.81,33.87,8.32,2.94,16.36,6.82,24.83,9.23,17.66,5,53.44,16.9,61.58-20.49C1450.76,1069.94,1407.06,1078.69,1389,1081.06Z" transform="translate(-158.62 -124.92)"/><path class="cls-7" d="M1391.5,1154.62c-8,1.06-16.82,1.86-24.73,5.83-13.87,7-16.31,23.53-3.16,28.17,6.91,2.45,13.59,5.67,20.64,7.68,14.69,4.19,44.46,14.06,51.23-17C1442.84,1145.37,1406.49,1152.65,1391.5,1154.62Z" transform="translate(-158.62 -124.92)"/><path class="cls-7" d="M1896.89,1781.55c-35.62-144.13-91-411.15-103.4-450.29-10.79-34-11.72-80-12-115.64-.39-48.64-9.85-141.52-5.54-168.27,2.45-15.1,8.84-21.08,6.52-34.27-3.3-18.71-9.3-17-17.32-33.39-12.48-25.56-19-24.73-21.66-53.28-1.34-14.44,6-30.56-6.23-41.42-18.68-16.59-42.27,1.14-42.27,23.61,0,29.93-.07,44.74-.07,76.29,0,7.18,0,12.87,0,18,4.89,2.46,10.63,3.74,15.56,4.83,3.38.75,2.55,1.35-.8,1.35-5,0-10-1.43-14.74-.37,0,11.64,0,30.78,0,57.8,0,26-58.41,33.36-75.87,36.3-45.31,7.65-90.94,11.76-135.7,23.1-8.7,2.21-49.74,5.74-52.61,17-3.15,12.32,23,37.56,29.85,46.44a671.3,671.3,0,0,0,71.48,79.25c20,18.91,41.67,39.85,44.35,70.12,4.87,55.27,52.1,314,55.27,442.8" transform="translate(-158.62 -124.92)"/><path class="cls-7" d="M1741.92,891c5,.82,4,3.82,3.66,13.13-.33,8.44-2.56,16.24-1.18,29.17-4.18-3.48-19.84-42.73-15.47-42.66C1734.66,890.69,1738.9,890.47,1741.92,891Z" transform="translate(-158.62 -124.92)"/><path d="M1695,1193.15a37.39,37.39,0,0,1-37.39,37.39h-226.1a37.39,37.39,0,0,1-37.39-37.39V663.3a37.39,37.39,0,0,1,37.39-37.39h226.1A37.39,37.39,0,0,1,1695,663.3Z" transform="translate(-158.62 -124.92)"/><path class="cls-5" d="M1673.23,1136.33a1.6,1.6,0,0,1-1.51,1.62H1417.45a1.61,1.61,0,0,1-1.52-1.62l-.12-424.79a1.51,1.51,0,0,1,1.51-1.51h254.27a1.62,1.62,0,0,1,1.64,1.51Z" transform="translate(-158.62 -124.92)"/><rect class="cls-2" x="1392.67" y="932.57" width="108.29" height="43.89" rx="16.24"/><rect class="cls-5" x="1271.34" y="932.57" width="108.29" height="43.89" rx="16.24"/><path class="cls-8" d="M1540.05,1255.42c4.77,4.32,16.81,15.33,19.81,20.57,1.42-11.16,9.76-32.84,11.3-45.45.13-1.09-15,1.09-14.84,0,5.91-48.74,12-101,13.15-109.28,2.41-17.21,8.76-54-21-61.94-28.52-7.66-31.28,23.41-34.33,47-2.18,17.05-11.07,84.78-18.72,126.2C1510.78,1238.16,1527.93,1244.44,1540.05,1255.42Z" transform="translate(-158.62 -124.92)"/><path class="cls-7" d="M1570.6,658a3.91,3.91,0,0,1-3.92,3.91h-44.31a3.91,3.91,0,0,1-3.93-3.91h0a3.92,3.92,0,0,1,3.92-3.93h44.32a3.88,3.88,0,0,1,3.92,3.87Z" transform="translate(-158.62 -124.92)"/><path class="cls-7" d="M1352.2,1187.7a43.06,43.06,0,0,0,2.21,11.8c2.32,6.57,6,7.54,12,10.74,9.94,5.34,20,12.17,31.38,13.84,11.73,1.73,14.82-11.54,13.71-21.32-.49-4.17-1.17-9.56-3-13.43-5.11-10.94-19.88-15.27-28-23.55-5.73-5.85-8.94-9.3-17-3.94-7.2,4.75-11.06,12.92-11.3,21.43C1352.09,1184.7,1352.12,1186.19,1352.2,1187.7Z" transform="translate(-158.62 -124.92)"/><path class="cls-7" d="M1387,1195.45c-2.51-.45-4.87-.58-7.11,1.6-3,3-2.65,8.19-.8,11.54,1.41,2.57,4,6.51,6.38,8.34,1.73,1.34,8.85,2.62,9.52,4.38-3-8-7.67-16.51-3.16-25.14A31.21,31.21,0,0,1,1387,1195.45Z" transform="translate(-158.62 -124.92)"/><path class="cls-7" d="M1340.83,1101.73c-3.09,10.39,4.78,22,11.83,31,8.42,10.85,16.37,23.15,29.35,29.07,12.58,5.74,21-3.75,23.26-15.78,3.93-20.87-17.7-37.29-21.75-56.26-1.46-6.82.29-8-7.42-7.1C1362.79,1084.23,1345.18,1087.14,1340.83,1101.73Z" transform="translate(-158.62 -124.92)"/><path class="cls-7" d="M1379.17,1127.21c-2.18-1.64-4.57-2.61-7.66-1.46-4.24,1.57-6.11,6.83-5.76,10.89a26.9,26.9,0,0,0,4.09,11.26c2.73,3.87,10.86,8.08,15,11-.17-4.71-2.67-8.83-2.86-13.47,0-1.26,2-13.87,2.38-13.57C1382.58,1130.36,1381,1128.56,1379.17,1127.21Z" transform="translate(-158.62 -124.92)"/><path class="cls-9" d="M1380.39,1009.36l-26.47,6.12-2.47-16.59c-12,2.58-20,7.67-23.58,19.32-3.67,11.83,5.81,25.06,14.29,35.44,10.14,12.4,19.72,26.45,35.3,33.26,15.1,6.58,25.17-4.21,27.84-17.92C1409.93,1045.2,1385.31,1031,1380.39,1009.36Z" transform="translate(-158.62 -124.92)"/><path class="cls-10" d="M1351.45,998.89c-12,2.58-20,7.67-23.58,19.32-3.67,11.83,5.81,25.06,14.29,35.44,10.14,12.4,19.72,26.45,35.3,33.26,15.1,6.58,25.17-4.21,27.84-17.92,4.63-23.79-20-38-24.91-59.63" transform="translate(-158.62 -124.92)"/><path class="cls-7" d="M1372.53,1044.62c-.93-2.88-3.06-4.56-7.56-2.9-5.53,2-8,8.9-7.51,14.19.59,6.75,9.91,27.86,18.65,24.71-2.94-6.89-4-15.32-3.43-23.09C1372.91,1054.36,1373.76,1048.44,1372.53,1044.62Z" transform="translate(-158.62 -124.92)"/><path class="cls-9" d="M1697.51,1085.42c15.7,37.91,24.25,69.56,23.44,110.59-.24,11.62,7,31.28,2.79,41.82-5.25,13.27-25.85,13.33-34.31,3-15-18.33-4.75-47.4.09-66.78,3.12-12.5-1.31-23.69-.36-36.06.75-9.94,1.74-20.24,3.36-30S1697.21,1095.34,1697.51,1085.42Z" transform="translate(-158.62 -124.92)"/><path class="cls-7" d="M1694.72,1086.25c0,13-2.92,25.09-4.26,38a211.65,211.65,0,0,1-5.61,30.51c-5.45,21.41-12,42.83-12,65.14,0,9.15-.76,18.68,0,27.8,1.31,15.21,6.55,24,15.69,36" transform="translate(-158.62 -124.92)"/><path class="cls-10" d="M1732.6,1102c-10-3.11-16-2.29-25.56-6.55-4.34-1.94-11.32-4.91-12.44-10" transform="translate(-158.62 -124.92)"/><rect class="cls-2" x="1257.17" y="585.55" width="257.44" height="77.72"/><g class="cls-11"><rect x="1257.17" y="664.93" width="257.44" height="9.29"/></g><path class="cls-8" d="M1440.38,1205.9c4.54,5.49,6.54,11.39,10,17.45,3.65,6.4,15.1,5.68,21.58,8,2.16-41.72,2.31-69.61-24.64-73.26-17.22-2.32-26.09,4.94-31.45,30.47C1425.1,1193,1434.14,1198.37,1440.38,1205.9Z" transform="translate(-158.62 -124.92)"/><path class="cls-8" d="M1383.11,993.08s-2.33,5.55-1.58,20.25c.36,7.09,11.94,20.74,11.94,20.74l.61-41.47Z" transform="translate(-158.62 -124.92)"/><path class="cls-8" d="M1383.11,1087.56a82.24,82.24,0,0,0,3.13,9.48,23.88,23.88,0,0,0,7.23,10l.61-19.91Z" transform="translate(-158.62 -124.92)"/><path class="cls-8" d="M1639,1298.82c-17.44-9.48-50.19,5.8-69.81,24.31,5.37,19.56,11,39.13,13.29,59.35,1.13,10,1.81,20,2.36,30h1.54c7.87-17.59,16.45-34.87,30.11-49.13,7.57-7.92,11.87-16.77,20.9-22.82,1.32-.88,2.56-1.78,3.74-2.7a19.33,19.33,0,0,0,5.5-1.81c2.73-1.71,3.94-5.43,4.69-8.52,0-.12.06-.45.1-.91C1656.66,1317.19,1654.21,1307.12,1639,1298.82Z" transform="translate(-158.62 -124.92)"/><path class="cls-8" d="M1397.83,1180.84a11.64,11.64,0,0,1,3.27,1l3,1.34c-1.82-7.81-5-14.57-10.62-18.81v13.38A9.37,9.37,0,0,1,1397.83,1180.84Z" transform="translate(-158.62 -124.92)"/><path class="cls-7" d="M1645.24,1362c-41.61,37.88-49.85,97.21-101.22,126.55-25.88,14.81-45.64,97.28-45.64,97.28l-111.81,419.38L1173.21,1946l137-477.7s-11.66-70.17-5.29-117c7.55-55.56,20.65-78.13,23.68-101.4,3.89-29.82,13.81-74.36,44-71.08,22.19,2.41,24.63,25.81,23,37.4-3,21.59-3,19.74-3.85,28.83.85-9.09,5.83-18.22,9.51-46.78,3.77-29.35,13.16-39.22,32.68-39.14,24.93.09,25,23.56,22.7,45.62-1.73,17.1-5.13,25.4-5.53,42.62,4.54-21,8.7-30.76,13.7-48.33,9.78-34.42,19.88-44,39-41.41,26.54,3.65,22.52,31.57,14.68,73.3-4.15,22-14,35.9-9.84,33.58,7.84-4.45,42.47-133.87,48.95-158.34,6.23-23.53,13.2-54.46,40.68-46.83,28.7,8,17.39,44.52,12.66,61.65-4.07,14.58-42.27,167.27-50.53,193.16-2.71,8.48-11.72,63.74-8.92,67.58,5.14,7,37.45-45.76,43.9-52.45,20.66-21.38,62.79-42.21,81.06-31.53,21.56,12.61,12.75,29.33-7.23,41.51C1659.37,1345.27,1653.88,1354.07,1645.24,1362Z" transform="translate(-158.62 -124.92)"/><path class="cls-7" d="M1603.54,1093.24a18.41,18.41,0,0,1-8.18,5.59c-3.66,1.08-7.8,1.69-11.52.17-11-4.56-11.3-31.38.62-33.83,7-1.41,25.81,2.75,25.39,13.74C1609.67,1083.92,1607.06,1089.27,1603.54,1093.24Z" transform="translate(-158.62 -124.92)"/><path class="cls-7" d="M1669.63,1326.24c4.53-4.41,10.49-8.63,16.21-10.33,1.23-.34-.65,9.63-.93,10.36-1.17,3.09-2.88,6.79-5.84,8.48-2.51,1.44-6.06,1.57-8.76,2.73-4.57,2-8.71,4.83-13.09,7.12,5-2.61,6.27-11.63,9.85-15.68C1667.83,1328,1668.71,1327.13,1669.63,1326.24Z" transform="translate(-158.62 -124.92)"/><line class="cls-12" x1="1270.34" y1="857.42" x2="1494.86" y2="857.42"/><line class="cls-12" x1="1270.34" y1="792.79" x2="1494.86" y2="792.79"/><line class="cls-12" x1="1270.34" y1="728.15" x2="1494.86" y2="728.15"/><line class="cls-3" x1="1347.79" y1="863.96" x2="1347.79" y2="782.89"/><rect class="cls-2" x="1339.59" y="799.61" width="16.41" height="45.34"/><line class="cls-3" x1="1279.11" y1="895.99" x2="1279.11" y2="814.92"/><rect class="cls-2" x="1270.91" y="831.65" width="16.41" height="45.34"/><line class="cls-3" x1="1324.9" y1="875.39" x2="1324.9" y2="807.62"/><rect class="cls-5" x="1316.69" y="824.34" width="16.4" height="20.6"/><line class="cls-3" x1="1302" y1="854.4" x2="1302" y2="801.4"/><rect class="cls-5" x="1293.8" y="812.33" width="16.41" height="29.64"/><line class="cls-3" x1="1370.68" y1="822.28" x2="1370.68" y2="768.3"/><rect class="cls-2" x="1362.48" y="772.2" width="16.41" height="35.5"/><line class="cls-3" x1="1393.57" y1="807.49" x2="1393.57" y2="720.62"/><rect class="cls-2" x="1385.37" y="728.54" width="16.41" height="51.9"/><line class="cls-3" x1="1439.36" y1="812.33" x2="1439.36" y2="713.52"/><rect class="cls-5" x="1431.15" y="744.95" width="16.41" height="12.16"/><line class="cls-3" x1="1462.25" y1="755.02" x2="1462.25" y2="723.55"/><rect class="cls-2" x="1454.05" y="725.82" width="16.41" height="20.7"/><line class="cls-3" x1="1485.14" y1="746.4" x2="1485.14" y2="695.75"/><rect class="cls-2" x="1476.94" y="700.37" width="16.41" height="30.26"/><line class="cls-3" x1="1416.47" y1="758.51" x2="1416.47" y2="679.83"/><rect class="cls-2" x="1408.26" y="708.42" width="16.41" height="35.5"/><g id="Cg1CFP"><path d="M1439.53,769.22a2,2,0,0,1,0-.35c.35-1.51.73-3,1.06-4.53.18-.85.55-1.3,1.51-1.25,1.32.07,2.62,0,3.92,0-.07-9.27-.13-18.26-.2-27.36l-6.53,0c0-1.87,0-3.72,0-5.58,3.45,0,6.9,0,10.44-.08,0-2.92,0-5.63-.06-8.36l4.53,0c0,2.75,0,5.51.06,8.27l4.88,0c0-2.85,0-5.56-.07-8.27l4.54,0c0,2.76,0,5.52.06,8.31l1.85.13c3.15.3,6.09,1.17,8.22,3.64,3.35,3.89,4.44,8.75-.38,12.79a4.07,4.07,0,0,1-1,.47c5.54,3.68,5.54,3.68,7.14,8.33,0,1,0,2.1,0,3.13-1.58,5.84-5.63,8.93-11.33,10.12-1.34.28-2.72.37-4.27.57,0,2.82,0,5.53.06,8.24-1.5,0-3,0-4.53,0,0-2.75,0-5.5-.06-8.32l-4.88,0c0,2.83,0,5.58.07,8.33l-4.53,0c0-2.76,0-5.52-.06-8.37C1446.36,769.18,1442.94,769.19,1439.53,769.22Zm15.21-6.34c3.31,0,6.45.12,9.55-.12,3.49-.25,5.56-2.56,5.57-5.71a5.55,5.55,0,0,0-5.58-5.7c-3.16-.21-6.35,0-9.63,0C1454.68,755.21,1454.7,759,1454.74,762.88Zm-.15-16.71c2.66,0,5.16.14,7.6-.12a5.13,5.13,0,0,0,4.8-5.23,5.23,5.23,0,0,0-5-5.11c-2.46-.2-4.94,0-7.51,0C1454.54,739.21,1454.56,742.61,1454.59,746.17Z" transform="translate(-158.62 -124.92)"/></g><line class="cls-3" x1="1346.79" y1="624.85" x2="1474.62" y2="624.85"/></g><path class="cls-5" d="M3018.25,1109.77a125.26,125.26,0,0,0-33.78-24.26c-38.7-18.81-126.41-27.93-165.14,33.32-10.44,16.49-10.19,43.88-7.18,62.68-26.69,10.53-45.37,34.63-41,64.43a58.1,58.1,0,0,0,18.54,34.6,47.87,47.87,0,0,0,18.45,92.09c-.89.7-1.78,1.41-2.63,2.19a42.06,42.06,0,0,0,38.49,71.8,61.8,61.8,0,1,0,111.14,37.47,61.81,61.81,0,0,0,62.87-89.84,47.85,47.85,0,0,0,20.4-86.54,57.91,57.91,0,0,0-1.09-101.36,113.18,113.18,0,0,0,5.09-11.44C3054.17,1164.07,3040.87,1132.61,3018.25,1109.77Z" transform="translate(-158.62 -124.92)"/><path class="cls-13" d="M3024.63,1196.69a38.61,38.61,0,0,0-24.58-44.52,76.38,76.38,0,0,0,2.23-8c4.71-21.45-7.13-40.86-24.26-53.68a83.71,83.71,0,0,0-24.62-12.66c-27.32-8.58-86-6-105.46,38.13-5.25,11.89-2.4,29.9,1.42,42-16.54,9.55-26.47,27.25-20.67,46.44a38.73,38.73,0,0,0,15.59,21,31.87,31.87,0,0,0,21.19,58.83c-.52.55-1,1.11-1.52,1.7a28,28,0,0,0,32.38,43.5" transform="translate(-158.62 -124.92)"/><path class="cls-14" d="M2860,973.79c-1,9.08-1.53,18.44-1.67,28C2857,1088,2931.69,1159,2931.69,1159s76.9-68.67,78.27-154.85c.15-9.56-.14-18.94-.8-28Z" transform="translate(-158.62 -124.92)"/><path class="cls-14" d="M2894.54,974.33c-.51,4.89-.82,9.9-.91,15.06-.73,46.28,39.39,84.42,39.39,84.42s41.31-36.88,42-83.14c.09-5.15-.07-10.18-.42-15.07Z" transform="translate(-158.62 -124.92)"/><path class="cls-15" d="M2894.54,974.33c-.51,4.89-.82,9.9-.91,15.06-.73,46.28,39.39,84.42,39.39,84.42s41.31-36.88,42-83.14c.09-5.15-.07-10.18-.42-15.07Z" transform="translate(-158.62 -124.92)"/><path class="cls-5" d="M3025.08,903.75l35,59.5c-.62,38.2-59.88,68.23-132.43,67.09s-130.85-33-130.24-71.24l37-58.36" transform="translate(-158.62 -124.92)"/><path class="cls-13" d="M3029.38,903.75l5.84,22.12c-.24,14.25-48,36.46-106.48,35.53s-105.61-24.63-105.38-38.87l14.2-21.7" transform="translate(-158.62 -124.92)"/><path class="cls-15" d="M3061,869.25c2.74-70.25,5.76-365,5.9-373.84,1.16-73.66-52.14-321.87-125.79-323S2806.81,413,2805.64,486.62c-.14,9.59-6.74,305.92-6,378.48" transform="translate(-158.62 -124.92)"/><path class="cls-15" d="M3061.64,862.29c-.61,38.2-59.86,68.2-132.36,67.06s-130.81-33-130.2-71.21" transform="translate(-158.62 -124.92)"/><path class="cls-16" d="M3064.83,659.75c-.59,38.2-59.85,68.21-132.35,67s-130.8-33-130.19-71.19" transform="translate(-158.62 -124.92)"/><path class="cls-17" d="M3062.92,677.69c-.59,38.19-59.85,68.21-132.35,67.06s-130.8-33-130.19-71.2" transform="translate(-158.62 -124.92)"/><path class="cls-17" d="M3052.88,379.18c-.52,33.3-52.19,59.48-115.41,58.47s-114.07-28.79-113.53-62.08" transform="translate(-158.62 -124.92)"/><path class="cls-15" d="M3048.13,367c-.5,32.06-50.27,57.28-111.17,56.32s-109.87-27.74-109.37-59.82" transform="translate(-158.62 -124.92)"/><polygon class="cls-15" points="2640.2 740.16 2548.21 738.72 2643.39 537.85 2640.2 740.16"/><polygon class="cls-15" points="2903.06 744.32 2993.63 745.75 2906.22 544.35 2903.06 744.32"/><path class="cls-18" d="M3094.3,737.14l-29.46-67.87-3.16,200,29.64.47C3091.38,825.45,3091.28,781.2,3094.3,737.14Z" transform="translate(-158.62 -124.92)"/><line class="cls-5" x1="2781.24" y1="54.75" x2="2781.97" y2="1.82"/><path class="cls-18" d="M3066.86,495.41c1.14-71.73-49.4-309-120.07-322.43,0,0,41.16,126.09,60.84,251.3,13,83,15.36,419,15,444.67-.56,42.69-56.11,60.23-21.61,50.34,59.89-17.14,59.93-50,59.93-50C3063.7,799,3066.72,504.21,3066.86,495.41Z" transform="translate(-158.62 -124.92)"/><path class="cls-5" d="M2905.36,1444.59a41,41,0,0,0,13.27-30.09,41.14,41.14,0,0,0,41.85-59.8" transform="translate(-158.62 -124.92)"/><path class="cls-5" d="M3046.68,1217.28a38.58,38.58,0,0,0-17.74-47.65,76.41,76.41,0,0,0,3.39-7.62c7.82-20.53-1-41.47-16.09-56.67a83.44,83.44,0,0,0-22.48-16.15c-25.76-12.52-84.15-18.59-109.92,22.17-7,11-6.79,29.22-4.79,41.73-17.76,7-30.2,23.05-27.28,42.89a38.66,38.66,0,0,0,12.34,23,31.86,31.86,0,0,0,12.29,61.3c-.6.47-1.2,1-1.77,1.46a28,28,0,0,0,25.63,47.79" transform="translate(-158.62 -124.92)"/><path class="cls-5" d="M2963.34,1221.94a41,41,0,0,0-11.73-30.73,41.14,41.14,0,0,0-12.31-71.94" transform="translate(-158.62 -124.92)"/><g id="Cg1CFP-2" data-name="Cg1CFP"><path d="M2997.41,656a9.66,9.66,0,0,1-1.31.21c-5.49-.46-11-1.15-16.55-1.82-3.09-.37-4.67-1.58-4.32-5.13.49-4.89.51-9.69.74-14.5a350.53,350.53,0,0,1-101.55-5c-.38,8.34-.69,16.16-1.07,24-6.85-1.34-13.62-2.91-20.38-4.68.57-12.65,1.16-25.31,1.7-38.29-10.63-2.76-20.43-5.8-30.14-9.27q.41-8.28.73-16.57c9.83,3.52,19.76,6.52,29.81,9.12.32-6.76.58-12.1.82-17.87-10.38-2.63-20.15-5.67-29.83-9.08.27-5.52.48-11.08.75-16.58,9.86,3.45,19.82,6.51,30,9.07.38-3,.58-4.81.85-6.63,1.68-11.26,5.41-21.13,14.84-26.9,14.91-9.11,33.12-10.45,47.23,8.4a16.69,16.69,0,0,1,1.55,3.75c14.75-19.55,14.76-19.43,32.38-25.38,3.87-.1,7.8-.24,11.63-.48,21.4,4.67,32,17.55,35.28,38,.78,4.78.85,9.84,1.29,15.48,10.37-1.79,20.29-3.88,30.13-6.46-.23,5.57-.49,11.17-.75,16.76-10,2.59-20,4.72-30.42,6.46-.28,6.1-.54,11.36-.83,18,10.4-1.73,20.48-3.89,30.47-6.45-.25,5.6-.52,11.18-.77,16.76-10,2.58-20.11,4.72-30.59,6.42C2998.55,630.78,2997.94,643.41,2997.41,656Zm-20.53-53.34c.55-12.22,1.67-23.85,1.4-35.24-.27-12.8-8.43-19.61-20.14-19.27s-20.81,7.82-22.27,20.57c-1.42,11.6-1.27,23.38-1.8,35.45A346.39,346.39,0,0,0,2976.88,602.66Zm-62.17.54c.4-9.78,1.53-18.91,1-28a20.87,20.87,0,0,0-18.5-19.9c-9.73-1.26-18.37,4.52-19.8,15-1.18,8.88-.94,18.1-1.36,27.55A351,351,0,0,0,2914.71,603.2Z" transform="translate(-158.62 -124.92)"/></g><path class="cls-5" d="M2952.11,341.77a20.5,20.5,0,1,1-28.32-6.18A20.5,20.5,0,0,1,2952.11,341.77Z" transform="translate(-158.62 -124.92)"/><line class="cls-2" x1="24.99" y1="1291.89" x2="24.99" y2="946.21"/><path class="cls-2" d="M365.57,1153.66c-77.85,79.09-104.11-27.52-182,51.58V1103.83c77.85-79.1,104.11,97.24,182,18.14Z" transform="translate(-158.62 -124.92)"/><path class="cls-18" d="M321,1182.74q2.75-19.89,4.79-39.84c-18.15,0-33.57-13.58-48.85-27.82,0,.36,0,.72,0,1.08q-1.08,31.44-4.15,62.8C288.05,1183,303.26,1187.4,321,1182.74Z" transform="translate(-158.62 -124.92)"/><line class="cls-2" x1="1.82" y1="1293.2" x2="873.31" y2="1293.2"/></svg>