<svg height="512" viewBox="0 0 61 60" width="512" xmlns="http://www.w3.org/2000/svg"><g id="066---Cart"><path id="Shape" d="m3 28h7.5c.8284271 0 1.5-.6715729 1.5-1.5v-.5h1.52c.9717285-.0176728 1.8155018.6657836 2 1.62l4.37 22.76c.0837417.4155481.2973512.793742.61 1.08-1.7730243 1.7508532-1.9862592 4.5399661-.5 6.54h-11c-.55228475 0-1 .4477153-1 1s.44771525 1 1 1h50c.5522847 0 1-.4477153 1-1s-.4477153-1-1-1h-7c1.3711749-1.7649849 1.3711749-4.2350151 0-6h1c.5522847 0 1-.4477153 1-1s-.4477153-1-1-1h-31.17l-4.38-22.75c-.3600545-1.8862336-2.0097093-3.250452-3.93-3.25h-1.52v-.5c0-.8284271-.6715729-1.5-1.5-1.5h-7.5c-1.65685421 0-2.99999991 1.3431458-2.99999991 3s1.3431457 3 2.99999991 3zm18 27c0-1.6568542 1.3431458-3 3-3s3 1.3431458 3 3-1.3431458 3-3 3-3-1.3431458-3-3zm7-3h16c-1.3711749 1.7649849-1.3711749 4.2350151 0 6h-16c1.3711749-1.7649849 1.3711749-4.2350151 0-6zm23 3c0 1.6568542-1.3431458 3-3 3s-3-1.3431458-3-3 1.3431458-3 3-3 3 1.3431458 3 3zm-41-29h-3v-2h3zm-7-2h2v2h-2c-.55228475 0-1-.4477153-1-1s.44771525-1 1-1z"/><path id="Shape" d="m24 56c-.5522847 0-1-.4477153-1-1s.4477153-1 1-1 1 .4477153 1 1-.4477153 1-1 1z"/><path id="Shape" d="m48 56c-.5522847 0-1-.4477153-1-1s.4477153-1 1-1 1 .4477153 1 1-.4477153 1-1 1z"/><path id="Shape" d="m19.29 25.43 4.58 21c.2012834.9382758 1.0406144 1.6013473 2 1.58h28.5c.9843595.0143118 1.8327452-.6898483 2-1.66l3.67-21c.1061409-.5949432-.0624261-1.2059774-.4585944-1.6623478-.3961684-.4563704-.9774504-.7091328-1.5814056-.6876522h-36.75c-.6071329-.0020565-1.1823302.2717862-1.5634995.7443584-.3811694.4725722-.5270383 1.0927045-.3965005 1.6856416zm38.71-.43-3.67 21h-28.5l-4.58-21z"/><path id="Shape" d="m27 30h18c.5522847 0 1-.4477153 1-1s-.4477153-1-1-1h-18c-.5522847 0-1 .4477153-1 1s.4477153 1 1 1z"/><path id="Shape" d="m49 30h5c.5522847 0 1-.4477153 1-1s-.4477153-1-1-1h-5c-.5522847 0-1 .4477153-1 1s.4477153 1 1 1z"/><path id="Shape" d="m26 34h12c.5522847 0 1-.4477153 1-1s-.4477153-1-1-1h-12c-.5522847 0-1 .4477153-1 1s.4477153 1 1 1z"/><path id="Shape" d="m52 32h-9c-.5522847 0-1 .4477153-1 1s.4477153 1 1 1h9c.5522847 0 1-.4477153 1-1s-.4477153-1-1-1z"/><path id="Shape" d="m36 37c0-.5522847-.4477153-1-1-1h-8c-.5522847 0-1 .4477153-1 1s.4477153 1 1 1h8c.5522847 0 1-.4477153 1-1z"/><path id="Shape" d="m51 36h-11c-.5522847 0-1 .4477153-1 1s.4477153 1 1 1h11c.5522847 0 1-.4477153 1-1s-.4477153-1-1-1z"/><path id="Shape" d="m40 40h-11c-.5522847 0-1 .4477153-1 1s.4477153 1 1 1h11c.5522847 0 1-.4477153 1-1s-.4477153-1-1-1z"/><path id="Shape" d="m50 40h-6c-.5522847 0-1 .4477153-1 1s.4477153 1 1 1h6c.5522847 0 1-.4477153 1-1s-.4477153-1-1-1z"/><path id="Shape" d="m1 60h4c.55228475 0 1-.4477153 1-1s-.44771525-1-1-1h-4c-.55228475 0-1 .4477153-1 1s.44771525 1 1 1z"/><path id="Shape" d="m45 0h-10c-1.1045695 0-2 .8954305-2 2v7h-2.24c-.8437784-.00165248-1.5978259.52642273-1.8847416 1.3199239-.2869157.7935012-.0449707 1.6817093.6047416 2.2200761l9.24 7.7c.7415621.6176669 1.8184379.6176669 2.56 0l9.24-7.7c.6497123-.5383668.8916573-1.4265749.6047416-2.2200761-.2869157-.79350117-1.0409632-1.32157638-1.8847416-1.3199239h-2.24v-7c0-1.1045695-.8954305-2-2-2zm4.24 11-9.24 7.7-9.24-7.7h2.24c1.1045695 0 2-.8954305 2-2v-7h10v7c0 1.1045695.8954305 2 2 2z"/></g></svg>