<svg width="120" height="120" viewBox="0 0 120 120" fill="none" xmlns="http://www.w3.org/2000/svg">
<path d="M110.625 22.5H105V20.625C105 19.1332 104.407 17.7024 103.352 16.6475C102.298 15.5926 100.867 15 99.375 15V5.625C99.375 5.12772 99.1775 4.65081 98.8258 4.29917C98.4742 3.94754 97.9973 3.75 97.5 3.75H86.25C85.7527 3.75 85.2758 3.94754 84.9242 4.29917C84.5725 4.65081 84.375 5.12772 84.375 5.625V15C82.8832 15 81.4524 15.5926 80.3975 16.6475C79.3426 17.7024 78.75 19.1332 78.75 20.625V22.5H41.25V20.625C41.25 19.1332 40.6574 17.7024 39.6025 16.6475C38.5476 15.5926 37.1168 15 35.625 15V5.625C35.625 5.12772 35.4275 4.65081 35.0758 4.29917C34.7242 3.94754 34.2473 3.75 33.75 3.75H22.5C22.0027 3.75 21.5258 3.94754 21.1742 4.29917C20.8225 4.65081 20.625 5.12772 20.625 5.625V15C19.1332 15 17.7024 15.5926 16.6475 16.6475C15.5926 17.7024 15 19.1332 15 20.625V22.5H9.375C7.88316 22.5 6.45242 23.0926 5.39752 24.1475C4.34263 25.2024 3.75 26.6332 3.75 28.125V43.125C3.75481 44.2842 4.11766 45.4137 4.78891 46.3588C5.46017 47.3039 6.40705 48.0186 7.5 48.405V110.625C7.5 112.117 8.09263 113.548 9.14752 114.602C10.2024 115.657 11.6332 116.25 13.125 116.25H106.875C108.367 116.25 109.798 115.657 110.852 114.602C111.907 113.548 112.5 112.117 112.5 110.625V48.405C113.593 48.0186 114.54 47.3039 115.211 46.3588C115.882 45.4137 116.245 44.2842 116.25 43.125V28.125C116.25 26.6332 115.657 25.2024 114.602 24.1475C113.548 23.0926 112.117 22.5 110.625 22.5ZM88.125 7.5H95.625V15H88.125V7.5ZM82.5 20.625C82.5 20.1277 82.6975 19.6508 83.0492 19.2992C83.4008 18.9475 83.8777 18.75 84.375 18.75H99.375C99.8723 18.75 100.349 18.9475 100.701 19.2992C101.052 19.6508 101.25 20.1277 101.25 20.625V22.5H82.5V20.625ZM24.375 7.5H31.875V15H24.375V7.5ZM18.75 20.625C18.75 20.1277 18.9475 19.6508 19.2992 19.2992C19.6508 18.9475 20.1277 18.75 20.625 18.75H35.625C36.1223 18.75 36.5992 18.9475 36.9508 19.2992C37.3025 19.6508 37.5 20.1277 37.5 20.625V22.5H18.75V20.625ZM108.75 110.625C108.75 111.122 108.552 111.599 108.201 111.951C107.849 112.302 107.372 112.5 106.875 112.5H13.125C12.6277 112.5 12.1508 112.302 11.7992 111.951C11.4475 111.599 11.25 111.122 11.25 110.625V48.75H108.75V110.625ZM112.5 43.125C112.5 43.6223 112.302 44.0992 111.951 44.4508C111.599 44.8025 111.122 45 110.625 45H9.375C8.87772 45 8.40081 44.8025 8.04918 44.4508C7.69754 44.0992 7.5 43.6223 7.5 43.125V28.125C7.5 27.6277 7.69754 27.1508 8.04918 26.7992C8.40081 26.4475 8.87772 26.25 9.375 26.25H110.625C111.122 26.25 111.599 26.4475 111.951 26.7992C112.302 27.1508 112.5 27.6277 112.5 28.125V43.125Z" fill="black"/>
<path d="M20.625 86.25H28.125V93.75C28.125 94.2473 28.3225 94.7242 28.6742 95.0758C29.0258 95.4275 29.5027 95.625 30 95.625H37.5C37.9973 95.625 38.4742 95.4275 38.8258 95.0758C39.1775 94.7242 39.375 94.2473 39.375 93.75V86.25H46.875C47.3723 86.25 47.8492 86.0525 48.2008 85.7008C48.5525 85.3492 48.75 84.8723 48.75 84.375V76.875C48.75 76.3777 48.5525 75.9008 48.2008 75.5492C47.8492 75.1975 47.3723 75 46.875 75H39.375V67.5C39.375 67.0027 39.1775 66.5258 38.8258 66.1742C38.4742 65.8225 37.9973 65.625 37.5 65.625H30C29.5027 65.625 29.0258 65.8225 28.6742 66.1742C28.3225 66.5258 28.125 67.0027 28.125 67.5V75H20.625C20.1277 75 19.6508 75.1975 19.2992 75.5492C18.9475 75.9008 18.75 76.3777 18.75 76.875V84.375C18.75 84.8723 18.9475 85.3492 19.2992 85.7008C19.6508 86.0525 20.1277 86.25 20.625 86.25ZM22.5 78.75H30C30.4973 78.75 30.9742 78.5525 31.3258 78.2008C31.6775 77.8492 31.875 77.3723 31.875 76.875V69.375H35.625V76.875C35.625 77.3723 35.8225 77.8492 36.1742 78.2008C36.5258 78.5525 37.0027 78.75 37.5 78.75H45V82.5H37.5C37.0027 82.5 36.5258 82.6975 36.1742 83.0492C35.8225 83.4008 35.625 83.8777 35.625 84.375V91.875H31.875V84.375C31.875 83.8777 31.6775 83.4008 31.3258 83.0492C30.9742 82.6975 30.4973 82.5 30 82.5H22.5V78.75Z" fill="black"/>
<path d="M73.125 86.25H99.375C99.8723 86.25 100.349 86.0525 100.701 85.7008C101.052 85.3492 101.25 84.8723 101.25 84.375V76.875C101.25 76.3777 101.052 75.9008 100.701 75.5492C100.349 75.1975 99.8723 75 99.375 75H73.125C72.6277 75 72.1508 75.1975 71.7992 75.5492C71.4475 75.9008 71.25 76.3777 71.25 76.875V84.375C71.25 84.8723 71.4475 85.3492 71.7992 85.7008C72.1508 86.0525 72.6277 86.25 73.125 86.25ZM75 78.75H97.5V82.5H75V78.75Z" fill="black"/>
</svg>
