<svg width="120" height="120" viewBox="0 0 120 120" fill="none" xmlns="http://www.w3.org/2000/svg">
<path d="M83.2771 99.0361C83.1325 99.1807 82.8434 99.4698 82.5542 99.759C82.2651 100.048 82.2651 100.482 82.5542 100.771C82.6988 100.916 82.988 100.916 83.1325 100.916C83.2771 100.916 83.4217 100.916 83.5663 100.916C83.7108 100.626 84 100.337 84.2891 100.048C84.5783 99.759 84.5783 99.3252 84.2891 99.0361C84 98.7469 83.5663 98.7469 83.2771 99.0361Z" fill="black"/>
<path d="M89.3494 92.5302C89.0603 92.241 88.6265 92.3856 88.3374 92.6747C87.4699 93.976 86.6024 95.1326 85.735 96.2892C85.5904 96.5784 85.5904 97.0121 85.8795 97.3012C86.0241 97.4458 86.1687 97.4458 86.3133 97.4458C86.4578 97.4458 86.747 97.3012 86.8916 97.1567C87.7591 96 88.6265 94.8434 89.494 93.5422C89.7832 93.2531 89.6386 92.6748 89.3494 92.5302Z" fill="black"/>
<path d="M88.4819 84C88.6265 84 88.6265 84 88.7711 84C89.0602 84 89.3494 83.8554 89.3494 83.7109C90.506 80.8193 91.2289 77.7831 91.6627 74.747C91.8072 74.3133 91.5181 73.8795 91.0843 73.8795C90.6506 73.7349 90.2169 74.0241 90.2169 74.4578C89.7831 77.494 89.0602 80.3856 88.0482 83.1325C87.9036 83.4217 88.0482 83.8554 88.4819 84Z" fill="black"/>
<path d="M51.9036 41.0603C36.7229 41.0603 24.4337 53.494 24.4337 68.8193C24.4337 84.1446 36.7229 96.5784 51.9036 96.5784C67.0843 96.5784 79.3735 84.1446 79.3735 68.8193C79.3735 53.494 67.0843 41.0603 51.9036 41.0603ZM51.9036 93.5422C38.3133 93.5422 27.3253 82.4097 27.3253 68.6748C27.3253 54.9398 38.3133 43.8073 51.9036 43.8073C65.494 43.8073 76.4819 54.9398 76.4819 68.6748C76.4819 82.4097 65.494 93.5422 51.9036 93.5422Z" fill="black"/>
<path d="M51.9036 62.4579C48.4337 62.4579 45.5422 65.3494 45.5422 68.8193C45.5422 72.2892 48.4337 75.1808 51.9036 75.1808C55.3735 75.1808 58.2651 72.2892 58.2651 68.8193C58.2651 65.3494 55.3735 62.4579 51.9036 62.4579ZM51.9036 72.4338C49.8795 72.4338 48.2892 70.6988 48.2892 68.6747C48.2892 66.6507 49.8795 64.9157 51.9036 64.9157C53.9277 64.9157 55.5181 66.6507 55.5181 68.6747C55.5181 70.6988 53.9277 72.4338 51.9036 72.4338Z" fill="black"/>
<path d="M63.0361 74.1688C62.0241 73.4459 60.7229 73.735 60 74.7471C59.2771 75.7591 59.4217 77.0603 60.4337 77.7832C60.8675 78.0724 61.3012 78.217 61.7349 78.217C62.4578 78.217 63.0361 77.9278 63.4699 77.3495L63.6144 77.2049C64.1928 76.1929 64.0482 74.8917 63.0361 74.1688Z" fill="black"/>
<path d="M48.2892 59.1325C48.4337 59.1325 48.7229 58.988 49.0121 59.1325C50.1687 58.6988 50.747 57.5422 50.4578 56.3856C50.0241 55.2289 48.8675 54.6506 47.7109 54.9398H47.5663C46.4096 55.3735 45.8313 56.5301 46.2651 57.6868C46.5542 58.5542 47.4217 59.1325 48.2892 59.1325Z" fill="black"/>
<path d="M48.7229 78.3614H48.5783C47.4217 78.0722 46.2651 78.6506 45.8313 79.8072C45.5422 80.9638 46.1205 82.1204 47.2771 82.5542H47.4217C47.7108 82.6988 47.8554 82.6988 48.1446 82.6988C49.1566 82.6988 49.8795 82.1204 50.0241 81.1084C50.4578 79.9518 49.8795 78.7951 48.7229 78.3614Z" fill="black"/>
<path d="M63.6145 60.1446C62.8916 59.1325 61.5904 58.9879 60.5783 59.7108C59.7108 60.4337 59.4217 61.7349 60.1446 62.747C60.4337 63.4699 61.1566 63.759 61.8795 63.759C62.3133 63.759 62.747 63.6145 63.1807 63.3253C64.1928 62.6024 64.4819 61.3012 63.759 60.2892L63.6145 60.1446Z" fill="black"/>
<path d="M39.759 66.3615C38.6024 66.3615 37.5904 67.3735 37.5904 68.5301V68.8193C37.5904 69.9759 38.6024 70.9879 39.759 70.9879C40.9157 70.9879 41.9277 69.9759 41.9277 68.6747V68.5301C41.9277 67.3735 40.9157 66.3615 39.759 66.3615Z" fill="black"/>
<path d="M51.9036 48.2891C40.7711 48.2891 31.8072 57.3975 31.8072 68.8192C31.8072 80.0963 40.7711 89.3493 51.9036 89.3493C63.0362 89.3493 72 80.2409 72 68.8192C72.1446 57.3975 63.0362 48.2891 51.9036 48.2891ZM51.9036 87.9035C41.6386 87.9035 33.253 79.3734 33.253 68.8192C33.253 58.265 41.6386 49.7348 51.9036 49.7348C62.1687 49.7348 70.5542 58.265 70.5542 68.8192C70.5542 79.3734 62.1687 87.9035 51.9036 87.9035Z" fill="black"/>
<path d="M49.012 105.976C48.2892 105.687 47.4217 105.831 46.988 106.554V106.699C46.6988 107.422 46.8434 108.289 47.5663 108.723C47.8554 108.867 48 108.867 48.2892 108.867C48.8675 108.867 49.3012 108.578 49.5904 108.145V108C49.8795 107.277 49.7349 106.41 49.012 105.976Z" fill="black"/>
<path d="M46.8434 109.88C46.1205 109.59 45.253 109.735 44.8193 110.458V110.603C44.5301 111.325 44.6747 112.193 45.3976 112.627C45.6868 112.771 45.8313 112.771 46.1205 112.771C46.5542 112.771 47.1325 112.482 47.4217 112.048V111.904C47.7109 111.181 47.5663 110.313 46.8434 109.88Z" fill="black"/>
<path d="M51.3253 102.217C50.6024 101.928 49.7349 102.072 49.3012 102.795V102.94C48.8675 103.663 49.1566 104.386 49.8795 104.819C50.1687 104.964 50.3133 104.964 50.6024 104.964C51.0361 104.964 51.6145 104.675 51.9036 104.241C52.1928 103.518 52.0482 102.651 51.3253 102.217Z" fill="black"/>
<path d="M17.3494 93.3976H17.2048C16.4819 93.5422 16.0482 94.4096 16.1928 95.1325C16.4819 95.7108 17.0602 96.1446 17.6386 96.1446C17.7831 96.1446 17.9277 96.1446 17.9277 96.1446H18.0723C18.7952 96 19.2289 95.1325 19.0843 94.4096C18.9398 93.6867 18.0723 93.253 17.3494 93.3976Z" fill="black"/>
<path d="M21.8313 92.241H21.6867C20.8193 92.3855 20.5301 93.253 20.6747 93.9759C20.8193 94.5542 21.5422 94.988 22.1205 94.988C22.2651 94.988 22.4096 94.988 22.5542 94.988C23.2771 94.8434 23.7108 93.9759 23.5663 93.253C23.4217 92.5301 22.5542 91.9518 21.8313 92.241Z" fill="black"/>
<path d="M26.0241 91.0843H25.8795C25.1566 91.2289 24.7229 92.0964 24.8675 92.8193C25.1566 93.3976 25.7349 93.8313 26.3132 93.8313C26.4578 93.8313 26.6024 93.8313 26.6024 93.8313H26.747C27.4699 93.6867 27.9036 92.8193 27.759 92.0964C27.6144 91.3735 26.747 90.9398 26.0241 91.0843Z" fill="black"/>
<path d="M17.2048 68.8192C17.6386 68.8192 18.2169 68.53 18.506 68.0963C18.7952 67.3734 18.6506 66.5059 17.9277 66.0722H17.7831C17.0602 65.6385 16.3374 65.9276 15.9036 66.6505C15.4699 67.3734 15.759 68.2409 16.4819 68.6746C16.7711 68.8192 16.9157 68.8192 17.2048 68.8192Z" fill="black"/>
<path d="M10.1205 61.5903H9.97592C9.25303 61.3012 8.38556 61.4457 7.95182 62.1686C7.66266 62.8915 7.80724 63.759 8.53013 64.1927H8.67471C8.96387 64.3373 9.10845 64.3373 9.3976 64.3373C9.83134 64.3373 10.4097 64.1927 10.6988 63.6144C10.988 62.8915 10.8434 62.024 10.1205 61.5903Z" fill="black"/>
<path d="M14.0241 63.9036H13.8795C13.1566 63.4699 12.4337 63.759 12 64.4819C11.5663 65.2048 11.8554 66.0723 12.5783 66.506C12.8675 66.6506 13.012 66.6506 13.3012 66.6506C13.7349 66.6506 14.3132 66.3615 14.6024 65.9277C14.8916 65.2048 14.747 64.3374 14.0241 63.9036Z" fill="black"/>
<path d="M76.4819 97.5904C77.2048 97.4458 77.6386 96.5784 77.494 95.8555V95.7109C77.3494 94.988 76.4819 94.5543 75.759 94.6988C75.0362 94.8434 74.6024 95.7109 74.747 96.4338V96.5784C75.0362 97.1567 75.6145 97.5904 76.1928 97.5904C76.1928 97.5904 76.3374 97.5904 76.4819 97.5904Z" fill="black"/>
<path d="M78.6506 100.048C78.506 99.3254 77.6386 98.8917 76.9157 99.0362C76.1928 99.1808 75.759 100.048 75.9036 100.771V100.916C76.1928 101.494 76.7711 101.928 77.3494 101.928C77.494 101.928 77.494 101.928 77.6386 101.928C78.3615 101.783 78.7952 100.916 78.6506 100.193V100.048Z" fill="black"/>
<path d="M75.1807 93.253C75.9036 93.1084 76.3374 92.241 76.1928 91.5181V91.3735C76.0482 90.6506 75.1807 90.2169 74.4578 90.3614C73.7349 90.506 73.3012 91.3735 73.4458 92.0964V92.241C73.735 92.8193 74.3133 93.253 74.8916 93.253C75.0362 93.253 75.1807 93.253 75.1807 93.253Z" fill="black"/>
<path d="M26.6024 37.4458C25.8795 37.5904 25.4458 38.4578 25.5904 39.1807V39.3253C25.8795 39.9036 26.4578 40.3374 27.0361 40.3374C27.1807 40.3374 27.3253 40.3374 27.3253 40.3374C28.0482 40.1928 28.4819 39.3253 28.3373 38.6024V38.4578C28.1928 37.7349 27.3253 37.3012 26.6024 37.4458Z" fill="black"/>
<path d="M24.4337 34.9879C24.7229 35.5662 25.3012 36 25.8795 36C26.0241 36 26.1687 36 26.1687 36C26.8916 35.8554 27.3253 34.9879 27.1807 34.265V34.1204C27.0361 33.3975 26.1687 32.9638 25.4458 33.1084C24.7229 33.253 24.2892 34.1204 24.4337 34.8433V34.9879Z" fill="black"/>
<path d="M27.759 41.7832C27.0362 41.9278 26.6024 42.7952 26.747 43.5181V43.6627C27.0362 44.241 27.6145 44.6748 28.1928 44.6748C28.3374 44.6748 28.4819 44.6748 28.4819 44.6748C29.2048 44.5302 29.6386 43.6627 29.494 42.9398V42.7952C29.3494 42.0724 28.4819 41.6386 27.759 41.7832Z" fill="black"/>
<path d="M100.626 61.735C100.482 61.4458 100.193 61.1567 99.759 61.3013C99.4699 61.4459 99.1807 61.735 99.3253 62.1687C99.4699 62.6025 99.4699 62.8916 99.6145 63.1808C99.759 63.6145 100.048 63.7591 100.337 63.7591C100.482 63.7591 100.482 63.7591 100.337 63.6145C100.771 63.4699 101.06 63.1808 100.916 62.7471C100.771 62.4579 100.771 62.0242 100.626 61.735Z" fill="black"/>
<path d="M99.4699 60.4337C99.759 60.2892 100.048 60 99.9036 59.5663C99.6145 58.6988 99.3253 57.9759 99.0361 57.1084C98.8916 56.6747 98.6024 56.5301 98.1687 56.6747C97.7349 56.8193 97.5904 57.1084 97.7349 57.5422C98.0241 58.2651 98.3133 58.988 98.6024 59.8554C98.747 60.1446 99.0361 60.2892 99.3253 60.2892C99.4699 60.2892 99.4699 60.2892 99.4699 60.4337Z" fill="black"/>
<path d="M58.6988 18.506C57.8313 18.2169 56.8193 17.9277 55.8072 17.6385C55.3735 17.6385 54.9398 17.7831 54.9398 18.2169C54.9398 18.6506 55.0843 18.9398 55.5181 19.0843C56.5301 19.3735 57.5422 19.6626 58.4096 19.9518H58.5542C58.8434 19.9518 59.1325 19.8072 59.1325 19.3735C59.2771 19.0843 59.1325 18.6506 58.6988 18.506Z" fill="black"/>
<path d="M117.253 68.6747H113.799L113.494 64.4819C113.295 60.7017 112.069 57.0585 110.052 53.8817L109.446 49.8795C108.868 45.8313 107.133 42.0723 104.53 38.8916L98.6027 31.8072C98.5784 31.775 98.5519 31.7445 98.5242 31.7149L99.181 30.506C100.048 28.7711 99.7593 26.6024 98.4581 25.3012L93.3979 20.241C91.9521 18.9398 89.928 18.6506 88.1931 19.5181L87.1053 20.1088L80.0967 14.3133C76.9159 11.7108 73.1569 9.9759 69.1087 9.25301L64.3376 8.53012C64.2925 8.5225 64.2481 8.51826 64.2038 8.51459C61.2108 6.80224 57.8452 5.76901 54.3617 5.49398L50.4581 5.21018V1.44578C50.4581 0.578313 49.8798 0 49.0123 0C48.1449 0 47.5666 0.578313 47.5666 1.44578V4.99981L38.4581 4.33735C38.3135 4.33735 38.169 4.33735 38.169 4.33735C37.1569 4.33735 36.2894 4.91566 35.7111 5.78313C35.2774 6.6506 35.2774 7.80723 35.7111 8.6747L41.1515 18.5235C17.932 23.5942 1.30121 44.4703 1.30121 68.6747C1.30121 97.012 24 120 51.9036 120C76.526 120 97.129 102.547 101.518 78.3538L110.169 83.1325C110.602 83.4217 111.181 83.5663 111.614 83.5663C112.482 83.5663 113.205 83.1325 113.928 82.5542C114.506 81.9759 114.651 81.253 114.651 80.3855L114.009 71.5663H117.398C118.121 71.5663 118.699 70.988 118.699 70.1205C118.699 69.253 118.12 68.6747 117.253 68.6747ZM110.602 64.9157L110.876 68.6747H107.562L110.288 62.7425C110.428 63.4611 110.536 64.1863 110.602 64.9157ZM102.361 40.7711C104.516 43.33 105.918 46.391 106.567 49.6031L104.819 47.8554C104.241 47.1325 103.229 46.8434 102.361 46.9879L97.0121 47.8554L96.7229 47.4217C95.6521 45.39 94.4712 43.4263 93.1875 41.5392L97.0519 34.4255L102.361 40.7711ZM89.494 21.9759C90.0723 21.6867 90.7952 21.8313 91.2289 22.2651L96.2892 27.3253C96.7229 27.759 96.8675 28.4819 96.5783 29.0602L91.2557 38.8588C87.9711 34.5559 84.1163 30.7122 79.7748 27.4431L89.494 21.9759ZM78.0723 16.4819L84.3007 21.6322L77.1003 25.5435C75.3259 24.3569 73.4808 23.2604 71.5666 22.2648L71.1328 22.1202L71.8557 16.6262C72.0003 15.7588 71.5666 14.7467 70.9882 14.1684L69.061 12.2414C72.3383 12.8745 75.4657 14.287 78.0723 16.4819ZM54.2169 8.38554C54.8068 8.43919 55.3924 8.51741 55.9721 8.61963L50.4578 11.0458V8.11474L54.2169 8.38554ZM47.5968 12.1804C46.7889 12.2663 45.9912 11.9181 45.5422 11.1325L43.5593 7.61747L47.5663 7.90634V11.8554C47.5663 11.9692 47.5773 12.0774 47.5968 12.1804ZM51.9036 117.108C25.7349 117.108 4.33735 95.4217 4.19277 68.6747C4.19277 45.4566 20.3903 25.6514 42.643 21.2242L44.0964 23.8554C44.5301 24.5783 44.9639 25.1566 45.5422 25.7349L51.0361 31.2289C53.0602 33.3976 55.5181 34.988 58.2651 36.1446L62.6024 38.0241C70.8434 41.494 77.3494 48 80.8193 56.241L82.6988 60.5783C83.8554 63.3253 85.5904 65.7831 87.6145 67.8072L93.1084 73.3012C93.658 73.8507 94.2111 74.2692 94.8846 74.6815C94.8606 74.7467 94.8434 74.8159 94.8434 74.8916C94.2651 79.5181 92.9639 84.1446 90.7952 88.3373C90.6506 88.7711 90.7952 89.2048 91.0843 89.3494C91.0843 89.494 91.2289 89.494 91.3735 89.494C91.5181 89.494 91.8072 89.3494 92.0964 89.0602C94.2258 84.8014 95.6561 80.2633 96.2547 75.4467L98.9353 76.9275C94.9419 100.19 75.2722 117.108 51.9036 117.108ZM96.5783 72.4337C96.1446 72.1446 95.7108 71.8554 95.2771 71.4217L89.7831 65.9277C87.9036 64.0482 86.4578 61.8795 85.4458 59.5663L83.5663 55.2289C79.6627 46.2651 72.7229 39.1807 63.759 35.4217L59.4217 33.5422C56.9639 32.5301 54.9398 31.0843 53.0602 29.2048L47.5663 23.7108C47.1325 23.2771 46.8434 22.8434 46.5542 22.4096L38.1687 7.22892L41.7778 7.48899L44.241 11.8554C44.9639 13.012 46.1205 13.7349 47.4217 13.7349C48 13.7349 48.4337 13.7349 49.0121 13.4458L58.3854 9.19654C61.5683 10.1575 64.504 11.8774 66.9398 14.3133L68.9639 16.3373L68.1704 22.2891C66.7342 21.5941 65.2791 20.9557 63.759 20.3855C63.4699 20.241 63.0361 20.3855 62.8916 20.8193C62.747 21.1084 62.8916 21.5422 63.3253 21.6867C65.0362 22.3283 66.6673 22.9707 68.2201 23.7292C68.3494 23.9582 68.5516 24.1553 68.8193 24.2892L70.1205 25.012C80.3856 30.506 88.6265 38.747 94.1205 49.012L94.3543 49.4794C94.3546 49.5712 94.3715 49.6581 94.4096 49.7349C95.2771 51.3253 96 52.9157 96.7229 54.6506C96.8675 54.9398 97.1566 55.0843 97.4458 55.0843C97.4989 55.0843 97.5517 55.0843 97.5904 55.0843C98.0241 54.7952 98.1687 54.506 98.0241 54.0723C97.6082 53.0738 97.1885 52.079 96.7452 51.1082L102.651 50.1687L104.675 52.1928C107.041 54.4608 108.734 57.3346 109.71 60.4464L105.681 69.2135C105.573 69.3583 105.494 69.5283 105.449 69.7201L105.398 69.8313C104.53 71.5663 105.253 73.5904 106.843 74.4578L111.482 77.0091L111.759 80.8193L96.5783 72.4337ZM111.368 75.4459L107.566 73.3012C106.873 72.9053 106.52 72.238 106.505 71.5321C106.612 71.5533 106.724 71.5663 106.843 71.5663H111.086L111.368 75.4459Z" fill="black"/>
</svg>
