<svg width="36" height="36" viewBox="0 0 36 36" fill="none" xmlns="http://www.w3.org/2000/svg">
<path d="M32.7662 31.2747L28.9893 26.419C30.2132 26.0534 31.2704 25.2707 31.9773 24.2069C32.8668 22.6694 32.4646 20.7931 32.0754 18.9807C31.8401 18.0497 31.6992 17.0972 31.6552 16.1379C31.6991 15.1778 31.8398 14.2245 32.0754 13.2927C32.4621 11.479 32.8668 9.60393 31.9773 8.06896C31.0562 6.47752 29.2016 5.88848 27.4078 5.31993C26.5149 5.0739 25.6501 4.73524 24.8276 4.30945C24.0812 3.82531 23.3882 3.26359 22.7601 2.63359C21.4293 1.39841 19.9204 0 18 0C16.0796 0 14.5707 1.39841 13.2393 2.63297C12.6114 3.26312 11.9186 3.82508 11.1724 4.30945C10.35 4.73439 9.48546 5.0722 8.59283 5.31745C6.79904 5.886 4.94442 6.47503 4.02332 8.06648C3.13387 9.60393 3.53608 11.4803 3.92525 13.2927C4.16057 14.2246 4.30115 15.1778 4.34483 16.1379C4.30092 17.0981 4.16018 18.0514 3.92463 18.9832C3.53794 20.7968 3.13325 22.6719 4.0227 24.2069C4.73059 25.2711 5.78895 26.0535 7.0138 26.4184L3.2338 31.2741C3.02339 31.5447 3.07219 31.9346 3.34289 32.1451C3.47292 32.2461 3.63771 32.2914 3.80111 32.2709L8.23904 31.7166L9.33456 35.55C9.39872 35.7747 9.58369 35.9443 9.81311 35.9888C9.85198 35.9962 9.89147 36 9.93104 36C10.1227 36.0002 10.3037 35.9117 10.4214 35.7604L14.3851 30.6621C15.3605 31.6116 16.6418 32.1837 18 32.2759C19.3582 32.1837 20.6395 31.6116 21.6149 30.6621L25.5786 35.7585C25.6959 35.9105 25.8769 35.9997 26.069 36C26.1085 36 26.148 35.9962 26.1869 35.9888C26.4163 35.9443 26.6013 35.7747 26.6655 35.55L27.761 31.7172L32.1989 32.2715C32.539 32.3142 32.8494 32.0731 32.8921 31.7329C32.9125 31.5695 32.8673 31.4047 32.7662 31.2747ZM10.1917 34.033L9.28614 30.8638C9.20196 30.5698 8.91614 30.381 8.6127 30.4188L5.13683 30.8532L8.25208 26.8486L8.59532 26.9584C9.48709 27.2038 10.3508 27.5416 11.1724 27.9664C11.9188 28.4506 12.6118 29.0123 13.2399 29.6423L13.4535 29.8397L10.1917 34.033ZM18 31.0345C16.5662 31.0345 15.3602 29.9172 14.0828 28.733C13.3879 28.0386 12.6203 27.4213 11.7931 26.8914C10.8932 26.4203 9.94586 26.0458 8.96711 25.7741C7.32663 25.2534 5.77677 24.7618 5.09649 23.5862C4.44725 22.4634 4.78242 20.8986 5.13808 19.2414C5.39403 18.2251 5.54424 17.1851 5.58621 16.1379C5.54447 15.0907 5.3945 14.0508 5.1387 13.0345C4.78304 11.3779 4.44787 9.8131 5.09711 8.68966C5.77987 7.51407 7.32725 7.02248 8.96773 6.50172C9.94633 6.23002 10.8933 5.85551 11.7931 5.38448C12.62 4.85457 13.3875 4.23714 14.0822 3.5429C15.3602 2.35862 16.5662 1.24138 18 1.24138C19.4338 1.24138 20.6398 2.35862 21.9172 3.5429C22.6121 4.23722 23.3798 4.85457 24.2069 5.38448C25.1068 5.85559 26.0542 6.23009 27.0329 6.50172C28.6734 7.02248 30.2232 7.51407 30.9035 8.68966C31.5528 9.81248 31.2176 11.3772 30.8619 13.0345C30.606 14.0508 30.4558 15.0907 30.4138 16.1379C30.4555 17.1851 30.6055 18.2251 30.8613 19.2414C31.217 20.898 31.5521 22.4628 30.9029 23.5862C30.2201 24.7618 28.6728 25.2534 27.0323 25.7741C26.0537 26.0458 25.1067 26.4204 24.2069 26.8914C23.38 27.4213 22.6125 28.0387 21.9178 28.733C20.6398 29.9172 19.4338 31.0345 18 31.0345ZM27.3904 30.4188C27.087 30.381 26.8012 30.5698 26.717 30.8638L25.8083 34.033L22.5472 29.8403L22.7607 29.6429C23.3886 29.0127 24.0814 28.4508 24.8276 27.9664C25.65 27.5415 26.5145 27.2037 27.4072 26.9584L27.7504 26.8486L30.8663 30.8532L27.3904 30.4188Z" fill="black"/>
<path d="M18 4.96558C11.8296 4.96558 6.82758 9.96764 6.82758 16.138C6.82758 22.3083 11.8296 27.3104 18 27.3104C24.1703 27.3104 29.1724 22.3083 29.1724 16.138C29.1653 9.97058 24.1674 4.97279 18 4.96558ZM18 26.069C12.5153 26.069 8.06895 21.6227 8.06895 16.138C8.06895 10.6533 12.5153 6.20696 18 6.20696C23.4847 6.20696 27.931 10.6533 27.931 16.138C27.9245 21.6201 23.4821 26.0625 18 26.069Z" fill="black"/>
<path d="M25.1615 13.5454C24.928 13.2246 24.5552 13.0347 24.1585 13.0346H20.3586L19.1793 9.41781C18.9652 8.76647 18.2637 8.41206 17.6124 8.62612C17.2377 8.74925 16.9438 9.04315 16.8207 9.41781L15.6445 13.0346H11.8415C11.1559 13.0343 10.5998 13.5897 10.5995 14.2753C10.5993 14.6726 10.7892 15.0458 11.1103 15.2796L14.1865 17.5141L13.0115 21.1308C12.7995 21.7829 13.1563 22.4832 13.8083 22.6951C14.1864 22.818 14.6004 22.7524 14.922 22.5187L18 20.2848L21.0767 22.5193C21.5101 22.8413 22.1032 22.8413 22.5366 22.5193C22.9764 22.2067 23.1595 21.6428 22.9872 21.1315L21.8122 17.5141L24.8884 15.2796C25.4427 14.8762 25.565 14.0997 25.1615 13.5454ZM20.7174 16.7755C20.4996 16.9337 20.4086 17.2141 20.492 17.47L21.8067 21.5157L18.3649 19.0155C18.1475 18.8576 17.8531 18.8576 17.6356 19.0155L14.1939 21.5157L15.5079 17.47C15.591 17.2143 15.5001 16.9342 15.2826 16.7761L11.8415 14.2759H16.0951C16.364 14.2759 16.6023 14.1028 16.6854 13.8471L18 9.8014L19.3146 13.8464C19.3977 14.1022 19.636 14.2753 19.9049 14.2753L24.1585 14.2759L20.7174 16.7755Z" fill="black"/>
</svg>
