<svg width="30" height="30" viewBox="0 0 30 30" fill="none" xmlns="http://www.w3.org/2000/svg">
<g clip-path="url(#clip0)">
<path d="M29.2128 23.1446L23.1407 19.0952C22.3702 18.5854 21.3372 18.7531 20.7676 19.4806L18.9988 21.7547C18.7715 22.0545 18.3583 22.1414 18.0295 21.9587L17.693 21.7733C16.5777 21.1653 15.1899 20.4085 12.3938 17.6114C9.59774 14.8143 8.83936 13.4255 8.23142 12.3122L8.04693 11.9757C7.86175 11.6469 7.94705 11.232 8.24688 11.0029L10.5195 9.23465C11.2467 8.66491 11.4146 7.63229 10.9055 6.86149L6.85608 0.78938C6.33426 0.00445749 5.28734 -0.231172 4.47951 0.25444L1.94038 1.7797C1.14257 2.24873 0.557245 3.00835 0.307145 3.89937C-0.607192 7.23087 0.0806548 12.9805 8.55041 21.4513C15.2879 28.1883 20.3037 30 23.7512 30C24.5446 30.0034 25.3349 29.9002 26.1009 29.6931C26.9921 29.4433 27.7518 28.8579 28.2205 28.0598L29.7473 25.5222C30.2336 24.7142 29.9981 23.6667 29.2128 23.1446ZM28.8859 25.0093L27.3626 27.5484C27.026 28.1244 26.4796 28.5479 25.8378 28.7302C22.7623 29.5746 17.3891 28.8752 9.25777 20.7439C1.12646 12.6126 0.427127 7.23989 1.27151 4.16388C1.45406 3.52132 1.8781 2.97419 2.45481 2.63709L4.99395 1.11382C5.34446 0.902918 5.79885 1.00515 6.02528 1.34576L8.22497 4.64826L10.0712 7.41734C10.2923 7.75169 10.2197 8.1998 9.90426 8.44721L7.6311 10.2154C6.93932 10.7444 6.74178 11.7015 7.16769 12.4611L7.34819 12.7891C7.98712 13.9609 8.78147 15.4187 11.6816 18.3183C14.5816 21.2178 16.0389 22.0122 17.2102 22.6511L17.5387 22.8321C18.2982 23.2579 19.2554 23.0604 19.7843 22.3687L21.5525 20.0955C21.8 19.7803 22.248 19.7077 22.5824 19.9285L28.654 23.9779C28.9948 24.2042 29.0971 24.6588 28.8859 25.0093Z" fill="#0c9bd2"/>
<path d="M16.9991 5.00256C21.6906 5.00777 25.4925 8.80977 25.4978 13.5013C25.4978 13.7774 25.7216 14.0012 25.9977 14.0012C26.2738 14.0012 26.4976 13.7774 26.4976 13.5013C26.4918 8.25778 22.2426 4.00849 16.9991 4.00275C16.7229 4.00275 16.4991 4.22654 16.4991 4.50265C16.4991 4.77876 16.7229 5.00256 16.9991 5.00256Z" fill="#0c9bd2"/>
<path d="M16.9991 8.0021C20.0347 8.00567 22.4947 10.4657 22.4983 13.5013C22.4983 13.7774 22.7221 14.0012 22.9982 14.0012C23.2743 14.0012 23.4981 13.7774 23.4981 13.5013C23.4939 9.91367 20.5866 7.00639 16.9991 7.00229C16.7229 7.00229 16.4991 7.22608 16.4991 7.5022C16.4991 7.77831 16.7229 8.0021 16.9991 8.0021Z" fill="#0c9bd2"/>
<path d="M16.9991 11.0017C18.3788 11.0033 19.497 12.1215 19.4987 13.5014C19.4987 13.7775 19.7226 14.0013 19.9986 14.0013C20.2747 14.0013 20.4985 13.7775 20.4985 13.5014C20.4963 11.5696 18.9308 10.0041 16.9991 10.0019C16.7229 10.0019 16.4991 10.2257 16.4991 10.5018C16.4991 10.7779 16.7229 11.0017 16.9991 11.0017Z" fill="#0c9bd2"/>
</g>
<defs>
<clipPath id="clip0">
<rect width="30" height="30" fill="white"/>
</clipPath>
</defs>
</svg>
