<svg width="30" height="30" viewBox="0 0 30 30" fill="none" xmlns="http://www.w3.org/2000/svg">
<g clip-path="url(#clip0)">
<path d="M29.2128 23.1445L23.1407 19.0951C22.3702 18.5854 21.3372 18.7531 20.7676 19.4806L18.9988 21.7547C18.7715 22.0544 18.3583 22.1414 18.0295 21.9587L17.693 21.7732C16.5777 21.1653 15.1899 20.4084 12.3938 17.6113C9.59774 14.8143 8.83936 13.4254 8.23142 12.3122L8.04693 11.9757C7.86175 11.6469 7.94705 11.232 8.24689 11.0028L10.5195 9.23462C11.2467 8.66488 11.4146 7.63226 10.9055 6.86146L6.85608 0.789349C6.33426 0.00442697 5.28734 -0.231202 4.47951 0.254409L1.94038 1.77967C1.14257 2.2487 0.557245 3.00832 0.307145 3.89934C-0.607192 7.23083 0.0806548 12.9805 8.55041 21.4512C15.2879 28.1882 20.3037 30 23.7512 30C24.5446 30.0034 25.3349 29.9001 26.1009 29.693C26.9921 29.4432 27.7518 28.8579 28.2205 28.0598L29.7473 25.5222C30.2336 24.7142 29.9981 23.6666 29.2128 23.1445ZM28.8859 25.0092L27.3626 27.5484C27.026 28.1244 26.4796 28.5479 25.8378 28.7302C22.7623 29.5746 17.3891 28.8752 9.25777 20.7439C1.12646 12.6126 0.427127 7.23986 1.27151 4.16385C1.45406 3.52129 1.8781 2.97416 2.45481 2.63706L4.99395 1.11379C5.34446 0.902887 5.79885 1.00512 6.02528 1.34573L8.22497 4.64823L10.0712 7.41731C10.2923 7.75166 10.2197 8.19977 9.90426 8.44718L7.6311 10.2154C6.93932 10.7444 6.74178 11.7015 7.16769 12.4611L7.34819 12.789C7.98712 13.9609 8.78147 15.4186 11.6816 18.3182C14.5816 21.2178 16.0389 22.0122 17.2102 22.6511L17.5387 22.832C18.2982 23.2579 19.2554 23.0604 19.7843 22.3686L21.5525 20.0955C21.8 19.7802 22.248 19.7076 22.5824 19.9285L28.654 23.9779C28.9948 24.2042 29.0971 24.6588 28.8859 25.0092Z" fill="white"/>
<path d="M16.9991 5.0025C21.6906 5.00771 25.4925 8.80971 25.4978 13.5013C25.4978 13.7774 25.7216 14.0012 25.9977 14.0012C26.2738 14.0012 26.4976 13.7774 26.4976 13.5013C26.4918 8.25772 22.2426 4.00843 16.9991 4.00269C16.7229 4.00269 16.4991 4.22648 16.4991 4.50259C16.4991 4.7787 16.7229 5.0025 16.9991 5.0025Z" fill="white"/>
<path d="M16.9991 8.00201C20.0347 8.00558 22.4947 10.4656 22.4983 13.5012C22.4983 13.7773 22.7221 14.0011 22.9982 14.0011C23.2743 14.0011 23.4981 13.7773 23.4981 13.5012C23.4939 9.91358 20.5866 7.0063 16.9991 7.0022C16.7229 7.0022 16.4991 7.22599 16.4991 7.5021C16.4991 7.77822 16.7229 8.00201 16.9991 8.00201Z" fill="white"/>
<path d="M16.9991 11.0018C18.3788 11.0034 19.497 12.1216 19.4987 13.5014C19.4987 13.7775 19.7226 14.0013 19.9986 14.0013C20.2747 14.0013 20.4985 13.7775 20.4985 13.5014C20.4963 11.5696 18.9308 10.0041 16.9991 10.002C16.7229 10.002 16.4991 10.2257 16.4991 10.5019C16.4991 10.778 16.7229 11.0018 16.9991 11.0018Z" fill="white"/>
</g>
<defs>
<clipPath id="clip0">
<rect width="30" height="30" fill="white"/>
</clipPath>
</defs>
</svg>
