<svg width="32" height="32" viewBox="0 0 32 32" fill="none" xmlns="http://www.w3.org/2000/svg">
<g clip-path="url(#clip0)">
<rect width="32" height="32"/>
<path d="M30.9645 10.6892H23.5295L18.4287 1.85431C18.2191 1.49106 17.8805 1.23137 17.4754 1.12287C17.0704 1.01431 16.6473 1.07006 16.2841 1.27975C16.1801 1.33975 16.0859 1.41137 15.9999 1.491C15.9141 1.41137 15.8197 1.33975 15.7158 1.27975C15.3527 1.07006 14.9296 1.01431 14.5246 1.12287C14.1195 1.23143 13.7809 1.49118 13.5713 1.85431L8.4705 10.6892H1.0355C0.4645 10.6892 0 11.1537 0 11.7247V14.3969C0 14.9679 0.4645 15.4324 1.0355 15.4324H1.10225L2.036 28.9717C2.11181 30.0706 3.03394 30.9314 4.13544 30.9314H27.8646C28.9661 30.9314 29.8882 30.0706 29.9641 28.9717L30.8978 15.4324H30.9646C31.5356 15.4324 32.0001 14.9679 32.0001 14.3969V11.7247C32 11.1537 31.5355 10.6892 30.9645 10.6892ZM16.5206 2.49218C16.5598 2.34575 16.6538 2.22331 16.7852 2.14743C16.8727 2.09693 16.9697 2.07106 17.0682 2.07106C17.1175 2.07106 17.1672 2.07756 17.2161 2.09062C17.3626 2.12987 17.4851 2.22381 17.5609 2.35525L22.9054 11.6121C23.0619 11.8833 22.9687 12.2312 22.6976 12.3877C22.5662 12.4636 22.4131 12.4837 22.2667 12.4446C22.1202 12.4053 21.9977 12.3114 21.9219 12.1799L16.5774 2.92306C16.5015 2.79168 16.4813 2.63875 16.5206 2.49218ZM16 3.92737L19.9039 10.6891H12.0961L16 3.92737ZM9.09469 11.6122L14.4391 2.35531C14.5149 2.224 14.6374 2.13 14.7839 2.09075C14.9305 2.05156 15.0835 2.07162 15.2148 2.14756C15.3461 2.22337 15.4401 2.34581 15.4794 2.49237C15.5187 2.63887 15.4985 2.79187 15.4227 2.92325L10.0782 12.1801C10.0024 12.3115 9.88 12.4054 9.73344 12.4447C9.58694 12.4839 9.43388 12.4638 9.30256 12.3879C9.03137 12.2313 8.93812 11.8833 9.09469 11.6122ZM30.9979 14.3969C30.9979 14.4152 30.983 14.4302 30.9646 14.4302H28.8267C28.5501 14.4302 28.3257 14.6546 28.3257 14.9313C28.3257 15.2081 28.55 15.4324 28.8267 15.4324H29.8933L28.9643 28.9027C28.9246 29.4784 28.4416 29.9292 27.8646 29.9292H4.13544C3.5585 29.9292 3.07544 29.4784 3.03575 28.9027L2.10675 15.4324H26.6889C26.9656 15.4324 27.19 15.2081 27.19 14.9313C27.19 14.6546 26.9657 14.4302 26.6889 14.4302H1.0355C1.01706 14.4302 1.00213 14.4152 1.00213 14.3969V11.7246C1.00213 11.7062 1.01706 11.6912 1.0355 11.6912H8.03019C7.95062 12.3016 8.236 12.9292 8.80144 13.2557C9.04331 13.3954 9.31175 13.4667 9.58381 13.4667C9.72019 13.4667 9.85744 13.4487 9.99275 13.4125C10.3978 13.304 10.7364 13.0442 10.946 12.6811L11.5174 11.6912H20.4824L21.0538 12.6811C21.2634 13.0443 21.602 13.304 22.0071 13.4125C22.1424 13.4487 22.2796 13.4667 22.416 13.4667C22.6881 13.4667 22.9565 13.3954 23.1984 13.2557C23.7639 12.9292 24.0493 12.3016 23.9697 11.6912H30.9644C30.9829 11.6912 30.9978 11.7062 30.9978 11.7246V14.3969H30.9979Z" fill="#0c9bd2"/>
<path d="M17.0689 20.3092C16.7922 20.3092 16.5678 20.5335 16.5678 20.8103V26.6892C16.5678 27.0023 16.3131 27.2571 15.9999 27.2571C15.6868 27.2571 15.4321 27.0023 15.4321 26.6892V18.6724C15.4321 18.3593 15.6868 18.1046 15.9999 18.1046C16.3131 18.1046 16.5678 18.3593 16.5678 18.6724C16.5678 18.9491 16.7921 19.1735 17.0689 19.1735C17.3456 19.1735 17.5699 18.9492 17.5699 18.6724C17.5699 17.8068 16.8657 17.1025 16 17.1025C15.1343 17.1025 14.4301 17.8068 14.4301 18.6724V26.6891C14.4301 27.5548 15.1343 28.2591 16 28.2591C16.8657 28.2591 17.5699 27.5548 17.5699 26.6891V20.8102C17.5699 20.5336 17.3456 20.3092 17.0689 20.3092Z" fill="#0c9bd2"/>
<path d="M21.3444 20.3092C21.0678 20.3092 20.8434 20.5335 20.8434 20.8103V26.6892C20.8434 27.0023 20.5886 27.2571 20.2755 27.2571C19.9624 27.2571 19.7076 27.0023 19.7076 26.6892V18.6724C19.7076 18.3593 19.9624 18.1046 20.2755 18.1046C20.5886 18.1046 20.8434 18.3593 20.8434 18.6724C20.8434 18.9491 21.0677 19.1735 21.3444 19.1735C21.6212 19.1735 21.8455 18.9492 21.8455 18.6724C21.8455 17.8068 21.1413 17.1025 20.2756 17.1025C19.4099 17.1025 18.7056 17.8068 18.7056 18.6724V26.6891C18.7056 27.5548 19.4099 28.2591 20.2756 28.2591C21.1413 28.2591 21.8455 27.5548 21.8455 26.6891V20.8102C21.8455 20.5336 21.6212 20.3092 21.3444 20.3092Z" fill="#0c9bd2"/>
<path d="M25.6201 20.3092C25.3434 20.3092 25.119 20.5335 25.119 20.8103V26.6892C25.119 27.0023 24.8643 27.2571 24.5511 27.2571C24.238 27.2571 23.9833 27.0023 23.9833 26.6892V18.6724C23.9833 18.3593 24.238 18.1046 24.5511 18.1046C24.8643 18.1046 25.119 18.3593 25.119 18.6724C25.119 18.9491 25.3433 19.1735 25.6201 19.1735C25.8968 19.1735 26.1211 18.9492 26.1211 18.6724C26.1211 17.8068 25.4169 17.1025 24.5512 17.1025C23.6855 17.1025 22.9813 17.8068 22.9813 18.6724V26.6891C22.9813 27.5548 23.6855 28.2591 24.5512 28.2591C25.4169 28.2591 26.1211 27.5548 26.1211 26.6891V20.8102C26.1211 20.5336 25.8968 20.3092 25.6201 20.3092Z" fill="#0c9bd2"/>
<path d="M8.51775 20.3092C8.24106 20.3092 8.01669 20.5335 8.01669 20.8103V26.6892C8.01669 27.0023 7.76194 27.2571 7.44881 27.2571C7.13569 27.2571 6.88094 27.0023 6.88094 26.6892V18.6724C6.88094 18.3593 7.13569 18.1046 7.44881 18.1046C7.76194 18.1046 8.01669 18.3593 8.01669 18.6724C8.01669 18.9491 8.241 19.1735 8.51775 19.1735C8.7945 19.1735 9.01881 18.9492 9.01881 18.6724C9.01881 17.8068 8.31456 17.1025 7.44887 17.1025C6.58319 17.1025 5.87894 17.8068 5.87894 18.6724V26.6891C5.87894 27.5548 6.58319 28.2591 7.44887 28.2591C8.31456 28.2591 9.01881 27.5548 9.01881 26.6891V20.8102C9.01881 20.5336 8.79444 20.3092 8.51775 20.3092Z" fill="#0c9bd2"/>
<path d="M12.7933 20.3092C12.5166 20.3092 12.2923 20.5335 12.2923 20.8103V26.6892C12.2923 27.0023 12.0375 27.2571 11.7244 27.2571C11.4113 27.2571 11.1565 27.0023 11.1565 26.6892V18.6724C11.1565 18.3593 11.4113 18.1046 11.7244 18.1046C12.0375 18.1046 12.2923 18.3593 12.2923 18.6724C12.2923 18.9491 12.5166 19.1735 12.7933 19.1735C13.0701 19.1735 13.2944 18.9492 13.2944 18.6724C13.2944 17.8068 12.5901 17.1025 11.7244 17.1025C10.8588 17.1025 10.1545 17.8068 10.1545 18.6724V26.6891C10.1545 27.5548 10.8588 28.2591 11.7244 28.2591C12.5901 28.2591 13.2944 27.5548 13.2944 26.6891V20.8102C13.2944 20.5336 13.07 20.3092 12.7933 20.3092Z" fill="#0c9bd2"/>
</g>
<defs>
<clipPath id="clip0">
<rect width="32" height="32" fill="white"/>
</clipPath>
</defs>
</svg>
