<svg width="120" height="120" viewBox="0 0 120 120" fill="none" xmlns="http://www.w3.org/2000/svg">
<path d="M60 0C26.8421 0 0 26.8421 0 60C0 93.1579 27 120 60 120C93.1579 120 120 93.1579 120 60C120 26.8421 93 0 60 0ZM116.401 67.273L106.105 64.1053C105.789 63.9474 105.316 64.1053 105.158 64.5789C105 64.8947 105.158 65.3684 105.632 65.5263L116.194 68.7764C114.755 78.2594 110.977 86.9676 105.467 94.298L92.3049 80.0613C95.4011 75.0265 97.3541 69.223 97.797 63.0185L101.369 64.1056H101.527C101.842 64.1056 102.158 63.9477 102.316 63.6319C102.474 63.3161 102.316 62.8424 101.842 62.6845L98.2108 61.5793C98.1094 61.5287 97.9916 61.5142 97.8735 61.5284C97.8864 61.1256 97.8951 60.7219 97.8951 60.3161C97.8951 54.3725 96.5067 48.7386 94.0408 43.719L112.992 39.5384C115.477 45.9295 116.842 52.8824 116.842 60.1582C116.842 62.5679 116.691 64.9422 116.401 67.273ZM60 95.0526C40.8947 95.0526 25.2632 79.4211 25.2632 60.3158C25.2632 41.2105 40.7368 25.5789 60 25.5789C79.1053 25.5789 94.7368 41.2105 94.7368 60.3158C94.7368 79.4211 79.1053 95.0526 60 95.0526ZM66.6035 3.69881L62.8421 15.7895C62.6842 16.1053 62.8421 16.5789 63.3158 16.7368H63.4737C63.7895 16.7368 64.1053 16.5789 64.2632 16.2632L68.1115 3.89309C77.7477 5.26696 86.6019 9.04842 94.042 14.6157L89.3684 18.9474C89.0526 19.2632 89.0526 19.7368 89.3684 20.0526C89.5263 20.2105 89.8421 20.3684 90 20.3684C90.1579 20.3684 90.3158 20.2105 90.4737 20.0526L95.2953 15.5838C102.721 21.4694 108.641 29.1714 112.381 38.0246L93.2742 42.2393C90.321 36.8416 86.0921 32.2309 81.0009 28.8183L84.1579 25.895C84.4737 25.5793 84.4737 25.1056 84.1579 24.7898C83.8421 24.474 83.3684 24.474 83.0526 24.7898L79.6425 27.9471C74.506 24.8104 68.5741 22.8633 62.2374 22.4895L62.6842 21C62.8421 20.6842 62.6842 20.2105 62.2105 20.0526C61.8947 19.8947 61.4211 20.0526 61.2632 20.5263L60.692 22.43C60.4617 22.4257 60.2313 22.4211 60 22.4211C53.8048 22.4211 47.9442 23.9281 42.767 26.5932L38.5041 7.54379C45.144 4.82042 52.4032 3.31579 60 3.31579C62.2343 3.31579 64.4371 3.4487 66.6035 3.69881ZM36.9983 8.18616L41.2963 27.3932C35.905 30.4768 31.3332 34.8454 28.0057 40.0747L25.7368 37.5789C25.4211 37.2632 24.9474 37.2632 24.6316 37.5789C24.3158 37.8947 24.3158 38.3684 24.6316 38.6842L27.1601 41.4656C24.1542 46.6675 22.351 52.64 22.1309 58.9968L3.5773 53.2574C6.03053 33.0527 19.1124 16.1339 36.9983 8.18616ZM8.28608 83.7329L14.3684 82.4211C14.8421 82.2632 15.1579 81.9474 15 81.4737C14.8421 81 14.5263 80.6842 14.0526 80.8421L7.6212 82.2292C4.74671 75.4345 3.15789 67.974 3.15789 60.1579C3.15789 58.3418 3.24702 56.5467 3.41417 54.7744L22.1083 60.5576C22.1478 66.8487 23.7265 72.7879 26.4912 78.0108L18.7895 79.7372C18.3158 79.8951 18 80.2108 18.1579 80.6845C18.3158 81.0003 18.6316 81.3161 18.9474 81.3161H19.1053L27.3093 79.4772C30.3509 84.6547 34.5863 89.0526 39.6455 92.283L25.5228 105.319C18.1453 99.6711 12.1903 92.2626 8.28608 83.7329ZM60 117C58.002 117 56.0283 116.895 54.0839 116.694L57.3158 106.263C57.4737 105.947 57.3158 105.474 56.8421 105.316C56.5263 105.158 56.0526 105.316 55.8947 105.789L52.5712 116.515C43.0676 115.271 34.3063 111.672 26.8834 106.331L41.0369 93.1301C46.6073 96.3583 53.0807 98.2105 60 98.2105C66.1215 98.2105 71.9152 96.738 77.0471 94.1318L78.1579 99.3158C78.3158 99.6316 78.6316 99.9474 78.9474 99.9474H79.1053C79.5789 99.7895 79.8947 99.4737 79.7368 99L78.5239 93.3395C83.6938 90.4197 88.121 86.3231 91.4315 81.4176L104.497 95.5494C94.0877 108.624 78.0333 117 60 117Z" fill="black"/>
<path d="M60 28.7369C42.6316 28.7369 28.5789 42.7896 28.5789 60.158C28.5789 77.5264 42.6316 91.5791 60 91.5791C77.3684 91.5791 91.421 77.5264 91.421 60.158C91.421 42.7896 77.3684 28.7369 60 28.7369ZM60 90.0001C43.5789 90.0001 30.1579 76.5791 30.1579 60.158C30.1579 43.7369 43.4211 30.3159 60 30.3159C76.4211 30.3159 89.8421 43.7369 89.8421 60.158C89.8421 76.5791 76.4211 90.0001 60 90.0001Z" fill="black"/>
<path d="M58.579 100.105C58.2632 99.9473 57.7895 100.105 57.6316 100.579L57.1579 102.158C57 102.474 57.1579 102.947 57.6316 103.105H57.7895C58.1053 103.105 58.4211 102.947 58.579 102.632L59.0527 101.053C59.2105 100.737 59.0526 100.263 58.579 100.105Z" fill="black"/>
<path d="M85.2632 24.6317C85.5789 24.6317 85.7368 24.6317 85.7368 24.3159L87.3158 22.8948C87.6316 22.579 87.6316 22.1054 87.3158 21.7896C87 21.4738 86.5263 21.4738 86.2105 21.7896L84.6316 23.2106C84.3158 23.5264 84.3158 24.0001 84.6316 24.3159C84.7895 24.4738 85.1053 24.6317 85.2632 24.6317Z" fill="black"/>
<path d="M16.7368 30C16.8947 30.1579 17.2105 30.3158 17.3684 30.3158C17.5263 30.3158 17.6842 30.3158 17.8421 30.1579C18.1579 29.8421 18.1579 29.3685 17.8421 29.0527L16.8947 27.9474C16.5789 27.6316 16.1053 27.6316 15.7895 27.9474C15.4737 28.2632 15.4737 28.7369 15.7895 29.0527L16.7368 30Z" fill="black"/>
<path d="M21.4737 35.2105C21.6316 35.3684 21.9474 35.5263 22.1053 35.5263C22.2632 35.5263 22.4211 35.5263 22.579 35.2105C22.8947 34.8948 22.8947 34.4211 22.579 34.1053L21 32.3684C20.6842 32.0526 20.2105 32.0526 19.8947 32.3684C19.579 32.6842 19.579 33.1579 19.8947 33.4737L21.4737 35.2105Z" fill="black"/>
<path d="M81 104.211C80.8421 103.737 80.5263 103.421 80.0527 103.579C79.579 103.737 79.2632 104.053 79.4211 104.526L80.0527 107.684C80.2106 108 80.5263 108.316 80.8421 108.316H81C81.4737 108.158 81.7895 107.842 81.6316 107.368L81 104.211Z" fill="black"/>
<path d="M67.7368 67.8948C68.3684 67.2632 68.3684 66.3159 67.7368 65.6843L66.6313 64.5787C67.1827 63.7242 67.5725 62.7614 67.7621 61.7369H69.4737C70.421 61.7369 71.0526 61.1053 71.0526 60.158C71.0526 59.2106 70.421 58.579 69.4737 58.579H67.689C67.459 57.607 67.0427 56.696 66.4805 55.888L67.7368 54.6317C68.3684 54.0001 68.3684 53.0527 67.7368 52.4211C67.1053 51.7896 66.1579 51.7896 65.5263 52.4211L64.2388 53.7087C63.4342 53.1813 62.5352 52.7943 61.5789 52.5892V50.6843C61.5789 49.7369 60.9474 49.1053 60 49.1053C59.0526 49.1053 58.421 49.7369 58.421 50.6843V52.5892C57.4647 52.7943 56.5658 53.1813 55.7612 53.7087L54.4737 52.4211C53.8421 51.7896 52.8947 51.7896 52.2632 52.4211C51.6316 53.0527 51.6316 54.0001 52.2632 54.6317L53.5195 55.888C52.9573 56.6957 52.5413 57.6067 52.311 58.579H50.526C49.5786 58.579 48.9471 59.2106 48.9471 60.158C48.9471 61.1053 49.5786 61.7369 50.526 61.7369H52.2376C52.4272 62.7614 52.817 63.7242 53.3684 64.5787L52.2628 65.6843C51.6313 66.3159 51.6313 67.2632 52.2628 67.8948C52.5786 68.2106 52.8944 68.3685 53.3681 68.3685C53.6839 68.3685 54.1576 68.2106 54.4734 67.8948L55.5429 66.8253C56.3934 67.4119 57.3664 67.8368 58.4207 68.0518V69.632C58.4207 70.5793 59.0523 71.2109 59.9997 71.2109C60.9471 71.2109 61.5786 70.5793 61.5786 69.632V68.0518C62.6327 67.8371 63.6057 67.4122 64.4565 66.8253L65.526 67.8948C65.8418 68.2106 66.1576 68.3685 66.6313 68.3685C67.1053 68.3685 67.5789 68.2106 67.7368 67.8948ZM55.2632 60.3159C55.2632 57.7896 57.3158 55.579 60 55.579C62.6842 55.579 64.7368 57.7896 64.7368 60.3159C64.7368 62.8422 62.5263 65.0527 60 65.0527C57.4737 65.0527 55.2632 62.8422 55.2632 60.3159Z" fill="black"/>
<path d="M71.3684 39.1579H70.8947C70.7368 39 70.5789 39 70.5789 39C70.1053 39 69.7895 39.1579 69.4737 39.4737L67.8947 41.0526C67.2632 41.6842 67.2632 42.6316 67.8947 43.2632L76.8947 52.2632C77.2105 52.579 77.6842 52.7368 78 52.7368C78.4737 52.7368 78.7895 52.579 79.1052 52.2632L80.6842 50.6842C81 50.3684 81.1579 49.8947 81.1579 49.4211V48.9474C80.5263 43.7368 76.5789 39.7895 71.3684 39.1579ZM79.421 49.4211L77.8421 51L68.8421 42L70.5789 40.5789H71.0526C75.4737 41.0526 78.9474 44.5263 79.421 48.9474V49.4211Z" fill="black"/>
<path d="M43.1053 67.8948C42.9474 67.7369 42.4737 67.579 42.1579 67.579C41.6842 67.579 41.3684 67.7369 41.0526 68.0527L39.4737 69.6316C39.1579 69.9474 39 70.4211 39 70.8948V71.3684C39.6316 76.579 43.5789 80.5263 48.7895 81.1579H49.2632H49.4211C49.8947 81.1579 50.2105 81 50.5263 80.6842L52.1053 79.1053C52.7369 78.4737 52.7369 77.5263 52.1053 76.8948L43.1053 67.8948ZM49.579 79.7369H49.1053C44.6842 79.2632 41.2105 75.7895 40.7368 71.3684V70.8948L42.1579 69.1579L51.1579 78.1579L49.579 79.7369Z" fill="black"/>
<path d="M41.0526 52.1053C41.3684 52.4211 41.8421 52.579 42.1579 52.579C42.6316 52.579 42.9474 52.4211 43.2632 52.1053L52.2632 43.1053C52.8947 42.4737 52.8947 41.5263 52.2632 40.8947L50.6842 39.3158C50.2105 39.1579 49.8947 39 49.4211 39H49.2632H48.7895C43.5789 39.6316 39.6316 43.5789 39 48.7895V49.2632C39 49.7368 39.1579 50.2105 39.4737 50.5263L41.0526 52.1053ZM40.4211 49.1053C40.8947 44.6842 44.3684 41.2105 48.7895 40.7368L49.4211 40.5789L51 42.1579L42 51.1579L40.4211 49.579V49.1053Z" fill="black"/>
<path d="M78.7895 68.2106C78.6316 67.7369 78.3158 67.579 77.8421 67.579C77.3684 67.579 77.0526 67.7369 76.7368 68.0527L67.7368 77.0527C67.1053 77.6842 67.1053 78.6316 67.7368 79.2632L69.3158 80.8421C69.6316 81.1579 69.9474 81.3158 70.4211 81.3158H70.5789H71.0526C76.2632 80.6842 80.2105 76.7369 80.8421 71.5263V71.0527C80.8421 70.579 80.6842 70.1053 80.3684 69.7895L78.7895 68.2106ZM79.4211 71.2106C78.9474 75.6316 75.4737 79.1053 71.0526 79.579H70.5789L69 78L77.8421 69.1579L79.4211 70.7369V71.2106Z" fill="black"/>
<path d="M52.1052 15C53.2105 15 54.1579 14.0527 54.1579 12.9474C54.1579 11.8421 53.2105 10.8948 52.1052 10.8948C51 10.8948 50.0526 11.8421 50.0526 12.9474C50.0526 14.0527 51 15 52.1052 15Z" fill="black"/>
<path d="M67.8947 105.631C66.7895 105.631 65.8421 106.579 65.8421 107.684C65.8421 108.789 66.7895 109.737 67.8947 109.737C69 109.737 69.9474 108.789 69.9474 107.684C69.9474 106.579 69 105.631 67.8947 105.631Z" fill="black"/>
<path d="M75.7895 17.0526C76.1053 17.2105 76.5789 17.3684 76.8947 17.3684C77.5263 17.3684 78.3158 17.0526 78.6316 16.2631C79.1053 15.3157 78.7895 14.0526 77.8421 13.421C76.8947 12.9473 75.6316 13.2631 75 14.2105C74.8421 14.6842 74.6842 15.3157 74.8421 15.7894C75 16.2631 75.3158 16.7368 75.7895 17.0526Z" fill="black"/>
<path d="M44.0526 103.421C43.1053 102.947 41.8421 103.263 41.2105 104.21C40.7368 105.158 41.0526 106.421 42 107.053C42.3158 107.21 42.7895 107.368 43.1053 107.368C43.8947 107.368 44.5263 106.895 44.8421 106.263C45 105.789 45.1579 105.158 45 104.684C44.8421 104.21 44.5263 103.737 44.0526 103.421Z" fill="black"/>
<path d="M97.1053 31.8947C97.4211 31.8947 97.7368 31.7368 98.2105 31.5789C98.6842 31.2632 99 30.7895 99.1579 30.3158C99.3158 29.8421 99.3158 29.2105 99 28.7368C98.5263 27.7895 97.1053 27.3158 96.1579 27.9474C95.6842 28.2632 95.3684 28.7368 95.2105 29.2105C95.0526 29.6842 95.0526 30.3158 95.3684 30.7895C95.6842 31.421 96.3158 31.8947 97.1053 31.8947Z" fill="black"/>
<path d="M24.7895 89.6842C24.3158 88.7369 22.8947 88.2632 21.9474 88.8948C21 89.5263 20.5263 90.7895 21.1579 91.7368C21.4737 92.3684 22.1053 92.8421 22.8947 92.8421C23.3684 92.8421 23.6842 92.8421 24 92.5263C24.4737 92.2105 24.7895 91.7369 24.9474 91.2632C25.1053 90.7895 25.1053 90.1579 24.7895 89.6842Z" fill="black"/>
<path d="M107.368 50.3684C106.263 50.3684 105.316 51.3158 105.316 52.421C105.316 53.5263 106.263 54.4737 107.368 54.4737C108.474 54.4737 109.421 53.5263 109.421 52.421C109.421 51.3158 108.474 50.3684 107.368 50.3684Z" fill="black"/>
<path d="M12.6316 66.158C11.5263 66.158 10.5789 67.1053 10.5789 68.2106C10.5789 69.3159 11.5263 70.2632 12.6316 70.2632C13.7368 70.2632 14.6842 69.3159 14.6842 68.2106C14.6842 67.1053 13.7368 66.158 12.6316 66.158Z" fill="black"/>
<path d="M103.105 76.1052C102.947 76.5789 102.789 77.2105 102.947 77.6842C103.105 78.1579 103.421 78.6316 103.895 78.9473C104.211 79.1052 104.684 79.2631 105 79.2631C105.789 79.2631 106.421 78.7895 106.737 78.1579C106.895 77.6842 107.053 77.0526 106.895 76.5789C106.737 76.1052 106.421 75.6316 105.947 75.3158C105 74.8421 103.579 75.1579 103.105 76.1052Z" fill="black"/>
<path d="M12.9474 43.8948C13.1053 44.3684 13.421 44.8421 13.8947 45.1579C14.2105 45.3158 14.6842 45.4737 15 45.4737C15.7895 45.4737 16.421 45.1579 16.7368 44.3684C16.8947 43.8948 17.0526 43.2632 16.8947 42.7895C16.7368 42.3158 16.421 41.8421 15.9474 41.5263C15 41.0527 13.7368 41.3684 13.1053 42.3158C12.9474 42.7895 12.7895 43.4211 12.9474 43.8948Z" fill="black"/>
<path d="M89.5263 95.5263C88.5789 96.1579 88.1052 97.4211 88.7368 98.3684C89.0526 99 89.6842 99.4737 90.4737 99.4737C90.9474 99.4737 91.2631 99.3158 91.5789 99.1579C92.0526 98.8421 92.3684 98.3684 92.5263 97.8948C92.6842 97.4211 92.6842 96.7895 92.3684 96.3158C91.8947 95.3685 90.4737 94.8948 89.5263 95.5263Z" fill="black"/>
<path d="M29.5263 25.2631C29.8421 25.2631 30.1579 25.2631 30.6316 24.9474C31.579 24.3158 32.0526 23.0526 31.4211 22.1052C30.9474 21.1579 29.5263 20.6842 28.5789 21.3158C28.1053 21.6316 27.7895 22.1053 27.6316 22.5789C27.4737 23.0526 27.4737 23.6842 27.7895 24.1579C28.1053 24.7895 28.7368 25.2631 29.5263 25.2631Z" fill="black"/>
</svg>
