<svg width="36" height="36" viewBox="0 0 36 36" fill="none" xmlns="http://www.w3.org/2000/svg">
<g clip-path="url(#clip0)">
<path d="M13.2163 16.4472C14.0474 16.4472 14.7211 15.7734 14.7211 14.9423C14.7211 14.1112 14.0474 13.4375 13.2163 13.4375C12.3852 13.4375 11.7114 14.1112 11.7114 14.9423C11.7114 15.7734 12.3852 16.4472 13.2163 16.4472Z" fill="white"/>
<path d="M22.7764 22.5551C23.6075 22.5551 24.2812 21.8813 24.2812 21.0502C24.2812 20.2191 23.6075 19.5454 22.7764 19.5454C21.9453 19.5454 21.2715 20.2191 21.2715 21.0502C21.2715 21.8813 21.9453 22.5551 22.7764 22.5551Z" fill="white"/>
<path d="M35.1839 19.988L34.638 19.243C34.0479 18.4315 34.0331 17.3324 34.6159 16.5062L35.147 15.7538C35.9584 14.603 35.5822 13.0023 34.3356 12.331L33.5241 11.8958C32.6389 11.4237 32.1521 10.4352 32.3217 9.43939L32.4766 8.53207C32.7127 7.14526 31.6726 5.86172 30.2637 5.80271L29.3416 5.76583C28.3383 5.72157 27.4679 5.04292 27.1876 4.07658L26.9294 3.19138C26.5384 1.83408 25.0484 1.1333 23.7501 1.69392L22.9018 2.05538C21.9797 2.45372 20.9027 2.21766 20.2314 1.46525L19.6192 0.779218C18.6823 -0.268265 17.0373 -0.260888 16.1079 0.808725L15.503 1.50213C14.8391 2.26192 13.7695 2.51273 12.84 2.12914L11.9843 1.77506C10.6787 1.23657 9.20334 1.96686 8.82713 3.32416L8.5837 4.21673C8.31815 5.19045 7.46246 5.88385 6.45923 5.93549L5.53715 5.98713C4.12821 6.06827 3.11024 7.36656 3.36842 8.75337L3.53808 9.66069C3.7225 10.6492 3.25039 11.645 2.37257 12.1319L1.56852 12.5818C0.336621 13.2679 -0.0174576 14.876 0.816103 16.012L1.36197 16.757C1.95211 17.5685 1.96686 18.6676 1.3841 19.4938L0.852986 20.2462C0.0415555 21.3969 0.417764 22.9977 1.66442 23.6689L2.47585 24.1042C3.36104 24.5763 3.8479 25.5647 3.67824 26.5606L3.52333 27.4679C3.28728 28.8547 4.32738 30.1382 5.73632 30.1973L6.6584 30.2341C7.66162 30.2784 8.53207 30.9571 8.81238 31.9234L9.07056 32.8086C9.46152 34.1659 10.9516 34.8667 12.2499 34.306L13.0982 33.9446C14.0203 33.5463 15.0973 33.7823 15.7686 34.5347L16.3808 35.2208C17.325 36.2682 18.97 36.2609 19.8921 35.1912L20.497 34.4978C21.1609 33.738 22.2305 33.4872 23.1599 33.8708L24.0156 34.2249C25.3213 34.7634 26.7966 34.0331 27.1728 32.6758L27.4163 31.7832C27.6818 30.8095 28.5375 30.1161 29.5407 30.0645L30.4628 30.0128C31.8718 29.9317 32.8897 28.6334 32.6316 27.2466L32.4619 26.3393C32.2775 25.3508 32.7496 24.355 33.6274 23.8681L34.4315 23.4181C35.6634 22.7395 36.0174 21.1314 35.1839 19.988ZM9.57955 14.9424C9.57955 12.9359 11.2024 11.3131 13.2089 11.3131C15.2153 11.3131 16.8382 12.9359 16.8382 14.9424C16.8382 16.9488 15.2153 18.5717 13.2089 18.5717C11.2024 18.5717 9.57955 16.9414 9.57955 14.9424ZM13.9096 24.3033C13.5998 24.6795 13.0392 24.7312 12.663 24.4214C12.2868 24.1115 12.2351 23.5509 12.545 23.1747L22.0682 11.704C22.378 11.3278 22.9386 11.2762 23.3149 11.586C23.6911 11.8958 23.7427 12.4564 23.4329 12.8326L13.9096 24.3033ZM22.7764 24.6795C20.7699 24.6795 19.1471 23.0567 19.1471 21.0502C19.1471 19.0438 20.7699 17.4209 22.7764 17.4209C24.7828 17.4209 26.4057 19.0438 26.4057 21.0502C26.4057 23.0567 24.7828 24.6795 22.7764 24.6795Z" fill="white"/>
</g>
<defs>
<clipPath id="clip0">
<rect width="36" height="36" fill="white"/>
</clipPath>
</defs>
</svg>
