<svg width="30" height="30" viewBox="0 0 30 30" fill="none" xmlns="http://www.w3.org/2000/svg">
<g clip-path="url(#clip0)">
<path d="M29.994 11.4688C29.9909 11.4344 29.9841 11.4003 29.9735 11.3673C29.9667 11.3379 29.9571 11.3091 29.945 11.2813C29.931 11.2542 29.9143 11.2285 29.8951 11.2048C29.8758 11.1766 29.8534 11.1506 29.8285 11.1273C29.8205 11.1203 29.8171 11.1107 29.8086 11.1038L24.9998 7.3691V3.49844C24.9998 2.67 24.3282 1.99836 23.4997 1.99836H18.081L15.9113 0.313766C15.3753 -0.104263 14.6237 -0.104263 14.0877 0.313766L11.9176 1.99836H6.49879C5.67035 1.99836 4.99871 2.66994 4.99871 3.49844V7.36916L0.191497 11.1038C0.183 11.1109 0.179484 11.1204 0.171515 11.1273C0.146611 11.1506 0.124286 11.1767 0.105008 11.2048C0.085788 11.2286 0.0690294 11.2542 0.0550248 11.2814C0.0428952 11.3091 0.0334026 11.3379 0.0265468 11.3674C0.0161165 11.3999 0.00926072 11.4334 0.0060379 11.4674C0.0060379 11.4779 6.10352e-05 11.4869 6.10352e-05 11.4974V28.4997C0.000764196 28.8177 0.10366 29.1271 0.293572 29.3822C0.29656 29.3867 0.297088 29.3922 0.300545 29.3962C0.304061 29.4002 0.311561 29.4047 0.316542 29.4102C0.597455 29.7798 1.03435 29.9978 1.49861 29.9997H28.5C28.9661 29.9983 29.4048 29.7794 29.686 29.4077C29.69 29.4028 29.6961 29.4012 29.6995 29.3963C29.703 29.3913 29.7035 29.3868 29.7065 29.3823C29.8965 29.1271 29.9994 28.8177 30.0001 28.4997V11.4988C30 11.4883 29.9945 11.4793 29.994 11.4688ZM14.6992 1.10277C14.8738 0.964014 15.1211 0.964014 15.2957 1.10277L16.4493 1.9983H13.5491L14.6992 1.10277ZM1.6246 28.9997L14.6993 18.8437C14.874 18.7052 15.1211 18.7052 15.2958 18.8437L28.3739 28.9997H1.6246ZM29 28.2202L15.9113 18.0546C15.3752 17.637 14.6238 17.637 14.0877 18.0546L0.998549 28.2202V12.2603L9.19248 18.6232C9.41081 18.7925 9.72501 18.7528 9.89429 18.5344C10.0636 18.3161 10.0238 18.0019 9.80552 17.8326L1.48109 11.3688L4.99877 8.63515V12.4988C4.99877 12.775 5.22267 12.9988 5.49878 12.9988C5.77494 12.9988 5.99878 12.7749 5.99878 12.4988V3.49838C5.99878 3.22221 6.22262 2.99837 6.49879 2.99837H23.4996C23.7758 2.99837 23.9996 3.22221 23.9996 3.49838V12.4988C23.9996 12.775 24.2235 12.9988 24.4996 12.9988C24.7758 12.9988 24.9996 12.7749 24.9996 12.4988V8.63515L28.5173 11.3688L20.1784 17.8441C20.035 17.9528 19.961 18.1303 19.9848 18.3087C20.0086 18.4871 20.1264 18.639 20.2933 18.7063C20.4603 18.7737 20.6505 18.7461 20.7915 18.6341L28.9999 12.2603V28.2202H29Z" fill="white"/>
<path d="M20.9995 11.9989V9.99884C20.9995 6.68496 18.3131 3.99854 14.9992 3.99854C11.6854 3.99854 8.99893 6.68496 8.99893 9.99884C8.99893 13.3127 11.6854 15.9991 14.9992 15.9991C15.2754 15.9991 15.4992 15.7753 15.4992 15.4991C15.4992 15.223 15.2754 14.9991 14.9992 14.9991C12.2377 14.9991 9.999 12.7604 9.999 9.9989C9.999 7.23735 12.2377 4.99866 14.9992 4.99866C17.7608 4.99866 19.9995 7.23735 19.9995 9.9989V11.999C19.9995 12.5513 19.5517 12.9991 18.9994 12.9991C18.4471 12.9991 17.9993 12.5513 17.9993 11.999V9.9989C17.9993 9.72273 17.7755 9.49889 17.4993 9.49889C17.2232 9.49889 16.9993 9.72273 16.9993 9.9989C16.9993 11.1035 16.1038 11.999 14.9992 11.999C13.8946 11.999 12.9992 11.1035 12.9992 9.9989C12.9992 8.89429 13.8946 7.99882 14.9992 7.99882C15.2754 7.99882 15.4992 7.77498 15.4992 7.49881C15.4992 7.22265 15.2754 6.99881 14.9992 6.99881C13.6565 6.99582 12.4752 7.88537 12.1073 9.17673C11.7393 10.4681 12.2741 11.8467 13.4167 12.552C14.5593 13.2572 16.0314 13.1174 17.0208 12.2096C17.1297 13.267 18.0488 14.0533 19.1103 13.9971C20.1719 13.9408 21.0029 13.062 20.9995 11.9989Z" fill="white"/>
</g>
<defs>
<clipPath id="clip0">
<rect width="30" height="30" fill="white"/>
</clipPath>
</defs>
</svg>
