<svg height="512" viewBox="0 0 60 61" width="512" xmlns="http://www.w3.org/2000/svg"><g id="097---Favourite" transform="translate(-1)"><path id="Shape" d="m24.43 20.48-.87 5.09c-.1243588.7484097.1854489 1.5027492.7999288 1.9477174.6144798.4449682 1.4278251.5039463 2.1000712.1522826l4.54-2.39c4.85 2.56 4.81 2.62 5.47 2.62.5928939.0081366 1.1588332-.2472283 1.5450377-.6971565s.5528548-1.0480304.4549623-1.6328435l-.87-5.09 3.68-3.6c.543959-.5303239.740494-1.3230463.5072658-2.0460535-.2332281-.7230072-.8559467-1.2514543-1.6072658-1.3639465l-5.09-.74-2.3-4.61c-.338327-.67882903-1.0315318-1.10786772-1.79-1.10786772s-1.451673.42903869-1.79 1.10786772l-2.27 4.61-5.08.74c-.7530446.1093724-1.3787831.6366023-1.6143167 1.3601784-.2355336.7235762-.0400513 1.5181243.5043167 2.0498216zm2.8-5.77c.6483949-.0956084 1.2088013-.5028371 1.5-1.09l2.27-4.62c.2.36-.67-1.34 2.27 4.63.2931487.589805.8578927.9974679 1.51 1.09l5.08.74-3.68 3.6c-.4730352.4584749-.6899652 1.1204854-.58 1.77l.87 5.08-4.54-2.39c-.5822835-.3058382-1.2777165-.3058382-1.86 0l-4.54 2.38.87-5.08c.1099652-.6495146-.1069648-1.3115251-.58-1.77l-3.68-3.6z"/><path id="Shape" d="m11.5 39c-2.48528137 0-4.5 2.0147186-4.5 4.5s2.01471863 4.5 4.5 4.5c2.4852814 0 4.5-2.0147186 4.5-4.5-.0054995-2.4829999-2.0170001-4.4945005-4.5-4.5zm0 7c-1.3807119 0-2.5-1.1192881-2.5-2.5s1.1192881-2.5 2.5-2.5 2.5 1.1192881 2.5 2.5-1.1192881 2.5-2.5 2.5z"/><path id="Shape" d="m50.5 39c-2.4852814 0-4.5 2.0147186-4.5 4.5s2.0147186 4.5 4.5 4.5 4.5-2.0147186 4.5-4.5c-.0054995-2.4829999-2.0170001-4.4945005-4.5-4.5zm0 7c-1.3807119 0-2.5-1.1192881-2.5-2.5s1.1192881-2.5 2.5-2.5 2.5 1.1192881 2.5 2.5-1.1192881 2.5-2.5 2.5z"/><path id="Shape" d="m57 30h-4.5c-1.68-5.75-1.55-5.4-1.7-5.6-.8891955-1.0319129-2.0497238-1.7940509-3.35-2.2 1.7961304-6.8884952-.8899487-14.16659134-6.7304882-18.23667097-5.8405395-4.07007964-13.5984841-4.07007964-19.4390236 0-5.8405395 4.07007963-8.5266186 11.34817577-6.7304882 18.23667097-1.3002762.4059491-2.4608045 1.1680871-3.35 2.2-.16.21 0-.14-1.7 5.6h-4.5c-1.61882673-.001274-3.07881917.9733095-3.69848972 2.4688395-.61967056 1.49553-.27683104 3.2171142.86848972 4.3611605.48841171.4772464 1.09087104.8215088 1.75 1-.59700579.9498726-.91573474 2.0481017-.92 3.17v5c.00712873 2.5365098 1.60854261 4.7945034 4 5.64v6.11c-.06207558 1.7233199 1.27722779 3.1742319 3 3.25h6c1.7227722-.0757681 3.0620756-1.5266801 3-3.25v-5.75h24v5.75c-.0620756 1.7233199 1.2772278 3.1742319 3 3.25h6c1.7227722-.0757681 3.0620756-1.5266801 3-3.25v-6.11c2.3914574-.8454966 3.9928713-3.1034902 4-5.64v-5c-.0042653-1.1218983-.3229942-2.2201274-.92-3.17.659129-.1784912 1.2615883-.5227536 1.75-1 1.1453208-1.1440463 1.4881603-2.8656305.8684897-4.3611605-.6196705-1.49553-2.079663-2.4701135-3.6984897-2.4688395zm-7.9-4.53c2 7 1.47 4.91 2.56 9.27-2.36-.39-7.21-1.12-13.18-1.5 3.8350775-1.8845025 6.8198151-5.1441501 8.36-9.13.8448857.2800857 1.6168706.744643 2.26 1.36zm-18.1-22.47c8.2842712 0 15 6.71572875 15 15 0 8.2842712-6.7157288 15-15 15s-15-6.7157288-15-15c0-8.28427125 6.7157288-15 15-15zm-18.1 22.47c.6431294-.615357 1.4151143-1.0799143 2.26-1.36 1.5401849 3.9858499 4.5249225 7.2454975 8.36 9.13-6 .38-10.82 1.11-13.18 1.5 1.09-4.34.49-2.15 2.56-9.27zm-9.9 8.53c0-1.1045695.8954305-2 2-2h4l-.76 3c-.9122545.1337476-1.78141331.4759361-2.54 1h-.7c-1.1045695 0-2-.8954305-2-2zm14 23.75c.0536301.6167565-.3865138 1.1669364-1 1.25h-6c-.61348616-.0830636-1.05363007-.6332435-1-1.25v-5.75h8zm36 0c.0536301.6167565-.3865138 1.1669364-1 1.25h-6c-.6134862-.0830636-1.0536301-.6332435-1-1.25v-5.75h8zm4-11.75c0 2.209139-1.790861 4-4 4h-44c-2.209139 0-4-1.790861-4-4v-5c0-1.2590292.59277663-2.4445825 1.6-3.2.69031099-.5232341 1.53381075-.8044007 2.4-.8 7.2615997-1.3023458 14.6225936-1.9715271 22-2 7.3775473.0254867 14.7388001.6946915 22 2 2.209139 0 4 1.790861 4 4zm1.41-10.59c-.3733503.3755878-.8804232.5877672-1.41.59h-.7c-.7497573-.5198285-1.6081866-.8618322-2.51-1l-.79-3h4c.8063114.0033854 1.5317303.4906258 1.8398346 1.2357575s.138627 1.6024026-.4298346 2.1742425z"/><path id="Shape" d="m39 39h-16c-1.6568542 0-3 1.3431458-3 3v3c0 1.6568542 1.3431458 3 3 3h16c1.6568542 0 3-1.3431458 3-3v-3c0-1.6568542-1.3431458-3-3-3zm1 6c0 .5522847-.4477153 1-1 1h-16c-.5522847 0-1-.4477153-1-1v-3c0-.5522847.4477153-1 1-1h16c.5522847 0 1 .4477153 1 1z"/></g></svg>