<svg width="48" height="48" viewBox="0 0 48 48" fill="none" xmlns="http://www.w3.org/2000/svg">
<path d="M27.5251 3.52501H8.60524C7.74639 3.52501 7.05011 4.22129 7.05011 5.08014C7.05011 5.93898 7.74639 6.63527 8.60524 6.63527H16.6889C14.9834 7.70336 13.4457 9.01511 12.1252 10.5221H1.55513C0.696283 10.5222 0 11.2186 0 12.0775C0 12.9363 0.696283 13.6326 1.55513 13.6326H9.87546C8.08127 16.6753 7.05001 20.2193 7.05001 24C7.05001 28.3991 8.44492 32.4785 10.8151 35.8197H6.40267C5.54382 35.8197 4.84754 36.516 4.84754 37.3748C4.84754 38.2337 5.54382 38.93 6.40267 38.93H13.5295C14.4991 39.8395 15.5571 40.6557 16.6889 41.3646H1.71553C0.856689 41.3646 0.160407 42.0608 0.160407 42.9197C0.160407 43.7785 0.856689 44.4748 1.71553 44.4748H27.5251C38.8151 44.4748 48 35.2897 48 23.9999C48 12.71 38.815 3.52501 27.5251 3.52501ZM27.5251 41.3647C17.9502 41.3647 10.1605 33.575 10.1605 24.0001C10.1605 14.4251 17.9502 6.63536 27.5251 6.63536C37.0999 6.63536 44.8897 14.4251 44.8897 24C44.8897 33.5749 37.1 41.3647 27.5251 41.3647Z" fill="black"/>
<path d="M27.5251 11.2975C20.5209 11.2975 14.8226 16.9959 14.8226 24C14.8226 28.1769 16.8494 31.8891 19.9709 34.2057C19.9995 34.2299 20.0279 34.2542 20.0587 34.2765C20.0934 34.3017 20.1289 34.3252 20.1648 34.3472C22.2427 35.8294 24.7838 36.7024 27.5251 36.7024C30.2663 36.7024 32.8073 35.8294 34.8853 34.3472C34.9213 34.3252 34.9567 34.3017 34.9914 34.2765C35.0222 34.2541 35.0507 34.2297 35.0793 34.2057C38.2007 31.8891 40.2276 28.177 40.2276 24C40.2276 16.996 34.5292 11.2975 27.5251 11.2975ZM29.0802 14.5346C32.1151 15.0316 34.6753 16.9572 36.0449 19.5966L32.0178 20.9052C31.3183 19.8928 30.286 19.1278 29.0803 18.7687V14.5346H29.0802ZM29.873 23.9999C29.873 25.2946 28.8198 26.3479 27.5251 26.3479C26.2304 26.3479 25.1771 25.2947 25.1771 23.9999C25.1771 22.7053 26.2304 21.652 27.5251 21.652C28.8198 21.652 29.873 22.7053 29.873 23.9999ZM25.9698 14.5346V18.7687C24.7639 19.1278 23.7318 19.8928 23.0323 20.9052L19.0052 19.5966C20.3749 16.9572 22.9352 15.0315 25.9698 14.5346ZM20.7063 30.7394C18.9928 29.0057 17.9329 26.6244 17.9329 23.9999C17.9329 23.5085 17.9702 23.0256 18.0419 22.5539L22.0702 23.8628C22.0691 23.9085 22.0666 23.9539 22.0666 23.9999C22.0666 25.2464 22.4876 26.396 23.1935 27.316L20.7063 30.7394ZM27.5251 33.5921C25.9781 33.5921 24.5158 33.2236 23.2205 32.5703L25.7083 29.1464C26.277 29.3477 26.8882 29.4585 27.5251 29.4585C28.1619 29.4585 28.7732 29.3477 29.3419 29.1464L31.8296 32.5703C30.5344 33.2235 29.072 33.5921 27.5251 33.5921ZM34.3437 30.7394L31.8565 27.3161C32.5625 26.3961 32.9834 25.2465 32.9834 24C32.9834 23.954 32.9811 23.9086 32.9798 23.8629L37.0082 22.5539C37.0798 23.0257 37.1171 23.5086 37.1171 24C37.1172 26.6244 36.0575 29.0056 34.3437 30.7394Z" fill="black"/>
</svg>
