<svg width="30" height="30" viewBox="0 0 30 30" fill="none" xmlns="http://www.w3.org/2000/svg">
<g clip-path="url(#clip0)">
<path d="M7.0697 30.0572C6.6449 30.0572 6.2233 29.9387 5.8532 29.7052C5.21278 29.3008 4.8159 28.6075 4.79164 27.8501L4.71771 25.4249C1.67633 22.6978 0 18.8688 0 14.6441C0 10.6119 1.54564 6.90376 4.35173 4.20273C7.12852 1.5303 10.9101 0.0585938 15 0.0585938C19.0899 0.0585938 22.8715 1.5303 25.6483 4.20273C28.4544 6.90376 30 10.6119 30 14.6441C30 18.6761 28.4544 22.3842 25.6483 25.0852C22.8715 27.7576 19.0899 29.2296 15 29.2296C13.5255 29.2296 12.0827 29.0389 10.7112 28.6631L7.98866 29.8643C7.69363 29.9936 7.38098 30.0572 7.0697 30.0572ZM15 2.40234C7.78473 2.40234 2.34375 7.66502 2.34375 14.6441C2.34375 18.1989 3.74748 21.4124 6.29631 23.6925C6.76643 24.1159 7.03629 24.6895 7.05894 25.3102L7.05917 25.3175L7.1315 27.6807L9.78584 26.5096C10.2637 26.2992 10.8028 26.2587 11.3047 26.3956C12.4844 26.721 13.7265 26.8856 15 26.8856C22.2153 26.8856 27.6562 21.6229 27.6562 14.6441C27.6562 7.66502 22.2153 2.40234 15 2.40234ZM7.6252 19.4314L12.0049 16.0547C12.3008 15.8327 12.7082 15.8297 13.0069 16.0519L16.2476 18.571C17.219 19.2959 18.6092 19.0402 19.2567 18.0183L23.3302 11.5588C23.7236 10.9422 22.9589 10.2452 22.3755 10.6867L17.9979 14.0039C17.702 14.2262 17.2945 14.2289 16.9958 14.0067L13.7551 11.5464C12.7837 10.8215 11.3935 11.077 10.746 12.0989L6.67053 18.5591C6.27708 19.1757 7.04178 19.8729 7.6252 19.4314Z" fill="white"/>
</g>
<defs>
<clipPath id="clip0">
<rect width="30" height="30" fill="white"/>
</clipPath>
</defs>
</svg>
