<svg width="120" height="120" viewBox="0 0 120 120" fill="none" xmlns="http://www.w3.org/2000/svg">
<g clip-path="url(#clip0)">
<path d="M96.7742 4.88387e-05H64.8097C61.215 -0.00962858 57.766 1.41924 55.231 3.96779L37.9084 21.2904H19.3548C14.0129 21.2967 9.68372 25.6259 9.67743 30.9678V106.452C9.6859 113.931 15.7469 119.992 23.2258 120H96.7742C104.253 119.992 110.314 113.931 110.323 106.452V13.5484C110.314 6.06948 104.253 0.00851658 96.7742 4.88387e-05ZM106.452 106.452C106.445 111.794 102.116 116.123 96.7742 116.129H23.2258C17.8839 116.123 13.5547 111.794 13.5484 106.452V30.9678C13.5484 27.7609 16.148 25.1613 19.3548 25.1613H38.7097C39.2231 25.1613 39.7152 24.9571 40.0781 24.5942L57.9677 6.70457C59.7784 4.88424 62.2423 3.864 64.8097 3.87102H96.7742C102.116 3.87731 106.445 8.2065 106.452 13.5484V106.452Z" fill="black"/>
<path d="M38.7097 0H15.4839C14.415 0 13.5484 0.866613 13.5484 1.93548V9.67742C13.5484 10.7463 14.415 11.6129 15.4839 11.6129H38.7097C39.7786 11.6129 40.6452 10.7463 40.6452 9.67742V1.93548C40.6452 0.866613 39.7786 0 38.7097 0ZM36.7742 7.74194H17.4194V3.87097H36.7742V7.74194Z" fill="black"/>
<path d="M96.7742 7.74194H73.5484C63.9329 7.75356 56.1409 15.5458 56.129 25.1613V29.0323C56.129 30.1011 56.9956 30.9678 58.0645 30.9678H100.645C101.714 30.9678 102.581 30.1011 102.581 29.0323V13.5484C102.581 10.3415 99.981 7.74194 96.7742 7.74194ZM98.7097 27.0968H60V25.1613C60.0085 17.6823 66.0694 11.6214 73.5484 11.6129H96.7742C97.8431 11.6129 98.7097 12.4795 98.7097 13.5484V27.0968Z" fill="black"/>
<path d="M100.645 34.8387H89.0323C81.5533 34.8472 75.4924 40.9082 75.4839 48.3871V110.323C75.4839 111.391 76.3505 112.258 77.4194 112.258H89.0323C96.5112 112.25 102.572 106.189 102.581 98.7097V36.7742C102.581 35.7054 101.714 34.8387 100.645 34.8387ZM98.7097 98.7097C98.7034 104.052 94.3742 108.381 89.0323 108.387H79.3549V48.3871C79.3611 43.0452 83.6903 38.716 89.0323 38.7097H98.7097V98.7097Z" fill="black"/>
<path d="M21.2903 7.74194H17.4194V23.2258H21.2903V7.74194Z" fill="black"/>
<path d="M36.7742 7.74194H32.9032V23.2258H36.7742V7.74194Z" fill="black"/>
<path d="M44.3342 50.04C44.2979 49.792 44.2137 49.5535 44.0865 49.3374L32.6342 29.9826C32.4907 29.7709 32.3083 29.5885 32.0969 29.4453C31.1765 28.8218 29.925 29.0623 29.3013 29.9826L17.8491 49.3374C17.7218 49.5535 17.6376 49.792 17.6013 50.04C17.4803 50.8662 17.4196 51.6999 17.4194 52.5349C17.4194 60.9213 23.4968 67.7419 30.9678 67.7419C38.4387 67.7419 44.5161 60.9213 44.5161 52.5349C44.5159 51.6999 44.4552 50.8662 44.3342 50.04ZM30.9678 63.871C25.6316 63.871 21.2903 58.7865 21.2903 52.5349C21.2903 52.0115 21.3208 51.4887 21.3813 50.969L30.9678 34.7691L40.5542 50.969C40.6147 51.4887 40.6449 52.0115 40.6452 52.5349C40.6452 58.7865 36.3039 63.871 30.9678 63.871Z" fill="black"/>
<path d="M44.5161 71.6129H17.4194V75.4839H44.5161V71.6129Z" fill="black"/>
<path d="M71.6129 79.3549H17.4194V83.2258H71.6129V79.3549Z" fill="black"/>
<path d="M71.6129 87.0968H17.4194V90.9678H71.6129V87.0968Z" fill="black"/>
<path d="M71.6129 94.8386H17.4194V98.7096H71.6129V94.8386Z" fill="black"/>
<path d="M71.6129 102.581H17.4194V106.452H71.6129V102.581Z" fill="black"/>
</g>
<defs>
<clipPath id="clip0">
<rect width="120" height="120" fill="white"/>
</clipPath>
</defs>
</svg>
