<svg width="32" height="32" viewBox="0 0 32 32" fill="none" xmlns="http://www.w3.org/2000/svg">
<g clip-path="url(#clip0)">
<path d="M16.0665 5.59412C10.3287 5.59412 5.66052 10.2621 5.66052 16.0001C5.66052 21.7378 10.3287 26.4061 16.0665 26.4061C21.8045 26.4061 26.4725 21.7378 26.4725 16.0001C26.4725 10.2621 21.8045 5.59412 16.0665 5.59412ZM10.8291 23.6149V19.9673C10.832 18.8449 11.6699 17.8999 12.7838 17.7626C14.2559 19.4783 16.8013 19.7701 18.6232 18.4321C18.8898 18.2372 19.133 18.0127 19.3484 17.7626C20.4628 17.8999 21.3007 18.8447 21.3039 19.9673V23.6149C19.7763 24.6407 18.0069 25.2422 16.0665 25.2422C14.1261 25.2422 12.3567 24.6407 10.8291 23.6149ZM22.4677 22.6661V19.9673C22.4629 18.0979 20.9475 16.5843 19.0779 16.582C18.8929 16.582 18.7187 16.6704 18.609 16.8196C18.0146 17.6288 17.0707 18.107 16.0665 18.107C15.0623 18.107 14.1181 17.6288 13.5237 16.8196C13.4143 16.6704 13.2401 16.582 13.0551 16.582C11.1857 16.5843 9.6701 18.0979 9.66527 19.9673V22.6661C7.84958 20.9238 6.82239 18.5165 6.82097 16.0001C6.82097 10.9039 10.9686 6.75798 16.0648 6.75798C21.1609 6.75798 25.3109 10.9042 25.3109 16.0001C25.31 18.5165 24.2831 20.9238 22.4677 22.6661Z" fill="black"/>
<path d="M30.1908 17.6324C30.3314 16.335 30.2973 15.0245 30.0899 13.7359L31.7005 12.1913C31.8766 12.0225 31.9286 11.7616 31.8309 11.538L29.9973 7.3466C29.8984 7.12042 29.6677 6.98119 29.4213 6.99966L27.1919 7.16361C26.3895 6.13102 25.4373 5.22403 24.367 4.47275L24.4323 2.24562C24.4397 1.99898 24.2905 1.77451 24.0604 1.68557L19.7942 0.0389511C19.5649 -0.0494181 19.3046 0.0156512 19.1441 0.201766L17.6995 1.87595C16.4018 1.73558 15.091 1.7694 13.8024 1.97682L12.2578 0.366286C12.089 0.190116 11.8282 0.138118 11.6046 0.235864L7.41343 2.07002C7.18725 2.1689 7.04802 2.39963 7.06621 2.6457L7.23016 4.87539C6.19758 5.67781 5.29058 6.62998 4.5393 7.70007L2.31217 7.63472C2.06525 7.62648 1.84049 7.77594 1.75212 8.00695L0.105787 12.2728C0.0171339 12.5021 0.0822031 12.7621 0.268318 12.9229L1.94279 14.3675C1.80213 15.6649 1.83595 16.9754 2.04366 18.264L0.432838 19.8086C0.256668 19.9774 0.20467 20.2383 0.3027 20.4619L2.13657 24.653C2.23546 24.8792 2.46618 25.0184 2.71254 25.0003L4.94194 24.8363C5.74436 25.8689 6.69653 26.7759 7.76662 27.5272L7.70127 29.7543C7.69388 30.0009 7.84306 30.2254 8.0735 30.3143L12.3397 31.961C12.569 32.0496 12.8292 31.9845 12.9898 31.7981L14.4341 30.1237C15.7315 30.2643 17.042 30.2305 18.3306 30.0231L19.8752 31.6336C20.0443 31.8098 20.3048 31.8618 20.5284 31.764L24.7199 29.9302C24.9458 29.8313 25.085 29.6006 25.0668 29.3545L24.9029 27.1251C25.9354 26.3224 26.8424 25.3702 27.5937 24.2998L29.8208 24.3652C30.0675 24.3723 30.292 24.2231 30.3809 23.993L32.0275 19.7268C32.1159 19.4975 32.0508 19.2375 31.8647 19.0767L30.1908 17.6324ZM29.4432 23.1897L27.3104 23.1269C27.1095 23.1206 26.92 23.2187 26.8089 23.386C26.0383 24.5433 25.0719 25.558 23.9535 26.3843C23.793 26.5031 23.7043 26.6957 23.7191 26.8949L23.876 29.0289L20.4341 30.5345L18.9565 28.9939C18.8213 28.853 18.6244 28.7893 18.432 28.8246C17.0587 29.0757 15.6551 29.1121 14.2707 28.932C14.0766 28.9067 13.8829 28.9806 13.755 29.1289L12.3763 30.7272L8.87678 29.3769L8.93929 27.2439C8.94526 27.0435 8.84751 26.854 8.68072 26.7426C7.52311 25.9717 6.50843 25.0057 5.68214 23.8873C5.56336 23.7267 5.37071 23.6383 5.17153 23.6528L3.0376 23.8097L1.53191 20.3678L3.07226 18.8903C3.21348 18.755 3.27713 18.5581 3.2419 18.3657C2.99043 16.9925 2.95434 15.5888 3.13449 14.2044C3.15978 14.0104 3.08562 13.8166 2.93758 13.6887L1.33898 12.3095L2.68952 8.80994L4.8226 8.87274C5.02292 8.87842 5.21244 8.78068 5.32383 8.6136C6.09472 7.45628 7.06081 6.44188 8.17949 5.6153C8.34003 5.49681 8.4284 5.30388 8.41362 5.10498L8.25678 2.97076L11.6986 1.46508L13.1762 3.00571C13.3114 3.14665 13.5086 3.2103 13.7007 3.17535C15.0743 2.92359 16.4785 2.88722 17.8632 3.06765C18.0572 3.09294 18.251 3.01878 18.3789 2.87074L19.7578 1.27243L23.2571 2.62297L23.1943 4.75576C23.1883 4.95637 23.2861 5.14589 23.4531 5.25728C24.6105 6.02788 25.6252 6.99426 26.4514 8.11265C26.5702 8.27319 26.7629 8.36156 26.9621 8.34707L29.096 8.19022L30.602 11.6321L29.0613 13.1096C28.9204 13.2449 28.8564 13.4418 28.8917 13.6342C29.1432 15.0074 29.1795 16.4111 28.9994 17.7955C28.9741 17.9895 29.048 18.183 29.1963 18.3109L30.794 19.6901L29.4432 23.1897Z" fill="black"/>
<path d="M16.0665 9.09692C14.0252 9.09692 12.3703 10.7515 12.3703 12.7928C12.3703 14.8344 14.0252 16.489 16.0665 16.489C18.1078 16.489 19.7627 14.8341 19.7627 12.7928C19.7604 10.7526 18.1069 9.0992 16.0665 9.09692ZM16.0665 15.3251C14.6679 15.3251 13.5342 14.1914 13.5342 12.7928C13.5342 11.3942 14.6679 10.2605 16.0665 10.2605C17.4651 10.2605 18.5988 11.3942 18.5988 12.7928C18.5971 14.1908 17.4645 15.3234 16.0665 15.3251Z" fill="black"/>
</g>
<defs>
<clipPath id="clip0">
<rect width="32" height="32" fill="white"/>
</clipPath>
</defs>
</svg>
