<?xml version="1.0" encoding="utf-8"?>
<!-- Generator: Adobe Illustrator 23.1.0, SVG Export Plug-In . SVG Version: 6.00 Build 0)  -->
<svg version="1.1" id="Layer_1" xmlns="http://www.w3.org/2000/svg" xmlns:xlink="http://www.w3.org/1999/xlink" x="0px" y="0px"
	 viewBox="0 0 35 35" style="enable-background:new 0 0 35 35;" xml:space="preserve">
<style type="text/css">
	.st0{fill:#0C9BD2;}
</style>
<path class="st0" d="M22.8,14.9l-1.1-1.1c-0.1-0.1-0.1-0.1-0.2-0.1c-0.1,0-0.1,0-0.2,0h-0.8l-1.7-2.6c-0.1-0.2-0.4-0.4-0.6-0.5
	c-0.2-0.1-0.5-0.2-0.8-0.2h-5.8c-0.3,0-0.6,0.1-0.9,0.2c-0.3,0.2-0.5,0.4-0.6,0.7L9,13.7H7.7c-0.3,0-0.6,0.1-0.8,0.3
	c-0.2,0.2-0.3,0.5-0.3,0.8v2.7c0,0.1,0.1,0.3,0.2,0.4S7,18,7.1,18h1.2c0.1,0.3,0.3,0.6,0.6,0.8c0.3,0.2,0.6,0.3,0.9,0.3
	c0.3,0,0.7-0.1,0.9-0.3c0.3-0.2,0.5-0.5,0.6-0.8h6.8c0.1,0.3,0.3,0.6,0.6,0.8c0.3,0.2,0.6,0.3,0.9,0.3s0.7-0.1,0.9-0.3
	c0.3-0.2,0.5-0.5,0.6-0.8h1.2c0.1,0,0.3-0.1,0.4-0.2c0.1-0.1,0.2-0.2,0.2-0.4v-2.2C23,15.2,22.9,15,22.8,14.9z M17.9,11.7l1.3,1.9
	h-4.4v-2.2h2.7c0.1,0,0.2,0,0.3,0.1C17.8,11.6,17.9,11.7,17.9,11.7z M11.1,11.8c0-0.1,0.1-0.2,0.2-0.2c0.1-0.1,0.2-0.1,0.3-0.1h2.1
	v2.2h-3.5L11.1,11.8z M9.8,18c-0.1,0-0.2,0-0.3-0.1c-0.1-0.1-0.2-0.1-0.2-0.2c0-0.1-0.1-0.2,0-0.3c0-0.1,0.1-0.2,0.1-0.3
	S9.6,17,9.7,17c0.1,0,0.2,0,0.3,0c0.1,0,0.2,0.1,0.2,0.2c0.1,0.1,0.1,0.2,0.1,0.3c0,0.1-0.1,0.3-0.2,0.4C10.1,18,10,18,9.8,18z
	 M19.7,18c-0.1,0-0.2,0-0.3-0.1c-0.1-0.1-0.2-0.1-0.2-0.2c0-0.1-0.1-0.2,0-0.3c0-0.1,0.1-0.2,0.1-0.3s0.2-0.1,0.3-0.1
	c0.1,0,0.2,0,0.3,0c0.1,0,0.2,0.1,0.2,0.2c0.1,0.1,0.1,0.2,0.1,0.3c0,0.1-0.1,0.3-0.2,0.4S19.8,18,19.7,18z M21.9,17h-0.6
	c-0.1-0.3-0.3-0.6-0.6-0.8c-0.3-0.2-0.6-0.3-0.9-0.3S19,16,18.7,16.2c-0.3,0.2-0.5,0.5-0.6,0.8h-6.8c-0.1-0.3-0.3-0.6-0.6-0.8
	c-0.3-0.2-0.6-0.3-0.9-0.3c-0.3,0-0.7,0.1-0.9,0.3c-0.3,0.2-0.5,0.5-0.6,0.8H7.7v-2.2h13.4l0.8,0.8V17z"/>
<path class="st0" d="M14.8,3.8c-2.2,0-4.3,0.6-6.1,1.8c-1.8,1.2-3.2,2.9-4,4.9c-0.8,2-1,4.2-0.6,6.3C4.5,19,5.5,21,7,22.5
	s3.5,2.6,5.6,3c2.1,0.4,4.3,0.2,6.3-0.6c2-0.8,3.7-2.2,4.9-4c1.2-1.8,1.8-3.9,1.8-6.1c0-2.9-1.2-5.7-3.2-7.7
	C20.4,5,17.7,3.8,14.8,3.8z M14.8,24.6c-1.9,0-3.9-0.6-5.5-1.7c-1.6-1.1-2.9-2.6-3.6-4.4s-0.9-3.8-0.6-5.7c0.4-1.9,1.3-3.7,2.7-5
	c1.4-1.4,3.1-2.3,5-2.7s3.9-0.2,5.7,0.6s3.3,2,4.4,3.6c1.1,1.6,1.7,3.5,1.7,5.5c0,2.6-1,5.1-2.9,7C19.9,23.6,17.4,24.6,14.8,24.6z"
	/>
<path class="st0" d="M32.6,27.1l-5.8-5.8c1.6-2.9,2.1-6.2,1.4-9.5c-0.7-3.2-2.5-6.1-5.2-8.1c-2.6-2-5.9-2.9-9.2-2.7
	c-3.3,0.2-6.4,1.6-8.7,4c-2.3,2.3-3.7,5.4-4,8.7c-0.2,3.3,0.7,6.5,2.7,9.2s4.8,4.5,8.1,5.2c3.2,0.7,6.6,0.2,9.5-1.4l5.8,5.8
	c0.7,0.7,1.7,1.1,2.7,1.1c1,0,2-0.4,2.7-1.1c0.7-0.7,1.1-1.7,1.1-2.7C33.7,28.8,33.3,27.9,32.6,27.1L32.6,27.1z M2.2,14.8
	c0-2.5,0.7-4.9,2.1-7C5.7,5.7,7.7,4.1,10,3.1c2.3-1,4.8-1.2,7.3-0.7s4.7,1.7,6.4,3.4s3,4,3.4,6.4c0.5,2.4,0.2,5-0.7,7.3
	c-1,2.3-2.6,4.3-4.6,5.6c-2.1,1.4-4.5,2.1-7,2.1c-3.3,0-6.5-1.3-8.9-3.7C3.5,21.3,2.2,18.1,2.2,14.8z M26.2,22.3l1,1l-3.9,3.9l-1-1
	C23.8,25.1,25.1,23.8,26.2,22.3z M31.8,31.8c-0.5,0.5-1.2,0.8-1.9,0.8c-0.7,0-1.4-0.3-1.9-0.8L24,27.9l3.9-3.9l3.9,3.9
	c0.5,0.5,0.8,1.2,0.8,1.9C32.6,30.6,32.3,31.3,31.8,31.8z"/>
<path class="st0" d="M10.9,7.1H12v1.1h-1.1V7.1z"/>
<path class="st0" d="M14.8,8.2h1.1v1.1h-1.1V8.2z"/>
<path class="st0" d="M14.8,20.2h1.1v1.1h-1.1V20.2z"/>
<path class="st0" d="M10.9,20.8H12v1.1h-1.1V20.8z"/>
<path class="st0" d="M18.6,7.1h1.1v1.1h-1.1V7.1z"/>
<path class="st0" d="M27.3,4.4h1.1V3.3h1.1V2.2h-1.1V1.1h-1.1v1.1h-1.1v1.1h1.1V4.4z"/>
<path class="st0" d="M31.2,14.8h1.1v-1.1h1.1v-1.1h-1.1v-1.1h-1.1v1.1h-1.1v1.1h1.1V14.8z"/>
<path class="st0" d="M19.1,30.6H18v1.1H17v1.1H18v1.1h1.1v-1.1h1.1v-1.1h-1.1V30.6z"/>
<path class="st0" d="M4.9,26.2H3.8v1.1H2.7v1.1h1.1v1.1h1.1v-1.1H6v-1.1H4.9V26.2z"/>
</svg>
