<svg width="36" height="36" viewBox="0 0 36 36" fill="none" xmlns="http://www.w3.org/2000/svg">
<path d="M23.4613 15.3529L22.3414 14.2279C22.2891 14.1754 22.2269 14.1338 22.1585 14.1054C22.09 14.077 22.0167 14.0625 21.9426 14.0625H21.1134L19.3646 11.439C19.2105 11.2079 19.0018 11.0183 18.7568 10.8872C18.5119 10.7561 18.2384 10.6875 17.9606 10.6875H11.9453C11.6317 10.6864 11.3241 10.7732 11.0573 10.9381C10.7906 11.1029 10.5753 11.3392 10.4361 11.6201L9.21487 14.0625H7.875C7.57663 14.0625 7.29048 14.181 7.07951 14.392C6.86853 14.603 6.75 14.8891 6.75 15.1875V18C6.75 18.1492 6.80926 18.2923 6.91475 18.3978C7.02024 18.5032 7.16332 18.5625 7.3125 18.5625H8.541C8.65555 18.8913 8.86959 19.1763 9.15342 19.378C9.43725 19.5797 9.77681 19.688 10.125 19.688C10.4732 19.688 10.8127 19.5797 11.0966 19.378C11.3804 19.1763 11.5944 18.8913 11.709 18.5625H18.666C18.7806 18.8913 18.9946 19.1763 19.2784 19.378C19.5623 19.5797 19.9018 19.688 20.25 19.688C20.5982 19.688 20.9377 19.5797 21.2216 19.378C21.5054 19.1763 21.7194 18.8913 21.834 18.5625H23.0625C23.2117 18.5625 23.3548 18.5032 23.4602 18.3978C23.5657 18.2923 23.625 18.1492 23.625 18V15.75C23.6251 15.6012 23.5663 15.4584 23.4613 15.3529ZM18.4286 12.0628L19.7618 14.0625H15.1875V11.8125H17.9606C18.0532 11.8125 18.1444 11.8353 18.226 11.879C18.3076 11.9227 18.3772 11.9858 18.4286 12.0628ZM11.4424 12.1236C11.4887 12.0299 11.5604 11.9511 11.6493 11.8961C11.7382 11.8411 11.8407 11.8122 11.9453 11.8125H14.0625V14.0625H10.4726L11.4424 12.1236ZM10.125 18.5625C10.0137 18.5625 9.90499 18.5295 9.81249 18.4677C9.71999 18.4059 9.64789 18.3181 9.60532 18.2153C9.56274 18.1125 9.5516 17.9994 9.57331 17.8903C9.59501 17.7812 9.64859 17.6809 9.72725 17.6023C9.80592 17.5236 9.90615 17.47 10.0153 17.4483C10.1244 17.4266 10.2375 17.4378 10.3403 17.4803C10.443 17.5229 10.5309 17.595 10.5927 17.6875C10.6545 17.78 10.6875 17.8888 10.6875 18C10.6875 18.1492 10.6282 18.2923 10.5227 18.3978C10.4173 18.5032 10.2742 18.5625 10.125 18.5625ZM20.25 18.5625C20.1387 18.5625 20.03 18.5295 19.9375 18.4677C19.845 18.4059 19.7729 18.3181 19.7303 18.2153C19.6877 18.1125 19.6766 17.9994 19.6983 17.8903C19.72 17.7812 19.7736 17.6809 19.8523 17.6023C19.9309 17.5236 20.0311 17.47 20.1403 17.4483C20.2494 17.4266 20.3625 17.4378 20.4653 17.4803C20.568 17.5229 20.6559 17.595 20.7177 17.6875C20.7795 17.78 20.8125 17.8888 20.8125 18C20.8125 18.1492 20.7532 18.2923 20.6477 18.3978C20.5423 18.5032 20.3992 18.5625 20.25 18.5625ZM22.5 17.4375H21.834C21.7194 17.1087 21.5054 16.8237 21.2216 16.622C20.9377 16.4203 20.5982 16.312 20.25 16.312C19.9018 16.312 19.5623 16.4203 19.2784 16.622C18.9946 16.8237 18.7806 17.1087 18.666 17.4375H11.709C11.5944 17.1087 11.3804 16.8237 11.0966 16.622C10.8127 16.4203 10.4732 16.312 10.125 16.312C9.77681 16.312 9.43725 16.4203 9.15342 16.622C8.86959 16.8237 8.65555 17.1087 8.541 17.4375H7.875V15.1875H21.7091L22.5 15.9823V17.4375Z" fill="black"/>
<path d="M15.1875 3.9375C12.9625 3.9375 10.7874 4.5973 8.93734 5.83347C7.08729 7.06963 5.64535 8.82664 4.79386 10.8823C3.94237 12.938 3.71959 15.2 4.15367 17.3823C4.58775 19.5646 5.65921 21.5691 7.23255 23.1425C8.80589 24.7158 10.8105 25.7873 12.9927 26.2213C15.175 26.6554 17.437 26.4326 19.4927 25.5811C21.5484 24.7297 23.3054 23.2877 24.5415 21.4377C25.7777 19.5876 26.4375 17.4125 26.4375 15.1875C26.4341 12.2049 25.2477 9.34537 23.1387 7.23633C21.0296 5.12729 18.1701 3.94092 15.1875 3.9375ZM15.1875 25.3125C13.185 25.3125 11.2274 24.7187 9.56235 23.6061C7.89731 22.4936 6.59956 20.9123 5.83322 19.0622C5.06689 17.2121 4.86638 15.1763 5.25705 13.2122C5.64773 11.2482 6.61204 9.44405 8.02805 8.02804C9.44405 6.61204 11.2482 5.64772 13.2122 5.25705C15.1763 4.86637 17.2121 5.06688 19.0622 5.83322C20.9123 6.59956 22.4936 7.8973 23.6061 9.56235C24.7187 11.2274 25.3125 13.185 25.3125 15.1875C25.3094 17.8719 24.2416 20.4454 22.3435 22.3435C20.4454 24.2416 17.8719 25.3094 15.1875 25.3125Z" fill="black"/>
<path d="M33.4839 27.9129L27.5141 21.9504C29.1436 18.9803 29.647 15.5221 28.9319 12.2107C28.2167 8.89933 26.3311 5.95706 23.6211 3.92416C20.9111 1.89126 17.5587 0.904181 14.1795 1.14417C10.8003 1.38416 7.62104 2.8351 5.22555 5.23059C2.83007 7.62608 1.37912 10.8053 1.13913 14.1845C0.899145 17.5637 1.88622 20.9161 3.91913 23.6261C5.95203 26.3361 8.8943 28.2218 12.2057 28.9369C15.5171 29.6521 18.9753 29.1487 21.9454 27.5192L27.9141 33.4845C28.6529 34.2229 29.6548 34.6377 30.6994 34.6374C31.744 34.6371 32.7458 34.2219 33.4842 33.4831C34.2227 32.7442 34.6374 31.7423 34.6371 30.6977C34.6369 29.6531 34.2217 28.6514 33.4828 27.9129H33.4839ZM2.25001 15.1875C2.25001 12.6287 3.00878 10.1274 4.43037 7.99979C5.85196 5.87223 7.87253 4.214 10.2365 3.23479C12.6006 2.25558 15.2019 1.99938 17.7115 2.49857C20.2211 2.99777 22.5264 4.22995 24.3357 6.03929C26.145 7.84863 27.3772 10.1539 27.8764 12.6635C28.3756 15.1731 28.1194 17.7744 27.1402 20.1385C26.161 22.5025 24.5028 24.523 22.3752 25.9446C20.2476 27.3662 17.7463 28.125 15.1875 28.125C11.7575 28.1211 8.46901 26.7568 6.04359 24.3314C3.61818 21.906 2.25388 18.6175 2.25001 15.1875ZM26.9134 22.9382L27.9146 23.9389L23.9389 27.9146L22.9382 26.9134C24.5152 25.8668 25.8668 24.5152 26.9134 22.9382ZM32.6886 32.6885C32.1599 33.2145 31.4445 33.5097 30.6987 33.5097C29.953 33.5097 29.2376 33.2145 28.7089 32.6885L24.7337 28.71L28.71 24.7337L32.6874 28.7077C33.2139 29.2363 33.5095 29.9519 33.5097 30.6979C33.5099 31.4439 33.2147 32.1596 32.6886 32.6885Z" fill="black"/>
<path d="M11.25 7.3125H12.375V8.4375H11.25V7.3125Z" fill="black"/>
<path d="M15.1875 8.4375H16.3125V9.5625H15.1875V8.4375Z" fill="black"/>
<path d="M15.1875 20.8125H16.3125V21.9375H15.1875V20.8125Z" fill="black"/>
<path d="M11.25 21.375H12.375V22.5H11.25V21.375Z" fill="black"/>
<path d="M19.125 7.3125H20.25V8.4375H19.125V7.3125Z" fill="black"/>
<path d="M28.125 4.5H29.25V3.375H30.375V2.25H29.25V1.125H28.125V2.25H27V3.375H28.125V4.5Z" fill="black"/>
<path d="M32.0625 15.1875H33.1875V14.0625H34.3125V12.9375H33.1875V11.8125H32.0625V12.9375H30.9375V14.0625H32.0625V15.1875Z" fill="black"/>
<path d="M19.6875 31.5H18.5625V32.625H17.4375V33.75H18.5625V34.875H19.6875V33.75H20.8125V32.625H19.6875V31.5Z" fill="black"/>
<path d="M5.0625 27H3.9375V28.125H2.8125V29.25H3.9375V30.375H5.0625V29.25H6.1875V28.125H5.0625V27Z" fill="black"/>
</svg>
