<svg width="35" height="35" viewBox="0 0 35 35" fill="none" xmlns="http://www.w3.org/2000/svg">
<path d="M22.8096 14.9264L21.7208 13.8327C21.6699 13.7816 21.6095 13.7412 21.543 13.7136C21.4764 13.686 21.4051 13.6718 21.333 13.6719H20.527L18.8267 11.1212C18.6769 10.8965 18.4739 10.7122 18.2358 10.5848C17.9977 10.4573 17.7318 10.3906 17.4617 10.3906H11.6134C11.3086 10.3896 11.0095 10.4739 10.7502 10.6342C10.4908 10.7945 10.2816 11.0242 10.1462 11.2973L8.95891 13.6719H7.65625C7.36617 13.6719 7.08797 13.7871 6.88285 13.9922C6.67773 14.1973 6.5625 14.4755 6.5625 14.7656V17.5C6.5625 17.645 6.62012 17.7841 6.72268 17.8867C6.82524 17.9893 6.96433 18.0469 7.10938 18.0469H8.30375C8.41512 18.3665 8.62321 18.6436 8.89916 18.8397C9.17511 19.0358 9.50523 19.1411 9.84375 19.1411C10.1823 19.1411 10.5124 19.0358 10.7883 18.8397C11.0643 18.6436 11.2724 18.3665 11.3837 18.0469H18.1475C18.2589 18.3665 18.467 18.6436 18.7429 18.8397C19.0189 19.0358 19.349 19.1411 19.6875 19.1411C20.026 19.1411 20.3561 19.0358 20.6321 18.8397C20.908 18.6436 21.1161 18.3665 21.2275 18.0469H22.4219C22.5669 18.0469 22.706 17.9893 22.8086 17.8867C22.9111 17.7841 22.9688 17.645 22.9688 17.5V15.3125C22.9689 15.1678 22.9116 15.029 22.8096 14.9264ZM17.9167 11.7277L19.2128 13.6719H14.7656V11.4844H17.4617C17.5517 11.4844 17.6404 11.5066 17.7197 11.549C17.7991 11.5915 17.8668 11.6529 17.9167 11.7277ZM11.1245 11.7868C11.1696 11.6957 11.2393 11.6191 11.3257 11.5657C11.4122 11.5122 11.5118 11.484 11.6134 11.4844H13.6719V13.6719H10.1817L11.1245 11.7868ZM9.84375 18.0469C9.73559 18.0469 9.62986 18.0148 9.53992 17.9547C9.44999 17.8946 9.37989 17.8092 9.3385 17.7093C9.29711 17.6093 9.28628 17.4994 9.30738 17.3933C9.32848 17.2872 9.38057 17.1898 9.45705 17.1133C9.53353 17.0368 9.63098 16.9847 9.73706 16.9636C9.84314 16.9425 9.9531 16.9534 10.053 16.9947C10.153 17.0361 10.2384 17.1062 10.2985 17.1962C10.3586 17.2861 10.3906 17.3918 10.3906 17.5C10.3906 17.645 10.333 17.7841 10.2304 17.8867C10.1279 17.9893 9.98879 18.0469 9.84375 18.0469ZM19.6875 18.0469C19.5793 18.0469 19.4736 18.0148 19.3837 17.9547C19.2937 17.8946 19.2236 17.8092 19.1823 17.7093C19.1409 17.6093 19.13 17.4994 19.1511 17.3933C19.1722 17.2872 19.2243 17.1898 19.3008 17.1133C19.3773 17.0368 19.4747 16.9847 19.5808 16.9636C19.6869 16.9425 19.7969 16.9534 19.8968 16.9947C19.9967 17.0361 20.0821 17.1062 20.1422 17.1962C20.2023 17.2861 20.2344 17.3918 20.2344 17.5C20.2344 17.645 20.1768 17.7841 20.0742 17.8867C19.9716 17.9893 19.8325 18.0469 19.6875 18.0469ZM21.875 16.9531H21.2275C21.1161 16.6334 20.908 16.3564 20.6321 16.1603C20.3561 15.9642 20.026 15.8589 19.6875 15.8589C19.349 15.8589 19.0189 15.9642 18.7429 16.1603C18.467 16.3564 18.2589 16.6334 18.1475 16.9531H11.3837C11.2724 16.6334 11.0643 16.3564 10.7883 16.1603C10.5124 15.9642 10.1823 15.8589 9.84375 15.8589C9.50523 15.8589 9.17511 15.9642 8.89916 16.1603C8.62321 16.3564 8.41512 16.6334 8.30375 16.9531H7.65625V14.7656H21.1061L21.875 15.5384V16.9531Z" fill="#1F3A93"/>
<path d="M14.7656 3.82812C12.6024 3.82812 10.4877 4.4696 8.68908 5.67143C6.89042 6.87325 5.48853 8.58146 4.6607 10.58C3.83286 12.5786 3.61627 14.7778 4.03829 16.8994C4.46032 19.0211 5.50201 20.97 7.03165 22.4996C8.56129 24.0292 10.5102 25.0709 12.6318 25.493C14.7535 25.915 16.9527 25.6984 18.9512 24.8706C20.9498 24.0427 22.658 22.6408 23.8598 20.8422C25.0617 19.0435 25.7031 16.9289 25.7031 14.7656C25.6998 11.8658 24.5464 9.08578 22.4959 7.03532C20.4455 4.98486 17.6654 3.83145 14.7656 3.82812ZM14.7656 24.6094C12.8187 24.6094 10.9155 24.032 9.29673 22.9504C7.67794 21.8688 6.41624 20.3314 5.67119 18.5327C4.92614 16.734 4.7312 14.7547 5.11102 12.8452C5.49085 10.9357 6.42837 9.18172 7.80505 7.80504C9.18172 6.42837 10.9357 5.49084 12.8452 5.11102C14.7547 4.7312 16.734 4.92614 18.5327 5.67119C20.3314 6.41624 21.8688 7.67793 22.9504 9.29673C24.032 10.9155 24.6094 12.8187 24.6094 14.7656C24.6063 17.3754 23.5683 19.8774 21.7229 21.7229C19.8774 23.5683 17.3754 24.6063 14.7656 24.6094Z" fill="#1F3A93"/>
<path d="M32.5538 27.1376L26.7498 21.3407C28.3341 18.4531 28.8235 15.0909 28.1282 11.8715C27.4329 8.65214 25.5996 5.7916 22.9649 3.81516C20.3302 1.83873 17.071 0.879072 13.7856 1.11239C10.5003 1.34572 7.40934 2.75636 5.08039 5.0853C2.75144 7.41425 1.3408 10.5052 1.10748 13.7905C0.874159 17.0759 1.83382 20.3351 3.81025 22.9698C5.78668 25.6045 8.64722 27.4378 11.8666 28.1331C15.086 28.8284 18.4482 28.339 21.3358 26.7548L27.1387 32.5544C27.857 33.2723 28.8311 33.6755 29.8467 33.6753C30.8623 33.675 31.8362 33.2713 32.5541 32.553C33.2721 31.8347 33.6752 30.8606 33.675 29.845C33.6747 28.8294 33.271 27.8555 32.5527 27.1376H32.5538ZM2.1875 14.7656C2.1875 12.2779 2.92519 9.84605 4.3073 7.77758C5.6894 5.70912 7.65383 4.09695 9.95219 3.14494C12.2505 2.19294 14.7796 1.94385 17.2195 2.42918C19.6594 2.91451 21.9006 4.11246 23.6597 5.87154C25.4188 7.63062 26.6167 9.87183 27.1021 12.3117C27.5874 14.7517 27.3383 17.2807 26.3863 19.5791C25.4343 21.8774 23.8221 23.8418 21.7537 25.2239C19.6852 26.606 17.2533 27.3437 14.7656 27.3437C11.4309 27.34 8.23375 26.0136 5.8757 23.6555C3.51766 21.2975 2.19126 18.1004 2.1875 14.7656ZM26.1658 22.301L27.1392 23.2739L23.2739 27.1392L22.301 26.1658C23.8342 25.1483 25.1483 23.8342 26.1658 22.301ZM31.7805 31.7805C31.2665 32.2918 30.571 32.5789 29.846 32.5789C29.121 32.5789 28.4254 32.2918 27.9114 31.7805L24.0466 27.9125L27.9125 24.0466L31.7795 27.9103C32.2912 28.4242 32.5787 29.1199 32.5789 29.8452C32.5791 30.5705 32.2921 31.2663 31.7805 31.7805Z" fill="#1F3A93"/>
<path d="M10.9375 7.10938H12.0312V8.20312H10.9375V7.10938Z" fill="#1F3A93"/>
<path d="M14.7656 8.20312H15.8594V9.29688H14.7656V8.20312Z" fill="#1F3A93"/>
<path d="M14.7656 20.2344H15.8594V21.3281H14.7656V20.2344Z" fill="#1F3A93"/>
<path d="M10.9375 20.7812H12.0312V21.875H10.9375V20.7812Z" fill="#1F3A93"/>
<path d="M18.5938 7.10938H19.6875V8.20312H18.5938V7.10938Z" fill="#1F3A93"/>
<path d="M27.3438 4.375H28.4375V3.28125H29.5312V2.1875H28.4375V1.09375H27.3438V2.1875H26.25V3.28125H27.3438V4.375Z" fill="#1F3A93"/>
<path d="M31.1719 14.7656H32.2656V13.6719H33.3594V12.5781H32.2656V11.4844H31.1719V12.5781H30.0781V13.6719H31.1719V14.7656Z" fill="#1F3A93"/>
<path d="M19.1406 30.625H18.0469V31.7188H16.9531V32.8125H18.0469V33.9062H19.1406V32.8125H20.2344V31.7188H19.1406V30.625Z" fill="#1F3A93"/>
<path d="M4.92188 26.25H3.82812V27.3438H2.73438V28.4375H3.82812V29.5312H4.92188V28.4375H6.01562V27.3438H4.92188V26.25Z" fill="#1F3A93"/>
</svg>
