<svg width="198" height="198" viewBox="0 0 198 198" fill="none" xmlns="http://www.w3.org/2000/svg">
<g clip-path="url(#clip0)">
<path d="M165.171 76.9363L164.095 75.8602L166.247 73.7082C166.893 73.0626 166.893 72.2017 166.247 71.5561C165.601 70.9105 164.74 70.9105 164.095 71.5561L161.943 73.7082L144.726 56.4917L149.03 52.1875C149.676 51.5419 149.676 50.6811 149.03 50.0355C148.385 49.3899 147.524 49.3899 146.878 50.0355L142.574 54.3396L124.282 36.0471L126.434 33.895C127.079 33.2494 127.079 32.3886 126.434 31.7429C125.788 31.0973 124.927 31.0973 124.282 31.7429L122.13 33.895L121.054 32.819C119.87 31.6353 117.933 31.6353 116.749 32.819L114.597 34.971C113.414 36.1547 113.414 38.0915 114.597 39.2752L124.282 48.9594L121.054 52.1875C120.408 52.8332 120.408 53.694 121.054 54.3396L128.586 61.8718L124.995 65.4631L110.939 57.3525C108.679 56.1689 105.989 56.9221 104.698 59.0741C103.729 60.9034 103.945 63.0555 105.451 64.5619C105.666 64.7771 105.989 65.0999 106.42 65.3151L107.065 65.6873L113.737 74.1386C113.952 74.3538 114.275 74.4614 114.813 74.3538C115.243 74.1386 115.351 73.6006 115.028 73.2778L110.685 67.7761L118.292 72.1658L114.234 76.2234L100.179 68.1128C97.9189 66.9292 95.2288 67.6824 93.9376 69.8345C92.9692 71.6637 93.1844 73.8158 94.6908 75.3222C94.906 75.5374 95.2288 75.8602 95.6592 76.0755L96.3042 76.4477L102.976 84.8989C103.191 85.1141 103.514 85.2217 104.052 85.1141C104.483 84.8989 104.59 84.3609 104.267 84.0381L99.9243 78.5365L107.532 82.9261L103.474 86.9837L89.4182 78.8731C87.1586 77.6895 84.4685 78.4427 83.1773 80.5948C82.2088 82.424 82.424 84.5761 83.9305 86.0826C84.1457 86.2978 84.4685 86.6206 84.8989 86.8358L91.3127 90.5367L87.7931 94.0563L79.1959 89.0954C76.9363 87.9118 74.2462 88.665 72.955 90.8171C72.4214 91.8252 72.2492 92.9309 72.4525 93.9731L71.5561 93.0768C70.3725 91.8931 68.4356 91.8931 67.252 93.0768L65.0999 95.2288C63.9163 96.4125 63.9163 98.3493 65.0999 99.533L71.5561 105.989L56.7069 120.838C55.4156 122.13 54.9852 124.282 55.846 126.003L56.0613 126.649C56.2786 127.098 56.5072 127.54 56.7439 127.977L56.7069 127.94L53.3863 136.925C51.957 137.102 50.5769 137.729 49.4975 138.808C46.8074 141.498 46.8074 145.802 49.4975 148.492C52.0799 151.075 56.3841 151.075 58.9665 148.277C59.8463 147.397 60.4257 146.318 60.7061 145.175L70.2649 141.498L69.8735 141.107C70.3178 141.351 70.7699 141.589 71.2335 141.821L72.0943 142.252C73.816 143.112 75.8605 142.79 77.2593 141.391L92.1085 126.542L98.4571 132.89C99.6408 134.074 101.578 134.074 102.761 132.89L104.913 130.738C106.097 129.554 106.097 127.618 104.913 126.434L96.3051 117.826L101.56 112.571L110.293 117.61C112.553 118.794 115.243 118.041 116.534 115.889C117.503 114.06 117.288 111.908 115.781 110.401C115.458 110.078 115.243 109.863 114.813 109.648L108.263 105.868L111.782 102.348L120.516 107.388C122.775 108.572 125.466 107.819 126.757 105.667C127.725 103.837 127.51 101.685 126.004 100.179C125.681 99.856 125.358 99.5332 125.035 99.4256L123.001 98.2514L117.503 91.2477C117.288 90.8173 116.75 90.7097 116.427 91.0325C115.996 91.2477 115.889 91.7857 116.212 92.1085L119.422 96.1865L113.026 92.4961L117.072 88.45L117.029 88.4069L131.276 96.6279C133.536 97.8115 136.226 97.0583 137.517 94.9062C138.486 93.077 138.27 90.9249 136.764 89.4185C136.441 89.0956 136.118 88.7728 135.795 88.6652L133.761 87.4911L128.263 80.4874C128.048 80.057 127.51 79.9494 127.187 80.2722C126.757 80.4874 126.649 81.0254 126.972 81.3482L130.182 85.4262L123.787 81.7358L127.844 77.6782L142.036 85.8676C144.296 87.0512 146.986 86.298 148.277 84.1459C149.246 82.3166 149.031 80.1646 147.524 78.6581C147.201 78.3353 146.879 78.0125 146.556 77.9049L145.397 77.236C145.538 77.1588 145.675 77.0638 145.803 76.9365L149.031 73.7084L158.715 83.3927C159.899 84.5763 161.835 84.5763 163.019 83.3927L165.171 81.2406C166.355 80.0568 166.355 78.1199 165.171 76.9363ZM51.4343 146.556C49.8203 144.942 49.8203 142.359 51.4343 140.745C53.0484 139.131 55.6308 139.131 57.2449 140.745C58.8589 142.359 58.8589 144.942 57.2449 146.556C55.6308 148.17 53.0484 148.17 51.4343 146.556ZM66.9292 139.454L60.6707 141.778C60.3788 140.684 59.8122 139.654 58.9665 138.808C58.2465 138.088 57.3924 137.569 56.4791 137.251L58.7513 131.276L58.8724 131.397C59.935 132.89 61.1186 134.289 62.4098 135.58C63.6473 136.817 64.9923 137.947 66.4584 138.983L66.9292 139.454ZM130.738 64.0239L133.966 67.252L131.818 69.4003L127.724 67.038L130.738 64.0239ZM76.7118 98.2325L81.0903 100.759L80.1644 101.685L76.7118 98.2325ZM73.3854 139.454L72.5245 139.023C66.6064 136.118 61.7642 131.276 58.9665 125.25L58.6437 124.712C58.3209 124.174 58.4285 123.421 58.8589 122.99L63.6895 118.16C63.7255 118.264 63.7648 118.368 63.8087 118.471L64.1315 119.009C65.6379 122.237 67.6824 125.143 70.2649 127.725C72.6322 130.092 75.5374 132.137 78.6579 133.751L79.5188 134.181C79.6749 134.248 79.8338 134.304 79.9937 134.352L75.107 139.239C74.6766 139.669 73.9234 139.777 73.3854 139.454ZM81.3449 133.001C80.98 133.018 80.6097 132.951 80.272 132.782L79.4111 132.352C73.3854 129.339 68.4356 124.389 65.5303 118.256L65.2075 117.718C65.0713 117.446 65.0064 117.152 64.9927 116.857L73.7082 108.141L89.9563 124.389L81.3449 133.001ZM100.609 130.738L67.252 97.3809L69.4041 95.2288L102.761 128.586L100.609 130.738ZM94.1528 115.673L82.3164 103.837L83.8195 102.334L98.8304 110.996L94.1528 115.673ZM113.306 112.23C113.414 112.338 113.521 112.445 113.629 112.553C114.059 112.983 114.167 113.737 113.844 114.275C113.414 114.92 112.445 115.243 111.8 114.813L76.1831 94.2604C75.4298 93.9376 75.2146 92.8616 75.645 92.2159C76.0755 91.5703 77.0439 91.2475 77.6895 91.6779L113.306 112.23ZM105.533 104.293L90.5222 95.6313L94.0418 92.1117L109.053 100.774L105.533 104.293ZM124.066 104.052C123.636 104.698 122.668 105.021 122.022 104.59L86.4054 84.0381C85.6521 83.7153 85.4369 82.6392 85.8673 81.9936C86.2978 81.348 87.2662 81.0252 87.9118 81.4556L123.528 102.008C123.636 102.115 123.744 102.223 123.851 102.331C124.282 102.761 124.389 103.514 124.066 104.052ZM110.297 90.9209L106.203 88.5587L110.261 84.5011L114.355 86.8633L110.297 90.9209ZM134.827 93.292C134.396 93.9376 133.428 94.2604 132.782 93.83L97.1657 73.2778C96.5201 72.8474 96.1972 71.8789 96.6277 71.2333C97.0581 70.5877 98.0265 70.2649 98.6721 70.6953L134.289 91.2475C134.396 91.3551 134.504 91.4627 134.612 91.5703C135.042 92.0007 135.15 92.7539 134.827 93.292ZM121.057 80.1606L116.963 77.7984L121.021 73.7408L125.115 76.103L121.057 80.1606ZM145.049 80.4872C145.157 80.5948 145.264 80.7024 145.372 80.81C145.802 81.2404 145.91 81.9936 145.587 82.5316C145.157 83.1773 144.188 83.5001 143.543 83.0697L107.926 62.5174C107.173 62.1946 106.958 61.1186 107.388 60.473C107.818 59.8274 108.787 59.5046 109.432 59.935L145.049 80.4872ZM134.547 70.9752L136.118 69.4041L141.976 75.2623L134.547 70.9752ZM144.726 73.7082L124.282 53.2636L126.434 51.1115L146.878 71.5561L144.726 73.7082ZM160.867 81.2404L150.106 70.4801L127.51 47.8834L116.749 37.1231L118.902 34.971L163.019 79.0883L160.867 81.2404Z" fill="black"/>
</g>
<defs>
<clipPath id="clip0">
<rect width="140" height="140" fill="white" transform="translate(98.9949) rotate(45)"/>
</clipPath>
</defs>
</svg>
