<svg width="199" height="199" viewBox="0 0 199 199" fill="none" xmlns="http://www.w3.org/2000/svg">
<g clip-path="url(#clip0)">
<path d="M120.247 69.4524C120.038 69.243 119.514 69.1383 119.2 69.4524L107.266 79.7116C107.057 79.921 106.952 80.4444 107.266 80.7585C107.58 81.0726 107.999 81.0726 108.313 80.7585L120.247 70.4992C120.457 70.2899 120.561 69.7664 120.247 69.4524Z" fill="black"/>
<path d="M129.145 61.6008C128.831 61.2868 128.413 61.2868 128.099 61.6008L124.435 64.8461C124.225 65.0555 124.121 65.5789 124.435 65.893C124.749 66.207 125.167 66.207 125.481 65.893L129.145 62.6477C129.355 62.4383 129.46 61.9149 129.145 61.6008Z" fill="black"/>
<path d="M131.972 59.1931C131.658 58.8791 131.239 58.8791 130.925 59.1931L130.192 59.9259C129.983 60.1353 129.878 60.6587 130.192 60.9728C130.402 61.1822 130.82 61.1822 131.239 60.9728L131.972 60.24C132.181 60.0306 132.286 59.5072 131.972 59.1931Z" fill="black"/>
<path d="M81.0944 119.492C81.6178 119.807 82.1413 120.121 82.56 120.539C82.9788 120.749 83.3975 120.749 83.6069 120.33C83.8162 119.911 83.8162 119.492 83.3975 119.283C82.8741 118.969 82.56 118.655 82.0366 118.341C81.6178 118.132 81.1991 118.132 80.9897 118.55C80.885 118.864 80.885 119.283 81.0944 119.492Z" fill="black"/>
<path d="M64.868 138.231C64.2399 137.813 63.7164 137.499 63.193 137.184C62.7743 136.975 62.3555 136.975 62.1461 137.394C62.0414 137.708 62.0414 138.127 62.2508 138.336C62.9836 138.859 63.507 139.174 64.0305 139.488C64.4492 139.697 64.868 139.697 65.0773 139.278C65.2867 138.859 65.2867 138.441 64.868 138.231Z" fill="black"/>
<path d="M109.778 121.796L109.502 121.52C109.938 121.303 110.35 121.015 110.721 120.644C111.142 120.223 111.46 119.748 111.682 119.246C112.775 119.747 114.116 119.552 115.013 118.655L120.247 113.421C122.55 111.118 122.55 107.349 120.247 105.046L120.142 104.941L121.189 103.894C122.969 102.115 122.969 99.3927 121.189 97.613L121.115 97.5388L143.488 71.7555C145.909 68.9618 146.34 65.0089 144.637 61.8119L151.025 55.4244C151.444 55.0056 151.548 54.2728 151.339 53.8541L150.816 52.7025C149.769 50.6088 148.094 48.9338 146 48.0963L145.267 47.7823C144.744 47.4682 144.116 47.6776 143.697 48.0963L137.468 54.3254C134.31 52.5508 130.229 52.943 127.366 55.4244L101.47 77.8939L101.299 77.7226C99.5192 75.9429 96.7974 75.9429 95.0177 77.7226L93.9655 78.7748C91.654 76.5766 87.9683 76.6064 85.7006 78.8741L80.4663 84.1085C79.6386 84.9361 79.4092 86.1417 79.7715 87.1824C79.2305 87.4048 78.7187 87.7404 78.2679 88.1912C77.8974 88.5617 77.6087 88.9743 77.3923 89.4094L77.3257 89.3428C76.1741 88.1912 74.2898 88.1912 73.1382 89.3428L68.9508 93.5302C66.6477 95.8333 66.6477 99.6021 68.9508 101.905L72.0913 105.046L51.6775 125.46C50.3166 126.821 49.8978 128.914 50.84 130.694L51.0755 131.086L49.0603 133.102C44.9776 137.184 44.8729 143.989 49.0603 148.177C49.5838 148.7 50.5259 148.805 51.1541 148.177C51.7822 147.548 51.7822 146.711 51.1541 146.083C48.2228 143.152 48.1181 138.231 51.1541 135.195L52.5512 133.798C53.3322 135.104 54.1953 136.35 55.1293 137.537L52.3056 142C51.8869 142.628 51.9915 143.361 52.515 143.884L55.4462 146.816C55.9696 147.339 56.7024 147.444 57.2259 147.13L61.756 144.11C63.504 145.472 65.3695 146.705 67.3807 147.863L68.3228 148.386C70.1025 149.328 72.1962 148.91 73.5572 147.549L94.0757 127.03L97.2163 130.171C99.5194 132.474 103.288 132.474 105.591 130.171L109.779 125.983C110.93 124.831 110.93 122.947 109.778 121.796ZM118.153 111.327L112.919 116.561L110.721 114.363L107.685 111.327L115.013 103.999L117.002 105.988L118.153 107.139C119.305 108.291 119.305 110.175 118.153 111.327ZM113.966 102.952L106.638 110.28L88.8412 92.4834L96.1692 85.1553L113.966 102.952ZM148.512 53.54L148.512 53.7494L142.974 59.2879C142.075 58.1168 141.034 57.0335 139.893 56.0872L145.477 50.5041C146.837 51.2369 147.884 52.2838 148.512 53.54ZM129.46 57.7275C131.658 55.9478 134.694 55.8431 136.892 57.4134L136.997 57.5181C138.672 58.7743 140.242 60.3446 141.498 62.0196L141.813 62.543C143.488 64.8461 143.383 67.8821 141.498 69.9758L119.2 95.624L103.602 80.0257L129.46 57.7275ZM97.1114 79.8163C97.7395 79.1882 98.577 79.1882 99.2051 79.8163L100.357 80.9679L118.153 98.7646L119.096 99.7067C119.724 100.335 119.724 101.172 119.096 101.8L118.049 102.847L96.0645 80.8632L97.1114 79.8163ZM87.7943 80.9679C88.9459 79.8163 90.8302 79.8163 91.9818 80.9679L92.924 81.91L95.1224 84.1085L87.7943 91.4365L84.549 88.1912L82.56 86.2022L87.7943 80.9679ZM80.3616 90.285C80.9897 89.6568 81.8272 89.6568 82.4553 90.285L108.627 116.457C109.255 117.085 109.255 117.922 108.627 118.55C107.999 119.178 107.161 119.178 106.533 118.55L80.3616 92.3787C79.7335 91.7506 79.7335 90.9131 80.3616 90.285ZM78.2679 94.4724L104.439 120.644L107.685 123.889L104.544 127.03L72.0913 94.5771L75.2319 91.4365L78.2679 94.4724ZM84.2491 132.669C83.9432 132.692 83.6234 132.668 83.2928 132.578L82.1413 132.264C74.9179 130.275 68.6367 125.878 64.4492 119.807L64.1352 119.283C63.7886 118.821 63.6342 118.231 63.6702 117.654L65.4808 115.844C65.5983 116.245 65.7774 116.63 66.0195 116.98L66.3336 117.503C67.4851 119.074 68.7414 120.539 70.1023 121.9C74.1851 125.983 79.21 128.914 84.8631 130.589L86.0146 130.903L84.2491 132.669ZM62.34 118.985C62.4575 119.386 62.6364 119.771 62.8787 120.121L63.1928 120.644C64.3443 122.215 65.6006 123.68 66.9615 125.041C71.0443 129.124 76.0692 132.055 81.7223 133.73L82.8738 134.044L81.1083 135.81C80.8024 135.833 80.4826 135.809 80.152 135.719L79.0004 135.405C71.7771 133.416 65.4959 129.019 61.3084 122.947L60.9944 122.424C60.6478 121.962 60.4934 121.372 60.5294 120.795L62.34 118.985ZM87.3897 129.528C87.0838 129.552 86.7638 129.528 86.4334 129.438L85.2818 129.124C78.0585 127.135 71.7773 122.738 67.5898 116.666L67.2758 116.143C66.9292 115.68 66.7748 115.09 66.8108 114.514L68.6214 112.703C68.7389 113.105 68.918 113.489 69.1601 113.839L69.4742 114.363C70.6257 115.933 71.882 117.399 73.2429 118.76C77.3257 122.842 82.3506 125.774 88.0037 127.449L89.1552 127.763L87.3897 129.528ZM59.1994 122.125C59.3169 122.527 59.4959 122.912 59.7381 123.261L60.0522 123.785C61.2038 125.355 62.46 126.821 63.8209 128.182C67.9037 132.264 72.9286 135.196 78.5817 136.871L79.7333 137.185L77.9677 138.95C77.6618 138.974 77.3418 138.95 77.0114 138.86L75.8599 138.546C68.6365 136.557 62.3553 132.16 58.1678 126.088L57.8538 125.564C57.5072 125.102 57.3528 124.512 57.3888 123.936L59.1994 122.125ZM90.5303 126.388C90.2244 126.411 89.9044 126.387 89.574 126.297L88.4224 125.983C81.1991 123.994 74.9179 119.597 70.7304 113.525L70.4164 113.002C70.0698 112.54 69.9154 111.95 69.9514 111.373L71.762 109.563C71.8795 109.964 72.0584 110.349 72.3007 110.699L72.6148 111.222C73.7663 112.793 75.0226 114.258 76.3835 115.619C76.8022 116.038 77.3257 116.352 77.7444 116.98C78.0585 117.294 78.4772 117.294 78.7913 116.98C79.1053 116.666 79.1053 116.247 78.7913 115.933C76.9069 114.258 75.2319 112.374 73.871 110.385L73.557 109.861C73.2104 109.399 73.056 108.809 73.092 108.233L74.1851 107.139L91.9818 124.936L90.5303 126.388ZM56.5977 143.989L55.3415 142.733L57.1707 139.919C57.497 140.269 57.8292 140.614 58.168 140.953C58.585 141.37 59.0121 141.771 59.4441 142.165L56.5977 143.989ZM71.5679 145.35C71.0445 145.873 70.3117 145.978 69.7882 145.664L68.8461 145.141C62.3555 141.581 57.1212 136.347 53.7712 129.856L53.4572 129.333C53.2478 128.705 53.3525 127.972 53.7712 127.553L56.059 125.266C56.1766 125.667 56.3555 126.052 56.5978 126.402L56.9118 126.925C58.0634 128.496 59.3196 129.961 60.6805 131.322C64.7633 135.405 69.7882 138.336 75.4413 140.011L76.5929 140.325L74.7226 142.195C74.4167 142.219 74.097 142.195 73.7663 142.105L72.6148 141.791C70.5211 141.163 68.532 140.43 66.7523 139.488C66.4383 139.383 66.0195 139.383 65.8102 139.802C65.7055 140.116 65.8102 140.43 66.0195 140.639C66.0195 140.639 66.2289 140.639 66.1242 140.953C68.1133 141.895 70.1023 142.628 72.196 143.256L73.3476 143.57L71.5679 145.35ZM99.3098 128.077L71.0445 99.8114C69.8929 98.6599 69.8929 96.7755 71.0445 95.624L103.497 128.077C102.346 129.228 100.461 129.228 99.3098 128.077Z" fill="black"/>
</g>
<defs>
<clipPath id="clip0">
<rect width="140" height="140" fill="white" transform="translate(99.5 0.626343) rotate(45)"/>
</clipPath>
</defs>
</svg>
