<svg width="120" height="120" viewBox="0 0 120 120" fill="none" xmlns="http://www.w3.org/2000/svg">
<path d="M116.398 48.7407L115.805 46.3704C115.361 44.5926 114.027 43.1111 112.25 42.5185L110.324 41.9167V40.5926C110.324 28.2963 100.842 18.5185 88.6941 17.7778C88.546 17.7778 88.546 17.7778 88.3978 17.7778H87.509C87.0645 17.7778 86.7682 17.9259 86.4719 18.2222C84.9268 18.9245 83.783 20.4268 83.6684 22.2222H68.8278C68.6797 19.7008 66.6678 17.7778 64.1016 17.7778H54.0275V3.11111C54.0275 1.33333 52.8423 0 51.0645 0H47.9534C46.3238 0 45.1386 1.03704 44.8423 2.51852L41.7312 20.4444C41.708 20.5842 41.7049 20.7193 41.7159 20.8501C34.9088 24.7998 30.3238 32.1623 30.3238 40.5926V51.8519H25.8793V38.5185C25.8793 37.6296 25.2867 37.037 24.3979 37.037H21.4349C18.9164 37.037 16.9904 38.963 16.9904 41.4815V42.963C16.9904 43.1111 16.9904 43.1111 16.8423 43.1111H11.2127C11.0645 43.1111 11.0645 43.1111 11.0645 42.963V41.4815C11.0645 38.963 9.13859 37.037 6.62007 37.037H3.65711C2.76822 37.037 2.17563 37.6296 2.17563 38.5185V80C2.17563 80.8889 2.76822 81.4815 3.65711 81.4815H7.95341C10.4719 81.4815 12.3979 79.5555 12.3979 77.037V75.7037C12.3979 75.5555 12.3979 75.5556 12.546 75.5556H16.8423C16.9904 75.5556 16.9904 75.5555 16.9904 75.7037V77.037C16.9904 79.5555 18.9164 81.4815 21.4349 81.4815H24.3979C25.2867 81.4815 25.8793 80.8889 25.8793 80V66.6667H30.3238V77.9259C30.3238 85.9259 34.4719 93.4815 41.4349 97.4815C41.5226 97.5341 41.6125 97.577 41.7034 97.6128L44.6941 117.333C44.9904 118.963 46.1756 120 47.8053 120H50.9164C52.6941 120 54.0275 118.667 53.8793 116.889V100.483C54.1189 100.647 54.4196 100.741 54.7682 100.741H64.1016C66.6681 100.741 68.68 98.8177 68.8278 96.2963H83.6684C83.783 98.0917 84.9268 99.594 86.4719 100.296C86.7682 100.593 87.0645 100.741 87.509 100.741H88.3978C88.546 100.741 88.6941 100.741 88.8423 100.741C92.5127 100.514 95.9456 99.4387 98.9456 97.7075L100.546 105.481C100.842 107.111 102.176 108.148 103.657 108.148H107.213C108.99 108.148 110.324 106.815 110.324 105.037V77.9259V77.1852V76.8519L111.953 76.4444C113.879 75.8518 115.361 74.3704 115.805 72.5926L116.25 70.963C118.324 63.7037 118.324 56 116.398 48.7407ZM79.9534 52.7407C80.3979 52.7407 80.6941 52.4444 80.6941 52V25.1852H83.6571V93.3333H68.8423V25.1852H79.2127V52C79.2127 52.4444 79.509 52.7407 79.9534 52.7407ZM47.8053 3.11111C47.8053 2.96296 47.8053 2.96296 47.9534 2.96296H51.0645C51.2127 2.96296 51.2127 2.96296 51.2127 3.11111V17.8649C49.0408 18.0469 46.9557 18.5321 44.9991 19.2807L47.8053 3.11111ZM22.9164 78.5185H21.4349C20.546 78.5185 19.9534 77.9259 19.9534 77.037V75.7037C19.9534 73.9259 18.6201 72.5926 16.8423 72.5926H12.546V61.6296C12.546 61.1852 12.2497 60.8889 11.8053 60.8889C11.3608 60.8889 11.0645 61.1852 11.0645 61.6296V72.943C10.0775 73.4517 9.43489 74.4699 9.43489 75.7037V77.037C9.43489 77.9259 8.8423 78.5185 7.95341 78.5185H5.13859V40H6.62007C7.50896 40 8.10155 40.5926 8.10155 41.4815V42.8148C8.10155 44.5926 9.43489 45.9259 11.2127 45.9259H16.8423C16.8926 45.9259 16.941 45.921 16.9904 45.919V52.7407C16.9904 53.1852 17.2867 53.4815 17.7312 53.4815C18.1756 53.4815 18.4719 53.1852 18.4719 52.7407V45.491C19.3735 44.9595 19.9534 43.985 19.9534 42.8148V41.4815C19.9534 40.5926 20.546 40 21.4349 40H22.9164V53.3333V65.1852V78.5185ZM25.8793 63.7037V54.8148H30.3238V63.7037H25.8793ZM65.8793 96C65.8793 97.037 65.1386 97.7778 64.1016 97.7778H54.7682C54.4196 97.7778 54.1189 97.8715 53.8793 98.0359V94.0741C53.8793 93.1852 53.2867 92.5926 52.3979 92.5926C51.509 92.5926 50.9164 93.1852 50.9164 94.0741V116.889C50.9164 117.037 50.9164 117.037 50.7682 117.037H47.6571C47.6571 117.037 47.509 117.037 47.509 116.889L42.7682 85.6296C42.7682 84.8889 42.0275 84.2963 41.1386 84.4444C40.3979 84.4444 39.8053 85.3333 39.9534 86.0741L41.1018 93.6476C36.2031 89.9285 33.2867 84.103 33.2867 77.9259V65.1852V53.3333V40.5926C33.2867 29.6296 42.1756 20.7407 53.1386 20.7407H64.1016C65.1386 20.7407 65.8793 21.4815 65.8793 22.5185V23.7037V94.8148V96ZM88.2497 97.7778C87.3608 97.6296 86.6201 96.8889 86.6201 96V94.8148V23.7037V22.5185C86.6201 21.6296 87.3608 20.8889 88.2497 20.7407C98.9164 21.1852 107.361 29.7778 107.361 40.5926V77.1852V77.9259C107.361 84.362 104.369 90.0101 99.6996 93.6233C99.6855 93.6256 99.6713 93.6267 99.6571 93.6296C99.1695 93.7109 98.8168 94.0156 98.6209 94.3958C95.6455 96.395 92.0935 97.6175 88.2497 97.7778ZM107.361 104.889C107.361 105.037 107.361 105.037 107.213 105.037H103.657C103.657 105.037 103.509 105.037 103.509 104.889L101.653 95.8764C103.959 94.0616 105.902 91.8105 107.361 89.2393V104.889ZM113.287 70.2222L112.842 71.8519C112.546 72.7407 111.953 73.3333 111.065 73.6296L110.324 73.8273V45.0556L111.213 45.3333C111.953 45.6296 112.546 46.2222 112.842 47.1111L113.435 49.4815C115.361 56.5926 115.213 63.1111 113.287 70.2222Z" fill="black"/>
<path d="M79.9534 69.4814C79.5089 69.4814 79.2126 69.7777 79.2126 70.2222V71.1111C79.2126 71.5555 79.5089 71.8518 79.9534 71.8518C80.3978 71.8518 80.6941 71.5555 80.6941 71.1111V70.2222C80.6941 69.7777 80.3978 69.4814 79.9534 69.4814Z" fill="black"/>
<path d="M79.2126 65.926C79.2126 66.3704 79.5089 66.6667 79.9534 66.6667C80.3978 66.6667 80.6941 66.2223 80.6941 65.926V55.2593C80.6941 54.8149 80.3978 54.5186 79.9534 54.5186C79.5089 54.5186 79.2126 54.8149 79.2126 55.2593V65.926Z" fill="black"/>
<path d="M72.546 79.2593C72.1016 79.2593 71.8053 79.5556 71.8053 80V89.6296C71.8053 90.0741 72.1016 90.3704 72.546 90.3704C72.9904 90.3704 73.2867 89.9259 73.2867 89.6296V80C73.2867 79.5556 72.9904 79.2593 72.546 79.2593Z" fill="black"/>
<path d="M72.546 73.7778C72.1016 73.7778 71.8053 74.0741 71.8053 74.5186V75.5556C71.8053 76.0001 72.1016 76.2964 72.546 76.2964C72.9904 76.2964 73.2867 75.8519 73.2867 75.5556V74.5186C73.2867 74.0741 72.9904 73.7778 72.546 73.7778Z" fill="black"/>
<path d="M17.7312 56.2963C17.2867 56.2963 16.9904 56.5926 16.9904 57.037V64.1481C16.9904 64.5926 17.2867 64.8888 17.7312 64.8888C18.1756 64.8888 18.4719 64.5926 18.4719 64.1481V57.037C18.4719 56.5926 18.1756 56.2963 17.7312 56.2963Z" fill="black"/>
<path d="M11.8053 53.9259C11.3608 53.9259 11.0645 54.2222 11.0645 54.6666V57.3333C11.0645 57.7778 11.3608 58.0741 11.8053 58.0741C12.2497 58.0741 12.546 57.6296 12.546 57.3333V54.6666C12.546 54.2222 12.2497 53.9259 11.8053 53.9259Z" fill="black"/>
<path d="M40.1016 31.2592C40.2497 31.2592 40.3979 31.2592 40.546 31.1111C44.3979 27.4074 49.4349 25.3333 54.7682 25.3333H58.0275C58.4719 25.3333 58.7682 25.037 58.7682 24.5925C58.7682 24.1481 58.4719 23.8518 58.0275 23.8518H54.7682C49.1386 23.8518 43.6571 25.9259 39.509 29.9259C39.2127 30.2222 39.2127 30.6666 39.509 30.9629C39.6571 31.1111 39.9534 31.2592 40.1016 31.2592Z" fill="black"/>
<path d="M58.1756 32.2963H54.9164C49.2867 32.2963 43.9534 34.074 39.8053 37.3333C39.509 37.6296 39.3608 38.074 39.6571 38.3703C39.8053 38.5185 40.1016 38.6666 40.2497 38.6666C40.3979 38.6666 40.546 38.6666 40.6942 38.5185C44.546 35.4074 49.583 33.7777 54.9164 33.7777H58.1756C58.6201 33.7777 58.9164 33.4815 58.9164 33.037C58.9164 32.5926 58.6201 32.2963 58.1756 32.2963Z" fill="black"/>
<path d="M58.1756 40H54.9164C49.1386 40 43.6571 41.1852 39.6571 43.2593C39.3608 43.5556 39.2127 44 39.3608 44.2963C39.3608 44.5926 39.6571 44.7407 39.9534 44.7407C40.1016 44.7407 40.1016 44.7407 40.3979 44.7407C44.2497 42.6667 49.4349 41.4815 54.9164 41.4815H58.1756C58.6201 41.4815 58.9164 41.1852 58.9164 40.7407C58.9164 40.2963 58.6201 40 58.1756 40Z" fill="black"/>
<path d="M58.1756 48.8889H54.9164C49.2867 48.8889 43.9534 49.3334 39.9534 50.2222C39.5089 50.3704 39.2127 50.6667 39.3608 51.1111C39.509 51.4074 39.8052 51.7037 40.1015 51.7037H40.2497C44.2497 50.8148 49.4349 50.3704 54.9164 50.3704H58.1756C58.6201 50.3704 58.9164 50.0741 58.9164 49.6297C58.9164 49.1852 58.6201 48.8889 58.1756 48.8889Z" fill="black"/>
<path d="M58.1756 82.8148H54.9164C49.4349 82.8148 44.3979 81.037 40.546 77.9259C40.2497 77.7778 39.8053 77.7778 39.509 78.0741C39.3608 78.3704 39.3608 78.8148 39.6571 79.1111C43.8053 82.5185 49.1386 84.2963 54.9164 84.2963H58.1756C58.6201 84.2963 58.9164 84 58.9164 83.5556C58.9164 83.1111 58.6201 82.8148 58.1756 82.8148Z" fill="black"/>
<path d="M54.9164 77.037H58.1756C58.6201 77.037 58.7682 76.7407 58.7682 76.2963C58.7682 75.8518 58.4719 75.5555 58.0275 75.5555H54.7682C49.2867 75.5555 44.1015 74.3704 40.2497 72.2963C39.8053 72.1481 39.3608 72.2963 39.2127 72.5926C39.0645 73.037 39.2127 73.4815 39.6571 73.6296C43.8053 75.8518 49.1386 77.037 54.9164 77.037Z" fill="black"/>
<path d="M58.1756 66.6667H54.9164C49.4349 66.6667 44.2497 66.2223 40.2497 65.3334C39.8053 65.3334 39.509 65.4815 39.3608 65.926C39.3608 66.3704 39.509 66.6667 39.9534 66.8149C43.9534 67.7038 49.2867 68.1482 54.9164 68.1482H58.1756C58.6201 68.1482 58.9164 67.8519 58.9164 67.4075C58.9164 66.963 58.6201 66.6667 58.1756 66.6667Z" fill="black"/>
<path d="M58.1756 57.7778H40.1015C39.6571 57.7778 39.3608 58.0741 39.3608 58.5186C39.3608 58.963 39.6571 59.2593 40.1015 59.2593H58.1756C58.6201 59.2593 58.9164 58.963 58.9164 58.5186C58.9164 58.0741 58.6201 57.7778 58.1756 57.7778Z" fill="black"/>
<path d="M90.9163 25.6296C95.2126 26.2222 98.9163 28.1482 102.027 31.1111C102.176 31.2593 102.324 31.2593 102.472 31.2593C102.62 31.2593 102.916 31.2593 103.065 31.1111C103.361 30.8148 103.361 30.3704 103.065 30.0741C99.8052 26.8148 95.6571 24.8889 91.2126 24.1482C90.7682 24 90.3238 24.2963 90.3238 24.7407C90.1756 25.1852 90.4719 25.6296 90.9163 25.6296Z" fill="black"/>
<path d="M102.916 85.037C102.62 84.7407 102.176 84.7407 101.879 85.037C98.9164 88 95.0645 89.9259 90.9164 90.5185C90.4719 90.6667 90.3238 90.963 90.3238 91.4074C90.3238 91.7037 90.7682 92 91.0645 92C95.6571 91.2593 99.6571 89.1852 102.916 86.0741C103.213 85.7778 103.213 85.3333 102.916 85.037Z" fill="black"/>
<path d="M90.7682 33.7778C94.9164 34.3704 98.7682 35.8519 101.879 38.3704C102.027 38.5186 102.176 38.5186 102.324 38.5186C102.62 38.5186 102.768 38.3704 103.065 38.2223C103.361 37.926 103.213 37.4815 102.916 37.1852C99.6571 34.5186 95.5089 32.8889 91.0645 32.2964C90.6201 32.1482 90.1756 32.4445 90.1756 32.8889C90.0275 33.3334 90.3238 33.7778 90.7682 33.7778Z" fill="black"/>
<path d="M102.916 43.5555C99.509 41.7777 95.3608 40.7407 90.9164 40.2963C90.6201 40.2963 90.1756 40.5926 90.1756 41.037C90.1756 41.3333 90.4719 41.7777 90.9164 41.7777C95.2127 42.2222 99.2127 43.2592 102.324 44.8889C102.324 45.037 102.472 45.037 102.62 45.037C102.916 45.037 103.213 44.8889 103.213 44.5926C103.361 44.1481 103.213 43.7037 102.916 43.5555Z" fill="black"/>
<path d="M102.62 49.9259C99.3608 49.1851 95.3608 48.7407 91.0645 48.5925C90.6201 48.5925 90.3238 48.8888 90.3238 49.3333C90.3238 49.7777 90.6201 50.074 91.0645 50.074C95.3608 50.2222 99.2127 50.6666 102.324 51.4073H102.472C102.768 51.4073 103.065 51.111 103.213 50.8147C103.213 50.3703 103.065 50.074 102.62 49.9259Z" fill="black"/>
<path d="M90.9164 84.4444C95.509 83.8518 99.6571 82.0741 102.768 79.5556C103.065 79.2593 103.213 78.8148 102.916 78.5185C102.62 78.2222 102.176 78.0741 101.879 78.3704C98.7682 80.7407 94.9164 82.3704 90.7682 82.963C90.4719 83.1111 90.1756 83.4074 90.1756 83.8518C90.1756 84.1481 90.6201 84.4444 90.9164 84.4444Z" fill="black"/>
<path d="M102.324 71.7036C99.2127 73.3333 95.3608 74.5184 91.0645 74.8147C90.6201 74.8147 90.3238 75.111 90.3238 75.5555C90.3238 75.9999 90.6201 76.2962 91.0645 76.2962C95.6571 75.8518 99.6571 74.8147 103.065 73.037C103.361 72.7407 103.509 72.2962 103.361 71.9999C103.065 71.7036 102.62 71.5555 102.324 71.7036Z" fill="black"/>
<path d="M90.9164 68.1481C95.3608 68 99.3608 67.5556 102.62 66.8148C103.065 66.6667 103.361 66.3704 103.213 65.9259C103.065 65.4815 102.768 65.1852 102.324 65.3333C99.2127 66.0741 95.2127 66.5185 90.9164 66.6667C90.4719 66.6667 90.1756 66.963 90.1756 67.4074C90.1756 67.8518 90.4719 68.1481 90.9164 68.1481Z" fill="black"/>
<path d="M91.0645 57.7778C90.7682 57.7778 90.3238 58.0741 90.3238 58.5186C90.3238 58.963 90.6201 59.2593 91.0645 59.2593H102.472C102.916 59.2593 103.213 58.963 103.213 58.5186C103.213 58.0741 102.916 57.7778 102.472 57.7778H91.0645Z" fill="black"/>
</svg>
