<?xml version="1.0" encoding="utf-8"?>
<!-- Generator: Adobe Illustrator 23.0.6, SVG Export Plug-In . SVG Version: 6.00 Build 0)  -->
<svg version="1.1" id="Layer_1" xmlns="http://www.w3.org/2000/svg" xmlns:xlink="http://www.w3.org/1999/xlink" x="0px" y="0px"
	 viewBox="0 0 111.5 105" style="enable-background:new 0 0 111.5 105;" xml:space="preserve">
<style type="text/css">
	.st0{display:none;}
	.st1{display:inline;}
	.st2{clip-path:url(#SVGID_2_);}
	.st3{fill:#3E64FF;}
</style>
<g class="st0">
	<g class="st1">
		<defs>
			
				<rect id="SVGID_1_" x="-13" y="-15.9" transform="matrix(0.7071 -0.7071 0.7071 0.7071 -21.5566 56.1533)" width="140" height="140"/>
		</defs>
		<clipPath id="SVGID_2_">
			<use xlink:href="#SVGID_1_"  style="overflow:visible;"/>
		</clipPath>
		<g class="st2">
			<path d="M77.7,23.9c-0.2-0.2-0.7-0.3-1,0L64.8,34.2c-0.2,0.2-0.3,0.7,0,1s0.7,0.3,1,0L77.7,25C78,24.8,78.1,24.2,77.7,23.9z"/>
			<path d="M86.6,16.1c-0.3-0.3-0.7-0.3-1,0l-3.7,3.2c-0.2,0.2-0.3,0.7,0,1s0.7,0.3,1,0l3.7-3.2C86.9,16.9,87,16.4,86.6,16.1z"/>
			<path d="M89.5,13.7c-0.3-0.3-0.7-0.3-1,0l-0.7,0.7c-0.2,0.2-0.3,0.7,0,1c0.2,0.2,0.6,0.2,1,0l0.7-0.7
				C89.7,14.5,89.8,14,89.5,13.7z"/>
			<path d="M38.6,74c0.5,0.3,1,0.6,1.5,1c0.4,0.2,0.8,0.2,1-0.2c0.2-0.4,0.2-0.8-0.2-1c-0.5-0.3-0.8-0.6-1.4-0.9
				c-0.4-0.2-0.8-0.2-1,0.2C38.4,73.3,38.4,73.8,38.6,74z"/>
			<path d="M22.4,92.7c-0.6-0.4-1.2-0.7-1.7-1c-0.4-0.2-0.8-0.2-1,0.2c-0.1,0.3-0.1,0.7,0.1,0.9c0.7,0.5,1.3,0.8,1.8,1.2
				c0.4,0.2,0.8,0.2,1-0.2C22.8,93.3,22.8,92.9,22.4,92.7z"/>
			<path d="M67.3,76.3L67,76c0.4-0.2,0.8-0.5,1.2-0.9c0.4-0.4,0.7-0.9,1-1.4c1.1,0.5,2.4,0.3,3.3-0.6l5.2-5.2c2.3-2.3,2.3-6.1,0-8.4
				l-0.1-0.1l1-1c1.8-1.8,1.8-4.5,0-6.3V52L101,26.2c2.4-2.8,2.9-6.7,1.1-9.9l6.4-6.4c0.4-0.4,0.5-1.2,0.3-1.6l-0.5-1.2
				c-1-2.1-2.7-3.8-4.8-4.6l-0.7-0.3c-0.5-0.3-1.2-0.1-1.6,0.3L95,8.8C91.8,7,87.7,7.4,84.9,9.9L59,32.4l-0.2-0.2
				c-1.8-1.8-4.5-1.8-6.3,0l-1.1,1.1c-2.3-2.2-6-2.2-8.3,0.1L38,38.6c-0.8,0.8-1.1,2-0.7,3.1c-0.5,0.2-1.1,0.6-1.5,1
				s-0.7,0.8-0.9,1.2l-0.1-0.1c-1.2-1.2-3-1.2-4.2,0L26.5,48c-2.3,2.3-2.3,6.1,0,8.4l3.1,3.1L9.2,79.9c-1.4,1.4-1.8,3.5-0.8,5.2
				l0.2,0.4l-2,2c-4.1,4.1-4.2,10.9,0,15.1c0.5,0.5,1.5,0.6,2.1,0c0.6-0.6,0.6-1.5,0-2.1c-2.9-2.9-3-7.9,0-10.9l1.4-1.4
				c0.8,1.3,1.6,2.6,2.6,3.7l-2.8,4.5c-0.4,0.6-0.3,1.4,0.2,1.9l2.9,2.9c0.5,0.5,1.3,0.6,1.8,0.3l4.5-3c1.7,1.4,3.6,2.6,5.6,3.8
				l0.9,0.5c1.8,0.9,3.9,0.5,5.2-0.8l20.5-20.5l3.1,3.1c2.3,2.3,6.1,2.3,8.4,0l4.2-4.2C68.4,79.3,68.4,77.4,67.3,76.3z M75.7,65.8
				L70.4,71l-2.2-2.2l-3-3l7.3-7.3l2,2l1.2,1.2C76.8,62.8,76.8,64.6,75.7,65.8z M71.5,57.4l-7.3,7.3L46.3,47l7.3-7.3L71.5,57.4z
				 M106,8v0.2l-5.5,5.5c-0.9-1.2-1.9-2.3-3.1-3.2L103,5C104.3,5.7,105.4,6.8,106,8z M87,12.2c2.2-1.8,5.2-1.9,7.4-0.3l0.1,0.1
				c1.7,1.3,3.2,2.8,4.5,4.5l0.3,0.5c1.7,2.3,1.6,5.3-0.3,7.4L76.7,50.1L61.1,34.5L87,12.2z M54.6,34.3c0.6-0.6,1.5-0.6,2.1,0
				l1.2,1.2l17.8,17.8l0.9,0.9c0.6,0.6,0.6,1.5,0,2.1l-1,1l-22-22L54.6,34.3z M45.3,35.4c1.2-1.2,3-1.2,4.2,0l0.9,0.9l2.2,2.2
				l-7.3,7.3L42,42.7l-2-2L45.3,35.4z M37.9,44.8c0.6-0.6,1.5-0.6,2.1,0L66.2,71c0.6,0.6,0.6,1.5,0,2.1s-1.5,0.6-2.1,0L37.9,46.8
				C37.2,46.2,37.2,45.4,37.9,44.8z M35.8,48.9L62,75.1l3.2,3.2L62,81.5L29.6,49l3.1-3.1L35.8,48.9z M41.7,87.1c-0.3,0-0.6,0-1-0.1
				l-1.2-0.3c-7.2-2-13.5-6.4-17.7-12.5l-0.3-0.5c-0.3-0.5-0.5-1.1-0.5-1.6l1.8-1.8c0.1,0.4,0.3,0.8,0.5,1.1l0.3,0.5
				c1.2,1.6,2.4,3,3.8,4.4c4.1,4.1,9.1,7,14.8,8.7l1.2,0.3L41.7,87.1z M19.8,73.5c0.1,0.4,0.3,0.8,0.5,1.1l0.3,0.5
				c1.2,1.6,2.4,3,3.8,4.4c4.1,4.1,9.1,7,14.8,8.7l1.2,0.3l-1.8,1.8c-0.3,0-0.6,0-1-0.1l-1.2-0.3c-7.2-2-13.5-6.4-17.7-12.5
				l-0.3-0.5c-0.3-0.5-0.5-1.1-0.5-1.6L19.8,73.5z M44.9,84c-0.3,0-0.6,0-1-0.1l-1.2-0.3c-7.2-2-13.5-6.4-17.7-12.5l-0.3-0.5
				c-0.3-0.5-0.5-1.1-0.5-1.6l1.8-1.8c0.1,0.4,0.3,0.8,0.5,1.1l0.3,0.5c1.2,1.6,2.4,3,3.8,4.4c4.1,4.1,9.1,7,14.8,8.7l1.2,0.3
				L44.9,84z M16.7,76.6c0.1,0.4,0.3,0.8,0.5,1.1l0.3,0.5c1.2,1.6,2.4,3,3.8,4.4c4.1,4.1,9.1,7,14.8,8.7l1.2,0.3l-1.8,1.8
				c-0.3,0-0.6,0-1-0.1L33.4,93c-7.2-2-13.5-6.4-17.7-12.5L15.4,80c-0.3-0.5-0.5-1.1-0.5-1.6L16.7,76.6z M48,80.9
				c-0.3,0-0.6,0-1-0.1l-1.2-0.3c-7.2-2-13.5-6.4-17.7-12.5l-0.3-0.5c-0.3-0.5-0.5-1.1-0.5-1.6l1.8-1.8c0.1,0.4,0.3,0.8,0.5,1.1
				l0.3,0.5c1.2,1.6,2.4,3,3.8,4.4c0.4,0.4,0.9,0.7,1.4,1.4c0.3,0.3,0.7,0.3,1,0s0.3-0.7,0-1c-1.9-1.7-3.6-3.6-4.9-5.5l-0.3-0.5
				c-0.3-0.5-0.5-1.1-0.5-1.6l1.1-1.1l17.8,17.8L48,80.9z M14.1,98.5l-1.3-1.3l1.8-2.8c0.3,0.3,0.7,0.7,1,1c0.4,0.4,0.8,0.8,1.3,1.2
				L14.1,98.5z M29.1,99.8c-0.5,0.5-1.3,0.6-1.8,0.3l-0.9-0.5c-6.5-3.6-11.7-8.8-15.1-15.3L11,83.8c-0.2-0.6-0.1-1.4,0.3-1.8
				l2.3-2.3c0.1,0.4,0.3,0.8,0.5,1.1l0.3,0.5c1.2,1.6,2.4,3,3.8,4.4c4.1,4.1,9.1,7,14.8,8.7l1.2,0.3l-1.9,1.9c-0.3,0-0.6,0-1-0.1
				l-1.2-0.3C28,95.6,26,94.9,24.3,94c-0.3-0.1-0.7-0.1-0.9,0.3c-0.1,0.3,0,0.6,0.2,0.8c0,0,0.2,0,0.1,0.3c2,0.9,4,1.7,6.1,2.3
				L31,98L29.1,99.8z M56.8,82.5L28.5,54.3c-1.2-1.2-1.2-3,0-4.2L61,82.5C59.8,83.7,58,83.7,56.8,82.5z"/>
		</g>
	</g>
</g>
<path class="st3" d="M57.5,2.5C30.2,2.5,7.9,25.2,7.9,53.3S30.2,104,57.5,104S107,81.3,107,53.3S84.8,2.5,57.5,2.5z M69.4,92.2
	c-0.2,0.1-0.5,0.1-0.7,0.1c-1.1,0-2.2-0.8-2.4-1.9l-1.2-6.2c-0.2-0.7-0.7-1.3-1.3-1.7l1.9-15.7c3.5-2.3,5.9-5.8,6.9-9.8l13.8-5.6
	c0.4,0.5,1.1,0.9,1.8,0.9h0.1l6.4-0.4h0.1c1.3,0,2.5,1.2,2.4,2.5C96.1,72.7,84.8,87.2,69.4,92.2z M71,55.1c-0.4,0.1-0.6,0.5-0.7,0.8
	c-0.7,3.7-3,7.1-6.3,9.1c-0.4,0.1-0.6,0.5-0.6,0.8l-2.1,16.4h-7.7l-2-16.4c-0.1-0.4-0.2-0.6-0.6-0.8c-3.4-1.9-5.7-5.3-6.4-9.2
	c-0.1-0.4-0.4-0.7-0.7-0.8l-14.1-5.8l2.1-7.6l15.8,2.2c0.4,0,0.7-0.1,1-0.4c2.4-2.3,5.6-3.6,8.9-3.6c3.4,0,6.6,1.3,9.1,3.7
	c0.2,0.2,0.5,0.4,0.8,0.4c0,0,0.1,0,0.1-0.1l15.9-2.2l2.1,7.6L71,55.1z M27,52.3c0.7,0,1.4-0.3,1.8-0.9l13.4,5.5
	c1,4,3.4,7.5,6.9,9.8l2,15.8c-0.7,0.3-1.2,1-1.4,1.7l-1.2,6.2c-0.2,1.2-1.2,1.9-2.4,1.9c-0.2,0-0.5,0-0.7-0.1
	c-15.3-5-26.7-19.3-27.7-37.8c-0.1-1.5,1.1-2.5,2.4-2.5h0.1l6.6,0.5L27,52.3L27,52.3z M84.3,37.5c-0.7,0.3-1.1,0.9-1.3,1.6
	l-15.3,2.1c-2.9-2.5-6.5-4-10.3-4c-3.9,0-7.4,1.4-10.3,4L32,39.1c-0.2-0.7-0.6-1.3-1.2-1.6L25,34.6c-1.3-0.6-1.7-2.3-1-3.5
	c7.1-11.2,19.5-18.7,33.5-18.7S84,19.9,91,31.1c0.7,1.2,0.2,2.8-1,3.5L84.3,37.5z M57.5,10c-0.8,0-1.6,0-2.4,0.1V5
	c0.8,0,1.6-0.1,2.4-0.1c0.8,0,1.6,0,2.4,0.1v5.1C59.1,10,58.3,10,57.5,10z M57.5,101.6c-26,0-47.1-21.6-47.1-48.3
	C10.3,27.8,29.6,7,53.8,5.1v5.1c-13,1.1-24.7,8.3-31.9,19.7c-0.7,1.2-1,2.5-0.6,3.9c0.4,1.3,1.3,2.4,2.5,3l5.9,2.9L27,49.6
	c0,0.1-0.1,0.2-0.1,0.3l-6.6-0.5c-0.1,0-0.2,0-0.4,0c-1.2,0-2.5,0.5-3.3,1.4c0.1-1.1,0.2-2.1,0.3-3.2c0.1-0.4-0.1-0.7-0.5-0.7
	c-0.4-0.1-0.7,0.1-0.7,0.5c-0.2,1.7-0.3,3.6-0.4,5.3C15.1,53.3,15,54,15,54.6C16.4,73.3,28,89,44.8,94.5c0.5,0.1,1,0.2,1.5,0.2
	c2.3,0,4.4-1.7,4.7-3.9l1.2-6.1c0.1,0,0.2,0.1,0.4,0.1c0,0,0.1,0,0.1-0.1h10l1.2,6.2c0.3,1.4,1.1,2.6,2.3,3.2
	c-1.3,0.3-2.6,0.5-3.9,0.6c-0.2,0.1-0.5,0.4-0.5,0.7c0,0.2,0.4,0.5,0.6,0.5c2.1-0.2,4.1-0.6,6.1-1.2c0,0,0,0,0.1,0
	c0.5,0,1-0.1,1.5-0.2C87,89,98.6,73.4,99.6,54.6c0.1-1.3-0.4-2.7-1.3-3.6c-1-1-2.2-1.6-3.5-1.6c-0.1,0-0.2,0-0.4,0L88,49.7l-2.5-9.3
	c0-0.1,0-0.3,0-0.4c0-0.2-0.1-0.4-0.1-0.5l5.6-2.7c1.2-0.6,2.2-1.7,2.5-3v-0.1c1.1,2,1.9,4.1,2.6,6.3c0.1,0.2,0.4,0.4,0.6,0.4
	c0.1,0,0.1,0,0.2,0c0.2-0.1,0.5-0.4,0.4-0.7c-1.1-3.1-2.4-5.9-4-8.7c-0.1-0.3-0.3-0.7-0.5-1c-7-11.4-18.7-18.6-31.8-19.8V5.1
	c24.3,1.9,43.5,22.7,43.5,48.2C104.6,80,83.4,101.6,57.5,101.6z"/>
<path class="st3" d="M62.2,53.4c0-2.5-2.2-4.7-4.7-4.7s-4.7,2.2-4.7,4.7s2.1,4.7,4.7,4.7C60.1,58.1,62.2,55.9,62.2,53.4z M57.5,57.2
	c-2.1,0-3.7-1.7-3.7-3.9c0-2.1,1.7-3.9,3.7-3.9s3.7,1.7,3.7,3.9S59.5,57.2,57.5,57.2z"/>
<path class="st3" d="M54.2,59.1L54.2,59.1c-0.9-0.7-2-0.3-2.5,0.5c-0.6,1-0.2,2.1,0.6,2.5l0.1,0.1c0.4,0.1,0.6,0.2,1,0.2
	c0.6,0,1.2-0.4,1.5-0.8C55.4,60.6,55.1,59.5,54.2,59.1z"/>
<path class="st3" d="M53.2,47.8c0.4,0,0.7-0.1,1-0.2l0.1-0.1c0.8-0.6,1.1-1.7,0.6-2.5c-0.6-0.8-1.7-1.1-2.5-0.6l-0.1,0.1
	c-0.8,0.6-1.1,1.7-0.6,2.5C52,47.5,52.6,47.8,53.2,47.8z"/>
<path class="st3" d="M60.7,47.6c0.4,0.1,0.6,0.2,1,0.2c0.6,0,1.2-0.4,1.5-0.8c0.5-1,0.2-2.1-0.6-2.5l-0.1-0.1
	c-0.8-0.5-1.9-0.1-2.4,0.7C59.5,45.9,59.9,47.1,60.7,47.6z"/>
<path class="st3" d="M65.8,51.2c-1,0-1.8,0.8-1.8,1.8c0,0.1,0,0.2,0,0.2c0,1.1,0.8,1.8,1.8,1.8s1.8-0.8,1.8-1.9c0-0.1,0-0.1,0-0.1
	C67.6,52,66.8,51.2,65.8,51.2z"/>
<path class="st3" d="M49.1,51.3c-1,0-1.8,0.8-1.8,1.8v0.2c0,1,0.8,1.8,1.8,1.8c1.1,0,1.8-0.8,1.8-1.9v-0.1
	C50.9,52.2,50.1,51.3,49.1,51.3z"/>
<path class="st3" d="M60.7,58.9L60.7,58.9c-0.9,0.6-1.2,1.7-0.7,2.5c0.4,0.5,1,0.8,1.6,0.8c0.4,0,0.7,0,1.1-0.2
	c0.8-0.6,1.1-1.7,0.6-2.5C62.7,58.7,61.6,58.4,60.7,58.9z"/>
<path class="st3" d="M17.5,42.4h0.1c0.2,0,0.5-0.2,0.6-0.4l0.1-0.4c0.1-0.2,0-0.6-0.4-0.7c-0.2-0.1-0.6,0-0.7,0.4l-0.1,0.4
	C17,41.9,17.1,42.3,17.5,42.4z"/>
<path class="st3" d="M16.7,45.9c0.4,0,0.6-0.2,0.6-0.6c0-0.4,0.1-0.8,0.2-1.3c0-0.4-0.1-0.6-0.5-0.7c-0.4,0-0.6,0.1-0.7,0.5
	c0,0.5-0.1,1-0.2,1.5C16.1,45.5,16.3,45.8,16.7,45.9z"/>
<path class="st3" d="M53.4,94.7l-0.6-0.1c-0.4-0.1-0.7,0.1-0.7,0.5c-0.1,0.4,0.1,0.7,0.5,0.7l0.7,0.1c0.4,0,0.6-0.1,0.6-0.6
	C54,95.1,53.7,94.7,53.4,94.7z"/>
<path class="st3" d="M58.6,94.9c-1,0-1.9,0-2.9,0c-0.4,0-0.6,0.2-0.6,0.6s0.2,0.6,0.6,0.6c0.6,0,1.2,0,1.8,0c0.4,0,0.7,0,1.1,0
	c0.4,0,0.6-0.2,0.6-0.6C59.2,95.2,58.9,94.9,58.6,94.9z"/>
<path class="st3" d="M98.2,42.3c-0.1-0.4-0.4-0.6-0.7-0.5c-0.4,0.1-0.6,0.4-0.5,0.7c0.1,0.5,0.2,1.1,0.4,1.6
	c0.1,0.2,0.4,0.5,0.6,0.5c0,0,0,0,0.1,0c0.4-0.1,0.6-0.4,0.5-0.7C98.4,43.3,98.3,42.7,98.2,42.3z"/>
</svg>
