<svg width="120" height="120" viewBox="0 0 120 120" fill="none" xmlns="http://www.w3.org/2000/svg">
<path d="M60 0C27.7143 0 1.42859 26.8571 1.42859 60C1.42859 93.1429 27.7143 120 60 120C92.2857 120 118.571 93.1429 118.571 60C118.571 26.8571 92.2857 0 60 0ZM74.1429 106C73.8572 106.143 73.5715 106.143 73.2857 106.143C72 106.143 70.7143 105.143 70.4286 103.857L69 96.5714C68.8086 95.7095 68.2308 94.978 67.4409 94.5879L69.7143 76C73.8572 73.2857 76.7143 69.1429 77.8572 64.4286L94.1203 57.8426C94.639 58.4757 95.4297 58.8571 96.2855 58.8571H96.4283L104 58.4286H104.143C105.714 58.4286 107.143 59.8571 107 61.4286C105.714 83 92.2858 100.143 74.1429 106ZM76 62.1429C75.5715 62.2857 75.2858 62.7143 75.1429 63.1429C74.2858 67.5714 71.5715 71.5714 67.7143 73.8571C67.2857 74 67 74.4286 67 74.8571L64.5715 94.2857H55.4119L53 74.8571C52.8572 74.4286 52.7143 74.1429 52.2857 73.8571C48.2857 71.5714 45.5715 67.5714 44.7143 63C44.5715 62.5714 44.2857 62.1429 43.8572 62L27.1351 55.1775L29.6038 46.1607L48.2855 48.7143C48.714 48.7143 49.1426 48.5714 49.4283 48.2857C52.2855 45.5714 55.9997 44 59.9997 44C63.9998 44 67.8569 45.5714 70.714 48.4286C70.9997 48.7143 71.2855 48.8571 71.714 48.8571C71.714 48.8571 71.8569 48.8571 71.8569 48.7143L90.6811 46.1596L93.156 55.1987L76 62.1429ZM24 58.8571C24.8636 58.8571 25.6613 58.4693 26.1797 57.8256L42 64.2857C43.1429 69 46 73.1429 50.1429 75.8571L52.5274 94.5357C51.6805 94.9099 51.0575 95.6696 50.8572 96.5714L49.4286 103.857C49.1429 105.286 48 106.143 46.5715 106.143C46.2857 106.143 46 106.143 45.7143 106C27.5714 100.143 14.1429 83.1429 13 61.2857C12.8572 59.5714 14.2857 58.2857 15.8572 58.2857H16L23.8572 58.8571H24ZM91.7143 41.4286C90.8856 41.7969 90.3558 42.522 90.197 43.3348L72.1429 45.8571C68.7143 42.8571 64.4286 41.1429 60 41.1429C55.4286 41.1429 51.2857 42.8571 47.8572 45.8571L29.9883 43.3234C29.8011 42.5151 29.3047 41.7952 28.5714 41.4286L21.5714 38C20 37.2857 19.5714 35.2857 20.4286 33.8571C28.8572 20.5714 43.4286 11.7143 60 11.7143C76.5715 11.7143 91.2858 20.5714 99.5715 33.8571C100.429 35.2857 99.8572 37.1429 98.4286 38L91.7143 41.4286ZM60 8.85714C59.043 8.85714 58.0907 8.88867 57.1429 8.94364V2.93136C58.0893 2.88225 59.0419 2.85714 60 2.85714C60.9582 2.85714 61.9107 2.88198 62.8572 2.93136V8.94392C61.9096 8.88895 60.9573 8.85714 60 8.85714ZM60 117.143C29.2857 117.143 4.28573 91.5714 4.28573 60C4.28573 29.9107 26.9936 5.27121 55.7143 3.02427V9.04799C40.3865 10.3806 26.4997 18.817 18 32.2857C17.1429 33.7143 16.8572 35.2857 17.2857 36.8571C17.7143 38.4286 18.8572 39.7143 20.2857 40.4286L27.2857 43.8571L24.089 55.5321C24.038 55.6387 24.0039 55.7472 23.9866 55.8563L16.1429 55.286C16 55.286 15.8572 55.286 15.7143 55.286C14.2603 55.286 12.8075 55.8982 11.8064 56.8948C11.8773 55.6443 11.9866 54.3937 12.1429 53.1431C12.2857 52.7146 12 52.286 11.5714 52.286C11.1429 52.1431 10.7143 52.4289 10.7143 52.8574C10.4579 54.909 10.3228 57.0706 10.2966 59.1459C10.0343 59.8722 9.92915 60.6507 10 61.4289C11.4286 83.7146 25.1429 102.286 45 108.715C45.5715 108.857 46.1429 109 46.7143 109C49.4286 109 51.8572 107 52.2857 104.429L53.7023 97.2051C53.841 97.2547 53.9878 97.286 54.1429 97.286C54.1429 97.286 54.2857 97.286 54.2857 97.1431H66.1429L67.5715 104.429C67.9239 106.103 68.93 107.449 70.2849 108.237C68.7788 108.566 67.2537 108.819 65.7143 109C65.4286 109.143 65.1429 109.429 65.1429 109.857C65.1429 110.143 65.5715 110.429 65.8572 110.429C68.2947 110.15 70.6981 109.667 73.0676 108.997C73.0929 108.997 73.1175 109 73.1429 109C73.7143 109 74.2857 108.857 74.8572 108.715C94.8572 102.286 108.571 83.8574 109.857 61.5717C110 60.0003 109.429 58.4289 108.286 57.286C107.143 56.1431 105.714 55.4289 104.143 55.4289C104 55.4289 103.857 55.4289 103.714 55.4289L96.1429 55.8574L93.1401 44.8909C93.1697 44.7366 93.173 44.5798 93.1429 44.4289C93.1429 44.1953 93.0776 43.9841 92.9707 43.8019L99.5715 40.5717C101 39.8574 102.143 38.5717 102.571 37.0003C102.583 36.9562 102.593 36.9116 102.604 36.8672C103.847 39.2581 104.897 41.7427 105.714 44.286C105.857 44.5717 106.143 44.7146 106.429 44.7146C106.571 44.7146 106.571 44.7146 106.714 44.7146C107 44.5717 107.286 44.286 107.143 43.8574C105.899 40.2497 104.329 36.8588 102.435 33.5901C102.288 33.1783 102.095 32.7866 101.857 32.4289C93.6133 18.9503 79.7344 10.392 64.2857 9.04827V3.02427C93.0064 5.27121 115.714 29.9107 115.714 60C115.714 91.5714 90.7143 117.143 60 117.143Z" fill="black"/>
<path d="M65.5714 60.1428C65.5714 57.1428 63 54.5714 60 54.5714C57 54.5714 54.4286 57.1428 54.4286 60.1428C54.4286 63.1428 56.8571 65.7143 60 65.7143C63.1428 65.7143 65.5714 63.1428 65.5714 60.1428ZM60 64.7143C57.5714 64.7143 55.5714 62.7143 55.5714 60.1428C55.5714 57.7143 57.5714 55.5714 60 55.5714C62.4286 55.5714 64.4286 57.5714 64.4286 60.1428C64.4286 62.7143 62.4286 64.7143 60 64.7143Z" fill="black"/>
<path d="M56.1429 66.8572L56.0001 66.7143C55.0001 66 53.7144 66.4286 53.1429 67.4286C52.4286 68.5715 52.8572 69.8572 53.8572 70.4286L54.0001 70.5715C54.4287 70.7143 54.7144 70.8572 55.1429 70.8572C55.8572 70.8572 56.5715 70.4286 56.8572 69.8572C57.5715 68.7143 57.1429 67.4286 56.1429 66.8572Z" fill="black"/>
<path d="M55.0001 53.5716C55.4286 53.5716 55.8572 53.4287 56.1429 53.2858L56.2858 53.143C57.2858 52.4287 57.5715 51.143 57.0001 50.143C56.2858 49.143 55.0001 48.8573 54.0001 49.4287L53.8572 49.5715C52.8572 50.2858 52.5715 51.5716 53.1429 52.5716C53.5715 53.143 54.2858 53.5716 55.0001 53.5716Z" fill="black"/>
<path d="M63.8572 53.2857C64.2858 53.4286 64.5715 53.5714 65.0001 53.5714C65.7143 53.5714 66.4286 53.1428 66.7144 52.5714C67.2858 51.4286 67.0001 50.1428 66.0001 49.5714L65.8572 49.4286C64.8572 48.8571 63.5715 49.2857 63.0001 50.2857C62.4286 51.2857 62.8572 52.7143 63.8572 53.2857Z" fill="black"/>
<path d="M69.8572 57.5715C68.7144 57.5715 67.7144 58.5715 67.7144 59.7144C67.7144 59.8573 67.7144 60.0001 67.7144 60.0001C67.7144 61.2858 68.7144 62.143 69.8572 62.143C71.0001 62.143 72.0001 61.143 72.0001 59.8573C72.0001 59.7144 72.0001 59.7144 72.0001 59.7144C72.0001 58.5715 71.0001 57.5715 69.8572 57.5715Z" fill="black"/>
<path d="M50.1429 57.7142C49 57.7142 48 58.7142 48 59.8571V60.1428C48 61.2856 49 62.2856 50.1429 62.2856C51.4286 62.2856 52.2857 61.2856 52.2857 59.9999V59.8571C52.2857 58.7142 51.2857 57.7142 50.1429 57.7142Z" fill="black"/>
<path d="M63.8572 66.7143L63.7144 66.8572C62.7144 67.4286 62.4286 68.7143 63.0001 69.7144C63.4286 70.2858 64.1429 70.7144 64.8572 70.7144C65.2858 70.7144 65.7143 70.7144 66.1429 70.4286C67.1429 69.7144 67.4286 68.4286 66.8572 67.4286C66.1429 66.4286 64.8572 66.1429 63.8572 66.7143Z" fill="black"/>
<path d="M12.7143 47.1429H12.8571C13.1429 47.1429 13.4286 46.8572 13.5714 46.7143L13.7143 46.2857C13.8571 46 13.7143 45.5714 13.2857 45.4286C13 45.2857 12.5714 45.4286 12.4286 45.8571L12.2857 46.2857C12.1429 46.5714 12.2857 47 12.7143 47.1429Z" fill="black"/>
<path d="M11.8572 51.2858C12.2857 51.2858 12.5715 51.0001 12.5715 50.5715C12.5715 50.1429 12.7143 49.5715 12.8572 49.0001C12.8572 48.5715 12.7143 48.2858 12.2857 48.1429C11.8572 48.1429 11.5715 48.2858 11.4286 48.7144C11.4286 49.2858 11.2857 49.8572 11.1429 50.4287C11.1429 50.8572 11.2857 51.1429 11.8572 51.2858Z" fill="black"/>
<path d="M55.1429 109L54.4286 108.857C54 108.714 53.5715 109 53.5715 109.429C53.4286 109.857 53.7143 110.286 54.1429 110.286L55 110.429C55.4286 110.429 55.7143 110.286 55.7143 109.714C55.8572 109.429 55.5715 109 55.1429 109Z" fill="black"/>
<path d="M61.2857 109.286C60.1429 109.286 59 109.286 57.8572 109.286C57.4286 109.286 57.1429 109.572 57.1429 110C57.1429 110.429 57.4286 110.714 57.8572 110.714C58.5714 110.714 59.2857 110.714 60 110.714C60.4286 110.714 60.8572 110.714 61.2857 110.714C61.7143 110.714 62 110.429 62 110C62 109.572 61.7143 109.286 61.2857 109.286Z" fill="black"/>
<path d="M108.143 46.9999C108 46.5714 107.714 46.2857 107.286 46.4285C106.857 46.5714 106.571 46.8571 106.714 47.2857C106.857 47.8571 107 48.5714 107.143 49.1428C107.286 49.4285 107.571 49.7142 107.857 49.7142C107.857 49.7142 107.857 49.7142 108 49.7142C108.429 49.5714 108.714 49.2857 108.571 48.8571C108.429 48.2857 108.286 47.5714 108.143 46.9999Z" fill="black"/>
</svg>
