<svg width="170" height="170" viewBox="0 0 170 170" fill="none" xmlns="http://www.w3.org/2000/svg">
<g clip-path="url(#clip0)">
<path d="M90.5966 40.3027C92.1411 38.7582 92.2376 36.3448 90.5966 34.7038C88.9555 33.0627 86.4456 33.2558 84.9011 34.8003C83.3566 36.3448 83.3566 38.8547 84.9011 40.3992C86.4456 41.9438 89.052 41.8472 90.5966 40.3027ZM85.6734 35.5726C86.8318 34.4142 88.6659 34.5107 89.7278 35.5726C90.7896 36.6344 90.6931 38.4686 89.6312 39.5304C88.5694 40.5923 86.9283 40.6888 85.7699 39.5304C84.6115 38.372 84.515 36.731 85.6734 35.5726Z" fill="black"/>
<path d="M135.002 79.1092C133.457 77.5646 130.851 77.6612 129.306 79.2057C127.762 80.7502 127.762 83.2601 129.306 84.8046C130.947 86.4457 133.361 86.5422 135.002 84.9012C136.643 83.2601 136.546 80.6537 135.002 79.1092ZM130.175 83.9358C129.113 82.874 128.92 81.1364 130.079 79.978C131.237 78.8196 133.071 78.9161 134.133 79.978C135.291 81.1364 135.388 82.7774 134.23 83.9358C133.071 85.0942 131.237 84.9977 130.175 83.9358Z" fill="black"/>
<path d="M149.482 99.3811C159.039 89.8243 159.039 74.1859 149.482 64.6291C149.227 64.3744 148.967 64.1278 148.704 63.8865C148.65 63.8097 148.588 63.7352 148.517 63.6638L106.042 21.1891C105.97 21.1169 105.895 21.0539 105.817 20.9998C105.577 20.7374 105.331 20.4779 105.077 20.2238C95.5197 10.667 79.9779 10.5704 70.4211 20.1272C61.4144 29.1339 60.8974 43.5411 68.8669 53.1694C68.9295 53.3311 69.0279 53.4861 69.1661 53.6243L82.4165 68.4761C79.8436 68.3641 77.2361 69.3016 75.2479 71.2897C71.4831 75.0545 71.5796 81.1361 75.2479 84.8044C76.1484 85.7049 77.1946 86.3887 78.3159 86.8546L50.3314 98.8481C47.7985 99.6935 45.4148 101.123 43.3919 103.146C36.4415 110.097 36.538 121.391 43.3919 128.245C50.2458 135.099 61.5402 135.195 68.4906 128.245C70.3617 126.374 71.7243 124.193 72.588 121.872L81.1153 107.756C81.3531 108.179 81.6461 108.579 82.0053 108.938C84.129 111.062 87.6042 111.062 89.7279 108.938C91.3383 107.328 91.7246 104.941 90.8929 102.955L128.148 106.235C128.277 106.254 128.409 106.247 128.539 106.22C135.956 107.345 143.783 105.08 149.482 99.3811ZM71.9656 21.8648C80.6536 13.1768 94.7475 13.1768 103.435 21.8648C103.52 21.9491 103.598 22.0372 103.68 22.1228C103.671 22.4712 103.813 22.8211 104.111 23.1198L106.097 25.1061C111.882 33.713 110.922 45.6552 103.339 53.2382C95.387 61.1901 82.8071 61.8587 74.0893 55.0263L71.2899 51.8867C71.0472 51.5472 70.7069 51.3539 70.3549 51.3194C63.4092 42.5973 63.8911 29.9393 71.9656 21.8648ZM77.0819 82.9705C74.3789 80.2675 74.3789 75.827 77.0819 73.1241C79.4026 70.8033 83.0034 70.4771 85.6865 72.1418L86.7352 73.3171C86.9252 73.5072 87.1753 73.6361 87.4377 73.6946C89.618 76.419 89.4489 80.4498 86.9283 82.9705C86.5514 83.3473 86.1398 83.6696 85.705 83.9414C85.4371 83.8968 85.1554 83.9235 84.9011 84.0323L82.7413 84.9579C80.7188 85.1696 78.6194 84.508 77.0819 82.9705ZM45.0328 126.604C39.0477 120.618 39.0477 110.965 45.0328 104.98C45.9491 104.064 46.9521 103.289 48.014 102.653C48.2893 102.713 48.5913 102.672 48.8941 102.47L52.7841 100.803C57.6398 99.8118 62.8786 101.202 66.6563 104.98C70.7203 109.044 72.024 114.947 70.4754 120.182L69.7453 121.391C69.5219 121.726 69.4963 122.124 69.586 122.477C68.8662 123.968 67.8931 125.367 66.6563 126.604C60.6712 132.589 51.0179 132.589 45.0328 126.604ZM87.8936 103.049C89.1485 104.304 89.052 106.138 87.8936 107.297C86.7352 108.455 84.8045 108.455 83.6461 107.297C83.0209 106.672 82.7362 105.822 82.7858 104.989L83.5496 103.725C83.6957 103.506 83.7447 103.245 83.7182 102.985C84.0658 102.659 84.4753 102.43 84.9112 102.303C85.0828 102.4 85.268 102.47 85.3837 102.47L87.3872 102.647C87.5672 102.76 87.7379 102.894 87.8936 103.049ZM87.3093 99.8187C85.4786 99.3221 83.4357 99.7846 82.0051 101.215C81.4406 101.78 81.0309 102.441 80.7665 103.146L73.6836 114.871C73.4858 110.613 71.7552 106.411 68.4904 103.146C65.7716 100.427 62.4024 98.777 58.8923 98.1852L84.192 87.3425C85.863 86.9551 87.453 86.114 88.7624 84.8046C92.5272 81.0398 92.5272 75.0547 88.7624 71.2899C88.4956 71.0231 88.2168 70.7775 87.9294 70.5486L78.8951 60.4162C87.6679 63.8299 98.0089 62.0435 105.077 54.9758C111.779 48.2731 113.78 38.5793 111.081 30.0896L139.576 58.585C131.13 55.8859 121.513 57.8458 114.826 64.5326C105.27 74.0894 105.27 89.7278 114.826 99.2846C116.143 100.601 117.574 101.737 119.087 102.695L87.3093 99.8187ZM129.104 103.814C128.894 103.641 128.631 103.532 128.341 103.532L127.008 103.411C123.177 102.484 119.545 100.528 116.564 97.547C107.973 88.9555 107.876 75.1513 116.564 66.4633C124.409 58.6178 136.505 57.8593 145.104 64.1121L146.586 65.5945C146.823 65.8316 147.093 65.9663 147.368 66.0092C147.494 66.1288 147.621 66.2438 147.744 66.3667C156.432 75.0547 156.336 89.0521 147.744 97.6435C142.673 102.715 135.719 104.756 129.104 103.814Z" fill="black"/>
<path d="M146.779 96.099L146.875 92.3342L150.447 90.8862C150.737 90.7896 150.93 90.4035 150.833 90.1139L149.578 86.5422L152.378 84.1288C152.668 84.0323 152.764 83.5496 152.474 83.26L150.158 80.364L151.992 77.1784C152.088 76.8888 152.088 76.5027 151.702 76.3096L148.517 74.4755L149.096 70.8072C149.096 70.4211 148.806 70.1315 148.517 70.035L144.848 69.2627L144.173 65.691C144.173 65.3048 143.786 65.1118 143.4 65.1118L139.732 65.691L137.898 62.5054C137.705 62.1192 137.415 62.0227 137.029 62.2158L133.843 64.0499L130.947 61.7331C130.754 61.54 130.368 61.54 130.079 61.8296L127.665 64.6291L124.094 63.3741C123.804 63.2776 123.418 63.4707 123.321 63.7603L121.97 67.2355L118.205 67.332C117.819 67.332 117.529 67.6216 117.529 68.0078L117.433 71.7726L113.958 73.124C113.668 73.2206 113.475 73.6067 113.571 73.8963L114.826 77.468L112.027 79.8814C111.737 79.9779 111.641 80.4606 111.93 80.7502L114.247 83.6462L112.413 86.8318C112.317 87.1214 112.317 87.5075 112.703 87.7006L115.792 89.6312L115.213 93.2995C115.213 93.4926 115.213 93.6856 115.406 93.8787C115.502 93.9752 115.695 93.9752 115.792 93.8787L119.46 94.651L120.136 98.4158C120.136 98.8019 120.522 98.995 120.908 98.995L124.576 98.4158L126.41 101.601C126.603 101.988 126.893 102.084 127.279 101.891L130.465 100.057L133.361 102.374C133.554 102.567 133.94 102.567 134.23 102.277L136.643 99.4776L140.215 100.733C140.504 100.829 140.89 100.636 140.987 100.346L142.338 96.8712L146.103 96.7747C146.489 96.7747 146.779 96.4851 146.779 96.099ZM141.952 95.5198C141.759 95.5198 141.47 95.6163 141.373 95.9059L140.311 99.0915L137.029 97.9331C136.739 97.8366 136.45 97.9331 136.257 98.1262L133.94 100.829L131.141 98.6088C130.851 98.5123 130.658 98.5123 130.368 98.6088L127.279 100.346L125.349 97.2574C125.155 97.0643 124.962 96.8712 124.673 96.9678L121.198 97.547L120.618 94.0718C120.618 93.8787 120.522 93.7822 120.425 93.6856C120.329 93.5891 120.232 93.4926 119.943 93.5891L116.467 93.0099L117.047 89.5347C117.143 89.2451 117.047 88.9555 116.757 88.859L113.765 87.0248L115.502 83.9358C115.695 83.7427 115.695 83.3566 115.502 83.1635L113.282 80.364L115.985 78.0472C116.178 77.8542 116.274 77.5646 116.178 77.275L115.019 73.9928L118.398 72.7379C118.591 72.7379 118.784 72.3518 118.784 72.1587L118.784 68.6835L122.356 68.587C122.549 68.587 122.839 68.4904 122.935 68.2008L124.19 64.8222L127.279 66.1736C127.569 66.2702 127.858 66.1736 128.051 65.9806L130.368 63.2776L133.168 65.4979C133.457 65.5944 133.65 65.5944 133.94 65.4979L137.029 63.7603L139.056 66.9459C139.249 67.139 139.442 67.332 139.732 67.2355L143.207 66.6563L143.786 70.1315C143.786 70.3246 143.979 70.5176 144.269 70.6142L147.744 71.1934L147.165 74.6686C147.069 74.9582 147.165 75.2478 147.455 75.3443L150.447 77.1784L148.903 80.0744C148.71 80.2675 148.71 80.6536 148.903 80.8467L151.123 83.6462L148.42 85.963C148.227 86.156 148.13 86.4456 148.227 86.7352L149.385 90.0174L146.007 91.2723C145.717 91.3688 145.621 91.6584 145.427 92.0446L145.427 95.5198H141.952Z" fill="black"/>
<path d="M75.0547 50.2457L75.6339 53.7209C75.6339 54.107 76.02 54.3001 76.4062 54.3001L80.0744 53.7209L81.9086 56.9065C82.1016 57.2926 82.3912 57.3891 82.7774 57.1961L85.963 55.3619L88.859 57.6787C89.052 57.8718 89.4382 57.8718 89.7278 57.5822L92.1411 54.7827L95.7128 56.0377C96.0024 56.1342 96.3886 55.9411 96.4851 55.6515L97.8366 52.1763L101.601 52.0798C101.987 52.0798 102.277 51.7902 102.277 51.4041L102.374 47.6393L105.849 46.2878C106.138 46.1913 106.331 45.8051 106.235 45.5155L104.98 41.9438L107.779 39.5305C108.069 39.4339 108.166 38.9513 107.876 38.6617L105.559 35.7657L107.393 32.5801C107.49 32.2905 107.49 31.9043 107.104 31.7113L103.918 29.8771L104.497 26.2089C104.497 25.8227 104.208 25.5331 103.918 25.4366L100.346 24.7609L99.6707 21.1891C99.6707 20.803 99.2846 20.6099 98.8984 20.6099L95.2302 21.1891L93.396 18.0035C93.203 17.6174 92.9134 17.5209 92.5272 17.7139L89.3416 19.5481L86.4456 17.2313C86.2526 17.0382 85.8664 17.0382 85.5768 17.3278L83.1635 20.1273L79.5918 18.8723C79.3022 18.7758 78.916 18.9689 78.8195 19.2585L77.468 22.7337L73.7032 22.8302C73.3171 22.8302 73.0275 23.1198 73.0275 23.5059L72.931 27.2707L69.4558 28.6222C69.1662 28.7187 68.9731 29.1049 69.0696 29.3945L70.3246 32.9662L67.5251 35.3795C67.2355 35.4761 67.139 35.9587 67.4286 36.2483L69.7454 39.1443L67.9112 42.3299C67.8147 42.6195 67.8147 43.0057 68.2008 43.1987L71.2899 45.1294L70.7107 48.7977C70.7107 48.9907 70.7107 49.1838 70.9038 49.3769C71.0003 49.4734 71.1934 49.4734 71.3864 49.4734L75.0547 50.2457ZM72.6414 44.9363C72.7379 44.6467 72.6414 44.3571 72.3518 44.2606L69.3592 42.4265L71.0003 39.4339C71.1934 39.2409 71.1934 38.8547 71.0003 38.6617L68.78 35.8622L71.483 33.5454C71.676 33.3523 71.7726 33.0627 71.676 32.7731L70.5176 29.491L73.8963 28.2361C74.0894 28.2361 74.2824 27.8499 74.2824 27.6569L74.2824 24.1817L77.6611 24.2782C77.8542 24.2782 78.1438 24.1817 78.2403 23.8921L79.4952 20.5134L82.7774 21.6718C83.067 21.7683 83.3566 21.6718 83.5496 21.4787L85.8664 18.7758L88.6659 20.9961C88.9555 21.0926 89.1486 21.0926 89.4382 20.9961L92.5272 19.2585L94.3614 22.251C94.5544 22.4441 94.7475 22.6371 95.0371 22.5406L98.7054 22.1545L99.2846 25.6297C99.2846 25.8227 99.4776 26.0158 99.7672 26.1123L103.242 26.6915L102.663 30.1667C102.567 30.4563 102.663 30.7459 102.953 30.8425L105.945 32.6766L104.304 35.6691C104.111 35.8622 104.111 36.2483 104.304 36.4414L106.621 39.1443L103.918 41.4611C103.725 41.6542 103.629 41.9438 103.725 42.2334L104.883 45.5155L101.505 46.7705C101.312 46.7705 101.119 47.1566 101.119 47.3497L101.119 50.8249L97.6435 50.8249C97.4504 50.8249 97.1608 50.9214 97.0643 51.211L95.8094 54.5897L92.5272 53.4313C92.2376 53.3347 91.948 53.4313 91.755 53.6243L89.4382 56.3273L86.6387 54.107C86.3491 54.0105 86.156 54.0105 85.8664 54.107L82.7774 55.8446L80.9432 52.8521C80.7502 52.659 80.5571 52.4659 80.2675 52.5625L76.7923 53.1417L76.2131 49.6665C76.2131 49.4734 76.1166 49.3769 76.02 49.2803C75.9235 49.1838 75.827 49.0873 75.5374 48.9907L72.0622 48.4115L72.6414 44.9363Z" fill="black"/>
<path d="M83.9357 76.1166C82.8738 75.0547 81.1362 75.0547 80.0744 76.1166C79.0125 77.1785 79.0125 78.916 80.0744 79.9779C81.0397 80.9432 82.8738 81.0398 83.9357 79.9779C84.9976 78.916 84.9976 77.1784 83.9357 76.1166ZM80.557 79.4952C79.7848 78.723 79.7848 77.5646 80.557 76.7923C81.3293 76.02 82.4877 76.02 83.26 76.7923C83.9357 77.468 84.0322 78.723 83.26 79.4952C82.4877 80.2675 81.3293 80.2675 80.557 79.4952Z" fill="black"/>
<path d="M58.3544 113.282C57.0029 111.93 54.8792 111.93 53.5277 113.282C52.1763 114.633 52.1763 116.757 53.5277 118.109C54.7827 119.363 57.0029 119.46 58.3544 118.109C59.7059 116.757 59.7059 114.633 58.3544 113.282ZM54.3965 117.24C53.6243 116.467 53.6243 115.116 54.3965 114.344C55.1688 113.571 56.5203 113.571 57.2925 114.344C58.0648 115.116 58.0648 116.467 57.2925 117.24C56.5203 118.012 55.1688 118.012 54.3965 117.24Z" fill="black"/>
<path d="M65.3048 121.584L68.2973 120.522C68.4904 120.522 68.6835 120.329 68.6835 120.136C68.8765 119.943 68.78 119.653 68.6835 119.557L66.9459 116.854L69.1661 114.633C69.3592 114.44 69.3592 114.247 69.3592 114.054C69.3592 113.861 69.1661 113.668 69.0696 113.572L66.3667 111.834L67.4285 108.841C67.6216 108.648 67.5251 108.359 67.4285 108.262C67.332 108.166 67.1389 107.973 66.9459 107.973L63.8568 107.586L63.4707 104.497C63.4707 104.304 63.2776 104.111 63.1811 104.015C62.988 104.015 62.7949 104.015 62.6019 104.015L59.6093 105.077L57.8717 102.374C57.7752 102.277 57.5821 102.084 57.4856 101.988C57.2925 101.988 57.0029 102.084 56.9064 102.181L54.6861 104.401L51.9832 102.663C51.7901 102.663 51.5971 102.663 51.404 102.663C51.2109 102.663 51.0179 102.856 51.0179 103.049L49.956 106.042L46.7704 105.752C46.5773 105.752 46.3843 105.752 46.1912 105.945C45.9981 106.138 45.9981 106.332 45.9981 106.525L46.2877 109.71L43.2952 110.772C43.1021 110.772 42.9091 110.965 42.9091 111.158C42.716 111.351 42.8125 111.641 42.9091 111.737L44.6467 114.44L42.4264 116.661C42.2333 116.854 42.2333 117.047 42.2333 117.24C42.2333 117.433 42.4264 117.626 42.5229 117.722L45.2259 119.46L44.164 122.453C43.9709 122.646 44.0675 122.935 44.164 123.032L44.2605 123.128C44.3571 123.225 44.5501 123.225 44.8397 123.321L47.9288 123.708L48.2184 126.893C48.2184 127.086 48.4115 127.279 48.508 127.376C48.7011 127.376 48.8941 127.376 49.0872 127.376L52.0797 126.314L53.8173 129.017C53.9139 129.113 54.1069 129.306 54.3 129.306C54.4931 129.306 54.7827 129.21 54.8792 129.113L57.0995 126.893L59.8024 128.631C59.9955 128.631 60.1885 128.631 60.3816 128.631C60.5747 128.631 60.7677 128.438 60.7677 128.245L61.8296 125.252L64.8221 125.542C65.0152 125.542 65.2083 125.542 65.4013 125.349C65.5944 125.156 65.5944 124.962 65.5944 124.769L65.3048 121.584ZM61.4435 123.901C61.1539 123.997 60.8643 124.094 60.7677 124.383L59.8024 127.086L57.2925 125.542C57.0029 125.445 56.6168 125.445 56.4237 125.638L54.3965 127.665L52.852 125.156C52.6589 124.962 52.3693 124.866 52.0797 124.962L49.3768 125.928L48.9907 123.032C48.8941 122.742 48.7011 122.549 48.4115 122.453L45.5155 122.066L46.4808 119.364C46.5773 119.074 46.5773 118.881 46.3843 118.688L43.8744 117.143L45.9016 115.116C46.1912 114.826 46.0947 114.537 45.9981 114.247L44.4536 111.737L47.1565 110.772C47.4461 110.676 47.7357 110.386 47.6392 110.096L47.3496 107.297L50.2456 107.49C50.5352 107.393 50.8248 107.297 50.9213 107.007L51.8867 104.304L54.3 105.945C54.5896 106.042 54.9757 106.042 55.1688 105.849L57.196 103.822L58.7405 106.332C58.9336 106.525 59.2232 106.621 59.5128 106.525L62.2157 105.559L62.5053 108.359C62.6019 108.648 62.7949 108.841 63.0845 108.938L65.9805 109.324L65.0152 112.027C64.9187 112.317 65.0152 112.606 65.2083 112.799L67.7181 114.344L65.6909 116.371C65.4013 116.661 65.4979 116.95 65.5944 117.24L67.1389 119.75L64.436 120.715C64.1464 120.812 63.8568 121.101 63.9533 121.391L64.2429 124.19L61.4435 123.901Z" fill="black"/>
<path d="M86.6387 48.315C87.2252 48.9014 88.176 48.9014 88.7624 48.315C89.3489 47.7285 89.3489 46.7777 88.7624 46.1913C88.176 45.6048 87.2251 45.6048 86.6387 46.1913C86.0522 46.7777 86.0522 47.7285 86.6387 48.315Z" fill="black"/>
<path d="M76.9853 38.6617C77.5718 39.2481 78.5226 39.2481 79.1091 38.6617C79.6955 38.0752 79.6955 37.1244 79.1091 36.5379C78.5226 35.9515 77.5718 35.9515 76.9853 36.5379C76.3989 37.1244 76.3989 38.0752 76.9853 38.6617Z" fill="black"/>
<path d="M96.292 38.6617C96.8784 39.2481 97.8293 39.2481 98.4157 38.6617C99.0022 38.0752 99.0022 37.1244 98.4157 36.5379C97.8293 35.9515 96.8784 35.9515 96.292 36.5379C95.7055 37.1244 95.7055 38.0752 96.292 38.6617Z" fill="black"/>
<path d="M86.6386 29.0084C87.2251 29.5948 88.1759 29.5948 88.7624 29.0084C89.3488 28.4219 89.3488 27.4711 88.7624 26.8846C88.1759 26.2982 87.2251 26.2982 86.6386 26.8846C86.0522 27.4711 86.0522 28.4219 86.6386 29.0084Z" fill="black"/>
<path d="M131.044 92.7203C131.63 93.3067 132.581 93.3067 133.168 92.7203C133.754 92.1338 133.754 91.183 133.168 90.5965C132.581 90.0101 131.63 90.0101 131.044 90.5965C130.458 91.183 130.458 92.1338 131.044 92.7203Z" fill="black"/>
<path d="M121.391 83.0669C121.977 83.6534 122.928 83.6534 123.514 83.067C124.101 82.4805 124.101 81.5297 123.514 80.9432C122.928 80.3568 121.977 80.3568 121.391 80.9432C120.804 81.5297 120.804 82.4805 121.391 83.0669Z" fill="black"/>
<path d="M140.697 83.067C141.284 83.6534 142.235 83.6534 142.821 83.067C143.408 82.4805 143.408 81.5297 142.821 80.9432C142.235 80.3568 141.284 80.3568 140.697 80.9432C140.111 81.5297 140.111 82.4805 140.697 83.067Z" fill="black"/>
<path d="M131.044 73.4136C131.63 74.0001 132.581 74.0001 133.168 73.4136C133.754 72.8272 133.754 71.8764 133.168 71.2899C132.581 70.7034 131.63 70.7034 131.044 71.2899C130.458 71.8763 130.458 72.8272 131.044 73.4136Z" fill="black"/>
</g>
<defs>
<clipPath id="clip0">
<rect width="120" height="120" fill="white" transform="translate(84.8528) rotate(45)"/>
</clipPath>
</defs>
</svg>
