<svg width="120" height="120" viewBox="0 0 120 120" fill="none" xmlns="http://www.w3.org/2000/svg">
<g clip-path="url(#clip0)">
<path d="M96.3143 88.523C97.1312 88.5223 97.8682 88.0318 98.1845 87.2785L119.84 35.6392C120.273 34.6054 119.786 33.4167 118.752 32.9843C118.673 32.9511 118.591 32.9232 118.509 32.9001L113.8 31.6013C78.1351 21.7665 40.4731 21.7665 4.80793 31.6013L1.48978 32.5166C0.409601 32.8146 -0.224456 33.9318 0.0735512 35.0122C0.0920657 35.0792 0.113877 35.1454 0.13924 35.21L9.65922 59.6081V59.6098L20.4364 87.225C20.7661 88.0685 21.6145 88.5918 22.5161 88.5076C22.5757 88.5017 22.6356 88.4934 22.6952 88.4822C29.5823 87.2047 36.5316 86.2866 43.5143 85.7322L47.2933 94.5419C47.7349 95.5718 48.9279 96.0486 49.9579 95.6071C50.9878 95.1655 51.4646 93.9725 51.0231 92.9426L47.8036 85.4373C60.7761 84.6891 73.7905 85.2088 86.6622 86.9884L89.9019 94.5419C90.3435 95.5718 91.5365 96.0486 92.5665 95.6071C93.5965 95.1655 94.0733 93.9725 93.6317 92.9426L91.3811 87.6952C92.9028 87.942 94.4233 88.2063 95.9422 88.488C96.065 88.5111 96.1895 88.523 96.3143 88.523ZM112.721 35.5124L115.206 36.1971L106.611 56.693C101.353 55.4462 96.0523 54.4097 90.7102 53.5836L97.2248 31.8975C102.425 32.8973 107.59 34.1022 112.721 35.5124ZM93.2071 31.1651L86.6477 52.9993C84.0988 52.6579 81.544 52.3647 78.9835 52.12L85.6081 30.0152C88.1469 30.35 90.6798 30.7332 93.2071 31.1651ZM81.52 29.5206L74.8542 51.7629C72.2549 51.5661 69.6524 51.4203 67.047 51.3252L73.8009 28.8125C76.378 28.9984 78.951 29.2343 81.52 29.5206ZM69.6408 28.5569L62.8493 51.1946C58.8065 51.1233 54.7749 51.1692 50.8136 51.3297L57.7182 28.3144C61.7703 28.2807 65.7667 28.3603 69.6408 28.5564V28.5569ZM53.4637 28.3733L46.504 51.5724C43.7882 51.7406 41.0762 51.9612 38.3683 52.2344L45.4086 28.7661C48.0914 28.5802 50.7766 28.4491 53.4637 28.3728V28.3733ZM41.0615 29.1341L33.9855 52.7152C32.7348 52.873 31.4368 53.0518 30.0528 53.2562C30.015 53.2618 29.9767 53.2669 29.9392 53.2722L37.0581 29.543C38.4099 29.3923 39.7468 29.2553 41.0618 29.1344L41.0615 29.1341ZM4.73742 35.8294L5.88735 35.5121C14.6807 33.0875 23.6288 31.2648 32.6699 30.0568L25.4962 53.961C21.2391 54.6696 17.0072 55.5142 12.8001 56.4944L4.73742 35.8294ZM89.4956 83.2988L84.9266 72.6468L95.3028 75.4135C96.3891 75.6884 97.4926 75.0306 97.7675 73.9443C98.0374 72.8779 97.4082 71.7906 96.3488 71.4931L65.914 63.3773C64.8278 63.1024 63.7243 63.7603 63.4493 64.8465C63.1795 65.913 63.8087 67.0003 64.8681 67.2978L79.9409 71.3171L84.8031 82.6523C76.3453 81.5853 67.8289 81.0494 59.3041 81.0476C54.9038 81.0476 50.5044 81.1909 46.1061 81.4773L42.3182 72.6471L52.6942 75.4138C53.7731 75.7166 54.8931 75.0874 55.1959 74.0085C55.4988 72.9296 54.8695 71.8096 53.7906 71.5068C53.7739 71.502 53.7569 71.4977 53.7399 71.4934L23.3051 63.3776C22.2189 63.1027 21.1154 63.7606 20.8404 64.8468C20.5706 65.9133 21.1998 67.0008 22.2592 67.298L37.332 71.3173L41.8287 81.8011C35.7418 82.3254 29.6685 83.1227 23.6092 84.1935L14.2894 60.3093C18.5888 59.3215 22.9174 58.4795 27.2749 57.7828C27.3144 57.779 27.354 57.7797 27.3938 57.7734C28.8364 57.5416 30.1674 57.3384 31.43 57.1569C55.9563 53.7437 80.9014 54.871 105.02 60.4823L95.072 84.207C93.2153 83.8775 91.3565 83.5747 89.4956 83.2988Z" fill="black"/>
</g>
<defs>
<clipPath id="clip0">
<rect width="120" height="120" fill="white"/>
</clipPath>
</defs>
</svg>
